<svg width="66" height="54" viewBox="0 0 66 54" fill="none" xmlns="http://www.w3.org/2000/svg">
<g filter="url(#filter0_d_1_4075)">
<rect width="66" height="52" rx="12" fill="#7B61FF"/>
<rect x="0.5" y="0.5" width="65" height="51" rx="11.5" stroke="white"/>
<path d="M37.6704 33.6662L39.395 36.0268C39.5568 36.2831 39.8679 36.3975 40.1519 36.296C41.2236 35.9132 43.88 34.8758 46.0672 33.2962C46.2378 33.173 46.3363 32.9676 46.335 32.7559C46.335 20.9995 43.0038 17.6662 43.0038 17.6662C43.0038 17.6662 40.3371 16.1357 37.4756 15.6742C37.1942 15.6288 36.9184 15.7796 36.7932 16.038L36.1999 17.2619C36.1999 17.2619 34.7164 16.9515 33.0027 16.9515C31.289 16.9515 29.8055 17.2619 29.8055 17.2619L29.2122 16.038C29.0869 15.7796 28.8113 15.6288 28.5297 15.6742C25.6704 16.1353 23.0037 17.6662 23.0037 17.6662C23.0037 17.6662 19.6704 20.9995 19.6704 32.7559C19.6691 32.9676 19.7676 33.173 19.9381 33.2962C22.1253 34.8758 24.7818 35.9132 25.8534 36.296C26.1374 36.3975 26.4485 36.2831 26.6105 36.0268L28.3371 33.6662" fill="white"/>
<path d="M40.0011 26.3334C40.0011 27.8062 38.9565 29 37.6678 29C36.3791 29 35.3345 27.8062 35.3345 26.3334C35.3345 24.8606 36.3791 23.6667 37.6678 23.6667C38.9565 23.6667 40.0011 24.8606 40.0011 26.3334Z" fill="#7B61FF"/>
<path d="M30.6672 26.3334C30.6672 27.8062 29.6225 29 28.3338 29C27.0452 29 26.0005 27.8062 26.0005 26.3334C26.0005 24.8606 27.0452 23.6667 28.3338 23.6667C29.6225 23.6667 30.6672 24.8606 30.6672 26.3334Z" fill="#7B61FF"/>
</g>
<defs>
<filter id="filter0_d_1_4075" x="0" y="0" width="66" height="54" filterUnits="userSpaceOnUse" color-interpolation-filters="sRGB">
<feFlood flood-opacity="0" result="BackgroundImageFix"/>
<feColorMatrix in="SourceAlpha" type="matrix" values="0 0 0 0 0 0 0 0 0 0 0 0 0 0 0 0 0 0 127 0" result="hardAlpha"/>
<feOffset dy="2"/>
<feComposite in2="hardAlpha" operator="out"/>
<feColorMatrix type="matrix" values="0 0 0 0 1 0 0 0 0 1 0 0 0 0 1 0 0 0 1 0"/>
<feBlend mode="normal" in2="BackgroundImageFix" result="effect1_dropShadow_1_4075"/>
<feBlend mode="normal" in="SourceGraphic" in2="effect1_dropShadow_1_4075" result="shape"/>
</filter>
</defs>
</svg>
