<svg width="506" height="510" viewBox="0 0 506 510" fill="none" xmlns="http://www.w3.org/2000/svg">
<g filter="url(#filter0_d_1_5045)">
<rect width="503" height="507" rx="6" fill="white" fill-opacity="0.07" shape-rendering="crispEdges"/>
<rect x="0.673463" y="0.673463" width="501.653" height="505.653" rx="5.32654" stroke="white" stroke-width="1.34693" shape-rendering="crispEdges"/>
<path d="M34.5 25L36.916 15.608C37.252 14.328 38.244 13.544 39.572 13.544C40.932 13.544 41.94 14.328 42.26 15.608L44.644 25H42.084L41.124 21H38.02L37.06 25H34.5ZM39.268 15.88L38.5 19.048H40.676L39.908 15.88H39.268ZM52.2726 18.504V25H49.7926V18.456H47.7126V25H45.2326V16.152H49.9046C51.4726 16.152 52.2726 16.936 52.2726 18.504ZM61.1954 18.504V25H58.7154V21.432H58.2354L57.9634 23C57.8514 23.912 57.1474 25.064 55.9794 25.064H55.4034C53.9794 25.064 53.1634 23.928 53.1634 22.36C53.1634 20.296 54.5554 19.592 56.1554 19.592H58.7154V18.44H54.0594V16.152H58.8434C60.4114 16.152 61.1954 16.936 61.1954 18.504ZM55.1314 23.032H56.6994L56.9874 21.464H55.1314V23.032ZM62.3889 13H64.8529V22.648H66.7889V25H64.8049C63.2209 25 62.3889 24.168 62.3889 22.456V13ZM72.4405 22.232L71.4165 25H69.0005L66.4245 16.152H68.9845L70.5685 22.904H70.9525L72.1685 16.152H74.9205V26.264C74.9205 27.832 74.1365 28.616 72.5685 28.616H67.9925V26.312H72.4405V22.232ZM81.2276 25H80.3156C77.8036 25 76.6836 23.672 76.6836 20.664V18.456H75.7876V16.152H76.6836L78.2516 13.8H79.1636V16.152H81.1636V18.456H79.1636V22.648H81.2276V25ZM81.9279 14.008C81.9279 13.256 82.5839 12.76 83.5599 12.76C84.5359 12.76 85.1919 13.256 85.1919 14.008C85.1919 14.76 84.5359 15.256 83.5599 15.256C82.5839 15.256 81.9279 14.76 81.9279 14.008ZM84.7599 25H82.2799V16.152H84.7599V25ZM88.4775 16.152H91.5495V18.456H88.3335V22.664H91.5495V25H88.4775C86.6855 25 85.8535 23.96 85.8535 22.12V19.032C85.8535 17.192 86.6855 16.152 88.4775 16.152ZM95.2298 21.416C93.5178 21.416 92.3978 20.92 92.3978 18.872C92.3978 16.84 93.5178 16.152 95.2298 16.152H98.8618V18.488H94.8778V19.784H96.5418C98.4298 19.784 99.3578 20.472 99.3578 22.296C99.3578 24.296 98.2378 25 96.5418 25H92.7338V22.632H96.8938V21.416H95.2298Z" fill="white"/>
<path d="M467 23C467 18.8579 463.642 15.5 459.5 15.5C455.358 15.5 452 18.8579 452 23C452 27.1421 455.358 30.5 459.5 30.5C463.642 30.5 467 27.1421 467 23Z" fill="white" fill-opacity="0.08" stroke="white"/>
<path d="M459.682 26.75V23C459.682 22.6465 459.682 22.4697 459.572 22.3598C459.462 22.25 459.285 22.25 458.932 22.25" stroke="white" stroke-linecap="round" stroke-linejoin="round"/>
<path d="M459.494 20H459.501" stroke="white" stroke-linecap="round" stroke-linejoin="round"/>
<g filter="url(#filter1_d_1_5045)">
<rect x="34.5" y="44" width="434" height="200" rx="6.91709" fill="#171A35"/>
<rect x="35.3646" y="44.8646" width="432.271" height="198.271" rx="6.05245" stroke="white" stroke-width="1.72927"/>
<path d="M208.578 152H206.718V145.328C206.718 144.176 207.474 143.408 208.422 143.408C209.154 143.408 210.042 143.876 210.222 145.028L211.194 150.296H211.518L211.302 143.6H213.162V150.308C213.162 151.616 212.418 152.192 211.542 152.192C210.714 152.192 209.934 151.676 209.79 150.644L208.878 145.172H208.554L208.578 152ZM216.209 145.124H216.917C218.297 145.124 219.125 146.144 219.125 147.692V149.672C219.125 151.22 218.297 152.24 216.917 152.24H216.209C214.829 152.24 214.001 151.22 214.001 149.672V147.692C214.001 146.144 214.829 145.124 216.209 145.124ZM215.861 150.44H217.265V146.924H215.861V150.44ZM226.881 143H228.741V152H226.881V149.876H226.641L226.437 150.56C226.185 151.592 225.669 152.048 224.865 152.048H224.673C223.425 152.048 222.837 151.148 222.837 148.88C222.837 146.624 223.389 145.364 224.781 145.364H226.881V143ZM226.881 148.316V147.212H224.649V149.408H226.173L226.881 148.316ZM235.434 147.128V152H233.574V149.324H233.214L233.01 150.5C232.926 151.184 232.398 152.048 231.522 152.048H231.09C230.022 152.048 229.41 151.196 229.41 150.02C229.41 148.472 230.454 147.944 231.654 147.944H233.574V147.08H230.082V145.364H233.67C234.846 145.364 235.434 145.952 235.434 147.128ZM230.886 150.524H232.062L232.278 149.348H230.886V150.524ZM240.169 152H239.485C237.601 152 236.761 151.004 236.761 148.748V147.092H236.089V145.364H236.761L237.937 143.6H238.621V145.364H240.121V147.092H238.621V150.236H240.169V152ZM246.754 147.128V152H244.894V149.324H244.534L244.33 150.5C244.246 151.184 243.718 152.048 242.842 152.048H242.41C241.342 152.048 240.73 151.196 240.73 150.02C240.73 148.472 241.774 147.944 242.974 147.944H244.894V147.08H241.402V145.364H244.99C246.166 145.364 246.754 145.952 246.754 147.128ZM242.206 150.524H243.382L243.598 149.348H242.206V150.524ZM256.574 147.128V152H254.714V149.324H254.354L254.15 150.5C254.066 151.184 253.538 152.048 252.662 152.048H252.23C251.162 152.048 250.55 151.196 250.55 150.02C250.55 148.472 251.594 147.944 252.794 147.944H254.714V147.08H251.222V145.364H254.81C255.986 145.364 256.574 145.952 256.574 147.128ZM252.026 150.524H253.202L253.418 149.348H252.026V150.524ZM258.132 150.692L256.968 145.364H258.828L259.872 150.428H260.232L261.276 145.364H263.124L261.96 150.692C261.732 151.772 260.964 152.192 260.052 152.192C259.128 152.192 258.372 151.772 258.132 150.692ZM269.324 147.128V152H267.464V149.324H267.104L266.9 150.5C266.816 151.184 266.288 152.048 265.412 152.048H264.98C263.912 152.048 263.3 151.196 263.3 150.02C263.3 148.472 264.344 147.944 265.544 147.944H267.464V147.08H263.972V145.364H267.56C268.736 145.364 269.324 145.952 269.324 147.128ZM264.776 150.524H265.952L266.168 149.348H264.776V150.524ZM269.967 143.756C269.967 143.192 270.459 142.82 271.191 142.82C271.923 142.82 272.415 143.192 272.415 143.756C272.415 144.32 271.923 144.692 271.191 144.692C270.459 144.692 269.967 144.32 269.967 143.756ZM272.091 152H270.231V145.364H272.091V152ZM272.88 143H274.728V150.236H276.18V152H274.692C273.504 152 272.88 151.376 272.88 150.092V143ZM282.707 147.128V152H280.847V149.324H280.487L280.283 150.5C280.199 151.184 279.671 152.048 278.795 152.048H278.363C277.295 152.048 276.683 151.196 276.683 150.02C276.683 148.472 277.727 147.944 278.927 147.944H280.847V147.08H277.355V145.364H280.943C282.119 145.364 282.707 145.952 282.707 147.128ZM278.159 150.524H279.335L279.551 149.348H278.159V150.524ZM285.39 143V145.364H287.49C288.882 145.364 289.434 146.624 289.434 148.88C289.434 151.148 288.846 152.048 287.598 152.048H287.406C286.602 152.048 286.086 151.592 285.834 150.56L285.63 149.876H285.39V152H283.53V143H285.39ZM285.39 148.316L286.086 149.408H287.622V147.212H285.39V148.316ZM290.106 143H291.954V150.236H293.406V152H291.918C290.73 152 290.106 151.376 290.106 150.092V143ZM296.61 145.364H297.246C298.566 145.364 299.37 146.168 299.37 147.464C299.37 148.82 298.482 149.372 296.994 149.372H295.854V150.236H299.466V152H296.214C294.726 152 293.994 151.472 293.994 149.984V148.28C293.994 146.276 294.786 145.364 296.61 145.364ZM297.906 147.224H295.866V148.316H297.906V147.224Z" fill="white" fill-opacity="0.3"/>
</g>
<rect x="35.1135" y="256.613" width="139.773" height="62.7731" rx="3.47629" fill="#204AF8"/>
<rect x="35.1135" y="256.613" width="139.773" height="62.7731" rx="3.47629" stroke="white" stroke-width="1.22693"/>
<g filter="url(#filter2_d_1_5045)">
<rect x="46.5" y="272" width="30" height="30" rx="15" fill="#F6851B"/>
<rect x="47" y="272.5" width="29" height="29" rx="14.5" stroke="white"/>
<path d="M68.1667 287.833V283.667H64" stroke="white" stroke-linecap="round" stroke-linejoin="round"/>
<path d="M68.1673 283.667L64.0007 287.834C63.2652 288.569 62.8975 288.937 62.4462 288.977C62.3715 288.984 62.2965 288.984 62.2218 288.977C61.7705 288.937 61.4028 288.569 60.6673 287.834C59.9318 287.098 59.5641 286.73 59.1128 286.69C59.0382 286.683 58.9631 286.683 58.8885 286.69C58.4372 286.73 58.0695 287.098 57.334 287.834L54.834 290.334" stroke="white" stroke-linecap="round" stroke-linejoin="round"/>
</g>
<path d="M92.8423 275.294C92.6603 274.342 91.9323 272.914 89.8463 272.914C87.4663 272.914 86.4723 274.972 86.4723 276.988C86.4723 279.018 87.4663 281.076 89.8463 281.076C91.9463 281.076 92.7583 279.648 92.8423 278.388H94.1023C93.8783 280.6 92.3103 282.196 89.8463 282.196C87.1023 282.196 85.2123 280.012 85.2123 276.988C85.2123 273.978 87.1023 271.794 89.8463 271.794C92.2963 271.794 93.8643 273.39 94.1023 275.294H92.8423ZM100.08 274.86H101.2V282H100.08V281.146H100.052C99.6741 281.65 98.9181 282.196 97.7001 282.196C96.3981 282.196 95.3061 281.482 95.3061 279.844V274.86H96.4261V279.564C96.4261 280.488 96.8601 281.216 97.9801 281.216C99.2401 281.216 100.08 280.418 100.08 279.312V274.86ZM105.867 274.664C106.133 274.664 106.329 274.678 106.525 274.706V275.826H106.497C104.943 275.574 103.865 276.666 103.865 278.192V282H102.745V274.86H103.865V276.274H103.893C104.271 275.336 104.845 274.664 105.867 274.664ZM110.665 274.664C110.931 274.664 111.127 274.678 111.323 274.706V275.826H111.295C109.741 275.574 108.663 276.666 108.663 278.192V282H107.543V274.86H108.663V276.274H108.691C109.069 275.336 109.643 274.664 110.665 274.664ZM115.107 281.216C116.535 281.216 117.067 280.292 117.193 279.802H118.313C117.949 281.132 116.927 282.196 115.149 282.196C112.979 282.196 111.663 280.67 111.663 278.43C111.663 276.05 113.007 274.664 115.093 274.664C117.333 274.664 118.425 276.19 118.425 278.724H112.783C112.783 280.012 113.553 281.216 115.107 281.216ZM115.093 275.644C113.749 275.644 112.783 276.596 112.783 277.744H117.305C117.305 276.596 116.437 275.644 115.093 275.644ZM123.034 274.664C124.336 274.664 125.428 275.378 125.428 277.016V282H124.308V277.296C124.308 276.372 123.874 275.644 122.754 275.644C121.494 275.644 120.654 276.442 120.654 277.548V282H119.534V274.86H120.654V275.714H120.682C121.06 275.21 121.816 274.664 123.034 274.664ZM129.901 275.84H128.501V280.138C128.501 280.95 128.949 281.09 129.901 281.02V282C129.649 282.056 129.355 282.084 129.061 282.084C128.109 282.084 127.381 281.706 127.381 280.25V275.84H126.331V274.86H127.381V272.48H128.501V274.86H129.901V275.84ZM137.291 274.664C139.055 274.664 140.483 276.078 140.483 278.43C140.483 280.782 139.055 282.196 137.291 282.196C136.115 282.196 135.443 281.692 135.023 281.076H134.995V284.408H133.875V274.86H134.995V275.742H135.023C135.443 275.196 136.115 274.664 137.291 274.664ZM137.151 281.216C138.621 281.216 139.363 279.83 139.363 278.43C139.363 277.03 138.621 275.644 137.151 275.644C135.821 275.644 134.995 276.75 134.995 278.43C134.995 280.11 135.821 281.216 137.151 281.216ZM144.777 274.664C145.043 274.664 145.239 274.678 145.435 274.706V275.826H145.407C143.853 275.574 142.775 276.666 142.775 278.192V282H141.655V274.86H142.775V276.274H142.803C143.181 275.336 143.755 274.664 144.777 274.664ZM147.154 273.474C146.846 273.474 146.454 273.236 146.454 272.802C146.454 272.368 146.846 272.13 147.154 272.13C147.476 272.13 147.854 272.368 147.854 272.802C147.854 273.236 147.476 273.474 147.154 273.474ZM146.594 274.86H147.714V282H146.594V274.86ZM154.461 277.436C154.405 276.652 153.873 275.644 152.445 275.644C150.751 275.644 150.107 277.086 150.107 278.43C150.107 279.774 150.751 281.216 152.445 281.216C153.887 281.216 154.405 280.222 154.461 279.368H155.581C155.483 280.992 154.209 282.196 152.445 282.196C150.359 282.196 148.987 280.67 148.987 278.43C148.987 276.19 150.359 274.664 152.445 274.664C154.209 274.664 155.413 275.84 155.581 277.436H154.461ZM159.691 281.216C161.119 281.216 161.651 280.292 161.777 279.802H162.897C162.533 281.132 161.511 282.196 159.733 282.196C157.563 282.196 156.247 280.67 156.247 278.43C156.247 276.05 157.591 274.664 159.677 274.664C161.917 274.664 163.009 276.19 163.009 278.724H157.367C157.367 280.012 158.137 281.216 159.691 281.216ZM159.677 275.644C158.333 275.644 157.367 276.596 157.367 277.744H161.889C161.889 276.596 161.021 275.644 159.677 275.644Z" fill="white"/>
<path d="M90.0136 304.256C86.7016 304.256 85.1496 301.616 85.1496 298.48C85.1496 295.344 86.7016 292.688 90.0136 292.688C93.3256 292.688 94.8616 295.344 94.8616 298.48C94.8616 301.616 93.3256 304.256 90.0136 304.256ZM90.0136 302.064C91.6296 302.064 92.1416 300.672 92.1416 298.48C92.1416 296.288 91.6296 294.88 90.0136 294.88C88.3976 294.88 87.8696 296.288 87.8696 298.48C87.8696 300.672 88.3976 302.064 90.0136 302.064Z" fill="white"/>
<rect x="182.113" y="256.613" width="138.773" height="62.7731" rx="3.47629" fill="#204AF8"/>
<rect x="182.113" y="256.613" width="138.773" height="62.7731" rx="3.47629" stroke="white" stroke-width="1.22693"/>
<g filter="url(#filter3_d_1_5045)">
<rect x="193.5" y="273" width="30" height="30" rx="15" fill="#F6851B"/>
<rect x="194" y="273.5" width="29" height="29" rx="14.5" stroke="white"/>
<path d="M205.5 283.5C207.985 283.5 210 282.828 210 282C210 281.172 207.985 280.5 205.5 280.5C203.015 280.5 201 281.172 201 282C201 282.828 203.015 283.5 205.5 283.5Z" stroke="white"/>
<path d="M211.125 285.75C208.433 285.75 206.25 287.933 206.25 290.625C206.25 293.317 208.433 295.5 211.125 295.5C213.817 295.5 216 293.317 216 290.625C216 287.933 213.817 285.75 211.125 285.75Z" stroke="white" stroke-linecap="round" stroke-linejoin="round"/>
<path d="M211.125 293.25C211.204 293.25 211.276 293.213 211.423 293.139L212.596 292.542C213.115 292.278 213.375 292.146 213.375 291.937V289.312M211.125 293.25C211.046 293.25 210.974 293.213 210.827 293.139L209.654 292.542C209.135 292.278 208.875 292.146 208.875 291.937V289.312M211.125 293.25V290.625M213.375 289.312C213.375 289.104 213.115 288.972 212.596 288.708L211.423 288.111C211.276 288.037 211.204 288 211.125 288C211.046 288 210.974 288.037 210.827 288.111L209.654 288.708C209.135 288.972 208.875 289.104 208.875 289.312M213.375 289.312C213.375 289.521 213.115 289.653 212.596 289.917L211.423 290.514C211.276 290.588 211.204 290.625 211.125 290.625M208.875 289.312C208.875 289.521 209.135 289.653 209.654 289.917L210.827 290.514C210.974 290.588 211.046 290.625 211.125 290.625" stroke="white" stroke-linejoin="round"/>
<path d="M201 282V285.016V288.033C201 288.56 201.884 289.225 204.097 289.5M201.08 285.411C201.984 286.207 203.594 286.545 205.315 286.545M209.991 282.091V283.602" stroke="white" stroke-linecap="round" stroke-linejoin="round"/>
</g>
<path d="M235.589 282V273.11H232.257V271.99H240.181V273.11H236.849V282H235.589ZM240.771 271.99H242.101L244.957 280.74H244.971L247.827 271.99H249.157L245.657 282H244.271L240.771 271.99ZM250.237 271.99H251.497V280.88H256.747V282H250.237V271.99Z" fill="white"/>
<path d="M237.014 304.256C233.702 304.256 232.15 301.616 232.15 298.48C232.15 295.344 233.702 292.688 237.014 292.688C240.326 292.688 241.862 295.344 241.862 298.48C241.862 301.616 240.326 304.256 237.014 304.256ZM237.014 302.064C238.63 302.064 239.142 300.672 239.142 298.48C239.142 296.288 238.63 294.88 237.014 294.88C235.398 294.88 234.87 296.288 234.87 298.48C234.87 300.672 235.398 302.064 237.014 302.064Z" fill="white"/>
<rect x="328.113" y="256.613" width="139.773" height="62.7731" rx="3.47629" fill="#204AF8"/>
<rect x="328.113" y="256.613" width="139.773" height="62.7731" rx="3.47629" stroke="white" stroke-width="1.22693"/>
<g filter="url(#filter4_d_1_5045)">
<rect x="339.5" y="272" width="32" height="32" rx="16" fill="#F6851B"/>
<rect x="340" y="272.5" width="31" height="31" rx="15.5" stroke="white"/>
<path d="M360.75 280.5V282.75C360.75 285.649 358.399 288 355.5 288M355.5 288C352.601 288 350.25 285.649 350.25 282.75V280.5M355.5 288C358.399 288 360.75 290.35 360.75 293.25V295.5M355.5 288C352.601 288 350.25 290.35 350.25 293.25V295.5" stroke="white"/>
<path d="M349.5 280.5H361.5M361.5 295.5H349.5" stroke="white" stroke-linecap="round"/>
</g>
<path d="M381.969 275.714H380.709C380.709 273.712 381.801 272.13 384.195 272.13C385.847 272.13 387.275 273.18 387.275 275.028C387.275 278.346 382.557 278.542 381.955 280.852V280.88H387.135V282H380.429C380.429 280.25 381.535 278.878 383.313 277.842C385.119 276.792 386.015 276.456 386.015 275.042C386.015 274.23 385.651 273.25 384.167 273.25C382.473 273.25 381.969 274.384 381.969 275.714ZM393.637 282H392.377V279.732H387.715V278.612L392.377 272.326H393.637V278.612H394.967V279.732H393.637V282ZM392.377 274.076L389.003 278.612H392.377V274.076ZM396.218 271.99H397.478V276.246H402.826V271.99H404.086V282H402.826V277.366H397.478V282H396.218V271.99ZM407.971 271.99H409.301L412.157 280.74H412.171L415.027 271.99H416.357L412.857 282H411.471L407.971 271.99ZM419.447 282.196C417.263 282.196 415.947 280.656 415.947 278.43C415.947 276.204 417.263 274.664 419.447 274.664C421.617 274.664 422.933 276.204 422.933 278.43C422.933 280.656 421.617 282.196 419.447 282.196ZM419.447 281.216C421.043 281.216 421.813 279.956 421.813 278.43C421.813 276.904 421.043 275.644 419.447 275.644C417.837 275.644 417.067 276.904 417.067 278.43C417.067 279.956 417.837 281.216 419.447 281.216ZM424.106 271.99H425.226V282H424.106V271.99ZM431.544 274.86H432.664V282H431.544V281.146H431.516C431.138 281.65 430.382 282.196 429.164 282.196C427.862 282.196 426.77 281.482 426.77 279.844V274.86H427.89V279.564C427.89 280.488 428.324 281.216 429.444 281.216C430.704 281.216 431.544 280.418 431.544 279.312V274.86ZM441.67 274.664C443.112 274.664 443.812 275.518 443.812 277.016V282H442.692V277.296C442.692 276.372 442.51 275.644 441.39 275.644C440.27 275.644 439.57 276.442 439.57 277.548V282H438.45V277.296C438.45 276.372 438.268 275.644 437.148 275.644C436.028 275.644 435.328 276.442 435.328 277.548V282H434.208V274.86H435.328V275.714H435.356C435.734 275.21 436.35 274.664 437.428 274.664C438.45 274.664 439.038 275.098 439.332 275.896H439.36C439.85 275.224 440.592 274.664 441.67 274.664ZM448.348 281.216C449.776 281.216 450.308 280.292 450.434 279.802H451.554C451.19 281.132 450.168 282.196 448.39 282.196C446.22 282.196 444.904 280.67 444.904 278.43C444.904 276.05 446.248 274.664 448.334 274.664C450.574 274.664 451.666 276.19 451.666 278.724H446.024C446.024 280.012 446.794 281.216 448.348 281.216ZM448.334 275.644C446.99 275.644 446.024 276.596 446.024 277.744H450.546C450.546 276.596 449.678 275.644 448.334 275.644Z" fill="white"/>
<path d="M385.014 304.256C381.702 304.256 380.15 301.616 380.15 298.48C380.15 295.344 381.702 292.688 385.014 292.688C388.326 292.688 389.862 295.344 389.862 298.48C389.862 301.616 388.326 304.256 385.014 304.256ZM385.014 302.064C386.63 302.064 387.142 300.672 387.142 298.48C387.142 296.288 386.63 294.88 385.014 294.88C383.398 294.88 382.87 296.288 382.87 298.48C382.87 300.672 383.398 302.064 385.014 302.064Z" fill="white"/>
<path d="M42.1876 334.622C42.1876 335.518 41.9076 336.946 39.9056 336.946H37.4136V337.338H39.9056C41.8936 337.338 42.2856 338.29 42.2856 339.368V342H40.1996V338.934H37.4136V342H35.2436V332.2H39.2336C41.1796 332.2 42.1876 333.012 42.1876 334.622ZM37.4136 335.308H40.1996V334.076H37.4136V335.308ZM46 334.258H46.742C48.282 334.258 49.22 335.196 49.22 336.708C49.22 338.29 48.184 338.934 46.448 338.934H45.118V339.942H49.332V342H45.538C43.802 342 42.948 341.384 42.948 339.648V337.66C42.948 335.322 43.872 334.258 46 334.258ZM47.512 336.428H45.132V337.702H47.512V336.428ZM52.4217 334.258H55.1097V336.274H52.2957V339.956H55.1097V342H52.4217C50.8537 342 50.1257 341.09 50.1257 339.48V336.778C50.1257 335.168 50.8537 334.258 52.4217 334.258ZM59.0019 334.258H59.7439C61.2839 334.258 62.2219 335.196 62.2219 336.708C62.2219 338.29 61.1859 338.934 59.4499 338.934H58.1199V339.942H62.3339V342H58.5399C56.8039 342 55.9499 341.384 55.9499 339.648V337.66C55.9499 335.322 56.8739 334.258 59.0019 334.258ZM60.5139 336.428H58.1339V337.702H60.5139V336.428ZM69.4417 336.316V342H67.2717V336.274H65.4517V342H63.2817V334.258H67.3697C68.7417 334.258 69.4417 334.944 69.4417 336.316ZM74.8164 342H74.0184C71.8204 342 70.8404 340.838 70.8404 338.206V336.274H70.0564V334.258H70.8404L72.2124 332.2H73.0104V334.258H74.7604V336.274H73.0104V339.942H74.8164V342ZM79.0938 334.272V332.2H86.6818V334.272H83.9798V342H81.8098V334.272H79.0938ZM89.6235 334.258V335.462H89.7635C90.2255 334.818 90.6455 334.202 91.5135 334.202C92.6755 334.202 93.0395 335.308 93.0395 336.26V338.08H90.8695V336.232H90.3795L89.6235 337.03V342H87.4535V334.258H89.6235ZM100.314 336.316V342H98.1435V338.878H97.7235L97.4855 340.25C97.3875 341.048 96.7715 342.056 95.7495 342.056H95.2455C93.9995 342.056 93.2855 341.062 93.2855 339.69C93.2855 337.884 94.5035 337.268 95.9035 337.268H98.1435V336.26H94.0695V334.258H98.2555C99.6275 334.258 100.314 334.944 100.314 336.316ZM95.0075 340.278H96.3795L96.6315 338.906H95.0075V340.278ZM105.908 331.5H108.078V342H105.908V339.522H105.628L105.39 340.32C105.096 341.524 104.494 342.056 103.556 342.056H103.332C101.876 342.056 101.19 341.006 101.19 338.36C101.19 335.728 101.834 334.258 103.458 334.258H105.908V331.5ZM105.908 337.702V336.414H103.304V338.976H105.082L105.908 337.702ZM112.008 334.258H112.75C114.29 334.258 115.228 335.196 115.228 336.708C115.228 338.29 114.192 338.934 112.456 338.934H111.126V339.942H115.34V342H111.546C109.81 342 108.956 341.384 108.956 339.648V337.66C108.956 335.322 109.88 334.258 112.008 334.258ZM113.52 336.428H111.14V337.702H113.52V336.428ZM118.514 338.864C117.016 338.864 116.036 338.43 116.036 336.638C116.036 334.86 117.016 334.258 118.514 334.258H121.692V336.302H118.206V337.436H119.662C121.314 337.436 122.126 338.038 122.126 339.634C122.126 341.384 121.146 342 119.662 342H116.33V339.928H119.97V338.864H118.514Z" fill="white"/>
<rect x="35.3646" y="354.865" width="432.271" height="31.2707" rx="6.05245" fill="#F6851B" fill-opacity="0.17"/>
<rect x="35.3646" y="354.865" width="432.271" height="31.2707" rx="6.05245" stroke="white" stroke-width="1.72927"/>
<path d="M52.9442 375V367.38H50.0882V366.42H56.8802V367.38H54.0242V375H52.9442ZM58.4084 367.692C58.1444 367.692 57.8084 367.488 57.8084 367.116C57.8084 366.744 58.1444 366.54 58.4084 366.54C58.6844 366.54 59.0084 366.744 59.0084 367.116C59.0084 367.488 58.6844 367.692 58.4084 367.692ZM57.9284 368.88H58.8884V375H57.9284V368.88ZM66.724 368.712C67.96 368.712 68.56 369.444 68.56 370.728V375H67.6V370.968C67.6 370.176 67.444 369.552 66.484 369.552C65.524 369.552 64.924 370.236 64.924 371.184V375H63.964V370.968C63.964 370.176 63.808 369.552 62.848 369.552C61.888 369.552 61.288 370.236 61.288 371.184V375H60.328V368.88H61.288V369.612H61.312C61.636 369.18 62.164 368.712 63.088 368.712C63.964 368.712 64.468 369.084 64.72 369.768H64.744C65.164 369.192 65.8 368.712 66.724 368.712ZM72.4476 374.328C73.6716 374.328 74.1276 373.536 74.2356 373.116H75.1956C74.8836 374.256 74.0076 375.168 72.4836 375.168C70.6236 375.168 69.4956 373.86 69.4956 371.94C69.4956 369.9 70.6476 368.712 72.4356 368.712C74.3556 368.712 75.2916 370.02 75.2916 372.192H70.4556C70.4556 373.296 71.1156 374.328 72.4476 374.328ZM72.4356 369.552C71.2836 369.552 70.4556 370.368 70.4556 371.352H74.3316C74.3316 370.368 73.5876 369.552 72.4356 369.552ZM78.726 371.364C79.818 371.628 81.054 371.808 81.054 373.32C81.054 374.436 80.034 375.168 78.642 375.168C76.77 375.168 75.906 374.28 75.846 372.96H76.806C76.866 373.644 77.106 374.328 78.642 374.328C79.686 374.328 80.094 373.788 80.094 373.38C80.094 372.492 79.29 372.444 78.414 372.228C77.478 372 76.086 371.892 76.086 370.452C76.086 369.492 76.938 368.712 78.378 368.712C79.902 368.712 80.718 369.576 80.814 370.632H79.854C79.758 370.164 79.53 369.552 78.378 369.552C77.514 369.552 77.046 369.9 77.046 370.38C77.046 371.1 77.874 371.16 78.726 371.364ZM84.531 369.72H83.331V373.404C83.331 374.1 83.715 374.22 84.531 374.16V375C84.315 375.048 84.063 375.072 83.811 375.072C82.995 375.072 82.371 374.748 82.371 373.5V369.72H81.471V368.88H82.371V366.84H83.331V368.88H84.531V369.72ZM89.279 370.44C89.279 369.96 89.015 369.552 88.031 369.552C86.867 369.552 86.483 369.888 86.423 370.776H85.463C85.523 369.6 86.255 368.712 88.031 368.712C89.195 368.712 90.239 369.168 90.239 370.644V373.62C90.239 374.1 90.323 374.364 90.935 374.292V374.964C90.683 375.048 90.551 375.06 90.371 375.06C89.795 375.06 89.447 374.904 89.279 374.232H89.255C88.871 374.808 88.187 375.168 87.179 375.168C85.943 375.168 85.163 374.46 85.163 373.428C85.163 372.036 86.195 371.676 87.779 371.376C88.811 371.184 89.279 371.052 89.279 370.44ZM87.275 374.328C88.415 374.328 89.279 373.812 89.279 372.636V371.616C89.099 371.796 88.511 371.964 87.863 372.096C86.675 372.348 86.123 372.648 86.123 373.38C86.123 373.98 86.483 374.328 87.275 374.328ZM98.0482 368.712C99.2842 368.712 99.8842 369.444 99.8842 370.728V375H98.9242V370.968C98.9242 370.176 98.7682 369.552 97.8082 369.552C96.8482 369.552 96.2482 370.236 96.2482 371.184V375H95.2882V370.968C95.2882 370.176 95.1322 369.552 94.1722 369.552C93.2122 369.552 92.6122 370.236 92.6122 371.184V375H91.6522V368.88H92.6122V369.612H92.6362C92.9602 369.18 93.4882 368.712 94.4122 368.712C95.2882 368.712 95.7922 369.084 96.0442 369.768H96.0682C96.4882 369.192 97.1242 368.712 98.0482 368.712ZM104.096 368.712C105.608 368.712 106.832 369.924 106.832 371.94C106.832 373.956 105.608 375.168 104.096 375.168C103.088 375.168 102.512 374.736 102.152 374.208H102.128V377.064H101.168V368.88H102.128V369.636H102.152C102.512 369.168 103.088 368.712 104.096 368.712ZM103.976 374.328C105.236 374.328 105.872 373.14 105.872 371.94C105.872 370.74 105.236 369.552 103.976 369.552C102.836 369.552 102.128 370.5 102.128 371.94C102.128 373.38 102.836 374.328 103.976 374.328Z" fill="white"/>
<path d="M204.255 375V367.38H201.399V366.42H208.191V367.38H205.335V375H204.255ZM210.447 375.168C208.575 375.168 207.447 373.848 207.447 371.94C207.447 370.032 208.575 368.712 210.447 368.712C212.307 368.712 213.435 370.032 213.435 371.94C213.435 373.848 212.307 375.168 210.447 375.168ZM210.447 374.328C211.815 374.328 212.475 373.248 212.475 371.94C212.475 370.632 211.815 369.552 210.447 369.552C209.067 369.552 208.407 370.632 208.407 371.94C208.407 373.248 209.067 374.328 210.447 374.328ZM214.404 366.42H215.364V371.508L218.172 368.88H219.372L216.984 371.148L219.624 375H218.484L216.312 371.712L215.364 372.588V375H214.404V366.42ZM222.516 374.328C223.74 374.328 224.196 373.536 224.304 373.116H225.264C224.952 374.256 224.076 375.168 222.552 375.168C220.692 375.168 219.564 373.86 219.564 371.94C219.564 369.9 220.716 368.712 222.504 368.712C224.424 368.712 225.36 370.02 225.36 372.192H220.524C220.524 373.296 221.184 374.328 222.516 374.328ZM222.504 369.552C221.352 369.552 220.524 370.368 220.524 371.352H224.4C224.4 370.368 223.656 369.552 222.504 369.552ZM229.31 368.712C230.426 368.712 231.362 369.324 231.362 370.728V375H230.402V370.968C230.402 370.176 230.03 369.552 229.07 369.552C227.99 369.552 227.27 370.236 227.27 371.184V375H226.31V368.88H227.27V369.612H227.294C227.618 369.18 228.266 368.712 229.31 368.712ZM238.797 370.44C238.797 369.96 238.533 369.552 237.549 369.552C236.385 369.552 236.001 369.888 235.941 370.776H234.981C235.041 369.6 235.773 368.712 237.549 368.712C238.713 368.712 239.757 369.168 239.757 370.644V373.62C239.757 374.1 239.841 374.364 240.453 374.292V374.964C240.201 375.048 240.069 375.06 239.889 375.06C239.313 375.06 238.965 374.904 238.797 374.232H238.773C238.389 374.808 237.705 375.168 236.697 375.168C235.461 375.168 234.681 374.46 234.681 373.428C234.681 372.036 235.713 371.676 237.297 371.376C238.329 371.184 238.797 371.052 238.797 370.44ZM236.793 374.328C237.933 374.328 238.797 373.812 238.797 372.636V371.616C238.617 371.796 238.029 371.964 237.381 372.096C236.193 372.348 235.641 372.648 235.641 373.38C235.641 373.98 236.001 374.328 236.793 374.328ZM247.566 368.712C248.802 368.712 249.402 369.444 249.402 370.728V375H248.442V370.968C248.442 370.176 248.286 369.552 247.326 369.552C246.366 369.552 245.766 370.236 245.766 371.184V375H244.806V370.968C244.806 370.176 244.65 369.552 243.69 369.552C242.73 369.552 242.13 370.236 242.13 371.184V375H241.17V368.88H242.13V369.612H242.154C242.478 369.18 243.006 368.712 243.93 368.712C244.806 368.712 245.31 369.084 245.562 369.768H245.586C246.006 369.192 246.642 368.712 247.566 368.712ZM253.337 375.168C251.465 375.168 250.337 373.848 250.337 371.94C250.337 370.032 251.465 368.712 253.337 368.712C255.197 368.712 256.325 370.032 256.325 371.94C256.325 373.848 255.197 375.168 253.337 375.168ZM253.337 374.328C254.705 374.328 255.365 373.248 255.365 371.94C255.365 370.632 254.705 369.552 253.337 369.552C251.957 369.552 251.297 370.632 251.297 371.94C251.297 373.248 251.957 374.328 253.337 374.328ZM261.351 368.88H262.311V375H261.351V374.268H261.327C261.003 374.7 260.355 375.168 259.311 375.168C258.195 375.168 257.259 374.556 257.259 373.152V368.88H258.219V372.912C258.219 373.704 258.591 374.328 259.551 374.328C260.631 374.328 261.351 373.644 261.351 372.696V368.88ZM266.635 368.712C267.751 368.712 268.687 369.324 268.687 370.728V375H267.727V370.968C267.727 370.176 267.355 369.552 266.395 369.552C265.315 369.552 264.595 370.236 264.595 371.184V375H263.635V368.88H264.595V369.612H264.619C264.943 369.18 265.591 368.712 266.635 368.712ZM272.521 369.72H271.321V373.404C271.321 374.1 271.705 374.22 272.521 374.16V375C272.305 375.048 272.053 375.072 271.801 375.072C270.985 375.072 270.361 374.748 270.361 373.5V369.72H269.461V368.88H270.361V366.84H271.321V368.88H272.521V369.72Z" fill="white"/>
<path d="M373.562 368.712C374.798 368.712 375.398 369.444 375.398 370.728V375H374.438V370.968C374.438 370.176 374.282 369.552 373.322 369.552C372.362 369.552 371.762 370.236 371.762 371.184V375H370.802V370.968C370.802 370.176 370.646 369.552 369.686 369.552C368.726 369.552 368.126 370.236 368.126 371.184V375H367.166V368.88H368.126V369.612H368.15C368.474 369.18 369.002 368.712 369.926 368.712C370.802 368.712 371.306 369.084 371.558 369.768H371.582C372.002 369.192 372.638 368.712 373.562 368.712ZM379.165 371.364C380.257 371.628 381.493 371.808 381.493 373.32C381.493 374.436 380.473 375.168 379.081 375.168C377.209 375.168 376.345 374.28 376.285 372.96H377.245C377.305 373.644 377.545 374.328 379.081 374.328C380.125 374.328 380.533 373.788 380.533 373.38C380.533 372.492 379.729 372.444 378.853 372.228C377.917 372 376.525 371.892 376.525 370.452C376.525 369.492 377.377 368.712 378.817 368.712C380.341 368.712 381.157 369.576 381.253 370.632H380.293C380.197 370.164 379.969 369.552 378.817 369.552C377.953 369.552 377.485 369.9 377.485 370.38C377.485 371.1 378.313 371.16 379.165 371.364ZM384.884 375V367.38H382.028V366.42H388.82V367.38H385.964V375H384.884ZM391.076 375.168C389.204 375.168 388.076 373.848 388.076 371.94C388.076 370.032 389.204 368.712 391.076 368.712C392.936 368.712 394.064 370.032 394.064 371.94C394.064 373.848 392.936 375.168 391.076 375.168ZM391.076 374.328C392.444 374.328 393.104 373.248 393.104 371.94C393.104 370.632 392.444 369.552 391.076 369.552C389.696 369.552 389.036 370.632 389.036 371.94C389.036 373.248 389.696 374.328 391.076 374.328ZM395.033 366.42H395.993V371.508L398.801 368.88H400.001L397.613 371.148L400.253 375H399.113L396.941 371.712L395.993 372.588V375H395.033V366.42ZM403.145 374.328C404.369 374.328 404.825 373.536 404.933 373.116H405.893C405.581 374.256 404.705 375.168 403.181 375.168C401.321 375.168 400.193 373.86 400.193 371.94C400.193 369.9 401.345 368.712 403.133 368.712C405.053 368.712 405.989 370.02 405.989 372.192H401.153C401.153 373.296 401.813 374.328 403.145 374.328ZM403.133 369.552C401.981 369.552 401.153 370.368 401.153 371.352H405.029C405.029 370.368 404.285 369.552 403.133 369.552ZM409.939 368.712C411.055 368.712 411.991 369.324 411.991 370.728V375H411.031V370.968C411.031 370.176 410.659 369.552 409.699 369.552C408.619 369.552 407.899 370.236 407.899 371.184V375H406.939V368.88H407.899V369.612H407.923C408.247 369.18 408.895 368.712 409.939 368.712ZM419.425 370.44C419.425 369.96 419.161 369.552 418.177 369.552C417.013 369.552 416.629 369.888 416.569 370.776H415.609C415.669 369.6 416.401 368.712 418.177 368.712C419.341 368.712 420.385 369.168 420.385 370.644V373.62C420.385 374.1 420.469 374.364 421.081 374.292V374.964C420.829 375.048 420.697 375.06 420.517 375.06C419.941 375.06 419.593 374.904 419.425 374.232H419.401C419.017 374.808 418.333 375.168 417.325 375.168C416.089 375.168 415.309 374.46 415.309 373.428C415.309 372.036 416.341 371.676 417.925 371.376C418.957 371.184 419.425 371.052 419.425 370.44ZM417.421 374.328C418.561 374.328 419.425 373.812 419.425 372.636V371.616C419.245 371.796 418.657 371.964 418.009 372.096C416.821 372.348 416.269 372.648 416.269 373.38C416.269 373.98 416.629 374.328 417.421 374.328ZM428.195 368.712C429.431 368.712 430.031 369.444 430.031 370.728V375H429.071V370.968C429.071 370.176 428.915 369.552 427.955 369.552C426.995 369.552 426.395 370.236 426.395 371.184V375H425.435V370.968C425.435 370.176 425.279 369.552 424.319 369.552C423.359 369.552 422.759 370.236 422.759 371.184V375H421.799V368.88H422.759V369.612H422.783C423.107 369.18 423.635 368.712 424.559 368.712C425.435 368.712 425.939 369.084 426.191 369.768H426.215C426.635 369.192 427.271 368.712 428.195 368.712ZM433.966 375.168C432.094 375.168 430.966 373.848 430.966 371.94C430.966 370.032 432.094 368.712 433.966 368.712C435.826 368.712 436.954 370.032 436.954 371.94C436.954 373.848 435.826 375.168 433.966 375.168ZM433.966 374.328C435.334 374.328 435.994 373.248 435.994 371.94C435.994 370.632 435.334 369.552 433.966 369.552C432.586 369.552 431.926 370.632 431.926 371.94C431.926 373.248 432.586 374.328 433.966 374.328ZM441.98 368.88H442.94V375H441.98V374.268H441.956C441.632 374.7 440.984 375.168 439.94 375.168C438.824 375.168 437.888 374.556 437.888 373.152V368.88H438.848V372.912C438.848 373.704 439.22 374.328 440.18 374.328C441.26 374.328 441.98 373.644 441.98 372.696V368.88ZM447.264 368.712C448.38 368.712 449.316 369.324 449.316 370.728V375H448.356V370.968C448.356 370.176 447.984 369.552 447.024 369.552C445.944 369.552 445.224 370.236 445.224 371.184V375H444.264V368.88H445.224V369.612H445.248C445.572 369.18 446.22 368.712 447.264 368.712ZM453.15 369.72H451.95V373.404C451.95 374.1 452.334 374.22 453.15 374.16V375C452.934 375.048 452.682 375.072 452.43 375.072C451.614 375.072 450.99 374.748 450.99 373.5V369.72H450.09V368.88H450.99V366.84H451.95V368.88H453.15V369.72Z" fill="white"/>
<path d="M207.578 432H205.718V425.328C205.718 424.176 206.474 423.408 207.422 423.408C208.154 423.408 209.042 423.876 209.222 425.028L210.194 430.296H210.518L210.302 423.6H212.162V430.308C212.162 431.616 211.418 432.192 210.542 432.192C209.714 432.192 208.934 431.676 208.79 430.644L207.878 425.172H207.554L207.578 432ZM215.209 425.124H215.917C217.297 425.124 218.125 426.144 218.125 427.692V429.672C218.125 431.22 217.297 432.24 215.917 432.24H215.209C213.829 432.24 213.001 431.22 213.001 429.672V427.692C213.001 426.144 213.829 425.124 215.209 425.124ZM214.861 430.44H216.265V426.924H214.861V430.44ZM225.881 423H227.741V432H225.881V429.876H225.641L225.437 430.56C225.185 431.592 224.669 432.048 223.865 432.048H223.673C222.425 432.048 221.837 431.148 221.837 428.88C221.837 426.624 222.389 425.364 223.781 425.364H225.881V423ZM225.881 428.316V427.212H223.649V429.408H225.173L225.881 428.316ZM234.434 427.128V432H232.574V429.324H232.214L232.01 430.5C231.926 431.184 231.398 432.048 230.522 432.048H230.09C229.022 432.048 228.41 431.196 228.41 430.02C228.41 428.472 229.454 427.944 230.654 427.944H232.574V427.08H229.082V425.364H232.67C233.846 425.364 234.434 425.952 234.434 427.128ZM229.886 430.524H231.062L231.278 429.348H229.886V430.524ZM239.169 432H238.485C236.601 432 235.761 431.004 235.761 428.748V427.092H235.089V425.364H235.761L236.937 423.6H237.621V425.364H239.121V427.092H237.621V430.236H239.169V432ZM245.754 427.128V432H243.894V429.324H243.534L243.33 430.5C243.246 431.184 242.718 432.048 241.842 432.048H241.41C240.342 432.048 239.73 431.196 239.73 430.02C239.73 428.472 240.774 427.944 241.974 427.944H243.894V427.08H240.402V425.364H243.99C245.166 425.364 245.754 425.952 245.754 427.128ZM241.206 430.524H242.382L242.598 429.348H241.206V430.524ZM255.574 427.128V432H253.714V429.324H253.354L253.15 430.5C253.066 431.184 252.538 432.048 251.662 432.048H251.23C250.162 432.048 249.55 431.196 249.55 430.02C249.55 428.472 250.594 427.944 251.794 427.944H253.714V427.08H250.222V425.364H253.81C254.986 425.364 255.574 425.952 255.574 427.128ZM251.026 430.524H252.202L252.418 429.348H251.026V430.524ZM257.132 430.692L255.968 425.364H257.828L258.872 430.428H259.232L260.276 425.364H262.124L260.96 430.692C260.732 431.772 259.964 432.192 259.052 432.192C258.128 432.192 257.372 431.772 257.132 430.692ZM268.324 427.128V432H266.464V429.324H266.104L265.9 430.5C265.816 431.184 265.288 432.048 264.412 432.048H263.98C262.912 432.048 262.3 431.196 262.3 430.02C262.3 428.472 263.344 427.944 264.544 427.944H266.464V427.08H262.972V425.364H266.56C267.736 425.364 268.324 425.952 268.324 427.128ZM263.776 430.524H264.952L265.168 429.348H263.776V430.524ZM268.967 423.756C268.967 423.192 269.459 422.82 270.191 422.82C270.923 422.82 271.415 423.192 271.415 423.756C271.415 424.32 270.923 424.692 270.191 424.692C269.459 424.692 268.967 424.32 268.967 423.756ZM271.091 432H269.231V425.364H271.091V432ZM271.88 423H273.728V430.236H275.18V432H273.692C272.504 432 271.88 431.376 271.88 430.092V423ZM281.707 427.128V432H279.847V429.324H279.487L279.283 430.5C279.199 431.184 278.671 432.048 277.795 432.048H277.363C276.295 432.048 275.683 431.196 275.683 430.02C275.683 428.472 276.727 427.944 277.927 427.944H279.847V427.08H276.355V425.364H279.943C281.119 425.364 281.707 425.952 281.707 427.128ZM277.159 430.524H278.335L278.551 429.348H277.159V430.524ZM284.39 423V425.364H286.49C287.882 425.364 288.434 426.624 288.434 428.88C288.434 431.148 287.846 432.048 286.598 432.048H286.406C285.602 432.048 285.086 431.592 284.834 430.56L284.63 429.876H284.39V432H282.53V423H284.39ZM284.39 428.316L285.086 429.408H286.622V427.212H284.39V428.316ZM289.106 423H290.954V430.236H292.406V432H290.918C289.73 432 289.106 431.376 289.106 430.092V423ZM295.61 425.364H296.246C297.566 425.364 298.37 426.168 298.37 427.464C298.37 428.82 297.482 429.372 295.994 429.372H294.854V430.236H298.466V432H295.214C293.726 432 292.994 431.472 292.994 429.984V428.28C292.994 426.276 293.786 425.364 295.61 425.364ZM296.906 427.224H294.866V428.316H296.906V427.224Z" fill="white" fill-opacity="0.3"/>
</g>
<defs>
<filter id="filter0_d_1_5045" x="0" y="0" width="505.694" height="509.694" filterUnits="userSpaceOnUse" color-interpolation-filters="sRGB">
<feFlood flood-opacity="0" result="BackgroundImageFix"/>
<feColorMatrix in="SourceAlpha" type="matrix" values="0 0 0 0 0 0 0 0 0 0 0 0 0 0 0 0 0 0 127 0" result="hardAlpha"/>
<feOffset dx="2.69385" dy="2.69385"/>
<feComposite in2="hardAlpha" operator="out"/>
<feColorMatrix type="matrix" values="0 0 0 0 1 0 0 0 0 1 0 0 0 0 1 0 0 0 1 0"/>
<feBlend mode="normal" in2="BackgroundImageFix" result="effect1_dropShadow_1_5045"/>
<feBlend mode="normal" in="SourceGraphic" in2="effect1_dropShadow_1_5045" result="shape"/>
</filter>
<filter id="filter1_d_1_5045" x="34.5" y="44" width="434" height="202" filterUnits="userSpaceOnUse" color-interpolation-filters="sRGB">
<feFlood flood-opacity="0" result="BackgroundImageFix"/>
<feColorMatrix in="SourceAlpha" type="matrix" values="0 0 0 0 0 0 0 0 0 0 0 0 0 0 0 0 0 0 127 0" result="hardAlpha"/>
<feOffset dy="2"/>
<feComposite in2="hardAlpha" operator="out"/>
<feColorMatrix type="matrix" values="0 0 0 0 1 0 0 0 0 1 0 0 0 0 1 0 0 0 1 0"/>
<feBlend mode="normal" in2="BackgroundImageFix" result="effect1_dropShadow_1_5045"/>
<feBlend mode="normal" in="SourceGraphic" in2="effect1_dropShadow_1_5045" result="shape"/>
</filter>
<filter id="filter2_d_1_5045" x="46.5" y="272" width="30" height="31" filterUnits="userSpaceOnUse" color-interpolation-filters="sRGB">
<feFlood flood-opacity="0" result="BackgroundImageFix"/>
<feColorMatrix in="SourceAlpha" type="matrix" values="0 0 0 0 0 0 0 0 0 0 0 0 0 0 0 0 0 0 127 0" result="hardAlpha"/>
<feOffset dy="1"/>
<feComposite in2="hardAlpha" operator="out"/>
<feColorMatrix type="matrix" values="0 0 0 0 1 0 0 0 0 1 0 0 0 0 1 0 0 0 1 0"/>
<feBlend mode="normal" in2="BackgroundImageFix" result="effect1_dropShadow_1_5045"/>
<feBlend mode="normal" in="SourceGraphic" in2="effect1_dropShadow_1_5045" result="shape"/>
</filter>
<filter id="filter3_d_1_5045" x="193.5" y="273" width="30" height="31" filterUnits="userSpaceOnUse" color-interpolation-filters="sRGB">
<feFlood flood-opacity="0" result="BackgroundImageFix"/>
<feColorMatrix in="SourceAlpha" type="matrix" values="0 0 0 0 0 0 0 0 0 0 0 0 0 0 0 0 0 0 127 0" result="hardAlpha"/>
<feOffset dy="1"/>
<feComposite in2="hardAlpha" operator="out"/>
<feColorMatrix type="matrix" values="0 0 0 0 1 0 0 0 0 1 0 0 0 0 1 0 0 0 1 0"/>
<feBlend mode="normal" in2="BackgroundImageFix" result="effect1_dropShadow_1_5045"/>
<feBlend mode="normal" in="SourceGraphic" in2="effect1_dropShadow_1_5045" result="shape"/>
</filter>
<filter id="filter4_d_1_5045" x="339.5" y="272" width="32" height="33" filterUnits="userSpaceOnUse" color-interpolation-filters="sRGB">
<feFlood flood-opacity="0" result="BackgroundImageFix"/>
<feColorMatrix in="SourceAlpha" type="matrix" values="0 0 0 0 0 0 0 0 0 0 0 0 0 0 0 0 0 0 127 0" result="hardAlpha"/>
<feOffset dy="1"/>
<feComposite in2="hardAlpha" operator="out"/>
<feColorMatrix type="matrix" values="0 0 0 0 1 0 0 0 0 1 0 0 0 0 1 0 0 0 1 0"/>
<feBlend mode="normal" in2="BackgroundImageFix" result="effect1_dropShadow_1_5045"/>
<feBlend mode="normal" in="SourceGraphic" in2="effect1_dropShadow_1_5045" result="shape"/>
</filter>
</defs>
</svg>
