<svg width="250" height="77" viewBox="0 0 250 77" fill="none" xmlns="http://www.w3.org/2000/svg">
<mask id="path-1-outside-1_1_580" maskUnits="userSpaceOnUse" x="-7.38587" y="-8.01543" width="264.218" height="93.3843" fill="black">
<rect fill="white" x="-7.38587" y="-8.01543" width="264.218" height="93.3843"/>
<path d="M17.9471 63.6127L5.96125 64.6653L2.21025 21.9496L14.1961 20.8971L15.5902 36.772L35.4816 35.0253L34.0876 19.1504L46.0735 18.0979L49.8245 60.8135L37.8386 61.866L36.4278 45.7998L16.5363 47.5466L17.9471 63.6127ZM71.4963 59.5529C60.3392 60.5326 52.1981 54.8871 51.2856 44.4951C50.3674 34.0393 57.4056 27.1252 68.5626 26.1454C79.7197 25.1657 87.8552 30.7474 88.7733 41.2032C89.6859 51.5952 82.6533 58.5731 71.4963 59.5529ZM70.5669 48.9696C75.9861 48.4937 77.3236 46.8986 76.915 42.2445C76.5063 37.5904 74.9055 36.1891 69.4864 36.6649C64.0672 37.1408 62.7353 38.7997 63.1439 43.4538C63.5526 48.1079 65.1478 49.4455 70.5669 48.9696ZM107.719 56.372C97.9012 57.2342 91.9278 51.3983 91.0152 41.0063C90.097 30.5505 94.84 23.8379 104.276 23.0093C111.863 22.3431 115.746 25.5999 117.173 30.8713L117.81 30.8153L116.153 11.9439L128.139 10.8914L131.89 53.607L120.669 54.5923L119.908 45.9217L119.27 45.9777C118.81 52.4427 115.242 55.7114 107.719 56.372ZM103.129 39.9426C103.504 44.2142 105.545 45.5126 111.092 45.0255C116.447 44.5552 118.908 43.3112 118.499 38.6571L118.46 38.2108C118.062 33.6842 115.434 33.0156 110.078 33.4859C104.532 33.973 102.753 35.671 103.129 39.9426ZM147.698 52.2189L135.712 53.2714L131.961 10.5558L143.947 9.50326L147.698 52.2189ZM160.433 15.7651L148.447 16.8176L147.775 9.16709L159.761 8.11457L160.433 15.7651ZM163.512 50.8302L151.526 51.8827L148.704 19.7504L160.69 18.6978L163.512 50.8302ZM179.326 49.4415L167.34 50.494L164.519 18.3617L175.739 17.3763L176.596 27.1308L177.234 27.0748C177.465 21.6578 180.529 16.3133 189.136 15.5575C197.806 14.7961 202.346 19.6657 202.956 26.6149L204.764 47.2077L192.778 48.2602L191.356 32.0665C190.964 27.6037 189.184 26.3467 183.956 26.8057C178.664 27.2704 177.507 28.7212 177.871 32.8653L179.326 49.4415ZM222.275 42.0722C212.712 42.912 206.875 37.8994 206.069 28.7187C205.274 19.6655 210.53 13.6788 220.03 12.8446C226.533 12.2735 231.098 14.5068 232.477 19.975L233.115 19.9191L232.454 12.396L243.675 11.4107L246.021 38.1239C247.028 49.5997 240.683 55.6179 228.314 56.704C217.093 57.6894 210.176 53.5426 209.437 45.1269L221.423 44.0744C221.653 46.6884 222.027 47.2979 228.275 46.7493C233.439 46.2958 234.584 45.4244 234.108 40.0052L233.514 33.2472L232.877 33.3032C232.457 38.0301 229.352 41.4508 222.275 42.0722ZM218.182 27.655C218.462 30.8427 220.099 31.9197 225.709 31.427C231.064 30.9567 233.24 30.1232 232.943 26.7442L232.904 26.298C232.602 22.8552 230.309 22.3499 224.953 22.8201C219.343 23.3128 217.908 24.531 218.182 27.655Z"/>
</mask>
<path d="M17.9471 63.6127L5.96125 64.6653L2.21025 21.9496L14.1961 20.8971L15.5902 36.772L35.4816 35.0253L34.0876 19.1504L46.0735 18.0979L49.8245 60.8135L37.8386 61.866L36.4278 45.7998L16.5363 47.5466L17.9471 63.6127ZM71.4963 59.5529C60.3392 60.5326 52.1981 54.8871 51.2856 44.4951C50.3674 34.0393 57.4056 27.1252 68.5626 26.1454C79.7197 25.1657 87.8552 30.7474 88.7733 41.2032C89.6859 51.5952 82.6533 58.5731 71.4963 59.5529ZM70.5669 48.9696C75.9861 48.4937 77.3236 46.8986 76.915 42.2445C76.5063 37.5904 74.9055 36.1891 69.4864 36.6649C64.0672 37.1408 62.7353 38.7997 63.1439 43.4538C63.5526 48.1079 65.1478 49.4455 70.5669 48.9696ZM107.719 56.372C97.9012 57.2342 91.9278 51.3983 91.0152 41.0063C90.097 30.5505 94.84 23.8379 104.276 23.0093C111.863 22.3431 115.746 25.5999 117.173 30.8713L117.81 30.8153L116.153 11.9439L128.139 10.8914L131.89 53.607L120.669 54.5923L119.908 45.9217L119.27 45.9777C118.81 52.4427 115.242 55.7114 107.719 56.372ZM103.129 39.9426C103.504 44.2142 105.545 45.5126 111.092 45.0255C116.447 44.5552 118.908 43.3112 118.499 38.6571L118.46 38.2108C118.062 33.6842 115.434 33.0156 110.078 33.4859C104.532 33.973 102.753 35.671 103.129 39.9426ZM147.698 52.2189L135.712 53.2714L131.961 10.5558L143.947 9.50326L147.698 52.2189ZM160.433 15.7651L148.447 16.8176L147.775 9.16709L159.761 8.11457L160.433 15.7651ZM163.512 50.8302L151.526 51.8827L148.704 19.7504L160.69 18.6978L163.512 50.8302ZM179.326 49.4415L167.34 50.494L164.519 18.3617L175.739 17.3763L176.596 27.1308L177.234 27.0748C177.465 21.6578 180.529 16.3133 189.136 15.5575C197.806 14.7961 202.346 19.6657 202.956 26.6149L204.764 47.2077L192.778 48.2602L191.356 32.0665C190.964 27.6037 189.184 26.3467 183.956 26.8057C178.664 27.2704 177.507 28.7212 177.871 32.8653L179.326 49.4415ZM222.275 42.0722C212.712 42.912 206.875 37.8994 206.069 28.7187C205.274 19.6655 210.53 13.6788 220.03 12.8446C226.533 12.2735 231.098 14.5068 232.477 19.975L233.115 19.9191L232.454 12.396L243.675 11.4107L246.021 38.1239C247.028 49.5997 240.683 55.6179 228.314 56.704C217.093 57.6894 210.176 53.5426 209.437 45.1269L221.423 44.0744C221.653 46.6884 222.027 47.2979 228.275 46.7493C233.439 46.2958 234.584 45.4244 234.108 40.0052L233.514 33.2472L232.877 33.3032C232.457 38.0301 229.352 41.4508 222.275 42.0722ZM218.182 27.655C218.462 30.8427 220.099 31.9197 225.709 31.427C231.064 30.9567 233.24 30.1232 232.943 26.7442L232.904 26.298C232.602 22.8552 230.309 22.3499 224.953 22.8201C219.343 23.3128 217.908 24.531 218.182 27.655Z" fill="white" fill-opacity="0.07"/>
<path d="M17.9471 63.6127L18.6469 71.5821C23.0483 71.1956 26.303 67.3143 25.9165 62.9129L17.9471 63.6127ZM5.96125 64.6653L-2.00808 65.3651C-1.62159 69.7664 2.25972 73.0211 6.66106 72.6346L5.96125 64.6653ZM2.21025 21.9496L1.51043 13.9803C-2.89091 14.3668 -6.14558 18.2481 -5.75909 22.6494L2.21025 21.9496ZM14.1961 20.8971L22.1655 20.1973C21.779 15.796 17.8977 12.5413 13.4963 12.9278L14.1961 20.8971ZM15.5902 36.772L7.62082 37.4718C8.00732 41.8732 11.8886 45.1278 16.29 44.7414L15.5902 36.772ZM35.4816 35.0253L36.1814 42.9946C40.5828 42.6081 43.8374 38.7268 43.4509 34.3255L35.4816 35.0253ZM34.0876 19.1504L33.3878 11.181C28.9864 11.5675 25.7317 15.4488 26.1182 19.8502L34.0876 19.1504ZM46.0735 18.0979L54.0428 17.398C53.6563 12.9967 49.775 9.74202 45.3736 10.1285L46.0735 18.0979ZM49.8245 60.8135L50.5243 68.7828C54.9256 68.3963 58.1803 64.515 57.7938 60.1137L49.8245 60.8135ZM37.8386 61.866L29.8693 62.5658C30.2557 66.9672 34.1371 70.2218 38.5384 69.8353L37.8386 61.866ZM36.4278 45.7998L44.3971 45.1C44.0106 40.6987 40.1293 37.444 35.7279 37.8305L36.4278 45.7998ZM16.5363 47.5466L15.8365 39.5772C11.4351 39.9637 8.18047 43.845 8.56697 48.2464L16.5363 47.5466ZM17.2473 55.6434L5.26144 56.6959L6.66106 72.6346L18.6469 71.5821L17.2473 55.6434ZM13.9306 63.9654L10.1796 21.2498L-5.75909 22.6494L-2.00808 65.3651L13.9306 63.9654ZM2.91006 29.919L14.8959 28.8664L13.4963 12.9278L1.51043 13.9803L2.91006 29.919ZM6.22679 21.5969L7.62082 37.4718L23.5595 36.0722L22.1655 20.1973L6.22679 21.5969ZM16.29 44.7414L36.1814 42.9946L34.7818 27.056L14.8903 28.8027L16.29 44.7414ZM43.4509 34.3255L42.0569 18.4506L26.1182 19.8502L27.5123 35.7251L43.4509 34.3255ZM34.7874 27.1197L46.7733 26.0672L45.3736 10.1285L33.3878 11.181L34.7874 27.1197ZM38.1041 18.7977L41.8551 61.5133L57.7938 60.1137L54.0428 17.398L38.1041 18.7977ZM49.1246 52.8441L37.1388 53.8967L38.5384 69.8353L50.5243 68.7828L49.1246 52.8441ZM45.8079 61.1662L44.3971 45.1L28.4584 46.4996L29.8693 62.5658L45.8079 61.1662ZM35.7279 37.8305L15.8365 39.5772L17.2361 55.5159L37.1276 53.7692L35.7279 37.8305ZM8.56697 48.2464L9.97779 64.3125L25.9165 62.9129L24.5056 46.8467L8.56697 48.2464ZM70.7964 51.5835C66.6717 51.9457 63.9008 51.0206 62.2671 49.8276C60.7634 48.7296 59.5292 46.9183 59.2549 43.7953L43.3162 45.1949C43.9546 52.464 47.2471 58.6714 52.8314 62.7492C58.2856 66.732 65.1638 68.1397 72.1961 67.5222L70.7964 51.5835ZM59.2549 43.7953C58.9769 40.6294 59.8846 38.6395 61.1599 37.3144C62.5528 35.8672 65.1179 34.4787 69.2625 34.1148L67.8628 18.1761C60.8503 18.7919 54.3178 21.3504 49.6319 26.2192C44.8284 31.21 42.6761 37.9051 43.3162 45.1949L59.2549 43.7953ZM69.2625 34.1148C73.407 33.7508 76.1749 34.671 77.7986 35.8533C79.2854 36.9358 80.526 38.7371 80.804 41.903L96.7427 40.5034C96.1025 33.2135 92.8163 26.996 87.2165 22.9187C81.7538 18.9411 74.8753 17.5603 67.8628 18.1761L69.2625 34.1148ZM80.804 41.903C81.0782 45.026 80.1786 47.0246 78.8892 48.368C77.4885 49.8274 74.9212 51.2213 70.7964 51.5835L72.1961 67.5222C79.2284 66.9047 85.7559 64.3198 90.4326 59.4473C95.2207 54.4587 97.381 47.7724 96.7427 40.5034L80.804 41.903ZM71.2667 56.9389C74.0925 56.6908 78.6103 56.0584 81.8029 52.6022C85.2403 48.881 85.1167 44.191 84.8843 41.5447L68.9456 42.9443C69.0184 43.773 68.9556 43.9247 68.9954 43.7133C69.0219 43.5721 69.092 43.2804 69.2663 42.9071C69.4471 42.52 69.7068 42.1169 70.0499 41.7456C70.3888 41.3787 70.7284 41.1299 70.9936 40.9731C71.1217 40.8974 71.2258 40.847 71.296 40.816C71.3658 40.7852 71.4058 40.7721 71.4077 40.7715C71.4095 40.7709 71.3801 40.7805 71.3131 40.7968C71.2461 40.8131 71.1489 40.8341 71.0164 40.8576C70.746 40.9055 70.3724 40.9559 69.8671 41.0003L71.2667 56.9389ZM84.8843 41.5447C84.6509 38.8874 83.9529 34.2791 79.9728 31.202C76.2318 28.3096 71.6684 28.4425 68.7866 28.6956L70.1862 44.6343C70.6835 44.5906 71.0522 44.5762 71.3182 44.5771C71.5865 44.578 71.6985 44.5944 71.6942 44.5938C71.6781 44.5914 70.9947 44.4849 70.1864 43.86C69.7936 43.5563 69.4783 43.2107 69.2426 42.8713C69.0154 42.544 68.9014 42.2795 68.8542 42.1539C68.7843 41.9677 68.8731 42.1182 68.9456 42.9443L84.8843 41.5447ZM68.7866 28.6956C65.9048 28.9487 61.3881 29.6131 58.2084 33.1132C54.8255 36.8369 54.9413 41.4963 55.1746 44.1536L71.1133 42.754C71.0407 41.9279 71.1019 41.7642 71.0655 41.9597C71.041 42.0916 70.9748 42.3719 70.8081 42.7338C70.6352 43.1091 70.3849 43.5044 70.0511 43.8719C69.3641 44.6281 68.7096 44.852 68.6943 44.8572C68.6902 44.8586 68.7976 44.8229 69.0616 44.7753C69.3234 44.7281 69.6889 44.6779 70.1862 44.6343L68.7866 28.6956ZM55.1746 44.1536C55.407 46.7999 56.1027 51.4397 60.136 54.5048C63.8821 57.3517 68.441 57.1871 71.2667 56.9389L69.8671 41.0003C69.3618 41.0446 68.9852 41.0602 68.7106 41.0601C68.576 41.0601 68.4766 41.0563 68.4078 41.0519C68.3389 41.0476 68.3083 41.0432 68.3102 41.0435C68.3122 41.0437 68.3538 41.0497 68.4279 41.0679C68.5025 41.0861 68.6138 41.1176 68.7531 41.1699C69.0416 41.278 69.4193 41.4638 69.817 41.766C70.2195 42.0719 70.5455 42.4236 70.791 42.7732C71.0277 43.1104 71.1476 43.3855 71.1983 43.5198C71.2743 43.7211 71.186 43.5826 71.1133 42.754L55.1746 44.1536ZM117.173 30.8713L109.451 32.9611C110.463 36.7023 114.012 39.1796 117.873 38.8406L117.173 30.8713ZM117.81 30.8153L118.51 38.7846C122.912 38.3981 126.166 34.5168 125.78 30.1155L117.81 30.8153ZM116.153 11.9439L115.453 3.97457C111.052 4.36107 107.797 8.24238 108.184 12.6437L116.153 11.9439ZM128.139 10.8914L136.108 10.1916C135.722 5.79023 131.841 2.53556 127.439 2.92205L128.139 10.8914ZM131.89 53.607L132.59 61.5763C136.991 61.1898 140.246 57.3085 139.859 52.9072L131.89 53.607ZM120.669 54.5923L112.7 55.2922C113.087 59.6935 116.968 62.9482 121.369 62.5617L120.669 54.5923ZM119.908 45.9217L127.877 45.2219C127.491 40.8206 123.609 37.5659 119.208 37.9524L119.908 45.9217ZM119.27 45.9777L118.571 38.0084C114.655 38.3522 111.57 41.4892 111.291 45.4096L119.27 45.9777ZM107.02 48.4027C103.89 48.6775 102.342 47.8611 101.491 47.0656C100.516 46.1542 99.326 44.1956 98.9845 40.3065L83.0459 41.7061C83.6169 48.2091 85.8697 54.3644 90.5642 58.7533C95.3828 63.2583 101.731 64.9287 108.419 64.3413L107.02 48.4027ZM98.9845 40.3065C98.6354 36.3311 99.4601 34.1633 100.229 33.1086C100.874 32.223 102.112 31.2301 104.976 30.9787L103.576 15.04C97.0034 15.6172 91.1526 18.3949 87.297 23.6866C83.5646 28.8093 82.4768 35.2257 83.0459 41.7061L98.9845 40.3065ZM104.976 30.9787C107.557 30.752 108.458 31.2784 108.616 31.3827C108.715 31.4486 109.113 31.7146 109.451 32.9611L124.895 28.7814C123.806 24.7565 121.549 20.7584 117.453 18.0447C113.415 15.3693 108.581 14.6005 103.576 15.04L104.976 30.9787ZM117.873 38.8406L118.51 38.7846L117.111 22.846L116.473 22.9019L117.873 38.8406ZM125.78 30.1155L124.123 11.2441L108.184 12.6437L109.841 31.5151L125.78 30.1155ZM116.853 19.9132L128.839 18.8607L127.439 2.92205L115.453 3.97457L116.853 19.9132ZM120.17 11.5912L123.921 54.3068L139.859 52.9072L136.108 10.1916L120.17 11.5912ZM131.19 45.6377L119.97 46.623L121.369 62.5617L132.59 61.5763L131.19 45.6377ZM128.639 53.8925L127.877 45.2219L111.939 46.6215L112.7 55.2922L128.639 53.8925ZM119.208 37.9524L118.571 38.0084L119.97 53.947L120.608 53.891L119.208 37.9524ZM111.291 45.4096C111.223 46.3582 111.062 46.8813 110.957 47.129C110.87 47.3372 110.809 47.3896 110.78 47.4161C110.691 47.4966 109.884 48.1511 107.02 48.4027L108.419 64.3413C113.078 63.9322 117.817 62.6222 121.507 59.2869C125.363 55.8026 126.921 51.1698 127.25 46.5458L111.291 45.4096ZM95.1592 40.6424C95.4348 43.7807 96.5314 48.2468 100.869 51.0133C104.53 53.3484 108.811 53.2565 111.792 52.9948L110.392 37.0562C109.303 37.1517 108.747 37.1231 108.535 37.0971C108.339 37.073 108.798 37.0934 109.473 37.5237C109.818 37.7439 110.15 38.0282 110.438 38.3656C110.721 38.6981 110.902 39.0123 111.011 39.2475C111.205 39.6669 111.145 39.7817 111.098 39.2428L95.1592 40.6424ZM111.792 52.9948C114.446 52.7617 118.579 52.2625 121.843 49.7445C126.065 46.4879 126.802 41.7621 126.468 37.9573L110.53 39.3569C110.573 39.8534 110.476 39.6306 110.67 39.0425C110.775 38.7256 110.949 38.3507 111.218 37.9706C111.487 37.5902 111.789 37.293 112.07 37.076C112.594 36.6723 112.906 36.6517 112.543 36.7466C112.187 36.8397 111.531 36.9562 110.392 37.0562L111.792 52.9948ZM126.468 37.9573L126.429 37.511L110.491 38.9106L110.53 39.3569L126.468 37.9573ZM126.429 37.511C126.092 33.6761 124.474 29.1544 119.648 26.7903C116.045 25.0255 111.947 25.291 109.379 25.5166L110.778 41.4552C111.95 41.3524 112.65 41.3441 113.057 41.3714C113.48 41.3997 113.191 41.4442 112.609 41.1588C112.29 41.0027 111.921 40.7657 111.561 40.427C111.2 40.0871 110.933 39.7242 110.749 39.3944C110.406 38.7783 110.451 38.4634 110.491 38.9106L126.429 37.511ZM109.379 25.5166C106.349 25.7826 102.113 26.4678 98.9212 29.4495C95.1866 32.9388 94.8835 37.5022 95.1592 40.6424L111.098 39.2428C111.051 38.7064 111.128 38.7951 111.016 39.2235C110.953 39.4636 110.835 39.7935 110.623 40.1603C110.407 40.5329 110.139 40.8654 109.844 41.1407C109.265 41.6819 108.818 41.7878 108.989 41.7344C109.178 41.6753 109.706 41.5494 110.778 41.4552L109.379 25.5166ZM147.698 52.2189L148.398 60.1882C152.799 59.8017 156.054 55.9204 155.667 51.5191L147.698 52.2189ZM135.712 53.2714L127.743 53.9712C128.129 58.3726 132.01 61.6272 136.412 61.2407L135.712 53.2714ZM131.961 10.5558L131.261 2.58645C126.86 2.97294 123.605 6.85425 123.992 11.2556L131.961 10.5558ZM143.947 9.50326L151.916 8.80345C151.53 4.4021 147.648 1.14743 143.247 1.53393L143.947 9.50326ZM146.998 44.2496L135.012 45.3021L136.412 61.2407L148.398 60.1882L146.998 44.2496ZM143.681 52.5716L139.93 9.85597L123.992 11.2556L127.743 53.9712L143.681 52.5716ZM132.661 18.5251L144.647 17.4726L143.247 1.53393L131.261 2.58645L132.661 18.5251ZM135.977 10.2031L139.728 52.9187L155.667 51.5191L151.916 8.80345L135.977 10.2031ZM160.433 15.7651L161.133 23.7345C165.534 23.348 168.789 19.4667 168.402 15.0653L160.433 15.7651ZM148.447 16.8176L140.478 17.5175C140.864 21.9188 144.745 25.1735 149.147 24.787L148.447 16.8176ZM147.775 9.16709L147.075 1.19775C142.674 1.58425 139.419 5.46556 139.806 9.8669L147.775 9.16709ZM159.761 8.11457L167.73 7.41475C167.344 3.01341 163.462 -0.241264 159.061 0.145234L159.761 8.11457ZM163.512 50.8302L164.212 58.7995C168.613 58.413 171.868 54.5317 171.481 50.1304L163.512 50.8302ZM151.526 51.8827L143.557 52.5825C143.943 56.9839 147.825 60.2385 152.226 59.852L151.526 51.8827ZM148.704 19.7504L148.005 11.781C143.603 12.1675 140.349 16.0488 140.735 20.4502L148.704 19.7504ZM160.69 18.6978L168.66 17.998C168.273 13.5967 164.392 10.342 159.991 10.7285L160.69 18.6978ZM159.733 7.79579L147.747 8.84831L149.147 24.787L161.133 23.7345L159.733 7.79579ZM156.416 16.1178L155.744 8.46727L139.806 9.8669L140.478 17.5175L156.416 16.1178ZM148.475 17.1364L160.461 16.0839L159.061 0.145234L147.075 1.19775L148.475 17.1364ZM151.792 8.81438L152.463 16.4649L168.402 15.0653L167.73 7.41475L151.792 8.81438ZM162.812 42.8609L150.826 43.9134L152.226 59.852L164.212 58.7995L162.812 42.8609ZM159.495 51.1829L156.674 19.0505L140.735 20.4502L143.557 52.5825L159.495 51.1829ZM149.404 27.7197L161.39 26.6672L159.991 10.7285L148.005 11.781L149.404 27.7197ZM152.721 19.3977L155.543 51.53L171.481 50.1304L168.66 17.998L152.721 19.3977ZM179.326 49.4415L180.026 57.4108C184.427 57.0243 187.682 53.143 187.295 48.7417L179.326 49.4415ZM167.34 50.494L159.371 51.1938C159.757 55.5952 163.639 58.8498 168.04 58.4633L167.34 50.494ZM164.519 18.3617L163.819 10.3923C159.417 10.7788 156.163 14.6601 156.549 19.0615L164.519 18.3617ZM175.739 17.3763L183.709 16.6765C183.322 12.2752 179.441 9.0205 175.04 9.407L175.739 17.3763ZM176.596 27.1308L168.627 27.8306C169.013 32.2319 172.894 35.4866 177.296 35.1001L176.596 27.1308ZM177.234 27.0748L177.933 35.0441C181.935 34.6928 185.055 31.4288 185.226 27.4157L177.234 27.0748ZM204.764 47.2077L205.464 55.177C209.865 54.7905 213.12 50.9092 212.734 46.5079L204.764 47.2077ZM192.778 48.2602L184.809 48.96C185.196 53.3614 189.077 56.616 193.478 56.2295L192.778 48.2602ZM178.626 41.4722L166.64 42.5247L168.04 58.4633L180.026 57.4108L178.626 41.4722ZM175.31 49.7942L172.488 17.6619L156.549 19.0615L159.371 51.1938L175.31 49.7942ZM165.218 26.331L176.439 25.3457L175.04 9.407L163.819 10.3923L165.218 26.331ZM167.77 18.0761L168.627 27.8306L184.565 26.431L183.709 16.6765L167.77 18.0761ZM177.296 35.1001L177.933 35.0441L176.534 19.1055L175.896 19.1615L177.296 35.1001ZM185.226 27.4157C185.285 26.0435 185.674 25.2764 186.027 24.8788C186.291 24.5816 187.159 23.7619 189.835 23.5268L188.436 7.58816C182.506 8.10891 177.538 10.3394 174.061 14.2577C170.672 18.0755 169.413 22.6891 169.241 26.7339L185.226 27.4157ZM189.835 23.5268C192.537 23.2896 193.529 23.9802 193.826 24.2377C194.185 24.5487 194.815 25.3637 194.987 27.3147L210.925 25.9151C210.486 20.9169 208.542 15.8225 204.311 12.1517C200.018 8.42748 194.405 7.06402 188.436 7.58816L189.835 23.5268ZM194.987 27.3147L196.795 47.9075L212.734 46.5079L210.925 25.9151L194.987 27.3147ZM204.064 39.2384L192.079 40.2909L193.478 56.2295L205.464 55.177L204.064 39.2384ZM200.748 47.5604L199.326 31.3667L183.387 32.7663L184.809 48.96L200.748 47.5604ZM199.326 31.3667C199.077 28.5327 198.229 23.9982 194.1 21.067C190.414 18.4498 186.031 18.5927 183.256 18.8364L184.656 34.7751C185.67 34.686 186.105 34.7227 186.189 34.7341C186.234 34.7402 185.617 34.6667 184.839 34.1138C184.451 33.8389 184.117 33.5098 183.851 33.1592C183.592 32.8181 183.446 32.5216 183.372 32.3411C183.248 32.0408 183.326 32.0684 183.387 32.7663L199.326 31.3667ZM183.256 18.8364C180.585 19.0709 176.181 19.6392 173.034 22.9024C169.51 26.5565 169.694 31.2091 169.901 33.5651L185.84 32.1655C185.777 31.4458 185.842 31.4227 185.779 31.7505C185.74 31.9544 185.649 32.3073 185.441 32.7354C185.227 33.1781 184.929 33.6172 184.551 34.0091C184.179 34.3941 183.815 34.6468 183.542 34.8011C183.409 34.8761 183.302 34.9254 183.231 34.9553C183.16 34.985 183.12 34.9976 183.119 34.998C183.118 34.9983 183.148 34.9889 183.216 34.9731C183.284 34.9573 183.381 34.937 183.513 34.9142C183.783 34.8679 184.155 34.819 184.656 34.7751L183.256 18.8364ZM169.901 33.5651L171.357 50.1413L187.295 48.7417L185.84 32.1655L169.901 33.5651ZM232.477 19.975L224.72 21.9321C225.681 25.7404 229.264 28.288 233.177 27.9444L232.477 19.975ZM233.115 19.9191L233.815 27.8884C238.216 27.5019 241.471 23.6206 241.084 19.2192L233.115 19.9191ZM232.454 12.396L231.754 4.42668C227.353 4.81318 224.098 8.69449 224.485 13.0958L232.454 12.396ZM243.675 11.4107L251.644 10.7109C251.258 6.30952 247.377 3.05485 242.975 3.44134L243.675 11.4107ZM209.437 45.1269L208.737 37.1576C204.336 37.5441 201.081 41.4254 201.468 45.8268L209.437 45.1269ZM221.423 44.0744L229.392 43.3746C229.006 38.9733 225.125 35.7186 220.723 36.1051L221.423 44.0744ZM233.514 33.2472L241.484 32.5474C241.097 28.1461 237.216 24.8914 232.814 25.2779L233.514 33.2472ZM232.877 33.3032L232.177 25.3339C228.315 25.673 225.251 28.733 224.908 32.595L232.877 33.3032ZM221.575 34.1029C218.301 34.3904 216.732 33.6091 216.009 33.0069C215.291 32.4086 214.306 31.0697 214.038 28.0189L198.1 29.4185C198.638 35.5484 200.974 41.3061 205.767 45.2993C210.555 49.2887 216.686 50.5938 222.975 50.0415L221.575 34.1029ZM214.038 28.0189C213.792 25.2159 214.515 23.7581 215.197 22.9814C215.922 22.1566 217.491 21.0983 220.73 20.8139L219.33 4.87525C213.069 5.42506 207.26 7.77717 203.18 12.4176C199.059 17.1061 197.551 23.1683 198.1 29.4185L214.038 28.0189ZM220.73 20.8139C223.024 20.6124 224.044 21.003 224.317 21.1536C224.42 21.2103 224.44 21.24 224.454 21.2589C224.475 21.2881 224.602 21.4651 224.72 21.9321L240.234 18.018C239.048 13.3181 236.265 9.46625 232.032 7.13655C228.053 4.94624 223.538 4.50571 219.33 4.87525L220.73 20.8139ZM233.177 27.9444L233.815 27.8884L232.415 11.9497L231.777 12.0057L233.177 27.9444ZM241.084 19.2192L240.423 11.6962L224.485 13.0958L225.145 20.6189L241.084 19.2192ZM233.154 20.3653L244.375 19.38L242.975 3.44134L231.754 4.42668L233.154 20.3653ZM235.706 12.1105L238.051 38.8237L253.99 37.4241L251.644 10.7109L235.706 12.1105ZM238.051 38.8237C238.413 42.9421 237.401 44.7588 236.464 45.7171C235.317 46.8895 232.806 48.2788 227.614 48.7347L229.014 64.6733C236.191 64.0431 243.037 61.8803 247.904 56.9031C252.98 51.7118 254.636 44.7815 253.99 37.4241L238.051 38.8237ZM227.614 48.7347C222.96 49.1434 220.345 48.3634 219.109 47.6099C218.236 47.0779 217.573 46.3216 217.406 44.4271L201.468 45.8268C202.04 52.3479 205.205 57.8729 210.781 61.2717C215.994 64.4493 222.448 65.25 229.014 64.6733L227.614 48.7347ZM210.137 53.0963L222.123 52.0438L220.723 36.1051L208.737 37.1576L210.137 53.0963ZM213.454 44.7742C213.501 45.316 213.62 46.9685 214.275 48.6214C215.154 50.8361 216.827 52.765 219.282 53.881C221.228 54.7651 223.175 54.9001 224.419 54.9283C225.792 54.9595 227.343 54.8619 228.975 54.7186L227.575 38.7799C226.084 38.9109 225.245 38.9429 224.783 38.9324C224.569 38.9276 224.578 38.9157 224.73 38.9409C224.88 38.9658 225.322 39.0509 225.902 39.3147C226.526 39.5983 227.246 40.06 227.902 40.7651C228.551 41.4627 228.932 42.1778 229.148 42.7231C229.348 43.2253 229.408 43.5886 229.418 43.6435C229.427 43.6969 229.417 43.655 229.392 43.3746L213.454 44.7742ZM228.975 54.7186C230.349 54.5979 232.004 54.4115 233.579 53.9727C235.218 53.5162 237.394 52.621 239.205 50.6434C241.061 48.6178 241.776 46.2921 242.044 44.4081C242.295 42.6404 242.212 40.8441 242.077 39.3054L226.138 40.705C226.186 41.2456 226.204 41.6277 226.206 41.8937C226.208 42.1646 226.192 42.2298 226.203 42.1547C226.229 41.9724 226.424 40.909 227.408 39.8354C227.863 39.3384 228.334 39.0118 228.704 38.8116C229.05 38.624 229.28 38.5611 229.285 38.5598C229.289 38.5588 229.168 38.5917 228.854 38.6381C228.545 38.6839 228.135 38.7308 227.575 38.7799L228.975 54.7186ZM242.077 39.3054L241.484 32.5474L225.545 33.947L226.138 40.705L242.077 39.3054ZM232.814 25.2779L232.177 25.3339L233.576 41.2725L234.214 41.2166L232.814 25.2779ZM224.908 32.595C224.872 32.9974 224.797 33.1788 224.778 33.219C224.769 33.2398 224.774 33.2332 224.756 33.2494C224.718 33.2827 224.008 33.8893 221.575 34.1029L222.975 50.0415C227.619 49.6337 232 48.2192 235.389 45.2051C238.894 42.088 240.489 38.0163 240.845 34.0114L224.908 32.595ZM210.213 28.3548C210.464 31.2186 211.619 35.5654 216.205 37.9921C219.614 39.796 223.567 39.6459 226.409 39.3963L225.009 23.4577C223.845 23.5599 223.198 23.5496 222.892 23.5232C222.565 23.4951 222.983 23.477 223.689 23.8501C224.068 24.051 224.489 24.3439 224.89 24.7484C225.291 25.1532 225.586 25.5832 225.791 25.9796C226.172 26.7141 226.172 27.1925 226.152 26.9552L210.213 28.3548ZM226.409 39.3963C228.861 39.181 232.536 38.8107 235.492 37.0779C237.298 36.0187 238.992 34.3869 240.017 32.0485C240.979 29.855 241.058 27.7063 240.913 26.0444L224.974 27.4441C224.973 27.4389 224.957 27.2559 224.994 26.9455C225.032 26.6231 225.13 26.1571 225.365 25.6221C225.899 24.405 226.769 23.6445 227.4 23.2749C227.875 22.9963 228.063 23.0256 227.519 23.138C227.018 23.2418 226.237 23.3499 225.009 23.4577L226.409 39.3963ZM240.913 26.0444L240.873 25.5981L224.935 26.9978L224.974 27.4441L240.913 26.0444ZM240.873 25.5981C240.727 23.9358 240.282 21.8536 238.992 19.872C237.615 17.7565 235.701 16.4049 233.723 15.6355C230.465 14.3689 226.743 14.6322 224.253 14.8508L225.653 30.7895C226.865 30.683 227.635 30.6582 228.124 30.6758C228.654 30.6949 228.455 30.754 227.924 30.5478C227.226 30.2764 226.277 29.6672 225.582 28.6C225.278 28.133 225.114 27.7141 225.029 27.4268C224.987 27.2852 224.963 27.175 224.95 27.1045C224.944 27.0688 224.94 27.0418 224.938 27.0243C224.937 27.0154 224.936 27.0088 224.935 27.0044C224.935 27.0022 224.935 27.0005 224.935 26.9994C224.935 26.9983 224.935 26.9978 224.935 26.9978L240.873 25.5981ZM224.253 14.8508C221.494 15.0931 217.63 15.5869 214.612 17.8128C212.792 19.1555 211.445 20.9832 210.732 23.1633C210.083 25.1461 210.095 27.0073 210.213 28.3548L226.152 26.9552C226.133 26.7407 226.22 27.2781 225.939 28.1385C225.787 28.602 225.546 29.1048 225.193 29.5905C224.841 30.0737 224.455 30.4345 224.11 30.6888C223.48 31.1538 223.084 31.1927 223.45 31.1003C223.787 31.015 224.458 30.8944 225.653 30.7895L224.253 14.8508Z" fill="url(#paint0_radial_1_580)" mask="url(#path-1-outside-1_1_580)"/>
<path d="M17.9471 63.6127L5.96125 64.6653L2.21025 21.9496L14.1961 20.8971L15.5902 36.772L35.4816 35.0253L34.0876 19.1504L46.0735 18.0979L49.8245 60.8135L37.8386 61.866L36.4278 45.7998L16.5363 47.5466L17.9471 63.6127ZM71.4963 59.5529C60.3392 60.5326 52.1981 54.8871 51.2856 44.4951C50.3674 34.0393 57.4056 27.1252 68.5626 26.1454C79.7197 25.1657 87.8552 30.7474 88.7733 41.2032C89.6859 51.5952 82.6533 58.5731 71.4963 59.5529ZM70.5669 48.9696C75.9861 48.4937 77.3236 46.8986 76.915 42.2445C76.5063 37.5904 74.9055 36.1891 69.4864 36.6649C64.0672 37.1408 62.7353 38.7997 63.1439 43.4538C63.5526 48.1079 65.1478 49.4455 70.5669 48.9696ZM107.719 56.372C97.9012 57.2342 91.9278 51.3983 91.0152 41.0063C90.097 30.5505 94.84 23.8379 104.276 23.0093C111.863 22.3431 115.746 25.5999 117.173 30.8713L117.81 30.8153L116.153 11.9439L128.139 10.8914L131.89 53.607L120.669 54.5923L119.908 45.9217L119.27 45.9777C118.81 52.4427 115.242 55.7114 107.719 56.372ZM103.129 39.9426C103.504 44.2142 105.545 45.5126 111.092 45.0255C116.447 44.5552 118.908 43.3112 118.499 38.6571L118.46 38.2108C118.062 33.6842 115.434 33.0156 110.078 33.4859C104.532 33.973 102.753 35.671 103.129 39.9426ZM147.698 52.2189L135.712 53.2714L131.961 10.5558L143.947 9.50326L147.698 52.2189ZM160.433 15.7651L148.447 16.8176L147.775 9.16709L159.761 8.11457L160.433 15.7651ZM163.512 50.8302L151.526 51.8827L148.704 19.7504L160.69 18.6978L163.512 50.8302ZM179.326 49.4415L167.34 50.494L164.519 18.3617L175.739 17.3763L176.596 27.1308L177.234 27.0748C177.465 21.6578 180.529 16.3133 189.136 15.5575C197.806 14.7961 202.346 19.6657 202.956 26.6149L204.764 47.2077L192.778 48.2602L191.356 32.0665C190.964 27.6037 189.184 26.3467 183.956 26.8057C178.664 27.2704 177.507 28.7212 177.871 32.8653L179.326 49.4415ZM222.275 42.0722C212.712 42.912 206.875 37.8994 206.069 28.7187C205.274 19.6655 210.53 13.6788 220.03 12.8446C226.533 12.2735 231.098 14.5068 232.477 19.975L233.115 19.9191L232.454 12.396L243.675 11.4107L246.021 38.1239C247.028 49.5997 240.683 55.6179 228.314 56.704C217.093 57.6894 210.176 53.5426 209.437 45.1269L221.423 44.0744C221.653 46.6884 222.027 47.2979 228.275 46.7493C233.439 46.2958 234.584 45.4244 234.108 40.0052L233.514 33.2472L232.877 33.3032C232.457 38.0301 229.352 41.4508 222.275 42.0722ZM218.182 27.655C218.462 30.8427 220.099 31.9197 225.709 31.427C231.064 30.9567 233.24 30.1232 232.943 26.7442L232.904 26.298C232.602 22.8552 230.309 22.3499 224.953 22.8201C219.343 23.3128 217.908 24.531 218.182 27.655Z" fill="#204AF8"/>
<defs>
<radialGradient id="paint0_radial_1_580" cx="0" cy="0" r="1" gradientUnits="userSpaceOnUse" gradientTransform="translate(124.696 32.656) rotate(-5.01846) scale(123 21.5)">
<stop stop-color="white"/>
<stop offset="1" stop-color="white" stop-opacity="0.99"/>
</radialGradient>
</defs>
</svg>
