<svg width="223" height="52" viewBox="0 0 223 52" fill="none" xmlns="http://www.w3.org/2000/svg">
<mask id="path-1-outside-1_1_584" maskUnits="userSpaceOnUse" x="-8.41215" y="-8.68346" width="239.408" height="68.7964" fill="black">
<rect fill="white" x="-8.41215" y="-8.68346" width="239.408" height="68.7964"/>
<path d="M17.3584 33.9001C7.5287 33.4493 1.69552 29.6741 2.06935 21.5227L2.08254 21.235L11.0971 21.6484L11.0509 22.6554C10.9519 24.8131 11.6927 25.4237 17.7344 25.7007C23.2006 25.9514 23.7958 25.5463 23.8618 24.1078C23.9146 22.957 23.3132 22.4489 20.6914 21.9923L10.6835 20.1879C4.72722 19.0979 1.85372 15.7468 2.09121 10.5682C2.3265 5.4376 6.5526 0.249753 18.1564 0.7819C28.3697 1.25028 33.056 5.93388 32.7262 13.1263L32.713 13.414L23.6985 13.0006L23.7314 12.2814C23.837 9.97979 22.8652 9.16642 16.8236 8.88935C12.2204 8.67825 11.1849 9.25542 11.1211 10.646C11.075 11.6529 11.6284 12.1588 13.3435 12.4777L23.3448 14.4259C31.1558 15.9373 33.0808 20.0619 32.8917 24.1855C32.6388 29.6997 28.195 34.3971 17.3584 33.9001ZM52.6518 35.0382L46.3224 34.7479C40.2808 34.4708 36.8187 31.381 37.1068 25.0996L37.4542 17.5235L33.9059 17.3608L34.2446 9.97658L37.7928 10.1393L37.9842 5.96768L46.9987 6.38109L46.8074 10.5527L53.7601 10.8716L53.4214 18.2558L46.4687 17.9369L46.1807 24.2183C46.0927 26.1363 46.6461 26.6422 48.7079 26.7368L53.0234 26.9347L52.6518 35.0382ZM63.8181 35.5502L54.8035 35.1368L55.9118 10.9702L64.3509 11.3572L64.0607 17.6866L64.5402 17.7086C65.394 13.7595 68.0171 11.0449 72.8121 11.2648C78.1345 11.5088 80.0837 15.1059 79.8616 19.9488L79.6417 24.7438L70.6272 24.3304L70.7569 21.5014C70.8493 19.4875 70.1151 18.7331 67.7656 18.6253C65.3201 18.5132 64.5679 19.1994 64.4799 21.1174L63.8181 35.5502ZM88.8198 37.1773C83.3535 36.9266 80.3991 34.2925 80.5882 30.1688C80.7443 26.7644 83.206 24.4267 88.6964 24.15L98.5701 23.6418L98.5921 23.1623C98.7042 20.7168 97.6669 20.2849 94.4543 20.1375C91.4814 20.0012 90.544 20.5348 90.4516 22.5487L90.4428 22.7405L81.4283 22.3271L81.4327 22.2312C81.7274 15.806 87.2868 11.9286 95.4862 12.3046C103.925 12.6916 107.812 17.0022 107.502 23.7631L106.871 37.5246L98.4317 37.1376L98.6648 32.0549L98.1853 32.033C97.1181 35.3956 94.0463 37.417 88.8198 37.1773ZM89.6771 30.0091C89.6419 30.7762 90.4025 30.9553 91.793 31.0191C96.1564 31.2192 97.9547 30.7731 98.2934 28.6263L90.8696 29.1508C90.0501 29.2093 89.7012 29.4816 89.6771 30.0091ZM127.62 38.4762L121.291 38.1859C115.249 37.9088 111.787 34.819 112.075 28.5376L112.422 20.9615L108.874 20.7988L109.213 13.4146L112.761 13.5773L112.952 9.40569L121.967 9.8191L121.775 13.9907L128.728 14.3096L128.39 21.6938L121.437 21.375L121.149 27.6564C121.061 29.5743 121.614 30.0802 123.676 30.1748L127.991 30.3727L127.62 38.4762ZM143.223 39.6722C135.024 39.2962 129.431 35.532 129.846 26.4696C130.207 18.6058 136.128 14.1684 144.184 14.5379C152.527 14.9205 157.658 19.3362 157.302 27.104C157.265 27.9192 157.188 28.5403 157.053 29.399L138.113 28.5304C138.122 31.4619 139.379 32.3364 143.215 32.5124C146.86 32.6795 147.847 32.1001 147.913 30.6616L147.937 30.1342L156.952 30.5476L156.926 31.123C156.679 36.4933 151.375 40.0461 143.223 39.6722ZM143.675 21.4338C140.367 21.2821 138.943 21.9375 138.465 23.9818L148.679 24.4502C148.437 22.3729 147.032 21.5877 143.675 21.4338ZM169.995 37.7287C162.803 37.3988 158.964 33.0904 159.281 26.1857C159.593 19.3768 164.098 15.4511 171.242 15.7787C176.133 16.003 179.303 18.1185 179.783 22.3209L180.263 22.3429L180.522 16.6848L188.961 17.0718L188.04 37.1627C187.644 45.7937 182.327 49.6341 173.025 49.2075C164.585 48.8205 159.857 45.0479 160.148 38.7186L169.162 39.132C169.072 41.0979 169.29 41.5884 173.989 41.8039C177.873 41.982 178.81 41.4484 178.997 37.3727L179.23 32.29L178.751 32.268C177.967 35.7398 175.318 37.9727 169.995 37.7287ZM168.391 26.6035C168.281 29.001 169.39 29.9648 173.61 30.1583C177.638 30.343 179.338 29.9405 179.454 27.3992L179.47 27.0635C179.589 24.4742 177.934 23.8698 173.907 23.6851C169.687 23.4916 168.499 24.254 168.391 26.6035ZM195.687 49.7663L191.324 49.5662L191.698 41.4148L198.698 41.7358C199.418 41.7688 199.997 41.6993 200.39 41.5251L189.929 17.1162L200.19 17.5868L203.927 27.2721L205.398 32.9134L206.021 32.942L207.863 27.3565L211.89 18.1233L221.959 18.5851L209.347 43.1852C206.496 48.7724 202.736 50.0895 195.687 49.7663Z"/>
</mask>
<path d="M17.3584 33.9001C7.5287 33.4493 1.69552 29.6741 2.06935 21.5227L2.08254 21.235L11.0971 21.6484L11.0509 22.6554C10.9519 24.8131 11.6927 25.4237 17.7344 25.7007C23.2006 25.9514 23.7958 25.5463 23.8618 24.1078C23.9146 22.957 23.3132 22.4489 20.6914 21.9923L10.6835 20.1879C4.72722 19.0979 1.85372 15.7468 2.09121 10.5682C2.3265 5.4376 6.5526 0.249753 18.1564 0.7819C28.3697 1.25028 33.056 5.93388 32.7262 13.1263L32.713 13.414L23.6985 13.0006L23.7314 12.2814C23.837 9.97979 22.8652 9.16642 16.8236 8.88935C12.2204 8.67825 11.1849 9.25542 11.1211 10.646C11.075 11.6529 11.6284 12.1588 13.3435 12.4777L23.3448 14.4259C31.1558 15.9373 33.0808 20.0619 32.8917 24.1855C32.6388 29.6997 28.195 34.3971 17.3584 33.9001ZM52.6518 35.0382L46.3224 34.7479C40.2808 34.4708 36.8187 31.381 37.1068 25.0996L37.4542 17.5235L33.9059 17.3608L34.2446 9.97658L37.7928 10.1393L37.9842 5.96768L46.9987 6.38109L46.8074 10.5527L53.7601 10.8716L53.4214 18.2558L46.4687 17.9369L46.1807 24.2183C46.0927 26.1363 46.6461 26.6422 48.7079 26.7368L53.0234 26.9347L52.6518 35.0382ZM63.8181 35.5502L54.8035 35.1368L55.9118 10.9702L64.3509 11.3572L64.0607 17.6866L64.5402 17.7086C65.394 13.7595 68.0171 11.0449 72.8121 11.2648C78.1345 11.5088 80.0837 15.1059 79.8616 19.9488L79.6417 24.7438L70.6272 24.3304L70.7569 21.5014C70.8493 19.4875 70.1151 18.7331 67.7656 18.6253C65.3201 18.5132 64.5679 19.1994 64.4799 21.1174L63.8181 35.5502ZM88.8198 37.1773C83.3535 36.9266 80.3991 34.2925 80.5882 30.1688C80.7443 26.7644 83.206 24.4267 88.6964 24.15L98.5701 23.6418L98.5921 23.1623C98.7042 20.7168 97.6669 20.2849 94.4543 20.1375C91.4814 20.0012 90.544 20.5348 90.4516 22.5487L90.4428 22.7405L81.4283 22.3271L81.4327 22.2312C81.7274 15.806 87.2868 11.9286 95.4862 12.3046C103.925 12.6916 107.812 17.0022 107.502 23.7631L106.871 37.5246L98.4317 37.1376L98.6648 32.0549L98.1853 32.033C97.1181 35.3956 94.0463 37.417 88.8198 37.1773ZM89.6771 30.0091C89.6419 30.7762 90.4025 30.9553 91.793 31.0191C96.1564 31.2192 97.9547 30.7731 98.2934 28.6263L90.8696 29.1508C90.0501 29.2093 89.7012 29.4816 89.6771 30.0091ZM127.62 38.4762L121.291 38.1859C115.249 37.9088 111.787 34.819 112.075 28.5376L112.422 20.9615L108.874 20.7988L109.213 13.4146L112.761 13.5773L112.952 9.40569L121.967 9.8191L121.775 13.9907L128.728 14.3096L128.39 21.6938L121.437 21.375L121.149 27.6564C121.061 29.5743 121.614 30.0802 123.676 30.1748L127.991 30.3727L127.62 38.4762ZM143.223 39.6722C135.024 39.2962 129.431 35.532 129.846 26.4696C130.207 18.6058 136.128 14.1684 144.184 14.5379C152.527 14.9205 157.658 19.3362 157.302 27.104C157.265 27.9192 157.188 28.5403 157.053 29.399L138.113 28.5304C138.122 31.4619 139.379 32.3364 143.215 32.5124C146.86 32.6795 147.847 32.1001 147.913 30.6616L147.937 30.1342L156.952 30.5476L156.926 31.123C156.679 36.4933 151.375 40.0461 143.223 39.6722ZM143.675 21.4338C140.367 21.2821 138.943 21.9375 138.465 23.9818L148.679 24.4502C148.437 22.3729 147.032 21.5877 143.675 21.4338ZM169.995 37.7287C162.803 37.3988 158.964 33.0904 159.281 26.1857C159.593 19.3768 164.098 15.4511 171.242 15.7787C176.133 16.003 179.303 18.1185 179.783 22.3209L180.263 22.3429L180.522 16.6848L188.961 17.0718L188.04 37.1627C187.644 45.7937 182.327 49.6341 173.025 49.2075C164.585 48.8205 159.857 45.0479 160.148 38.7186L169.162 39.132C169.072 41.0979 169.29 41.5884 173.989 41.8039C177.873 41.982 178.81 41.4484 178.997 37.3727L179.23 32.29L178.751 32.268C177.967 35.7398 175.318 37.9727 169.995 37.7287ZM168.391 26.6035C168.281 29.001 169.39 29.9648 173.61 30.1583C177.638 30.343 179.338 29.9405 179.454 27.3992L179.47 27.0635C179.589 24.4742 177.934 23.8698 173.907 23.6851C169.687 23.4916 168.499 24.254 168.391 26.6035ZM195.687 49.7663L191.324 49.5662L191.698 41.4148L198.698 41.7358C199.418 41.7688 199.997 41.6993 200.39 41.5251L189.929 17.1162L200.19 17.5868L203.927 27.2721L205.398 32.9134L206.021 32.942L207.863 27.3565L211.89 18.1233L221.959 18.5851L209.347 43.1852C206.496 48.7724 202.736 50.0895 195.687 49.7663Z" fill="white" fill-opacity="0.07"/>
<path d="M2.08254 21.235L2.44903 13.2434C-1.96461 13.041 -5.70665 16.4549 -5.90906 20.8685L2.08254 21.235ZM11.0971 21.6484L19.0887 22.0149C19.2911 17.6013 15.8772 13.8592 11.4636 13.6568L11.0971 21.6484ZM20.6914 21.9923L19.2719 29.8654C19.2875 29.8682 19.3032 29.871 19.3189 29.8737L20.6914 21.9923ZM10.6835 20.1879L9.24345 28.0572C9.25032 28.0585 9.25719 28.0598 9.26406 28.061L10.6835 20.1879ZM32.713 13.414L32.3465 21.4056C36.7601 21.608 40.5022 18.1942 40.7046 13.7805L32.713 13.414ZM23.6985 13.0006L15.7069 12.6341C15.5045 17.0478 18.9183 20.7898 23.332 20.9922L23.6985 13.0006ZM13.3435 12.4777L14.8732 4.62529C14.8508 4.62093 14.8284 4.61666 14.8059 4.61249L13.3435 12.4777ZM23.3448 14.4259L21.8152 22.2783L21.825 22.2802L23.3448 14.4259ZM17.7249 25.9085C13.5252 25.7159 11.5171 24.8331 10.7472 24.2443C10.4507 24.0176 10.3415 23.8439 10.268 23.6729C10.1799 23.4679 10.0126 22.9444 10.0609 21.8892L-5.92225 21.1562C-6.21217 27.4779 -3.97379 33.1291 1.02789 36.954C5.53856 40.4034 11.3619 41.6335 16.9919 41.8917L17.7249 25.9085ZM10.0609 21.8892L10.0741 21.6015L-5.90906 20.8685L-5.92225 21.1562L10.0609 21.8892ZM1.71605 29.2266L10.7306 29.64L11.4636 13.6568L2.44903 13.2434L1.71605 29.2266ZM3.10547 21.2819L3.05929 22.2889L19.0425 23.0218L19.0887 22.0149L3.10547 21.2819ZM3.05929 22.2889C3.02256 23.0896 2.96256 24.9943 3.80385 27.0423C4.81848 29.5123 6.65736 31.1255 8.55573 32.0603C10.1581 32.8494 11.8067 33.1626 13.0058 33.3324C14.3009 33.5158 15.7781 33.6194 17.3679 33.6923L18.1009 17.7091C16.6699 17.6435 15.7888 17.5669 15.249 17.4904C14.613 17.4004 14.9498 17.3742 15.6241 17.7063C16.0276 17.9049 16.6149 18.2612 17.2098 18.8612C17.8286 19.4853 18.2954 20.2119 18.6038 20.9627C19.1452 22.2808 19.0297 23.2999 19.0425 23.0218L3.05929 22.2889ZM17.3679 33.6923C18.8027 33.7581 20.1027 33.7907 21.2328 33.7561C22.2675 33.7245 23.6801 33.6289 25.1025 33.2061C26.6909 32.734 28.8824 31.6688 30.3935 29.2954C31.7205 27.2113 31.8231 25.1346 31.8534 24.4743L15.8702 23.7413C15.8724 23.6935 15.8874 23.3405 15.9978 22.8481C16.1162 22.3206 16.3636 21.5399 16.897 20.7022C18.1072 18.8014 19.7958 18.0916 20.544 17.8692C21.126 17.6962 21.3608 17.7448 20.7444 17.7636C20.2235 17.7795 19.3992 17.7687 18.1009 17.7091L17.3679 33.6923ZM31.8534 24.4743C31.8972 23.5183 31.8477 21.9788 31.146 20.2885C30.3909 18.4699 29.1587 17.1341 27.8477 16.2222C25.7612 14.7709 23.3113 14.3282 22.0639 14.1109L19.3189 29.8737C19.8165 29.9603 19.9832 30.0108 19.9594 30.0035C19.9354 29.9961 19.805 29.9555 19.6059 29.8669C19.407 29.7783 19.0874 29.6187 18.7114 29.3572C17.8719 28.7732 16.944 27.8088 16.3688 26.4234C15.8469 25.1663 15.8528 24.1218 15.8702 23.7413L31.8534 24.4743ZM22.1109 14.1192L12.103 12.3149L9.26406 28.061L19.2719 29.8654L22.1109 14.1192ZM12.1236 12.3186C10.2794 11.9811 9.94111 11.4799 10.0586 11.6129C10.1155 11.6772 10.1403 11.7439 10.1359 11.7297C10.1242 11.692 10.0589 11.4563 10.0828 10.9347L-5.90039 10.2017C-6.09344 14.4114 -5.01401 18.7199 -1.92921 22.2097C1.05475 25.5853 5.13139 27.3047 9.24345 28.0572L12.1236 12.3186ZM10.0828 10.9347C10.1008 10.5419 10.1969 10.294 10.6109 9.98853C11.1895 9.56149 13.1189 8.55929 17.7899 8.7735L18.5229 -7.2097C11.5901 -7.52764 5.60451 -6.20199 1.11036 -2.88549C-3.54854 0.552583 -5.68311 5.46387 -5.90039 10.2017L10.0828 10.9347ZM17.7899 8.7735C21.8893 8.9615 23.5641 9.95561 24.0955 10.4255C24.3648 10.6637 24.8101 11.1128 24.7346 12.7598L40.7178 13.4928C40.9721 7.94736 39.2392 2.45851 34.6945 -1.56035C30.4118 -5.34744 24.6368 -6.92932 18.5229 -7.2097L17.7899 8.7735ZM24.7346 12.7598L24.7214 13.0475L40.7046 13.7805L40.7178 13.4928L24.7346 12.7598ZM33.0795 5.42242L24.065 5.00902L23.332 20.9922L32.3465 21.4056L33.0795 5.42242ZM31.6901 13.3671L31.7231 12.6479L15.7398 11.9149L15.7069 12.6341L31.6901 13.3671ZM31.7231 12.6479C31.7694 11.6375 31.7752 9.74232 30.9164 7.70789C29.9306 5.37291 28.2128 3.7629 26.3495 2.76844C24.7247 1.90128 23.0401 1.52389 21.7382 1.31428C20.3631 1.09291 18.8243 0.972696 17.1901 0.897751L16.4571 16.881C17.8437 16.9445 18.692 17.0299 19.1951 17.1109C19.7712 17.2036 19.4558 17.2254 18.816 16.8839C18.443 16.6849 17.9276 16.3461 17.4083 15.804C16.873 15.2452 16.459 14.6009 16.1761 13.9308C15.9052 13.289 15.8052 12.7448 15.7663 12.4105C15.7468 12.2427 15.7411 12.114 15.7394 12.0358C15.7386 11.9957 15.7387 11.9652 15.739 11.9457C15.7393 11.9261 15.7398 11.9155 15.7398 11.9149L31.7231 12.6479ZM17.1901 0.897751C14.9533 0.795172 12.1133 0.755056 9.65181 1.60764C8.17427 2.1194 6.3157 3.1203 4.90691 5.07039C3.51198 7.00129 3.18844 8.99484 3.12953 10.2795L19.1127 11.0125C19.0857 11.6018 18.9155 13.0018 17.8765 14.4399C16.8237 15.8973 15.5237 16.5064 14.8884 16.7264C14.3381 16.917 14.0908 16.8889 14.494 16.8639C14.842 16.8424 15.4556 16.835 16.4571 16.881L17.1901 0.897751ZM3.12953 10.2795C3.02487 12.5616 3.68548 15.6373 6.41863 17.939C8.442 19.643 10.7751 20.1372 11.8812 20.3429L14.8059 4.61249C14.6403 4.5817 14.7605 4.59156 15.0385 4.69427C15.3111 4.79496 15.9802 5.0734 16.725 5.70064C17.5482 6.39387 18.2702 7.35251 18.7055 8.52233C19.1106 9.61105 19.135 10.527 19.1127 11.0125L3.12953 10.2795ZM11.8139 20.3301L21.8152 22.2783L24.8744 6.57351L14.8732 4.62529L11.8139 20.3301ZM21.825 22.2802C24.5805 22.8134 25.0723 23.5684 24.9511 23.4218C24.7759 23.2097 24.9319 23.1258 24.9001 23.819L40.8833 24.552C41.0406 21.1215 40.3287 16.9135 37.2854 13.2304C34.2963 9.61277 29.92 7.54983 24.8646 6.5716L21.825 22.2802ZM24.9001 23.819C24.8741 24.3873 24.7362 24.5762 24.4134 24.8091C23.8744 25.198 22.0597 26.1073 17.7249 25.9085L16.9919 41.8917C23.4936 42.1899 29.3192 40.999 33.7744 37.7849C38.4459 34.4148 40.6565 29.4979 40.8833 24.552L24.9001 23.819ZM52.6518 35.0382L52.2853 43.0298C56.6989 43.2322 60.441 39.8183 60.6434 35.4046L52.6518 35.0382ZM37.4542 17.5235L45.4458 17.89C45.6482 13.4764 42.2343 9.73434 37.8207 9.53194L37.4542 17.5235ZM33.9059 17.3608L25.9143 16.9943C25.7119 21.408 29.1258 25.15 33.5394 25.3524L33.9059 17.3608ZM34.2446 9.97658L34.6111 1.98498C30.1974 1.78257 26.4554 5.19645 26.253 9.61008L34.2446 9.97658ZM37.7928 10.1393L37.4264 18.1309C41.84 18.3333 45.582 14.9194 45.7844 10.5058L37.7928 10.1393ZM37.9842 5.96768L38.3506 -2.02392C33.937 -2.22633 30.195 1.18755 29.9926 5.60119L37.9842 5.96768ZM46.9987 6.38109L54.9903 6.74758C55.1927 2.33394 51.7788 -1.40811 47.3652 -1.61051L46.9987 6.38109ZM46.8074 10.5527L38.8158 10.1862C38.6134 14.5998 42.0272 18.3419 46.4409 18.5443L46.8074 10.5527ZM53.7601 10.8716L61.7517 11.238C61.9541 6.8244 58.5402 3.08236 54.1266 2.87995L53.7601 10.8716ZM53.4214 18.2558L53.0549 26.2474C57.4686 26.4498 61.2106 23.0359 61.413 18.6223L53.4214 18.2558ZM46.4687 17.9369L46.8352 9.94534C42.4216 9.74293 38.6795 13.1568 38.4771 17.5704L46.4687 17.9369ZM53.0234 26.9347L61.015 27.3012C61.2174 22.8875 57.8035 19.1455 53.3899 18.9431L53.0234 26.9347ZM53.0183 27.0466L46.6889 26.7563L45.956 42.7395L52.2853 43.0298L53.0183 27.0466ZM46.6889 26.7563C44.837 26.6714 44.6905 26.2097 45.0112 26.532C45.1679 26.6893 45.2087 26.8226 45.1917 26.7698C45.1624 26.6785 45.0606 26.2893 45.0984 25.4661L29.1152 24.7331C28.9011 29.4002 30.0621 34.1929 33.6707 37.8188C37.1609 41.3256 41.7663 42.5474 45.956 42.7395L46.6889 26.7563ZM45.0984 25.4661L45.4458 17.89L29.4626 17.157L29.1152 24.7331L45.0984 25.4661ZM37.8207 9.53194L34.2724 9.36921L33.5394 25.3524L37.0877 25.5151L37.8207 9.53194ZM41.8975 17.7273L42.2362 10.3431L26.253 9.61008L25.9143 16.9943L41.8975 17.7273ZM33.8781 17.9682L37.4264 18.1309L38.1593 2.1477L34.6111 1.98498L33.8781 17.9682ZM45.7844 10.5058L45.9758 6.33418L29.9926 5.60119L29.8012 9.77281L45.7844 10.5058ZM37.6177 13.9593L46.6322 14.3727L47.3652 -1.61051L38.3506 -2.02392L37.6177 13.9593ZM39.0071 6.01459L38.8158 10.1862L54.799 10.9192L54.9903 6.74758L39.0071 6.01459ZM46.4409 18.5443L53.3936 18.8632L54.1266 2.87995L47.1739 2.5611L46.4409 18.5443ZM45.7685 10.5051L45.4298 17.8893L61.413 18.6223L61.7517 11.238L45.7685 10.5051ZM53.7879 10.2642L46.8352 9.94534L46.1022 25.9285L53.0549 26.2474L53.7879 10.2642ZM38.4771 17.5704L38.1891 23.8518L54.1723 24.5848L54.4603 18.3034L38.4771 17.5704ZM38.1891 23.8518C38.1364 24.9999 37.9729 28.8653 41.0338 31.8702C43.8059 34.5916 47.3932 34.6849 48.3415 34.7284L49.0744 18.7452C48.7879 18.732 49.0225 18.7181 49.4901 18.8427C50.0112 18.9815 51.1481 19.3781 52.2425 20.4525C53.3906 21.5796 53.8701 22.8375 54.0532 23.6507C54.2075 24.3362 54.1644 24.7562 54.1723 24.5848L38.1891 23.8518ZM48.3415 34.7284L52.6569 34.9263L53.3899 18.9431L49.0744 18.7452L48.3415 34.7284ZM45.0318 26.5682L44.6602 34.6717L60.6434 35.4046L61.015 27.3012L45.0318 26.5682ZM63.8181 35.5502L63.4516 43.5418C67.8652 43.7442 71.6072 40.3304 71.8097 35.9167L63.8181 35.5502ZM54.8035 35.1368L46.8119 34.7703C46.6095 39.184 50.0234 42.926 54.437 43.1284L54.8035 35.1368ZM55.9118 10.9702L56.2783 2.97863C51.8647 2.77622 48.1226 6.1901 47.9202 10.6037L55.9118 10.9702ZM64.3509 11.3572L72.3425 11.7237C72.5449 7.3101 69.1311 3.56805 64.7174 3.36564L64.3509 11.3572ZM64.0607 17.6866L56.0691 17.3201C55.8667 21.7337 59.2805 25.4758 63.6942 25.6782L64.0607 17.6866ZM64.5402 17.7086L64.1737 25.7002C68.0744 25.8791 71.5343 23.2158 72.3595 19.3992L64.5402 17.7086ZM79.6417 24.7438L79.2752 32.7354C83.6889 32.9378 87.4309 29.5239 87.6333 25.1103L79.6417 24.7438ZM70.6272 24.3304L62.6356 23.9639C62.4332 28.3775 65.8471 32.1196 70.2607 32.322L70.6272 24.3304ZM64.1845 27.5586L55.17 27.1452L54.437 43.1284L63.4516 43.5418L64.1845 27.5586ZM62.7951 35.5033L63.9034 11.3367L47.9202 10.6037L46.8119 34.7703L62.7951 35.5033ZM55.5453 18.9618L63.9844 19.3488L64.7174 3.36564L56.2783 2.97863L55.5453 18.9618ZM56.3593 10.9908L56.0691 17.3201L72.0523 18.0531L72.3425 11.7237L56.3593 10.9908ZM63.6942 25.6782L64.1737 25.7002L64.9067 9.71698L64.4272 9.69499L63.6942 25.6782ZM72.3595 19.3992C72.3971 19.2254 72.4367 19.0944 72.4702 19.0013C72.5037 18.9084 72.5292 18.8585 72.5379 18.8427C72.5461 18.8276 72.5373 18.8465 72.5043 18.8876C72.4705 18.9296 72.4182 18.9864 72.3459 19.0471C72.273 19.1084 72.1944 19.1615 72.1168 19.2034C72.0394 19.2453 71.9814 19.2661 71.9547 19.2743C71.8982 19.2915 72.0331 19.2375 72.4456 19.2564L73.1785 3.27316C69.1302 3.08751 65.2036 4.14897 62.0504 6.79954C58.9913 9.37108 57.4162 12.8016 56.7208 16.018L72.3595 19.3992ZM72.4456 19.2564C72.9059 19.2775 72.9322 19.3541 72.7163 19.25C72.6091 19.1983 72.4712 19.1155 72.3253 18.9941C72.1794 18.8728 72.0574 18.7396 71.9629 18.6106C71.7728 18.3511 71.7689 18.2153 71.8052 18.3734C71.8443 18.5437 71.8999 18.9306 71.87 19.5823L87.8532 20.3153C88.0096 16.9058 87.4814 12.7189 84.8691 9.15384C82.027 5.27505 77.7279 3.4818 73.1785 3.27316L72.4456 19.2564ZM71.87 19.5823L71.6501 24.3773L87.6333 25.1103L87.8532 20.3153L71.87 19.5823ZM80.0082 16.7522L70.9937 16.3388L70.2607 32.322L79.2752 32.7354L80.0082 16.7522ZM78.6188 24.6969L78.7485 21.8679L62.7653 21.1349L62.6356 23.9639L78.6188 24.6969ZM78.7485 21.8679C78.8256 20.1875 78.7407 16.5235 75.7602 13.619C73.0548 10.9827 69.6496 10.7033 68.1321 10.6337L67.3991 26.6169C67.6371 26.6278 67.4225 26.6425 66.9736 26.51C66.4793 26.3642 65.5267 25.9872 64.5937 25.078C63.6167 24.126 63.129 23.0478 62.9168 22.2326C62.8196 21.8588 62.7858 21.566 62.7732 21.3952C62.7666 21.307 62.7649 21.2403 62.7646 21.1988C62.7643 21.1572 62.7653 21.1349 62.7653 21.1349L78.7485 21.8679ZM68.1321 10.6337C66.6287 10.5648 63.2253 10.5138 60.2906 12.8239C56.965 15.4416 56.5623 19.1372 56.4883 20.7509L72.4715 21.4839C72.4715 21.4854 72.467 21.592 72.4367 21.7732C72.4064 21.9548 72.3421 22.2605 72.203 22.6423C71.8969 23.4822 71.2794 24.5362 70.1868 25.3962C69.1583 26.2059 68.1789 26.4715 67.7177 26.5587C67.2944 26.6386 67.1209 26.6041 67.3991 26.6169L68.1321 10.6337ZM56.4883 20.7509L55.8265 35.1837L71.8097 35.9167L72.4715 21.4839L56.4883 20.7509ZM88.6964 24.15L89.0992 32.1398L89.1077 32.1394L88.6964 24.15ZM98.5701 23.6418L98.9813 31.6312C103.093 31.4196 106.373 28.1214 106.562 24.0083L98.5701 23.6418ZM90.4428 22.7405L90.0763 30.7321C94.49 30.9345 98.232 27.5206 98.4344 23.107L90.4428 22.7405ZM81.4283 22.3271L73.4367 21.9606C73.2343 26.3742 76.6482 30.1163 81.0618 30.3187L81.4283 22.3271ZM106.871 37.5246L106.504 45.5162C110.918 45.7186 114.66 42.3047 114.862 37.8911L106.871 37.5246ZM98.4317 37.1376L90.4401 36.7711C90.2377 41.1847 93.6515 44.9268 98.0652 45.1292L98.4317 37.1376ZM98.6648 32.0549L106.656 32.4214C106.859 28.0078 103.445 24.2658 99.0313 24.0633L98.6648 32.0549ZM98.1853 32.033L98.5518 24.0414C94.9338 23.8754 91.6556 26.1609 90.5601 29.613L98.1853 32.033ZM98.2934 28.6263L106.196 29.8731C106.576 27.4646 105.837 25.0144 104.188 23.2178C102.54 21.4212 100.162 20.4744 97.7297 20.6462L98.2934 28.6263ZM90.8696 29.1508L90.3059 21.1707L90.2999 21.1711L90.8696 29.1508ZM89.1863 29.1857C88.4116 29.1502 87.9468 29.0387 87.7246 28.9649C87.5092 28.8933 87.5933 28.8822 87.8066 29.066C88.0422 29.2692 88.2871 29.5848 88.4429 29.9704C88.5915 30.338 88.5783 30.5669 88.5798 30.5353L72.5966 29.8024C72.4021 34.043 73.9028 38.2048 77.3599 41.1849C80.5668 43.9493 84.6348 44.9938 88.4533 45.1689L89.1863 29.1857ZM88.5798 30.5353C88.5764 30.6091 88.5477 30.9057 88.3552 31.3051C88.1531 31.7243 87.8676 32.0533 87.6034 32.2622C87.3633 32.452 87.2695 32.4423 87.5014 32.3705C87.7418 32.2961 88.245 32.1829 89.0992 32.1398L88.2937 16.1601C84.6134 16.3456 80.7792 17.261 77.6805 19.7109C74.3205 22.3673 72.7673 26.0805 72.5966 29.8024L88.5798 30.5353ZM89.1077 32.1394L98.9813 31.6312L98.1589 15.6523L88.2852 16.1606L89.1077 32.1394ZM106.562 24.0083L106.584 23.5288L90.6005 22.7958L90.5785 23.2753L106.562 24.0083ZM106.584 23.5288C106.68 21.4235 106.434 16.955 102.214 14.1357C100.598 13.0565 98.9579 12.6491 97.9019 12.4573C96.8128 12.2594 95.7132 12.1869 94.8208 12.1459L94.0878 28.1291C94.4173 28.1443 94.6558 28.1603 94.8306 28.1763C95.0084 28.1925 95.0662 28.204 95.0419 28.1996C95.0209 28.1958 94.8401 28.1627 94.5619 28.0654C94.2782 27.9661 93.8332 27.7791 93.3265 27.4406C92.1321 26.6428 91.2852 25.4718 90.8716 24.2574C90.5439 23.2949 90.6073 22.6463 90.6005 22.7958L106.584 23.5288ZM94.8208 12.1459C93.4242 12.0819 90.1765 11.9364 87.2765 13.665C83.2365 16.0733 82.5549 20.1135 82.46 22.1822L98.4432 22.9152C98.4427 22.9267 98.4232 23.6201 98.0071 24.5554C97.5075 25.6781 96.6305 26.7162 95.469 27.4085C94.4787 27.9989 93.6759 28.1 93.563 28.1139C93.4337 28.1298 93.546 28.1043 94.0878 28.1291L94.8208 12.1459ZM82.46 22.1822L82.4512 22.374L98.4344 23.107L98.4432 22.9152L82.46 22.1822ZM90.8093 14.7489L81.7948 14.3355L81.0618 30.3187L90.0763 30.7321L90.8093 14.7489ZM89.4199 22.6936L89.4243 22.5977L73.4411 21.8647L73.4367 21.9606L89.4199 22.6936ZM89.4243 22.5977C89.4459 22.1266 89.5498 21.8811 89.6164 21.7596C89.6836 21.6369 89.8098 21.4635 90.0997 21.2595C90.7244 20.8198 92.2694 20.1655 95.1197 20.2962L95.8527 4.31299C90.5036 4.06769 85.1693 5.16402 80.8907 8.17533C76.4101 11.3289 73.7015 16.1876 73.4411 21.8647L89.4243 22.5977ZM95.1197 20.2962C98.1444 20.4349 99.0362 21.2193 99.142 21.3242C99.1989 21.3807 99.2735 21.4671 99.3509 21.6996C99.4394 21.9658 99.5515 22.498 99.5103 23.3966L115.494 24.1296C115.723 19.1166 114.398 13.9195 110.408 9.96303C106.538 6.12569 101.267 4.5613 95.8527 4.31299L95.1197 20.2962ZM99.5103 23.3966L98.8792 37.1581L114.862 37.8911L115.494 24.1296L99.5103 23.3966ZM107.237 29.533L98.7982 29.146L98.0652 45.1292L106.504 45.5162L107.237 29.533ZM106.423 37.5041L106.656 32.4214L90.6732 31.6885L90.4401 36.7711L106.423 37.5041ZM99.0313 24.0633L98.5518 24.0414L97.8188 40.0246L98.2983 40.0465L99.0313 24.0633ZM90.5601 29.613C90.5593 29.6153 90.5688 29.5849 90.5969 29.5312C90.6253 29.4766 90.6677 29.4078 90.7264 29.3334C90.8551 29.1704 90.9916 29.0685 91.0685 29.0242C91.2005 28.9481 90.7574 29.2578 89.1863 29.1857L88.4533 45.1689C92.1087 45.3365 95.8147 44.7553 99.056 42.8878C102.437 40.94 104.706 37.9324 105.81 34.4529L90.5601 29.613ZM81.6855 29.6426C81.6126 31.2316 81.9496 33.2235 83.2463 35.0734C84.4769 36.8291 86.0615 37.7235 87.1444 38.1711C88.9655 38.9239 90.8397 38.9837 91.4265 39.0107L92.1595 23.0274C91.9176 23.0164 91.8962 23.0076 91.9933 23.0214C92.0504 23.0295 92.5633 23.0981 93.2564 23.3846C93.9797 23.6835 95.2938 24.3854 96.3482 25.8897C97.4688 27.4883 97.7239 29.1701 97.6687 30.3755L81.6855 29.6426ZM91.4265 39.0107C93.5312 39.1072 96.4948 39.1776 99.1418 38.2721C100.693 37.7416 102.453 36.7808 103.889 35.0617C105.321 33.3474 105.946 31.4573 106.196 29.8731L90.3912 27.3796C90.4718 26.8687 90.7452 25.8394 91.6079 24.8063C92.4747 23.7683 93.4495 23.3091 93.9632 23.1334C94.3936 22.9861 94.5426 23.0207 94.123 23.0458C93.7381 23.0689 93.1236 23.0717 92.1595 23.0274L91.4265 39.0107ZM97.7297 20.6462L90.3059 21.1707L91.4334 37.1309L98.8572 36.6064L97.7297 20.6462ZM90.2999 21.1711C89.34 21.2396 87.2427 21.4869 85.2436 22.9532C82.74 24.7896 81.7862 27.4467 81.6855 29.6426L97.6687 30.3755C97.6361 31.0863 97.4765 32.0818 96.9533 33.1582C96.4088 34.2783 95.6129 35.1901 94.7066 35.8549C93.0928 37.0386 91.5797 37.1205 91.4394 37.1305L90.2999 21.1711ZM127.62 38.4762L127.253 46.4678C131.667 46.6702 135.409 43.2563 135.611 38.8427L127.62 38.4762ZM112.422 20.9615L120.414 21.328C120.616 16.9144 117.202 13.1724 112.789 12.9699L112.422 20.9615ZM108.874 20.7988L100.882 20.4323C100.68 24.846 104.094 28.588 108.508 28.7904L108.874 20.7988ZM109.213 13.4146L109.579 5.42299C105.166 5.22058 101.423 8.63446 101.221 13.0481L109.213 13.4146ZM112.761 13.5773L112.394 21.5689C116.808 21.7713 120.55 18.3574 120.753 13.9438L112.761 13.5773ZM112.952 9.40569L113.319 1.41409C108.905 1.21169 105.163 4.62556 104.961 9.0392L112.952 9.40569ZM121.967 9.8191L129.958 10.1856C130.161 5.77195 126.747 2.0299 122.333 1.8275L121.967 9.8191ZM121.775 13.9907L113.784 13.6242C113.581 18.0379 116.995 21.7799 121.409 21.9823L121.775 13.9907ZM128.728 14.3096L136.72 14.6761C136.922 10.2624 133.508 6.52037 129.095 6.31796L128.728 14.3096ZM128.39 21.6938L128.023 29.6854C132.437 29.8878 136.179 26.4739 136.381 22.0603L128.39 21.6938ZM121.437 21.375L121.803 13.3834C117.39 13.1809 113.648 16.5948 113.445 21.0085L121.437 21.375ZM127.992 30.3727L135.983 30.7392C136.186 26.3255 132.772 22.5835 128.358 22.3811L127.992 30.3727ZM127.986 30.4846L121.657 30.1943L120.924 46.1775L127.253 46.4678L127.986 30.4846ZM121.657 30.1943C119.805 30.1094 119.659 29.6477 119.979 29.97C120.136 30.1273 120.177 30.2606 120.16 30.2078C120.13 30.1165 120.029 29.7273 120.066 28.9041L104.083 28.1711C103.869 32.8383 105.03 37.6309 108.639 41.2568C112.129 44.7636 116.734 45.9854 120.924 46.1775L121.657 30.1943ZM120.066 28.9041L120.414 21.328L104.431 20.5951L104.083 28.1711L120.066 28.9041ZM112.789 12.9699L109.241 12.8072L108.508 28.7904L112.056 28.9532L112.789 12.9699ZM116.866 21.1653L117.204 13.7811L101.221 13.0481L100.882 20.4323L116.866 21.1653ZM108.846 21.4062L112.394 21.5689L113.127 5.58571L109.579 5.42299L108.846 21.4062ZM120.753 13.9438L120.944 9.77219L104.961 9.0392L104.769 13.2108L120.753 13.9438ZM112.586 17.3973L121.6 17.8107L122.333 1.8275L113.319 1.41409L112.586 17.3973ZM113.975 9.45261L113.784 13.6242L129.767 14.3572L129.958 10.1856L113.975 9.45261ZM121.409 21.9823L128.362 22.3012L129.095 6.31796L122.142 5.99911L121.409 21.9823ZM120.737 13.9431L120.398 21.3273L136.381 22.0603L136.72 14.6761L120.737 13.9431ZM128.756 13.7022L121.803 13.3834L121.07 29.3666L128.023 29.6854L128.756 13.7022ZM113.445 21.0085L113.157 27.2899L129.14 28.0228L129.428 21.7414L113.445 21.0085ZM113.157 27.2899C113.105 28.4379 112.941 32.3033 116.002 35.3082C118.774 38.0296 122.361 38.1229 123.31 38.1664L124.043 22.1832C123.756 22.17 123.991 22.1561 124.458 22.2807C124.979 22.4195 126.116 22.8161 127.211 23.8905C128.359 25.0176 128.838 26.2755 129.021 27.0887C129.176 27.7742 129.133 28.1942 129.14 28.0228L113.157 27.2899ZM123.31 38.1664L127.625 38.3643L128.358 22.3811L124.043 22.1832L123.31 38.1664ZM120 30.0062L119.628 38.1097L135.611 38.8427L135.983 30.7392L120 30.0062ZM157.053 29.399L156.686 37.3906C160.758 37.5773 164.32 34.6723 164.955 30.6458L157.053 29.399ZM138.113 28.5304L138.479 20.5388C136.291 20.4385 134.158 21.2393 132.577 22.7546C130.996 24.2698 130.105 26.367 130.113 28.5569L138.113 28.5304ZM147.937 30.1342L148.304 22.1426C143.89 21.9402 140.148 25.354 139.946 29.7677L147.937 30.1342ZM156.952 30.5476L164.943 30.9141C165.146 26.5004 161.732 22.7584 157.318 22.556L156.952 30.5476ZM138.465 23.9818L130.676 22.1598C130.134 24.4752 130.65 26.9115 132.085 28.808C133.52 30.7044 135.723 31.8645 138.099 31.9734L138.465 23.9818ZM148.679 24.4502L148.312 32.4418C150.656 32.5493 152.929 31.6224 154.529 29.9064C156.129 28.1905 156.896 25.8585 156.625 23.5278L148.679 24.4502ZM143.59 31.6806C140.445 31.5364 139.096 30.7753 138.637 30.3653C138.466 30.2116 137.712 29.5698 137.838 26.836L121.855 26.1031C121.564 32.4318 123.4 38.2033 127.971 42.2913C132.255 46.1231 137.803 47.4321 142.857 47.6638L143.59 31.6806ZM137.838 26.836C137.924 24.9654 138.573 24.1111 139.157 23.6389C139.857 23.0738 141.302 22.4141 143.817 22.5295L144.55 6.54625C139.01 6.29217 133.467 7.66644 129.102 11.1936C124.621 14.8137 122.129 20.1099 121.855 26.1031L137.838 26.836ZM143.817 22.5295C146.759 22.6643 148.081 23.4668 148.555 23.908C148.848 24.1802 149.399 24.8073 149.31 26.7375L165.294 27.4705C165.561 21.6329 163.725 16.1682 159.455 12.1949C155.367 8.39068 149.952 6.79399 144.55 6.54625L143.817 22.5295ZM149.31 26.7375C149.291 27.1594 149.258 27.4681 149.15 28.1522L164.955 30.6458C165.118 29.6124 165.238 28.6789 165.294 27.4705L149.31 26.7375ZM157.419 21.4074L138.479 20.5388L137.746 36.522L156.686 37.3906L157.419 21.4074ZM130.113 28.5569C130.121 30.9837 130.647 35.0671 134.374 37.9131C137.329 40.1691 140.912 40.4151 142.849 40.504L143.582 24.5208C142.849 24.4872 142.594 24.4317 142.609 24.4352C142.631 24.4403 143.286 24.5872 144.084 25.1964C144.999 25.8947 145.598 26.8121 145.9 27.6514C146.148 28.3378 146.113 28.7399 146.112 28.5039L130.113 28.5569ZM142.849 40.504C144.678 40.5878 147.498 40.6364 150.05 39.5453C151.611 38.8784 153.265 37.7133 154.447 35.8223C155.572 34.0236 155.849 32.2337 155.905 31.0281L139.922 30.2951C139.944 29.8088 140.074 28.6307 140.88 27.3401C141.745 25.957 142.912 25.196 143.762 24.8329C144.482 24.5253 144.94 24.5124 144.777 24.5267C144.658 24.5372 144.301 24.5537 143.582 24.5208L142.849 40.504ZM155.905 31.0281L155.929 30.5007L139.946 29.7677L139.922 30.2951L155.905 31.0281ZM147.571 38.1258L156.585 38.5392L157.318 22.556L148.304 22.1426L147.571 38.1258ZM148.96 30.1811L148.934 30.7565L164.917 31.4895L164.943 30.9141L148.96 30.1811ZM148.934 30.7565C148.932 30.7884 148.939 30.7074 148.995 30.6155C149.04 30.5401 149.016 30.6291 148.742 30.8035C148.133 31.1915 146.532 31.8156 143.59 31.6806L142.857 47.6638C148.066 47.9027 153.193 46.9374 157.336 44.2998C161.678 41.5349 164.663 37.0379 164.917 31.4895L148.934 30.7565ZM144.042 13.4422C142.132 13.3546 139.247 13.3682 136.53 14.6803C133.06 16.356 131.336 19.3379 130.676 22.1598L146.255 25.8038C146.199 26.0441 146.014 26.6798 145.483 27.4096C144.911 28.1944 144.183 28.7527 143.488 29.0883C143.173 29.2406 142.912 29.3242 142.742 29.369C142.575 29.4132 142.478 29.4244 142.477 29.4245C142.476 29.4247 142.54 29.4172 142.687 29.4142C142.833 29.4111 143.037 29.4129 143.309 29.4254L144.042 13.4422ZM138.099 31.9734L148.312 32.4418L149.045 16.4586L138.832 15.9902L138.099 31.9734ZM156.625 23.5278C156.275 20.5082 154.774 17.3258 151.427 15.3403C148.841 13.8064 145.963 13.5303 144.042 13.4422L143.309 29.4254C143.896 29.4523 144.151 29.498 144.194 29.5068C144.242 29.517 143.842 29.4444 143.264 29.1012C142.608 28.7122 141.906 28.0821 141.384 27.2021C140.895 26.3763 140.766 25.6702 140.732 25.3725L156.625 23.5278ZM179.783 22.3209L171.835 23.2287C172.281 27.131 175.493 30.1326 179.417 30.3125L179.783 22.3209ZM180.263 22.3429L179.896 30.3345C184.31 30.5369 188.052 27.123 188.254 22.7094L180.263 22.3429ZM180.522 16.6848L180.889 8.69323C176.475 8.49082 172.733 11.9047 172.531 16.3183L180.522 16.6848ZM188.961 17.0718L196.953 17.4383C197.155 13.0247 193.742 9.28265 189.328 9.08024L188.961 17.0718ZM160.148 38.7186L160.514 30.727C156.1 30.5246 152.358 33.9384 152.156 38.3521L160.148 38.7186ZM169.162 39.132L177.154 39.4985C177.356 35.0848 173.942 31.3428 169.529 31.1404L169.162 39.132ZM179.23 32.29L187.222 32.6565C187.424 28.2429 184.01 24.5008 179.597 24.2984L179.23 32.29ZM178.751 32.268L179.117 24.2764C175.244 24.0988 171.801 26.7241 170.947 30.5061L178.751 32.268ZM170.362 29.7371C168.277 29.6414 167.745 29.0448 167.715 29.0124C167.689 28.9844 167.185 28.4607 167.272 26.5522L151.289 25.8192C151.06 30.8154 152.317 35.8983 155.929 39.8331C159.538 43.7635 164.521 45.486 169.629 45.7203L170.362 29.7371ZM167.272 26.5522C167.349 24.8762 167.858 24.422 167.952 24.3402C168.094 24.2164 168.819 23.676 170.876 23.7703L171.609 7.78713C166.521 7.5538 161.421 8.81244 157.447 12.2718C153.424 15.7732 151.525 20.6864 151.289 25.8192L167.272 26.5522ZM170.876 23.7703C171.577 23.8025 172.032 23.8953 172.289 23.9719C172.541 24.0467 172.54 24.0866 172.411 23.9911C172.262 23.8807 172.079 23.6909 171.943 23.4472C171.814 23.2148 171.82 23.1004 171.835 23.2287L187.732 21.4131C187.262 17.2976 185.32 13.6362 181.922 11.1249C178.758 8.78547 175.013 7.94328 171.609 7.78713L170.876 23.7703ZM179.417 30.3125L179.896 30.3345L180.629 14.3513L180.15 14.3293L179.417 30.3125ZM188.254 22.7094L188.514 17.0513L172.531 16.3183L172.271 21.9764L188.254 22.7094ZM180.156 24.6764L188.595 25.0634L189.328 9.08024L180.889 8.69323L180.156 24.6764ZM180.97 16.7054L180.049 36.7962L196.032 37.5292L196.953 17.4383L180.97 16.7054ZM180.049 36.7962C179.925 39.4877 179.156 40.1143 178.947 40.2775C178.502 40.6251 177.047 41.3835 173.391 41.2159L172.658 57.1991C178.304 57.458 184.159 56.5095 188.797 52.8859C193.672 49.0778 195.759 43.4687 196.032 37.5292L180.049 36.7962ZM173.391 41.2159C170.13 41.0663 168.739 40.292 168.348 39.9751C168.263 39.9063 168.229 39.8633 168.22 39.8524C168.213 39.8428 168.211 39.8385 168.206 39.8284C168.205 39.8259 168.114 39.6256 168.139 39.0851L152.156 38.3521C151.904 43.8366 153.936 48.8916 158.277 52.4077C162.287 55.6562 167.48 56.9616 172.658 57.1991L173.391 41.2159ZM159.781 46.7102L168.796 47.1236L169.529 31.1404L160.514 30.727L159.781 46.7102ZM161.17 38.7655C161.153 39.1449 161.052 40.6655 161.455 42.2822C162.003 44.4855 163.35 46.5356 165.53 47.9025C167.236 48.9716 168.993 49.3168 169.996 49.4746C171.125 49.6524 172.377 49.7384 173.622 49.7955L174.355 33.8123C173.251 33.7616 172.714 33.7055 172.483 33.6692C172.126 33.613 172.954 33.6724 174.029 34.3462C174.662 34.7433 175.354 35.3341 175.941 36.163C176.521 36.9836 176.825 37.7912 176.98 38.4148C177.124 38.9933 177.143 39.4219 177.147 39.5449C177.151 39.6663 177.145 39.6977 177.154 39.4985L161.17 38.7655ZM173.622 49.7955C174.677 49.8438 176.079 49.8793 177.486 49.6834C178.959 49.4784 181.072 48.9397 183.007 47.3241C184.992 45.6669 185.924 43.6046 186.382 41.9798C186.808 40.468 186.933 38.9425 186.989 37.7392L171.005 37.0062C170.967 37.8407 170.905 37.9103 170.982 37.6393C171.09 37.2553 171.51 36.0795 172.752 35.0428C173.943 34.0478 175.082 33.8638 175.281 33.8362C175.414 33.8177 175.243 33.853 174.355 33.8123L173.622 49.7955ZM186.989 37.7392L187.222 32.6565L171.238 31.9235L171.005 37.0062L186.989 37.7392ZM179.597 24.2984L179.117 24.2764L178.384 40.2596L178.864 40.2816L179.597 24.2984ZM170.947 30.5061C170.923 30.6108 170.929 30.5172 171.052 30.3233C171.187 30.1114 171.383 29.9065 171.601 29.7598C172.034 29.4673 171.914 29.8082 170.362 29.7371L169.629 45.7203C173.399 45.8932 177.264 45.2396 180.549 43.0237C183.962 40.7211 185.799 37.3733 186.554 34.03L170.947 30.5061ZM160.4 26.237C160.286 28.7092 160.769 32.8909 164.728 35.7178C167.603 37.7708 171.097 38.0514 173.243 38.1499L173.976 22.1667C173.16 22.1293 172.807 22.0652 172.739 22.0499C172.651 22.0304 173.245 22.1392 174.026 22.697C174.958 23.3623 175.702 24.3406 176.097 25.4419C176.268 25.9196 176.336 26.3147 176.363 26.5661C176.39 26.8125 176.383 26.9608 176.383 26.97L160.4 26.237ZM173.243 38.1499C175.031 38.2319 178.245 38.3718 181.091 37.1793C182.865 36.4358 184.644 35.1381 185.892 33.0876C187.058 31.1723 187.379 29.2204 187.446 27.7656L171.463 27.0327C171.471 26.8486 171.536 25.9 172.225 24.7691C172.995 23.5031 174.076 22.771 174.907 22.4227C175.572 22.1438 175.953 22.1604 175.641 22.1824C175.373 22.2014 174.872 22.2078 173.976 22.1667L173.243 38.1499ZM187.446 27.7656L187.461 27.43L171.478 26.697L171.463 27.0327L187.446 27.7656ZM187.461 27.43C187.528 25.9788 187.39 24.0303 186.443 22.036C185.427 19.8973 183.817 18.4111 182.109 17.4684C179.349 15.9457 176.099 15.7772 174.273 15.6935L173.54 31.6767C174.42 31.717 174.9 31.7707 175.143 31.8123C175.425 31.8605 175.026 31.8347 174.378 31.4768C173.572 31.0319 172.605 30.1939 171.991 28.9026C171.446 27.7556 171.471 26.8536 171.478 26.697L187.461 27.43ZM174.273 15.6935C172.21 15.5989 168.764 15.5268 165.757 17.1782C163.914 18.1901 162.433 19.7193 161.5 21.6522C160.658 23.3981 160.453 25.0815 160.4 26.237L176.383 26.97C176.382 26.9907 176.374 27.1587 176.318 27.4252C176.262 27.6975 176.147 28.1155 175.91 28.606C175.362 29.7411 174.462 30.6513 173.457 31.2031C172.631 31.6568 172.051 31.693 172.191 31.677C172.301 31.6644 172.694 31.6379 173.54 31.6767L174.273 15.6935ZM191.324 49.5662L183.332 49.1997C183.13 53.6133 186.544 57.3554 190.957 57.5578L191.324 49.5662ZM191.698 41.4148L192.064 33.4232C187.651 33.2207 183.909 36.6346 183.706 41.0483L191.698 41.4148ZM200.39 41.5251L203.636 48.8369C207.637 47.0604 209.468 42.3977 207.743 38.3738L200.39 41.5251ZM189.929 17.1162L190.296 9.12462C187.544 8.99844 184.921 10.2964 183.353 12.5604C181.785 14.8244 181.491 17.736 182.576 20.2675L189.929 17.1162ZM200.19 17.5868L207.654 14.7075C206.512 11.7464 203.727 9.74059 200.557 9.59519L200.19 17.5868ZM203.927 27.2721L211.668 25.2534C211.592 24.9616 211.499 24.6743 211.39 24.3928L203.927 27.2721ZM205.398 32.9134L197.656 34.9321C198.541 38.3236 201.53 40.7445 205.031 40.905L205.398 32.9134ZM206.021 32.942L205.654 40.9336C209.239 41.098 212.495 38.8553 213.619 35.4473L206.021 32.942ZM207.863 27.3565L200.53 24.1582C200.431 24.385 200.343 24.6162 200.265 24.8512L207.863 27.3565ZM211.89 18.1233L212.256 10.1317C208.945 9.97986 205.883 11.8863 204.557 14.925L211.89 18.1233ZM221.959 18.5851L229.078 22.2349C230.32 19.8129 230.245 16.9256 228.88 14.5712C227.514 12.2168 225.045 10.7182 222.326 10.5935L221.959 18.5851ZM209.347 43.1852L202.228 39.5354C202.226 39.5399 202.224 39.5445 202.221 39.5491L209.347 43.1852ZM196.054 41.7747L191.69 41.5746L190.957 57.5578L195.321 57.7579L196.054 41.7747ZM199.316 49.9327L199.689 41.7812L183.706 41.0483L183.332 49.1997L199.316 49.9327ZM191.331 49.4064L198.332 49.7274L199.065 33.7442L192.064 33.4232L191.331 49.4064ZM198.332 49.7274C199.507 49.7813 201.56 49.7584 203.636 48.8369L197.144 34.2133C197.877 33.8879 198.453 33.7972 198.687 33.7683C198.95 33.7359 199.089 33.7453 199.065 33.7442L198.332 49.7274ZM207.743 38.3738L197.282 13.9649L182.576 20.2675L193.037 44.6764L207.743 38.3738ZM189.563 25.1078L199.824 25.5784L200.557 9.59519L190.296 9.12462L189.563 25.1078ZM192.726 20.4661L196.463 30.1514L211.39 24.3928L207.654 14.7075L192.726 20.4661ZM196.185 29.2908L197.656 34.9321L213.139 30.8948L211.668 25.2534L196.185 29.2908ZM205.031 40.905L205.654 40.9336L206.387 24.9504L205.764 24.9218L205.031 40.905ZM213.619 35.4473L215.46 29.8618L200.265 24.8512L198.423 30.4367L213.619 35.4473ZM215.196 30.5549L219.223 21.3217L204.557 14.925L200.53 24.1582L215.196 30.5549ZM211.524 26.1149L221.593 26.5767L222.326 10.5935L212.256 10.1317L211.524 26.1149ZM214.841 14.9353L202.228 39.5354L216.466 46.835L229.078 22.2349L214.841 14.9353ZM202.221 39.5491C201.368 41.2216 200.872 41.3678 200.788 41.4061C200.368 41.5966 199.214 41.9196 196.054 41.7747L195.321 57.7579C199.209 57.9362 203.46 57.7623 207.395 55.9782C211.666 54.0419 214.476 50.736 216.473 46.8212L202.221 39.5491Z" fill="url(#paint0_radial_1_584)" mask="url(#path-1-outside-1_1_584)"/>
<path d="M17.3584 33.9001C7.5287 33.4493 1.69552 29.6741 2.06935 21.5227L2.08254 21.235L11.0971 21.6484L11.0509 22.6554C10.9519 24.8131 11.6927 25.4237 17.7344 25.7007C23.2006 25.9514 23.7958 25.5463 23.8618 24.1078C23.9146 22.957 23.3132 22.4489 20.6914 21.9923L10.6835 20.1879C4.72722 19.0979 1.85372 15.7468 2.09121 10.5682C2.3265 5.4376 6.5526 0.249753 18.1564 0.7819C28.3697 1.25028 33.056 5.93388 32.7262 13.1263L32.713 13.414L23.6985 13.0006L23.7314 12.2814C23.837 9.97979 22.8652 9.16642 16.8236 8.88935C12.2204 8.67825 11.1849 9.25542 11.1211 10.646C11.075 11.6529 11.6284 12.1588 13.3435 12.4777L23.3448 14.4259C31.1558 15.9373 33.0808 20.0619 32.8917 24.1855C32.6388 29.6997 28.195 34.3971 17.3584 33.9001ZM52.6518 35.0382L46.3224 34.7479C40.2808 34.4708 36.8187 31.381 37.1068 25.0996L37.4542 17.5235L33.9059 17.3608L34.2446 9.97658L37.7928 10.1393L37.9842 5.96768L46.9987 6.38109L46.8074 10.5527L53.7601 10.8716L53.4214 18.2558L46.4687 17.9369L46.1807 24.2183C46.0927 26.1363 46.6461 26.6422 48.7079 26.7368L53.0234 26.9347L52.6518 35.0382ZM63.8181 35.5502L54.8035 35.1368L55.9118 10.9702L64.3509 11.3572L64.0607 17.6866L64.5402 17.7086C65.394 13.7595 68.0171 11.0449 72.8121 11.2648C78.1345 11.5088 80.0837 15.1059 79.8616 19.9488L79.6417 24.7438L70.6272 24.3304L70.7569 21.5014C70.8493 19.4875 70.1151 18.7331 67.7656 18.6253C65.3201 18.5132 64.5679 19.1994 64.4799 21.1174L63.8181 35.5502ZM88.8198 37.1773C83.3535 36.9266 80.3991 34.2925 80.5882 30.1688C80.7443 26.7644 83.206 24.4267 88.6964 24.15L98.5701 23.6418L98.5921 23.1623C98.7042 20.7168 97.6669 20.2849 94.4543 20.1375C91.4814 20.0012 90.544 20.5348 90.4516 22.5487L90.4428 22.7405L81.4283 22.3271L81.4327 22.2312C81.7274 15.806 87.2868 11.9286 95.4862 12.3046C103.925 12.6916 107.812 17.0022 107.502 23.7631L106.871 37.5246L98.4317 37.1376L98.6648 32.0549L98.1853 32.033C97.1181 35.3956 94.0463 37.417 88.8198 37.1773ZM89.6771 30.0091C89.6419 30.7762 90.4025 30.9553 91.793 31.0191C96.1564 31.2192 97.9547 30.7731 98.2934 28.6263L90.8696 29.1508C90.0501 29.2093 89.7012 29.4816 89.6771 30.0091ZM127.62 38.4762L121.291 38.1859C115.249 37.9088 111.787 34.819 112.075 28.5376L112.422 20.9615L108.874 20.7988L109.213 13.4146L112.761 13.5773L112.952 9.40569L121.967 9.8191L121.775 13.9907L128.728 14.3096L128.39 21.6938L121.437 21.375L121.149 27.6564C121.061 29.5743 121.614 30.0802 123.676 30.1748L127.991 30.3727L127.62 38.4762ZM143.223 39.6722C135.024 39.2962 129.431 35.532 129.846 26.4696C130.207 18.6058 136.128 14.1684 144.184 14.5379C152.527 14.9205 157.658 19.3362 157.302 27.104C157.265 27.9192 157.188 28.5403 157.053 29.399L138.113 28.5304C138.122 31.4619 139.379 32.3364 143.215 32.5124C146.86 32.6795 147.847 32.1001 147.913 30.6616L147.937 30.1342L156.952 30.5476L156.926 31.123C156.679 36.4933 151.375 40.0461 143.223 39.6722ZM143.675 21.4338C140.367 21.2821 138.943 21.9375 138.465 23.9818L148.679 24.4502C148.437 22.3729 147.032 21.5877 143.675 21.4338ZM169.995 37.7287C162.803 37.3988 158.964 33.0904 159.281 26.1857C159.593 19.3768 164.098 15.4511 171.242 15.7787C176.133 16.003 179.303 18.1185 179.783 22.3209L180.263 22.3429L180.522 16.6848L188.961 17.0718L188.04 37.1627C187.644 45.7937 182.327 49.6341 173.025 49.2075C164.585 48.8205 159.857 45.0479 160.148 38.7186L169.162 39.132C169.072 41.0979 169.29 41.5884 173.989 41.8039C177.873 41.982 178.81 41.4484 178.997 37.3727L179.23 32.29L178.751 32.268C177.967 35.7398 175.318 37.9727 169.995 37.7287ZM168.391 26.6035C168.281 29.001 169.39 29.9648 173.61 30.1583C177.638 30.343 179.338 29.9405 179.454 27.3992L179.47 27.0635C179.589 24.4742 177.934 23.8698 173.907 23.6851C169.687 23.4916 168.499 24.254 168.391 26.6035ZM195.687 49.7663L191.324 49.5662L191.698 41.4148L198.698 41.7358C199.418 41.7688 199.997 41.6993 200.39 41.5251L189.929 17.1162L200.19 17.5868L203.927 27.2721L205.398 32.9134L206.021 32.942L207.863 27.3565L211.89 18.1233L221.959 18.5851L209.347 43.1852C206.496 48.7724 202.736 50.0895 195.687 49.7663Z" fill="#204AF8"/>
<defs>
<radialGradient id="paint0_radial_1_584" cx="0" cy="0" r="1" gradientUnits="userSpaceOnUse" gradientTransform="translate(111.475 21.719) rotate(2.62573) scale(110.5 16)">
<stop stop-color="white"/>
<stop offset="1" stop-color="white" stop-opacity="0.99"/>
</radialGradient>
</defs>
</svg>
