<svg width="36" height="36" viewBox="0 0 36 36" fill="none" xmlns="http://www.w3.org/2000/svg">
<g clip-path="url(#clip0_1_8603)">
<path d="M18 36C27.9411 36 36 27.9411 36 18C36 8.05887 27.9411 0 18 0C8.05887 0 0 8.05887 0 18C0 27.9411 8.05887 36 18 36Z" fill="#FDDE00"/>
<path d="M9.23908 12.7266C9.23908 12.7266 8.31096 13.9008 8.62033 19.2094C8.62033 19.2094 6.5883 24.4125 7.27737 27.0704C7.96643 29.7211 10.6524 29.5875 10.6524 29.5875C10.6524 29.5875 14.9625 33.3774 18.2672 30.0375C21.5789 26.6907 15.511 13.7321 15.511 13.7321L14.7516 9.25317C14.7516 9.25317 13.9219 9.90708 14.0274 14.2172C14.1328 18.5274 12.3399 15.4899 12.3399 15.4899L9.23908 12.7266Z" fill="#3C2D0C"/>
<path d="M9.58359 17.4164L8.44453 20.6227L8.02969 22.8656C8.02969 22.8656 6.6164 27.8649 12.4453 27.7945C12.4453 27.7945 16.9945 31.8656 19.9617 29.1375L20.7562 28.2727L22.1344 26.1352L24.4125 19.343C24.4125 19.343 23.6883 14.6883 19.1039 12.7617C19.1039 12.7617 18.7242 12.5578 18.0352 12.832C18.0352 12.832 16.1367 8.55705 14.9344 9.07736C14.9344 9.07736 13.9008 9.6258 14.7937 13.8375L13.1766 14.5617C13.1766 14.5617 11.4047 11.2008 9.7664 11.8758C8.24062 12.4875 9.58359 17.4164 9.58359 17.4164Z" fill="#E78C19"/>
<path d="M15.4758 11.1726L15.6164 13.0359C15.6164 13.0359 15.7218 14.1047 16.8539 13.725C17.1773 13.6195 17.4586 13.3945 17.4304 13.0289C17.4093 12.7547 17.2195 12.5015 17.0929 12.2695C16.8609 11.8265 16.6711 11.3554 16.3968 10.9265C16.2562 10.7086 15.9679 10.2234 15.6515 10.2797C15.6515 10.2797 15.4125 10.2093 15.4758 11.1726Z" fill="#EFB99D"/>
<path d="M10.4976 13.268C10.5187 13.2539 10.9828 12.6703 11.9461 14.0906C12.9094 15.5109 12.8109 15.3281 12.8109 15.3281C12.8109 15.3281 13.3312 15.8976 12.2695 16.6289C12.0375 16.7976 11.7844 16.9383 11.5172 17.0508C11.3484 17.1141 11.1726 17.1492 10.9969 17.1492C10.7929 17.1422 10.7015 17.0367 10.6523 16.8469C10.4906 16.2281 10.3078 15.6094 10.2164 14.9766C10.1461 14.4844 10.0054 13.5844 10.4976 13.268Z" fill="#EFB99D"/>
<path d="M21.6915 16.1297C21.6915 16.4672 21.1993 16.7414 20.5875 16.7414C19.9758 16.7414 19.4836 16.4672 19.4836 16.1297C19.4836 15.7922 19.9899 15.293 20.5946 15.293C21.1993 15.293 21.6915 15.7922 21.6915 16.1297Z" fill="#FBFBFB"/>
<path d="M15.325 18.7707C15.652 18.1928 15.6158 17.5538 15.244 17.3434C14.8723 17.133 14.3058 17.431 13.9788 18.0089C13.6517 18.5868 13.688 19.2258 14.0597 19.4362C14.4315 19.6466 14.998 19.3486 15.325 18.7707Z" fill="#FBFBFB"/>
<path d="M16.889 21.5648L19.9054 19.9968C19.9054 19.9968 23.6601 18.0351 24.5742 19.5468C25.4882 21.0586 24.5742 23.3718 24.5742 23.3718C24.5742 23.3718 24.1804 26.0789 21.4171 26.3179L19.9335 26.5218L18.0351 26.5711C18.0351 26.5711 14.9835 26.7468 12.7406 25.0875L12.0304 24.2226C12.0304 24.2226 10.6031 22.2609 11.6015 20.8476C12.5999 19.4343 16.0171 21.6211 16.0171 21.6211C16.0171 21.6211 16.4953 21.8812 16.889 21.5648Z" fill="#FBFBFB"/>
<path d="M23.7304 13.746C24.1304 13.746 24.4547 13.4218 24.4547 13.0218C24.4547 12.6219 24.1304 12.2976 23.7304 12.2976C23.3305 12.2976 23.0062 12.6219 23.0062 13.0218C23.0062 13.4218 23.3305 13.746 23.7304 13.746Z" fill="#E72D36"/>
<path d="M22.1273 11.9672C22.5273 11.9672 22.8515 11.643 22.8515 11.243C22.8515 10.843 22.5273 10.5188 22.1273 10.5188C21.7273 10.5188 21.4031 10.843 21.4031 11.243C21.4031 11.643 21.7273 11.9672 22.1273 11.9672Z" fill="#E72D36"/>
<path d="M19.5609 11.3977C19.9609 11.3977 20.2851 11.0734 20.2851 10.6734C20.2851 10.2735 19.9609 9.94922 19.5609 9.94922C19.1609 9.94922 18.8367 10.2735 18.8367 10.6734C18.8367 11.0734 19.1609 11.3977 19.5609 11.3977Z" fill="#E72D36"/>
<path d="M20.1305 5.54065C20.2852 7.67815 19.9758 9.61174 19.4555 9.61174C18.9352 9.61174 18.2461 7.52346 18.2461 5.54065C18.2461 4.72502 18.675 4.59143 19.1953 4.59143C19.7227 4.59143 20.0742 4.72502 20.1305 5.54065Z" fill="#E72D36"/>
<path d="M24.9257 6.86955C24.1382 8.85939 23.0203 10.4695 22.5562 10.2445C22.0921 10.0195 22.3734 7.83986 23.2382 6.05392C23.5968 5.31564 24.0398 5.38595 24.5039 5.61095C24.9679 5.84298 25.2281 6.11017 24.9257 6.86955Z" fill="#E72D36"/>
<path d="M28.357 10.7508C26.6203 12.0094 24.8203 12.7688 24.5461 12.3258C24.2718 11.8828 25.6851 10.2024 27.3656 9.15472C28.0617 8.72581 28.3992 9.02113 28.6734 9.45706C28.9406 9.90003 29.0179 10.2657 28.357 10.7508Z" fill="#E72D36"/>
<path d="M16.7485 19.4625C16.6852 19.4695 16.6219 19.4765 16.5586 19.4836C16.5657 19.5047 16.5727 19.5258 16.5727 19.5539C16.5727 19.7719 16.2282 19.9547 15.7993 19.9687C15.7993 19.9898 15.7922 20.0039 15.7993 20.025C15.8204 20.2922 16.2844 20.475 16.8258 20.4328C17.3743 20.3906 17.8032 20.1375 17.7821 19.8703C17.754 19.6031 17.2969 19.4203 16.7485 19.4625Z" fill="black"/>
<path d="M20.5594 18.5203C20.4961 18.5274 20.4328 18.5344 20.3696 18.5414C20.3766 18.5625 20.3836 18.5836 20.3836 18.6117C20.3836 18.8297 20.0391 19.0125 19.6102 19.0266C19.6102 19.0477 19.6031 19.0617 19.6102 19.0828C19.6313 19.35 20.0953 19.5328 20.6367 19.4906C21.1852 19.4485 21.6141 19.1953 21.593 18.9281C21.5719 18.661 21.1078 18.4781 20.5594 18.5203Z" fill="black"/>
<path d="M21.8109 19.6382C21.8109 19.6382 20.2992 20.0812 20.3906 20.932C20.482 21.7828 22.3031 22.2257 22.3031 22.2257C22.3031 22.2257 22.7953 22.4226 23.0765 21.9515C23.3578 21.4875 23.7726 20.8546 23.6601 19.9476C23.6601 19.9476 23.625 19.2726 21.8109 19.6382Z" fill="black"/>
</g>
<defs>
<clipPath id="clip0_1_8603">
<rect width="36" height="36" fill="white"/>
</clipPath>
</defs>
</svg>
