<svg width="36" height="36" viewBox="0 0 36 36" fill="none" xmlns="http://www.w3.org/2000/svg">
<path d="M17.9908 36C27.932 36 35.9908 27.9411 35.9908 18C35.9908 8.05887 27.932 0 17.9908 0C8.04972 0 -0.00915527 8.05887 -0.00915527 18C-0.00915527 27.9411 8.04972 36 17.9908 36Z" fill="#988430"/>
<path d="M17.9869 35.4238C27.6096 35.4238 35.4103 27.623 35.4103 18.0003C35.4103 8.37764 27.6096 0.576904 17.9869 0.576904C8.36421 0.576904 0.563477 8.37764 0.563477 18.0003C0.563477 27.623 8.36421 35.4238 17.9869 35.4238Z" fill="#7A6A2A"/>
<path d="M17.9891 35.0562C27.4091 35.0562 35.0454 27.4199 35.0454 17.9999C35.0454 8.57998 27.4091 0.943604 17.9891 0.943604C8.56917 0.943604 0.9328 8.57998 0.9328 17.9999C0.9328 27.4199 8.56917 35.0562 17.9891 35.0562Z" fill="#BA9F33"/>
<path fill-rule="evenodd" clip-rule="evenodd" d="M7.86109 16.0777C7.75914 15.9846 7.65142 15.8913 7.55235 15.7982C7.45328 15.705 7.35152 15.6117 7.24957 15.5186L6.94659 15.2306C6.89706 15.1811 6.84464 15.1375 6.7951 15.0878C6.74557 15.0442 6.68739 14.9946 6.63786 14.9509C6.23581 14.5694 5.83146 14.1878 5.43498 13.8062C5.84566 14.1819 6.24771 14.555 6.6584 14.9363L6.80106 15.0791C6.85059 15.1285 6.90301 15.1722 6.95255 15.2218L7.25533 15.5013C7.35728 15.5944 7.45635 15.6878 7.5583 15.7893C7.66026 15.8909 7.75933 15.9844 7.86128 16.0773L7.86109 16.0777ZM2.52522 16.0201C2.52522 16.0201 3.9873 16.1714 4.70096 16.2734C5.36202 16.3667 7.43005 16.684 7.43005 16.684L2.52522 16.0201ZM2.52522 16.0201C2.9359 16.055 3.34659 16.0986 3.75728 16.1424C3.96694 16.1628 4.16797 16.186 4.36899 16.2063L4.67754 16.2415C4.77949 16.2559 4.87856 16.2705 4.98051 16.2851L6.20394 16.4801L6.81546 16.5821C7.01648 16.617 7.21751 16.655 7.42717 16.69C7.22615 16.6696 7.01648 16.6405 6.81546 16.6113L6.20394 16.5239L4.98051 16.3434C4.87856 16.3288 4.77949 16.3083 4.67754 16.2939L4.3688 16.2584C4.16778 16.238 3.95811 16.2088 3.75709 16.1854C3.3464 16.1361 2.93571 16.0835 2.52502 16.0195L2.52522 16.0201ZM7.28451 17.065C7.28451 17.065 5.72336 17.4613 5.19613 17.6127C4.67773 17.7554 3.10774 18.2331 3.10774 18.2331L7.28432 17.0652L7.28451 17.065Z" fill="#CFB66C"/>
<path fill-rule="evenodd" clip-rule="evenodd" d="M7.28315 17.0646C6.93659 17.1665 6.59195 17.2656 6.2404 17.3589L5.19765 17.6385C4.85109 17.7404 4.50645 17.8395 4.16085 17.9414L3.64245 18.0841C3.47061 18.1336 3.29589 18.1772 3.11829 18.2269C3.28993 18.1693 3.46485 18.1104 3.63669 18.0609L4.15509 17.895C4.50165 17.7871 4.84629 17.6851 5.19189 17.5774C5.54421 17.49 5.89096 17.3967 6.24328 17.3123C6.57813 17.2278 6.93064 17.1435 7.28315 17.0648V17.0646ZM3.32507 19.1939C3.49672 19.1297 5.47739 18.2066 5.93761 17.991C6.16801 17.8831 6.83771 17.6454 6.83771 17.6454L3.32507 19.1939Z" fill="#CFB66C"/>
<path fill-rule="evenodd" clip-rule="evenodd" d="M3.32502 19.1943C3.47632 19.1367 3.61917 19.0663 3.7647 18.9992L4.19574 18.7982L5.06089 18.3818C5.34889 18.2449 5.62883 18.0938 5.92585 17.9651C6.07734 17.9012 6.22883 17.8488 6.38013 17.7992L6.61053 17.7265C6.68905 17.7061 6.76201 17.6827 6.84093 17.6624C6.55293 17.7992 6.24976 17.9158 5.96137 18.0496C5.67337 18.1925 5.37885 18.309 5.08163 18.4371L4.20208 18.8243C3.90678 18.944 3.61878 19.072 3.32483 19.1943H3.32502ZM3.51702 20.0007C3.51702 20.0007 5.31107 18.9493 5.92854 18.6114C6.25187 18.4309 7.2975 17.9123 7.2975 17.9123L3.51702 20.0007Z" fill="#CFB66C"/>
<path fill-rule="evenodd" clip-rule="evenodd" d="M3.51819 20.0011C3.82097 19.8147 4.12971 19.6254 4.43844 19.4332L4.89924 19.1534C5.05649 19.0603 5.20798 18.973 5.3683 18.8798C5.52555 18.7865 5.67704 18.6934 5.83716 18.6061C5.91339 18.559 5.99326 18.5181 6.07601 18.4838L6.32062 18.3614C6.64395 18.2042 6.96728 18.0439 7.30808 17.907C6.99934 18.1022 6.68177 18.2683 6.3644 18.44C6.20715 18.5273 6.04683 18.6061 5.88958 18.6934C5.73233 18.7808 5.58084 18.8741 5.42052 18.9586C5.26328 19.0517 5.11179 19.139 4.95166 19.2235L4.47684 19.4827L3.51857 20.0011H3.51819ZM7.28408 18.1428C7.28408 18.1428 6.16856 18.9991 5.8074 19.2729C5.44625 19.5467 4.38315 20.3156 4.38315 20.3156L7.28408 18.1428Z" fill="#CFB66C"/>
<path fill-rule="evenodd" clip-rule="evenodd" d="M13.6881 25.0482L13.1173 23.9676L13.4493 22.6161L15.8172 21.7016L14.8094 19.6338L15.3075 17.5454L16.2425 15.6753L19.1319 15.221L21.255 13.1968L25.8396 13.5433L26.7395 18.4453L25.0065 24.6171L24.0193 27.8124L20.0172 27.9639L18.159 26.6765L15.9833 25.7676L13.6881 25.0482Z" fill="#E2CC85"/>
<path fill-rule="evenodd" clip-rule="evenodd" d="M20.7048 25.014C20.7048 25.014 20.1513 25.2674 19.2072 25.209C18.934 24.8421 17.0205 24.6703 17.0205 24.6703C17.0205 24.6703 16.7817 24.5975 16.3593 24.7722C15.9342 24.945 15.5321 24.9237 15.1564 25.0168C14.7806 25.11 14.4076 24.6208 14.1196 24.5188C13.8316 24.4111 13.4497 24.1519 13.4497 24.1519L12.6433 24.0732L11.024 23.3887L8.45137 20.8257L7.7523 21.9201L7.53668 23.2744L8.31447 24.8794L10.4086 26.7871L14.4921 27.8239L16.9124 27.1108L19.9445 25.8292L20.7048 25.0138V25.014Z" fill="#F1D789"/>
<path fill-rule="evenodd" clip-rule="evenodd" d="M6.19955 15.9552L6.71795 14.3854L7.33562 13.3716L9.32474 13.2056L8.72762 14.9474L7.06471 17.9067L7.75495 20.5484L6.53171 21.1599L6.15578 20.5834L5.85299 19.2611L5.83264 17.7756L6.19955 15.9552Z" fill="#F4ECB4"/>
<path fill-rule="evenodd" clip-rule="evenodd" d="M8.42939 24.906L8.04789 24.373C8.04789 24.373 7.94593 24.1196 8.0043 23.8982C8.0619 23.6739 8.05365 23.6593 8.02465 23.5749C7.99566 23.4904 7.75086 23.1991 7.76545 22.9485C7.77985 22.6951 7.7451 22.6106 7.93134 22.4098C8.12641 22.2147 8.06824 21.8768 8.06824 21.8768L8.32168 22.0341L8.37928 21.9467C8.37928 21.9467 8.4724 22.0195 8.4724 22.1331C8.49275 21.9759 8.40827 21.2476 8.60046 21.0817C8.79265 20.9158 9.13345 21.8593 9.13345 21.8593L8.92379 20.4904L8.38485 19.0867L7.42657 17.8051L7.36897 16.3923V16.27C7.36897 16.27 6.9291 16.9459 6.8068 17.4796C6.71944 17.8465 6.9291 18.2922 6.88552 18.8194C6.85038 19.3437 6.8068 19.3029 6.93486 19.5106C7.06293 19.7183 7.37473 20.1455 7.25243 20.4543C7.14472 20.7194 6.77761 20.533 6.77761 20.533C6.77761 20.533 6.70485 20.7484 6.60577 20.8271C6.57083 20.6991 6.53301 20.6175 6.46312 20.5391C6.45717 20.5887 6.44277 20.6557 6.44277 20.6557C6.44277 20.6557 6.37864 20.4547 6.31451 20.2012C6.22734 19.8635 6.13403 19.4179 6.04955 19.179C6.01461 19.3159 5.92725 19.7324 5.92725 19.7324L5.97678 20.3733L6.21563 21.2528L6.44603 21.8288L6.67029 22.5336L6.86517 23.0071L7.02241 23.3683L7.15931 24.181L7.82037 24.8799L8.17288 25.0373L8.42901 24.9062L8.42939 24.906Z" fill="#F3E19D"/>
<path fill-rule="evenodd" clip-rule="evenodd" d="M6.54387 14.6738C6.54387 14.6738 6.06905 15.4802 5.93235 16.2931C5.79564 17.1061 5.67315 17.9651 5.75955 19.0718C5.84691 20.1875 6.01299 20.8718 6.147 21.3612C6.3774 22.1739 6.97414 23.304 6.97414 23.304L6.99449 23.2602C6.89419 23.0701 6.81413 22.87 6.75564 22.6631C6.67692 22.3544 6.64774 21.9875 6.57497 21.8214C6.51084 21.6555 6.40313 21.5127 6.35072 21.3087C6.30118 21.1137 6.29312 20.8049 6.14105 20.5749C6.07692 20.4816 5.9982 20.237 5.97497 19.9924C5.94579 19.6253 5.98956 19.2146 5.95462 18.8769C5.89049 18.3147 5.84691 17.9332 5.90508 17.6389C5.96326 17.3445 6.26643 16.5089 6.45286 15.8448C6.57516 15.4195 6.5022 15.0613 6.72646 14.6913C6.95072 14.3244 7.0878 14.001 7.13715 13.7768C7.19475 13.5729 6.5431 14.6738 6.5431 14.6738H6.54387Z" fill="#F2E8B0"/>
<path fill-rule="evenodd" clip-rule="evenodd" d="M8.79512 14.3505C8.79512 14.3505 8.55051 14.4234 8.43397 14.5515C8.31742 14.6738 8.26789 14.7757 8.11064 14.9825C7.95339 15.1893 7.94456 15.3583 7.8163 15.6175C7.68824 15.8709 7.40561 16.2524 7.37067 16.3893C7.33573 16.5262 7.27755 17.1669 7.20478 17.4699C7.14066 17.7729 7.27755 18.1457 7.27755 18.1457L7.44344 18.1106C7.44344 18.1106 7.44344 18.3262 7.60952 18.4719C7.77541 18.6146 7.80459 17.9883 7.80459 17.9883L8.42494 15.8941L9.35979 15.2592L9.46174 14.7466L8.79473 14.3505H8.79512Z" fill="#F5EEC0"/>
<path fill-rule="evenodd" clip-rule="evenodd" d="M9.24989 15.2994C9.24989 15.2994 8.81002 15.3284 8.59459 15.4858C8.50723 15.5498 8.47229 15.6022 8.37917 15.6809C8.20733 15.8236 8.03242 15.9547 7.94813 16.1417C7.85482 16.3279 7.75286 16.6106 7.68298 17.1436C7.65379 17.3678 7.65379 17.5746 7.63344 17.7553C7.60426 17.9999 7.56067 18.195 7.5839 18.3313C7.61309 18.6108 7.90147 18.7566 7.9295 19.0739L8.52662 18.7712L9.0888 16.5545L10.283 15.8057L9.6072 15.0485L9.24912 15.2981L9.24989 15.2994Z" fill="#E6DB9D"/>
<path fill-rule="evenodd" clip-rule="evenodd" d="M6.10023 30.2266C6.10272 30.2047 6.10522 30.1828 6.10772 30.1603C6.19488 29.4115 6.20967 28.844 6.2736 28.4886C6.36672 27.9848 6.43085 27.7974 6.41626 27.6088C6.39591 27.3061 6.37268 27.0847 6.40186 26.8516C6.44544 26.5429 6.74842 26.176 6.73978 25.9225C6.73383 25.7215 6.63188 25.5905 6.54452 25.4682C6.45716 25.3459 6.38727 25.244 6.38727 25.244C6.38727 25.244 6.98439 24.8333 6.97863 23.1788C6.99082 23.1823 7.00256 23.1872 7.01357 23.1934L7.30772 24.0292L7.50874 24.2738L8.28058 25.7127L9.2738 26.6769L10.7416 27.6641L11.6621 28.6658L11.7552 31.3367L10.5523 32.8979L10.3553 33.2546C8.79028 32.4689 7.35514 31.4476 6.10004 30.2264L6.10023 30.2266Z" fill="#E5CB7A"/>
<path fill-rule="evenodd" clip-rule="evenodd" d="M9.776 32.7814C9.776 32.7814 9.79635 32.4495 10.0701 32.2339C10.1139 32.3066 10.1429 32.3767 10.1343 32.4289C10.1838 32.3418 10.5304 31.7825 11.3139 31.6367C12.0975 31.4941 12.2868 30.9233 12.2868 30.9233L13.9497 29.4116L15.8516 27.6612L18.1643 26.8484L19.2451 26.5833C19.2451 26.5833 19.2654 26.662 19.2247 26.8367C19.4255 26.8223 19.8712 26.7204 20.3343 26.5572C20.5207 26.4844 20.6956 26.4552 20.7887 26.5514C20.9256 26.6795 20.946 26.9825 20.9546 27.1629C21.1789 27.1134 21.4381 26.898 21.6458 26.9183C21.978 26.9533 22.2721 27.3436 22.61 27.3436C23.0557 27.3436 23.2565 27.0698 23.5683 26.8542C23.7548 26.7261 24.0226 26.5662 24.1741 26.4581C24.5352 26.193 28.3566 25.025 28.3566 25.025L29.6964 25.1124L29.912 26.5512L29.7968 30.3125C29.7826 30.3261 29.7684 30.3404 29.754 30.354L23.6622 33.5356L15.218 34.8301C13.3265 34.521 11.5012 33.8932 9.81978 32.9732L9.77658 32.7812L9.776 32.7814Z" fill="#D8C173"/>
<path fill-rule="evenodd" clip-rule="evenodd" d="M6.61194 30.7051C6.73194 30.4541 6.83984 30.2443 6.85885 30.1692C6.87383 30.3205 6.90128 30.6525 6.95658 31.0053C6.84048 30.9067 6.7256 30.8065 6.61194 30.7049V30.7051Z" fill="#F1D789"/>
<path fill-rule="evenodd" clip-rule="evenodd" d="M12.7798 34.2452L13.8719 33.9414L13.965 33.9706C13.965 33.9706 14.0145 33.9998 14.0145 34.0987C14.1514 34.0201 14.268 34.0346 14.3525 33.9823C14.396 34.0754 14.4396 34.3842 14.632 34.422C14.8328 34.4658 15.0485 34.3346 15.267 34.1688C15.4824 33.9969 15.7278 33.7813 15.9134 33.6939C15.9815 33.8192 16.0419 33.9485 16.0941 34.0812C16.3387 33.8861 16.764 33.0939 17.3697 33.1083C17.5448 32.6946 17.8373 32.3412 18.2111 32.0919C18.7733 31.7104 19.1256 31.6812 19.5654 31.7161C19.7402 31.4892 19.9554 31.2966 20.2004 31.1482C20.2732 31.1774 20.4742 31.2997 20.7247 31.1832C20.9782 31.0668 21.2635 30.6152 21.6392 30.557C21.8417 30.5292 22.0476 30.5724 22.2218 30.6793C22.2218 30.6793 23.3162 29.5928 24.0713 29.2317C24.0421 29.1443 23.9839 28.8152 24.8693 28.087C24.9188 28.1307 24.8839 28.253 24.9188 28.2598C24.9332 28.2598 25.1492 28.1666 25.4226 27.9568C25.7605 27.7035 26.1653 27.4384 26.4099 27.3656C26.8707 27.2287 27.3595 27.5083 27.3595 27.5083C27.4011 27.4791 27.4474 27.4574 27.4964 27.4441C27.6127 27.4238 27.6972 27.4092 27.7614 27.3865C27.7556 27.538 27.8401 27.7972 27.7614 28.0215C27.8525 28.0728 27.9491 28.1138 28.0494 28.1438C28 28.2515 27.8921 28.5253 27.7116 28.6564C27.8629 28.7292 27.8833 28.8137 28.0989 28.8868C28.0115 29.0091 27.8685 29.219 27.8047 29.3476C27.7406 29.4845 27.5104 30.0525 27.4085 30.2679C27.3007 30.4835 27.1552 30.8796 27.0851 30.9591C27.015 31.0386 26.7618 31.3755 26.5667 31.5414C26.7395 31.4773 27.4465 31.2619 27.7464 31.1803C27.6571 31.3112 27.2046 31.9826 26.7695 32.6283C24.6864 33.8769 22.3611 34.6672 19.9486 34.9465C17.5361 35.2257 15.0917 34.9877 12.7784 34.2481L12.7798 34.2452Z" fill="#E0CD81"/>
<path fill-rule="evenodd" clip-rule="evenodd" d="M9.3225 15.2215C9.3225 15.2215 9.06925 15.2215 9.01972 15.2564C8.97018 15.2914 9.27316 15.3643 9.36628 15.3993C9.4594 15.4342 9.66042 15.5943 9.71284 15.7226C9.76237 15.8449 11.5332 16.5584 11.5332 16.5584L12.7856 16.4942L13.2174 15.8977L12.396 15.1783L12.972 13.4802L12.209 13.6025L10.3741 14.6969L9.45364 15.0494L9.3225 15.2215Z" fill="#DFC57C"/>
<path fill-rule="evenodd" clip-rule="evenodd" d="M12.0738 15.7835C12.0919 15.8128 12.1174 15.8368 12.1477 15.8532C12.1781 15.8695 12.2121 15.8776 12.2466 15.8766C12.5058 15.8766 12.7444 15.9407 12.8435 16.0717C13.0096 16.2815 13.4698 16.9514 13.4698 16.9514L14.5707 17.3475L14.6418 16.0511L13.4389 15.2153L12.0699 15.7191V15.7833H12.073L12.0738 15.7835Z" fill="#E5CC7C"/>
<path fill-rule="evenodd" clip-rule="evenodd" d="M11.8555 16.2644C11.8555 16.2644 12.0564 16.279 12.3098 16.1857C12.5632 16.0924 12.9797 15.8916 13.1604 15.9703C13.4136 16.078 13.3612 16.4159 13.6352 16.7191C13.8011 16.9055 14.104 16.8998 14.2759 17.1008C14.4477 17.3018 15.0389 17.2085 15.0389 17.2085L15.2631 18.4181L14.3632 19.5716L14.0689 21.0045H12.852L11.7403 20.5635L11.1927 19.2387L11.4665 17.8989L11.8555 16.2644Z" fill="#D2C281"/>
<path fill-rule="evenodd" clip-rule="evenodd" d="M14.2097 16.3219C14.2399 16.3312 14.2713 16.3361 14.3028 16.3365C14.2679 16.3657 14.1949 16.4296 14.2241 16.5957C14.2533 16.7618 14.3464 16.9714 14.2679 17.0995C14.3306 17.168 14.3773 17.2496 14.4048 17.3383C14.4543 17.4812 14.4689 17.6121 14.7921 17.6327C14.7454 17.6614 14.7024 17.6956 14.664 17.7346C14.664 17.7346 14.8883 17.9297 15.0019 18.1102C15.1183 18.1052 15.427 18.0092 15.427 18.0092L15.4911 18.053L15.628 17.9954C15.628 17.9954 15.5 17.9458 15.5931 17.6342C15.6804 17.3604 15.7592 17.375 15.7659 17.3547C15.7726 17.3343 15.83 17.0459 15.83 16.9294C15.8736 16.7781 15.9085 16.3179 15.9085 16.3179L15.8154 15.3014L15.2913 14.9838L14.865 14.5724L14.463 15.3296L14.1982 15.5936L14.1779 16.2489L14.2097 16.3219Z" fill="#E2C270"/>
<path fill-rule="evenodd" clip-rule="evenodd" d="M15.4722 15.4721C15.4722 15.4721 15.5653 15.7371 15.6004 15.941C15.6128 15.9013 15.6197 15.8602 15.6208 15.8187C15.6208 15.8187 15.6935 16.2207 15.7079 16.3868C15.7371 16.3808 15.7655 16.3722 15.7721 16.4012C15.7786 16.4302 15.845 16.7537 15.8297 16.9342C15.951 16.7341 16.1188 16.5663 16.3189 16.445C16.4354 16.372 16.5723 16.2935 16.7152 16.2875C16.9394 16.2818 17.1024 16.4304 17.3705 16.4304C18.0169 16.4304 18.6025 15.9556 19.0336 15.81C19.351 15.7021 19.6247 15.6236 19.8169 15.4487C19.9102 15.3702 20.0763 15.1954 20.2276 14.936C20.4286 14.5904 20.6383 14.2896 20.8482 14.2518C20.7532 14.2692 20.6566 14.276 20.5602 14.2721C20.5602 14.2721 20.6243 14.208 20.733 14.1206C20.8416 14.0333 20.9718 13.9256 21.1581 13.9256C21.4902 13.9256 21.6561 13.9749 21.8425 13.9749C22.029 13.9691 22.1367 13.9256 22.1367 13.9256C22.1367 13.9256 22.3319 14.0624 22.7716 14.0624C23.2115 14.0682 23.5056 14.106 23.7358 14.1266C23.9661 14.1471 24.7377 14.0624 24.9591 14.069C25.1034 14.0745 25.2451 14.1092 25.3757 14.1709L24.6621 12.0973L22.0985 9.85669L20.5723 10.9373L18.2245 13.2848L15.9527 14.1266L15.4779 14.6596V15.4721H15.4722Z" fill="#CCB360"/>
<path fill-rule="evenodd" clip-rule="evenodd" d="M20.5706 14.2835C20.5706 14.2835 20.6347 14.2196 20.7422 14.1322C20.8497 14.0449 20.9812 13.937 21.1675 13.937C21.4995 13.937 21.6655 13.9865 21.852 13.9865C22.0384 13.9807 22.1461 13.937 22.1461 13.937C22.1461 13.937 22.3416 14.0737 22.7811 14.0737C23.2209 14.0794 23.5151 14.1173 23.7453 14.1376C23.9755 14.158 24.7471 14.0737 24.9685 14.08C25.1128 14.0854 25.2545 14.1201 25.385 14.182L25.0616 13.2469L24.6861 12.5334L23.6141 11.3596C23.6141 11.3596 22.3277 10.6023 22.318 10.5965C22.3122 10.5908 21.8723 10.4742 21.8723 10.4742L20.7073 11.1791L19.6501 13.9141L19.6298 14.4901L20.314 14.8134C20.4859 14.5254 20.6754 14.295 20.853 14.2659C20.6927 14.2833 20.5704 14.2833 20.5704 14.2833L20.5706 14.2835Z" fill="#D5B457"/>
<path fill-rule="evenodd" clip-rule="evenodd" d="M20.555 14.4788C20.4531 14.4845 20.3688 14.4642 20.3454 14.3914C20.258 14.1468 20.1881 14.1119 20.115 14.1119C20.0418 14.1119 19.9431 14.2691 19.8846 14.2835C19.826 14.2979 19.7565 14.103 19.7565 14.103L19.6924 14.0739C19.6924 14.0739 19.3166 14.3185 19.0517 14.6068C18.7867 14.8952 18.3526 15.3846 18.1575 15.4718C17.9624 15.559 17.2924 15.5883 17.0631 15.6379C16.8339 15.6874 16.5797 15.8535 16.5447 15.8913C16.5098 15.9291 16.6469 15.9699 16.6672 16.0077C16.6876 16.0426 16.4428 16.028 16.4224 16.0653C16.408 16.0945 16.48 16.2603 16.5157 16.3448C16.5782 16.3138 16.6468 16.2968 16.7166 16.2953C16.9408 16.2895 17.104 16.4381 17.3719 16.4381C18.0185 16.4381 18.6039 15.9633 19.035 15.8176C19.3525 15.7099 19.6263 15.6312 19.8185 15.4564C19.9116 15.3779 20.0777 15.203 20.2292 14.9438C20.3398 14.7662 20.4477 14.6001 20.5556 14.4778L20.555 14.4788Z" fill="#D2B257"/>
<path fill-rule="evenodd" clip-rule="evenodd" d="M11.2775 28.8939C11.2775 28.8939 11.2199 28.6782 10.6862 28.122C10.5347 27.9648 10.4416 27.834 10.3396 27.7405C10.0862 27.5015 9.93755 27.4375 9.75707 27.3006C9.36098 27.0065 8.92994 27.0065 8.59797 26.6453C8.266 26.2842 7.87912 25.5941 7.61032 24.8889C7.34536 24.1841 7.2724 23.9598 7.2724 23.9395C7.2724 23.9191 7.34536 23.7822 7.43848 23.8026C7.5316 23.8229 7.5316 24.0034 7.55502 24.0472C7.60142 24.1187 7.65404 24.1859 7.71227 24.248C7.84917 24.4055 8.04424 24.5936 8.14331 24.8743C8.12296 24.6355 8.04136 24.3705 8.04136 24.3705C8.04136 24.3705 8.554 24.6939 8.9908 25.0316C9.43067 25.3695 9.61115 25.4861 9.7396 25.7015C9.86805 25.9169 10.1706 26.485 10.3156 26.6511C10.4606 26.8172 12.4468 27.4433 12.4468 27.4433L13.3916 28.1477L13.8607 29.1759L13.4936 29.7519L12.7888 29.9034L11.644 29.3908L11.2775 28.8937V28.8939Z" fill="#D2B159"/>
<path fill-rule="evenodd" clip-rule="evenodd" d="M8.7395 25.3515C8.7395 25.3515 8.97835 25.733 9.56088 26.0941C10.0852 26.4117 10.9152 26.7001 11.6552 26.8719C12.0803 26.9739 12.5056 27.0524 12.8871 27.0584C13.9152 27.0728 14.623 26.7788 15.4998 26.6826C15.9746 26.6331 16.5572 26.5953 17.1629 26.4522C17.9405 26.2658 18.4007 26.0559 19.0271 25.761C19.4813 25.5513 19.898 25.3941 20.2357 25.1931C20.7105 24.9135 21.0571 24.6019 21.4591 24.5088C21.4096 24.6457 21.3572 24.8903 20.9611 25.1437C21.1707 25.1378 21.4591 25.1234 21.4591 25.1234C21.4591 25.1234 21.1796 25.2893 20.6873 25.6621C20.3843 25.8925 19.9824 26.2825 19.5718 26.5417C19.3066 26.7078 19.0182 26.8297 18.8289 26.9291C18.3681 27.1826 18.1823 27.3106 17.8795 27.6203C17.9872 27.6146 17.996 27.6203 17.996 27.6203C17.996 27.6203 17.6143 27.6699 17.3407 27.8154C17.2831 27.8154 17.1833 27.7951 17.0086 27.8446C16.8717 27.8882 16.691 27.9874 16.5047 28.0397C16.2396 28.1184 16.1524 28.0834 16.1524 28.0834L16.196 28.1708C16.196 28.1708 15.8504 28.1649 15.7352 28.1766C15.7556 28.1823 15.7498 28.1912 15.7498 28.1912C15.7296 28.1945 15.7101 28.2014 15.6922 28.2115C15.6368 28.2474 15.5758 28.274 15.5117 28.29C15.4768 28.2958 15.4476 28.2958 15.4038 28.3046C15.4184 28.3396 15.5321 28.535 15.5845 28.6502C15.5409 28.6794 14.8854 29.1746 14.8854 29.1746C14.9058 29.2066 14.9224 29.2408 14.935 29.2765C14.9553 29.3405 14.9641 29.4338 14.9845 29.4774C15.0338 29.5647 15.063 29.5793 15.063 29.5793C15.063 29.5793 14.9845 29.5939 14.8474 29.6289C14.7311 29.658 14.5882 29.7074 14.3866 29.7366C14.3248 29.7446 14.2625 29.7495 14.2002 29.7512C14.2294 29.8153 14.3574 30.0599 14.1215 30.3423C13.8855 30.6248 13.8127 30.6658 13.7399 30.8463C13.7033 30.8186 13.6643 30.7942 13.6234 30.7734C13.5449 30.7384 13.437 30.6862 13.3991 30.6161C13.3771 30.7095 13.3479 30.801 13.3118 30.8899C13.239 31.085 13.1313 31.2774 13.111 31.4229C13.0322 31.3355 12.8867 31.1637 12.6857 31.1986C12.4847 31.2336 12.3245 31.5074 12.2896 31.5861C12.2896 31.5366 12.2546 31.4987 12.246 31.5569C12.24 31.621 12.1295 32.2907 11.512 32.8326C11.5062 32.6957 11.5062 32.3927 11.4916 32.2938C11.434 32.3514 11.3636 32.4365 10.944 32.6171C10.5334 32.7976 10.5984 32.9783 10.5984 32.9783C10.5984 32.9783 10.5635 32.6903 10.7849 32.3869C11.0091 32.0841 11.146 31.9413 11.146 31.9181C11.1424 31.8944 11.1323 31.8722 11.1168 31.8539C11.0877 31.8248 11.0295 31.7898 11.0295 31.7666C11.0644 31.7522 11.411 31.5861 11.3906 31.2422C11.3703 30.9337 11.2393 30.7734 11.146 30.6599C11.1316 30.6453 11.2831 30.5376 11.2626 30.5026C11.248 30.4823 11.0617 30.3452 11.0383 30.2722C11.0438 30.2287 11.0536 30.1858 11.0675 30.1442C11.0879 30.0801 11.1024 30.0363 11.0967 29.9927C11.0821 29.9199 11.0034 29.7189 10.9801 29.6986C11.0005 29.7043 11.146 29.6986 11.146 29.6986C11.146 29.6986 11.0297 29.5121 11.0091 29.4248C10.9886 29.3374 10.945 29.1072 10.9218 29.0636C10.9713 29.0694 11.0936 29.078 11.0936 29.0636C11.0996 29.0198 10.9859 28.9471 11.036 28.8908C11.071 28.8966 11.138 28.9258 11.2019 29.0074C11.167 28.914 11.1088 28.7336 10.9863 28.6608C11.0439 28.6404 11.2397 28.5878 11.4116 28.6898C11.5834 28.7917 11.642 28.9344 11.642 28.9344C11.642 28.9344 11.7439 29.0131 11.9014 29.1297C12.0818 29.2723 12.3119 29.4753 12.679 29.6189C12.7577 29.6626 12.9585 29.6626 13.1042 29.6335C13.1677 29.6183 13.2285 29.5938 13.2847 29.5607C13.305 29.5487 13.3265 29.539 13.3488 29.5315C13.3175 29.4687 13.2815 29.4083 13.2411 29.3508C13.2907 29.3508 13.3488 29.3568 13.3488 29.3568C13.3488 29.3568 13.3838 29.2781 13.2265 29.1264C13.2615 29.0914 13.3053 29.0688 13.3053 29.0098C13.2557 29.0041 13.1684 28.9313 13.148 28.9021C13.177 28.8818 13.2208 28.8148 13.2703 28.7944C13.2265 28.7595 13.1188 28.6137 13.0693 28.5993C13.1166 28.5818 13.1624 28.5603 13.2062 28.5352C13.2062 28.5352 12.9616 28.4711 12.8829 28.4187C12.8041 28.3611 12.6878 28.2614 12.6179 28.2322C12.5449 28.2031 12.4169 28.1887 12.3645 28.1303C12.4138 28.1449 12.4925 28.1303 12.5509 28.1303C12.5945 28.1303 12.615 28.1361 12.6294 28.1361C12.6237 28.1157 12.6237 28.0719 12.7373 28.0575C12.792 28.0493 12.8451 28.0326 12.8946 28.008C12.8946 28.008 12.7867 28.0022 12.6642 27.8857C12.5417 27.7691 12.4399 27.676 12.37 27.6614C12.2973 27.6468 12.1604 27.711 12.0759 27.705C11.9593 27.6906 11.9098 27.6322 11.9098 27.6322C11.9098 27.6322 11.5225 27.6672 10.6633 27.143C9.92049 26.6886 9.59717 26.2867 9.59717 26.2867C9.52765 26.2615 9.46045 26.2303 9.39633 26.1934C9.11678 26.0479 8.72933 25.7449 8.74104 25.3486L8.7395 25.3515Z" fill="#C2A44D"/>
<path fill-rule="evenodd" clip-rule="evenodd" d="M19.4509 7.87008C19.5183 7.89197 19.5781 7.93235 19.6237 7.98662C19.7606 8.14387 19.8479 8.44089 19.5363 8.75846C19.6586 8.80204 19.7091 8.81606 19.8159 8.80204C19.7082 8.9303 19.4636 9.20409 19.449 9.44294C19.4344 9.63801 19.5567 9.69638 19.5567 9.69638C19.5567 9.69638 19.3702 9.9118 19.3616 10.2724C19.4496 10.1731 19.546 10.0815 19.6496 9.99859C19.8652 9.82675 20.1622 9.63168 20.3633 9.50937C20.3605 9.56063 20.3674 9.61195 20.3836 9.66067C20.3836 9.66067 20.7592 9.35193 21.0748 9.48902C21.2175 9.55315 21.1533 9.75398 21.1533 9.75398C21.1533 9.75398 21.3486 9.68121 21.4855 9.81811C21.6224 9.955 21.8159 10.3081 21.9152 10.445C21.9588 10.5091 22.0724 10.6314 22.1888 10.8207C22.3478 11.0858 22.4805 11.3657 22.5851 11.6565C22.5908 11.505 22.6287 11.2692 23.0599 11.4177C23.4909 11.5691 23.9802 11.8867 24.3908 12.5121C24.8015 13.1374 24.9033 13.8434 25.1101 14.1122C25.3197 14.3714 25.5354 14.8024 25.55 14.9831C25.5645 15.1638 25.4858 15.7461 25.9169 17.3219C26.0392 16.8326 26.2256 15.7461 26.2256 15.7461L26.3276 14.7878L26.4441 11.8228L23.3479 9.25056L20.9276 7.49414L19.3518 7.64563L19.4507 7.86988L19.4509 7.87008Z" fill="#CAA13E"/>
<path fill-rule="evenodd" clip-rule="evenodd" d="M25.2074 12.2818C25.2074 12.2818 25.1636 11.9938 24.4355 11.5042C23.7073 11.0207 23.1393 11.0207 22.6152 10.61C22.2131 10.2867 21.7938 9.54385 21.5208 9.29924C21.2556 9.05752 21.212 8.35844 21.212 8.35844L22.1062 7.60964L23.436 5.68753L24.5601 4.44971L25.0989 5.19851L25.8477 6.07806L26.2641 7.84312L26.4156 10.4267L25.206 12.282L25.2074 12.2818Z" fill="#B59544"/>
<path fill-rule="evenodd" clip-rule="evenodd" d="M26.1052 15.3791C26.1272 14.9873 26.0788 14.5947 25.9623 14.22C25.7703 13.6228 25.3508 12.5626 25.1559 12.1656C25.0772 11.7257 25.1356 11.6907 25.22 11.6412C25.3045 11.5917 25.6221 11.4108 25.796 10.7762C25.97 10.1417 26.5097 10.121 26.5097 10.121L26.8417 9.87634L27.3457 11.1374L27.7854 12.2763L27.9222 13.1473L28.0242 13.8899L27.7854 15.4599L26.6059 16.5259L26.105 15.3791H26.1052Z" fill="#C89D3A"/>
<path fill-rule="evenodd" clip-rule="evenodd" d="M9.64758 32.8779V32.8456C9.67209 32.8303 9.69373 32.8108 9.71152 32.788C9.73187 32.7588 9.74665 32.7239 9.76105 32.7153C9.79024 32.7007 9.92713 32.6577 9.9999 32.6715C10.0727 32.6853 10.2651 32.7646 10.367 32.7588C10.5767 32.7531 10.8213 32.5928 11.2087 32.6657C11.7913 32.7734 11.9282 33.1695 12.2661 33.3938C12.4965 33.5512 12.7349 33.4812 12.7699 33.4812H12.8484C12.863 33.4812 12.9707 33.3588 13.0291 33.3648C13.1456 33.3706 13.1572 33.4667 13.2299 33.4725C13.4018 33.4929 13.7339 33.3851 13.9 33.4289C13.9492 33.4444 13.994 33.4715 14.0305 33.5079C14.067 33.5444 14.0942 33.5892 14.1097 33.6384C14.1446 33.7461 14.1154 33.883 14.0309 33.9617C13.8505 34.1276 13.6786 34.2851 13.6437 34.4225C13.6881 34.4564 13.7308 34.4926 13.7716 34.5308C12.3304 34.1636 10.9439 33.6085 9.64758 32.8796V32.8779Z" fill="#CEB052"/>
<path fill-rule="evenodd" clip-rule="evenodd" d="M25.1561 27.0582C25.1561 27.0582 25.6104 26.4524 25.7678 26.1523C25.9251 25.843 25.2698 21.9262 25.2698 21.9262L26.5863 17.6127L26.5512 16.2088C26.5512 16.2088 26.6153 14.9126 26.7668 14.3505C26.9475 14.6738 27.5097 15.0641 27.632 15.2709C27.6896 14.8746 27.8852 14.0388 27.8562 13.1476C27.9639 13.3135 28.2231 14.9825 28.2231 14.9825L28.4823 16.1067L28.8203 17.3009L29.196 18.5622L29.4203 19.4331L29.5483 19.6428L29.6562 20.0097L29.7582 20.4059L30.0523 21.335L30.2251 22.098L30.362 23.4816C30.3918 23.5875 30.4132 23.6956 30.4261 23.8049C30.4319 23.9564 30.4058 24.0438 30.4058 24.0701C30.4058 24.0964 30.4553 24.402 30.435 24.6323C30.4058 24.8627 30.4058 25.0429 30.2251 25.2083C30.0444 25.3736 29.931 26.3616 29.931 26.3616L29.6076 26.1462C29.6076 26.1462 29.6718 25.8518 29.5203 25.584C29.3688 25.3162 29.0747 25.2607 28.9086 25.3044C28.7427 25.3394 28.4107 25.3916 28.3028 25.4849C28.2009 25.578 27.9505 25.8664 27.7203 25.9976C27.4323 26.1704 26.963 26.184 26.7127 26.2422C26.4592 26.2998 26.1797 26.4726 25.8853 26.6732C25.6546 26.8226 25.4109 26.9511 25.1573 27.0572L25.1561 27.0582Z" fill="#CCA847"/>
<path fill-rule="evenodd" clip-rule="evenodd" d="M25.1561 33.422C25.1561 33.422 25.1753 33.4345 25.2124 33.4548C27.2817 32.4853 29.1358 31.1111 30.6652 29.4132C30.6485 28.8238 30.6268 28.2196 30.603 27.9957C30.5536 27.5209 30.5886 27.0374 30.574 26.7579C30.5594 26.4783 30.4021 25.3394 30.3294 25.0452C30.2507 24.7511 30.099 24.6053 30.0759 24.6053C30.0556 24.6113 29.9331 25.1589 29.9331 25.2965C29.9331 25.4342 29.9039 25.7656 29.9039 25.8501C29.8835 25.8441 29.8749 25.7925 29.8749 25.7714C29.8457 25.8441 29.8108 25.9724 29.7962 25.987C29.7816 26.0016 29.8165 25.8647 29.7962 25.8355C29.7758 25.8063 29.7386 25.8209 29.7467 25.7481C29.7501 25.705 29.7569 25.6622 29.767 25.6201C29.767 25.6201 29.6796 25.7481 29.6157 26.0743C29.5516 26.3977 29.5516 26.4065 29.5284 26.4355C29.508 26.4706 29.3915 26.587 29.3855 26.6308C29.3797 26.7093 29.4934 26.788 29.502 26.8316C29.5078 26.9045 29.4001 27.2423 29.3652 27.4076C29.3302 27.5729 29.3448 27.8968 29.3076 28.0629C29.2784 28.2144 29.2499 28.3017 29.1503 28.3657C29.2231 28.3803 29.293 28.4006 29.293 28.4006C29.293 28.4006 29.3949 28.8317 29.1357 29.1988C29.0426 29.3268 29.0194 29.3852 28.9203 29.5017C28.725 29.7172 28.5735 29.9625 28.5589 30.1221C28.5489 30.075 28.5421 30.0273 28.5386 29.9792C28.5386 29.9792 28.2358 30.3317 28.1076 30.5328C27.9417 30.792 27.7115 30.7774 27.6468 30.8415C27.582 30.9056 27.568 31.022 27.5892 31.1153C27.5316 31.1297 27.4233 31.1502 27.3503 31.3745C27.3154 31.4908 27.228 31.6049 27.0911 31.6832C26.9542 31.7616 26.7881 31.7852 26.7036 31.8055C26.7764 31.8259 26.8056 31.8259 26.8405 31.8491C26.797 31.9219 26.5959 32.0356 26.3717 32.1813C26.1474 32.3182 26.0395 32.519 25.9842 32.6501C25.9266 32.7725 25.8416 32.8512 25.7047 32.8658C25.7623 32.9007 25.8475 32.9821 25.8911 33.0084C25.827 33.023 25.7183 33.023 25.5242 33.1891C25.3203 33.358 25.2504 33.4076 25.1571 33.4222L25.1561 33.422Z" fill="#C39D3C"/>
<path fill-rule="evenodd" clip-rule="evenodd" d="M21.1046 34.7715C21.2161 34.6933 21.3369 34.6293 21.4642 34.5809C21.9185 34.4004 22.3991 34.3654 22.5884 34.3073C22.769 34.2497 22.9117 34.1702 23.136 34.1266C23.13 34.1777 23.125 34.2257 23.1196 34.271C22.4585 34.4788 21.7852 34.646 21.1036 34.7715H21.1046Z" fill="#D2BA6B"/>
<path fill-rule="evenodd" clip-rule="evenodd" d="M29.4794 22.8238C29.4794 22.8238 29.3863 23.3276 29.2202 23.6452C29.0541 23.9628 28.8746 24.4024 28.8746 24.4024C28.8757 24.3034 28.8874 24.2047 28.9095 24.1081C28.6999 24.2304 28.1901 24.5248 28.0455 24.6557C27.9086 24.778 27.6784 24.9936 27.6203 25.0956C27.7572 24.6937 27.8998 24.3326 27.9232 24.1665C27.7136 24.318 26.7348 25.1248 26.2252 25.6577L24.6377 26.9422C24.4545 27.041 24.2659 27.1294 24.0727 27.2068C23.7991 27.3232 23.4757 27.4222 23.2369 27.5155C23.301 27.3437 23.4028 27.192 23.5456 27.0465C23.6971 26.9038 24.1514 26.4115 24.2213 26.1825C24.2854 25.9436 24.3 25.801 24.2155 25.6C24.1368 25.6203 23.9563 25.6291 23.834 25.6641C23.7117 25.699 23.5806 25.83 23.5806 25.83C23.5806 25.83 23.6737 25.297 23.8747 24.7932C23.7232 24.7989 23.464 24.8425 23.464 24.8425C23.464 24.8425 23.8252 24.2368 24.4432 23.8145C24.254 23.8548 24.0687 23.9123 23.8899 23.9862C23.5287 24.1377 23.1326 24.3619 22.8385 24.4842C23.0044 24.2538 24.1694 22.5911 24.8628 21.0415C25.554 19.4949 25.8122 19.0988 25.9637 18.2688C26.0422 17.8581 26.0213 17.2512 26.0422 16.7077C26.0626 16.1687 26.1296 15.6853 26.086 15.3619C26.2665 15.5862 26.9423 16.2183 26.9655 17.631C26.9859 19.0435 26.3191 20.9514 25.6112 21.9794C25.784 22.0289 26.2317 22.0873 26.6918 21.2882C27.1518 20.4891 27.1462 20.266 27.3123 19.9338C27.3326 20.0999 27.3267 20.1581 27.3267 20.1581C27.3267 20.1581 27.9968 19.3456 28.3142 18.3232C28.3783 18.763 28.5676 19.1505 28.2704 19.9573C28.0054 20.6853 27.6589 20.8631 27.6589 20.8631C27.6589 20.8631 27.8307 20.8339 28.0839 20.6824C28.1277 20.7902 28.1191 20.9128 28.1918 20.9562C28.2646 20.9996 28.3637 21.0728 28.3783 21.1427C28.4568 21.0261 28.5791 20.8775 28.6171 20.7669C28.5879 20.9973 28.5676 22.0048 28.6747 22.5174C28.8992 22.497 29.1292 22.4824 29.2864 22.0775C29.1787 22.4738 29.1787 22.7125 29.2515 23.0504C29.3709 22.969 29.4786 22.8232 29.4786 22.8232L29.4794 22.8238Z" fill="#C0993A"/>
<path fill-rule="evenodd" clip-rule="evenodd" d="M21.9127 6.76846C21.9127 6.76846 21.6885 6.86158 21.307 6.86158C20.975 6.86158 21.0681 6.73352 20.5497 6.73352C19.7518 6.73352 16.9643 7.19432 16.4749 7.18779C16.1574 7.18203 17.5467 7.32469 17.5467 7.32469L21.0973 7.37422L21.8108 7.31662L22.0759 6.7771L21.9127 6.76846Z" fill="#A88F33"/>
<path fill-rule="evenodd" clip-rule="evenodd" d="M12.7078 13.7099C12.7078 13.7099 12.2533 14.0564 12.0611 14.3216C11.8689 14.5867 11.767 14.7613 11.5485 14.9769C11.5998 14.9788 11.651 14.972 11.7 14.9565C11.7 14.9565 11.7 15.0141 11.665 15.0293C11.6952 15.0259 11.7258 15.0293 11.7545 15.0393C11.7832 15.0493 11.8093 15.0655 11.8309 15.0869C11.7668 15.1219 11.592 15.2968 11.7289 15.5035C11.8309 15.6608 12.0465 15.6752 12.0465 15.6752C12.0465 15.6752 11.997 15.818 12.2038 15.8035C12.6494 15.7831 13.1474 15.5878 13.3775 15.6374C13.6079 15.695 13.7388 15.7161 13.9018 15.9987C14.0746 16.2783 14.2251 16.322 14.2251 16.322C14.2251 16.322 14.3271 16.0627 14.3039 15.6754C14.3874 15.4666 14.4338 15.2448 14.4408 15.0201L14.2893 13.9046L13.6282 13.0686L12.7719 13.5434L12.7078 13.7093V13.7099Z" fill="#E3C571"/>
<path fill-rule="evenodd" clip-rule="evenodd" d="M13.5201 13.5436C13.5201 13.5436 13.5843 13.6951 13.8523 13.7095C13.8231 13.7736 13.8231 13.7824 13.8319 13.8318C13.8377 13.8813 13.8463 13.9541 13.8463 13.9541C13.8759 13.9398 13.9025 13.9203 13.9251 13.8965C13.9397 13.9606 13.9105 14.0623 13.9251 14.1353C13.9341 14.1797 13.9487 14.2227 13.9687 14.2634C13.9729 14.2534 13.9778 14.2437 13.9832 14.2344C13.989 14.2198 14.0408 14.3916 14.1843 14.5224C14.1841 14.5023 14.1891 14.4825 14.1987 14.4648C14.2009 14.5013 14.2129 14.5365 14.2336 14.5667C14.2229 14.5616 14.2131 14.5547 14.2046 14.5464C14.2046 14.5464 14.219 15.0072 14.2977 15.2455C14.3109 15.2301 14.3226 15.2135 14.3327 15.1959C14.3327 15.1815 14.3269 15.3242 14.3123 15.4263C14.292 15.5283 14.3066 15.6709 14.3066 15.6709C14.3591 15.6296 14.4168 15.5953 14.4782 15.569C14.5656 15.5338 14.7086 15.4261 14.7958 15.1873C14.8464 15.052 14.8853 14.9127 14.9123 14.7708C14.9405 14.825 14.9599 14.8834 14.9699 14.9436C14.9759 15.0164 15.1128 14.9786 15.1128 14.9786L15.142 14.661L15.3148 13.9416L15.472 13.4959L16.2293 12.3165L17.5975 11.2628L18.7917 11.5366L19.7993 10.1676L18.0634 9.12488L16.4207 9.29672L14.9298 11.3617L13.7358 13.2346L13.5201 13.5434V13.5436Z" fill="#D8B65B"/>
<path fill-rule="evenodd" clip-rule="evenodd" d="M22.1253 10.5553C22.1253 10.5553 22.0233 10.5757 21.7292 10.7281C21.435 10.8806 21.2311 10.929 21.1175 11.1532C21.0038 11.3775 20.9952 11.5553 20.9952 11.5553C20.9952 11.5553 21.1962 11.4679 21.3127 11.4387C21.435 11.4097 21.5719 11.4184 21.5573 11.4679C21.5433 11.5019 21.5239 11.5333 21.4997 11.561C21.4997 11.561 21.7301 11.5553 21.724 11.6689C21.7178 11.7826 21.6804 11.9078 21.6368 11.9631C21.593 12.0207 21.4126 12.1059 21.3922 12.1729C21.3427 12.3098 21.4126 12.3156 21.3863 12.4262C21.3659 12.5341 21.2699 12.7437 20.9552 13.1107C20.6319 13.4778 20.4944 13.737 20.4944 13.737C20.4944 13.737 20.3372 13.4428 20.2556 13.1894C20.198 13.2184 19.8887 13.3902 19.8887 13.3902L19.1721 10.8942L19.1865 10.7281C19.1865 10.7281 19.2506 10.6496 19.2652 10.5039C19.1575 10.4689 19.1429 10.4397 19.0001 10.303C18.8572 10.1663 18.7409 10.0001 18.5022 9.8864C18.4673 9.82228 18.4235 9.73511 18.2488 9.69997C18.0741 9.66484 17.9692 9.63604 17.9692 9.63604C17.9692 9.63604 18.0624 9.6009 18.1061 9.52813C17.9982 9.54272 17.9111 9.57767 17.6751 9.57191C17.4362 9.56596 17.4099 9.55732 17.279 9.57767C17.1481 9.59802 16.991 9.65639 16.9324 9.45536C16.8683 9.40583 16.7314 9.4496 16.6149 9.62125C16.4983 9.7929 16.4576 9.92999 16.2334 9.997C16.2176 10.0958 16.183 10.1908 16.1314 10.2765C16.0673 10.3845 15.9653 10.4922 15.8284 10.6523C15.6128 10.9057 15.6478 11.3222 15.3041 11.6397C14.9575 11.9571 15.3617 10.76 15.3617 10.76L15.915 9.4352L17.4908 7.8944L19.9374 7.72852L20.1763 8.99572L21.3705 9.4064L22.1249 10.5569L22.1253 10.5553Z" fill="#D3AE4D"/>
<path fill-rule="evenodd" clip-rule="evenodd" d="M22.5136 10.8348L21.4854 9.35236L20.766 8.79882C20.766 8.79882 20.2534 7.85534 20.2184 7.82615C20.1892 7.8058 19.7058 7.75338 19.397 7.73303L19.4546 7.87569C19.522 7.89758 19.5819 7.93796 19.6274 7.99223C19.7643 8.14948 19.8517 8.4465 19.5401 8.76407C19.6624 8.80766 19.7129 8.82167 19.8196 8.80766C19.7119 8.93591 19.4673 9.2097 19.4527 9.44855C19.4381 9.64362 19.5604 9.7018 19.5604 9.7018C19.5604 9.7018 19.374 9.91742 19.3654 10.2778C19.4534 10.1785 19.5497 10.0869 19.6534 10.004C19.869 9.83121 20.166 9.6369 20.367 9.5146C20.3643 9.56592 20.3712 9.61731 20.3874 9.66609C20.3874 9.66609 20.7629 9.35735 21.0786 9.49425C21.2212 9.55838 21.1571 9.7594 21.1571 9.7594C21.1571 9.7594 21.3524 9.68663 21.4893 9.82353C21.6262 9.96042 21.8212 10.3127 21.9203 10.4498C21.9639 10.514 22.0775 10.6363 22.1939 10.8254C22.3529 11.0905 22.4856 11.3705 22.5902 11.6614C22.5959 11.5448 22.6194 11.3818 22.8206 11.3818L22.5147 10.8342L22.5136 10.8348Z" fill="#CAA13E"/>
<path fill-rule="evenodd" clip-rule="evenodd" d="M7.09838 15.0464C7.09838 15.0464 7.02561 14.8657 7.09838 14.5134C7.17115 14.1611 7.28481 13.995 7.32264 13.4766C7.36046 12.9582 7.69838 12.3116 7.69838 12.3116L8.63323 11.8865L9.29448 12.067L9.48955 12.9525L8.65358 13.4133C8.65358 13.4133 8.61 13.6083 8.37403 13.7656C8.13806 13.9228 7.81185 14.0451 7.73333 14.2055C7.68638 14.3036 7.65212 14.4074 7.63137 14.5142C7.63137 14.5142 7.39253 14.4647 7.24987 14.6219C7.09838 14.7822 7.10414 14.9249 7.09838 15.0472V15.0464Z" fill="#F4EFC8"/>
<path fill-rule="evenodd" clip-rule="evenodd" d="M8.98502 14.8108C8.98502 14.8108 8.9063 14.8603 8.84812 14.9836C8.79052 14.8905 8.65286 14.3369 8.6471 13.8389C8.64134 13.3408 8.61158 13.2174 8.72678 13.0457C8.84198 12.8741 9.29376 12.6932 9.22963 12.3841C9.1655 12.09 8.89747 11.9677 8.56838 12.0521C8.33798 12.1097 8.16652 12.5997 7.92768 12.8443C7.747 13.0308 7.53158 13.0016 7.4734 13.1035C7.39468 13.2404 7.46745 13.3773 7.44422 13.4647C7.43827 13.4939 7.3655 13.6511 7.23436 13.8404C6.9694 14.2219 6.52089 14.7609 6.46252 15.2443C6.48288 14.9705 6.46848 14.9648 6.54124 14.6618L6.49747 14.589L6.78547 13.6454L6.9719 12.8678L7.38854 11.5656L8.12236 10.2347L8.83603 9.43652L9.57868 9.48606L9.66604 10.6016L10.0913 12.6959L10.9855 13.7968L9.55238 14.7613L8.98444 14.8108H8.98502Z" fill="#EBCC73"/>
<path fill-rule="evenodd" clip-rule="evenodd" d="M9.43055 15.2067C9.43055 15.2067 9.30825 15.2358 9.26447 15.2126C9.22069 15.1894 9.1773 15.1631 9.1917 15.1339C9.2061 15.1047 9.28482 15.0554 9.28482 15.0319C9.28644 15.0108 9.27974 14.9898 9.26616 14.9735C9.25257 14.9572 9.23316 14.9468 9.21205 14.9446C9.14505 14.9359 9.12469 14.9795 9.12469 14.9795C9.12469 14.9795 9.06057 14.9302 9.00834 14.9219C9.03924 14.9181 9.07033 14.9161 9.10146 14.916C9.02097 14.8795 8.93559 14.855 8.84802 14.8432C8.92079 14.7996 9.06364 14.6714 9.15676 14.6714C9.24988 14.6714 9.30825 14.657 9.29365 14.6074C9.27906 14.5579 9.20629 14.4851 9.12777 14.4559C9.15676 14.421 9.1773 14.3686 9.10741 14.2255C9.03445 14.0829 9.06364 13.9867 9.08706 13.9519C9.10741 13.9082 9.18018 13.8296 9.21513 13.7801C9.25007 13.7306 9.27925 13.6635 9.33743 13.6286C9.36661 13.6083 9.45973 13.571 9.55305 13.5355C9.655 13.5005 9.73948 13.4568 9.79765 13.5005C9.86178 13.5441 9.8326 13.6025 9.8326 13.6025C9.8326 13.6025 10.0336 13.5295 10.2141 13.6228C10.3948 13.71 10.8346 13.7655 10.8346 13.7655L10.9923 14.0831L9.94953 14.9772L9.51849 15.1928L9.43113 15.2072L9.43055 15.2067Z" fill="#E5C66B"/>
<path fill-rule="evenodd" clip-rule="evenodd" d="M10.8763 13.7445C10.8763 13.7445 10.553 13.9602 10.4803 14.0387C10.5238 14.0446 10.5966 14.0738 10.5674 14.1174C10.5325 14.161 10.3228 14.3125 10.2063 14.4553C10.084 14.598 9.96742 14.7787 9.92672 14.866C9.88313 14.9445 9.55097 15.1748 9.4375 15.2037C9.67635 15.2037 10.1569 14.9096 10.3374 14.9096C10.3316 14.997 10.3869 15.096 10.4889 15.1047C10.5908 15.1133 10.885 15.1688 11.2811 14.9242C11.6772 14.6853 11.5462 14.5076 11.7121 14.3912C12.0297 14.1813 12.1578 13.9949 12.3325 13.8786C12.5072 13.7622 12.5976 13.7357 12.5976 13.7357C12.5976 13.7357 12.6034 13.6484 12.6552 13.6572C12.6694 13.6588 12.6829 13.6643 12.6942 13.673C12.7055 13.6817 12.7142 13.6934 12.7194 13.7067C12.7194 13.7067 13.0223 13.4911 13.4106 13.4329C13.4015 13.4289 13.3943 13.4216 13.3902 13.4126C13.3902 13.4126 13.4192 13.398 13.4251 13.3834C13.4251 13.3834 13.4455 13.3542 13.4601 13.3688C13.4747 13.3834 13.495 13.4911 13.5242 13.5349C13.5883 13.5057 13.7107 13.2319 13.7107 13.2319L14.005 12.3902V11.6212L13.7746 11.665L12.0466 12.3988L10.9979 13.4853L10.8756 13.7445H10.8763Z" fill="#E6BD62"/>
<path fill-rule="evenodd" clip-rule="evenodd" d="M15.852 9.97267C15.9454 9.94999 16.035 9.91363 16.1179 9.86477C16.0829 9.95808 16.0829 10.06 15.9315 10.2814C15.78 10.5028 15.7742 10.5348 15.6519 10.7649C15.5296 11.0037 15.515 11.3474 15.3985 11.4987C15.4507 11.4733 15.5067 11.4566 15.5644 11.4493C15.5644 11.4493 15.448 11.5513 15.3985 11.659C15.3489 11.7667 15.2616 11.991 15.0461 12.1281C14.8307 12.2652 14.5567 12.3523 14.2626 12.6756C13.9683 12.993 13.6655 13.3951 13.5138 13.5396C13.5925 13.4028 13.7002 13.129 13.7294 12.9485C13.7586 12.768 13.7235 12.5522 13.773 12.3135C13.8225 12.0749 13.8225 11.9028 14.061 11.4862C14.2995 11.0696 14.7076 9.62208 14.7076 9.62208L15.5872 9.34253L15.8524 9.97171L15.852 9.97267Z" fill="#B6933F"/>
<path fill-rule="evenodd" clip-rule="evenodd" d="M15.2183 9.4403C15.2183 9.4403 14.9534 9.8218 14.8806 10.1597C14.8078 10.4976 14.8747 10.4685 14.8311 10.6345C14.805 10.7358 14.805 10.842 14.8311 10.9433C14.9228 10.7954 15.0485 10.6716 15.1976 10.5819C15.4482 10.4306 15.6521 10.3227 15.7736 10.1947C15.8959 10.0578 15.9979 9.83351 16.2628 9.66167C16.1551 9.64708 16.0036 9.59754 15.9748 9.60407C16.0827 9.48177 16.4059 9.29534 16.7321 9.07108C17.0554 8.84068 17.035 8.74775 17.5594 8.51774C17.3876 8.54692 17.306 8.50314 17.1631 8.51774C17.2207 8.39543 17.4223 8.33706 17.6239 8.13623C17.8255 7.9354 17.4958 7.63818 17.4958 7.63818L15.9598 8.56727L15.2172 9.44106L15.2183 9.4403Z" fill="#C49937"/>
<path fill-rule="evenodd" clip-rule="evenodd" d="M11.0504 8.7465L11.0854 8.46695L11.5252 7.76212L11.9855 6.52429V4.83201L11.9505 3.85338L12.0233 3.21249L12.0786 3.00877L12.1369 2.93005L12.5125 3.12513L13.0311 3.82996L13.0806 5.19028L12.5766 7.33684L11.1378 8.90682L11.0504 8.7465Z" fill="#DFC068"/>
<path fill-rule="evenodd" clip-rule="evenodd" d="M12.1938 2.8517C12.1938 2.8517 11.9634 2.85765 11.9142 3.81593C11.8651 4.7742 11.8412 5.27801 11.8063 5.75282C11.7714 6.22764 11.69 6.51583 11.6491 6.79557C11.6082 7.07532 11.5849 7.45663 11.454 7.68972C11.3964 7.79743 11.2733 8.13535 10.9849 8.38879C10.6616 8.66834 10.1785 8.86361 10.1054 8.8782C9.97712 8.90719 9.32758 8.97132 9.06262 9.11705C8.9695 9.16658 8.80918 9.22476 8.63158 9.39084C8.27907 9.70821 7.81021 10.2762 7.47229 10.9606C6.95389 11.983 6.43549 14.8694 6.43549 14.8694L6.55203 14.6743C6.55203 14.6743 6.56662 14.4151 6.82582 13.9606C7.07926 13.5064 7.00649 12.9966 7.35881 12.1257C7.49571 11.7937 7.66755 11.3627 7.87721 10.9956C8.20937 10.3985 8.61123 9.88581 9.01616 9.60626C9.67721 9.15199 10.4055 9.05292 10.4055 9.05292L11.189 8.53452C11.189 8.53452 11.3259 8.26956 11.5066 7.96658C11.7598 7.54149 12.0826 7.06668 12.1531 6.37644C12.261 5.35404 12.0016 4.68415 12.0162 4.07839C12.0308 3.47263 12.0365 3.027 12.159 2.91909C12.2815 2.81119 12.194 2.85209 12.194 2.85209L12.1938 2.8517Z" fill="#A88F33"/>
<path fill-rule="evenodd" clip-rule="evenodd" d="M12.1939 7.42394C12.1939 7.42394 12.5395 6.57338 12.6977 5.81901C12.7269 5.66752 12.785 5.51623 12.7996 5.39392C12.8724 4.68026 12.8927 4.38611 12.7996 3.99578C12.7269 3.70778 12.4473 3.44819 12.3016 3.24698C12.1589 3.03712 12.0919 2.95898 12.1211 2.91482C12.1503 2.87066 12.2638 2.79847 12.3743 2.80711C12.4919 2.81053 12.6075 2.83782 12.7142 2.88733C12.8209 2.93684 12.9164 3.00753 12.9949 3.09511C13.2191 3.35431 13.3967 4.23405 13.3967 4.23405L13.5836 5.39488L14.0584 6.85696L12.1942 7.42509L12.1939 7.42394Z" fill="#C99E3D"/>
<path fill-rule="evenodd" clip-rule="evenodd" d="M15.4437 6.53904C15.4437 6.53904 15.3795 6.56803 15.2632 6.53904C15.2681 6.58658 15.2599 6.63458 15.2393 6.67774C15.2188 6.7209 15.1867 6.75754 15.1466 6.78364C15.0243 6.73411 13.8794 6.83318 13.8794 6.83318C13.8794 6.83318 13.3464 6.73987 13.1804 6.03504C13.064 5.56598 13.2677 4.91952 13.2007 4.49424C13.0988 3.86793 12.9561 3.74543 12.9415 3.55055C12.9269 3.35567 12.9123 3.30595 12.9123 3.18364C12.8482 3.16905 12.8104 3.1487 12.7464 3.1487C12.7318 3.0911 12.7608 3.04079 12.6969 2.93884C12.7318 2.95343 12.9707 2.98262 13.2502 3.24758C13.4806 3.46319 13.4806 3.54172 13.5154 3.5855C13.559 3.62908 13.9115 3.9311 14.063 4.23215C14.2145 4.53321 14.5086 5.49321 14.5756 5.65046C14.596 5.71459 14.6397 5.77871 14.7484 5.92425C14.9174 6.13411 15.1649 6.48105 15.4444 6.53865L15.4437 6.53904Z" fill="#B58634"/>
<path fill-rule="evenodd" clip-rule="evenodd" d="M13.5544 3.59924C13.7309 3.88427 13.8894 4.18001 14.0291 4.48475C14.2009 4.87201 14.3029 5.18958 14.5185 5.44878C14.4019 5.11105 14.1951 4.44692 14.0728 4.21096C13.9359 3.96136 13.6564 3.69256 13.5544 3.59944V3.59924Z" fill="#A88F33"/>
<path fill-rule="evenodd" clip-rule="evenodd" d="M11.5755 8.38886C11.5755 8.38886 11.2813 8.46163 10.7337 8.75002C10.5531 8.84314 10.3814 8.92166 10.2153 8.99462C9.78392 9.1897 9.3212 9.36998 8.9541 9.46944C8.98328 9.50438 8.99768 9.51878 8.99768 9.51878C8.99768 9.51878 8.99768 9.66163 9.0764 9.74304C9.03282 9.78682 8.4501 10.1829 8.62213 11.5081C8.73848 11.4645 8.87538 11.4061 8.89573 11.4061C8.93087 11.4121 8.93951 11.5081 8.98309 11.5081C9.02667 11.5081 9.16952 11.4505 9.32101 11.2547C9.31525 11.3334 9.22789 12.1256 9.69675 12.6586C9.78411 12.5566 10.0055 12.2187 10.0055 12.2187L10.0113 12.111C10.0113 12.111 10.0316 11.7352 10.1541 11.3916C10.2766 11.0479 10.5153 10.7944 10.5153 10.7944L11.7615 9.01478L11.5751 8.38867L11.5755 8.38886Z" fill="#E6C367"/>
<path fill-rule="evenodd" clip-rule="evenodd" d="M10.4121 11.0011C10.3551 11.0414 10.2922 11.0728 10.2257 11.0942C10.2054 11.0215 10.1762 10.7709 10.348 10.5263C10.549 10.232 10.9887 9.85047 11.111 9.54711C11.1897 9.35184 11.1548 8.86263 11.8539 8.23632C12.5529 7.61002 12.8265 7.3946 12.8265 7.3946L13.9567 6.82666L15.346 7.37424L14.6557 10.0795L14.1199 11.3467L11.9887 10.9449L10.4119 11.0011H10.4121Z" fill="#DCBA5A"/>
<path fill-rule="evenodd" clip-rule="evenodd" d="M11.2233 10.267L11.4884 9.93505V9.69908C11.4884 9.69908 11.7826 9.62036 12.0999 9.29704C12.4173 8.97371 12.8572 8.35336 13.2446 8.39118C13.6321 8.43496 13.6699 9.23291 13.6845 9.45736C13.6991 9.6818 13.7486 10.1912 13.8272 10.4652C13.9145 10.739 12.8835 11.7758 12.8835 11.7758L12.1833 12.3087L11.2233 10.267Z" fill="#E9CE77"/>
<path fill-rule="evenodd" clip-rule="evenodd" d="M12.0436 13.0311C12.0436 13.0311 12.2592 12.6932 12.1012 12.6204C12.1943 12.4108 12.3661 12.1894 12.3661 12.1894C12.3661 12.1894 12.4884 11.8866 12.8845 11.5137C13.2806 11.1409 13.5254 10.8932 13.5896 10.6428C13.6291 10.4797 13.6506 10.3126 13.6537 10.1448C13.6965 10.1798 13.7423 10.2109 13.7906 10.2379C13.8547 10.2671 14.1575 10.5174 14.1139 11.0214C14.0703 11.5254 13.8835 11.7351 13.8835 11.7351C13.8835 11.7351 13.703 11.9156 13.575 12.0089C13.4379 12.102 13.3885 12.2097 13.1583 12.2186C13.182 12.1998 13.2086 12.185 13.2371 12.1748C13.2371 12.1748 12.9982 12.1458 12.8699 12.2622C12.7417 12.3785 12.4691 12.737 12.3322 12.8449C12.1953 12.9322 12.0442 13.0313 12.0442 13.0313L12.0436 13.0311Z" fill="#CDAE50"/>
<path fill-rule="evenodd" clip-rule="evenodd" d="M21.7286 7.36535C21.3845 7.23994 21.0228 7.16919 20.6568 7.15568C20.0451 7.13533 19.151 7.17028 18.2743 7.17604C17.3306 7.1818 16.4743 6.85271 15.286 6.79453C15.0909 6.67799 14.5948 6.16823 13.0461 7.2488C13.1393 7.24304 14.1705 7.00996 14.5286 7.45866C14.8897 7.90429 14.7878 8.66154 14.7384 8.84202C14.6451 9.24407 14.3421 9.82948 14.22 10.2402C14.0979 10.6509 14.1267 10.8667 14.0394 11.1547C13.952 11.4427 13.7598 11.5857 13.8733 11.9177C14.0248 11.8245 14.1037 11.8245 14.3567 11.2566C14.6098 10.6887 14.5578 10.2837 14.9773 9.80317C15.388 9.31972 16.0717 8.65847 16.3316 8.49239C16.5916 8.32631 18.6558 7.25456 20.8172 8.27696C21.3384 8.22167 21.7288 7.36516 21.7288 7.36516L21.7286 7.36535Z" fill="#D2A83E"/>
<path fill-rule="evenodd" clip-rule="evenodd" d="M13.916 6.96951C13.9139 6.94762 13.909 6.92608 13.9016 6.90538C13.8814 6.86279 13.8549 6.8235 13.8229 6.78884C13.8229 6.78884 13.3103 6.69572 13.0511 6.72471C12.5966 6.77425 12.1859 7.33642 11.9937 7.62481C11.8015 7.91319 11.5627 8.35863 11.3035 8.58884C11.3063 8.56641 11.3011 8.5437 11.2889 8.52471C11.2889 8.52471 11.3035 8.54506 11.2745 8.57425C11.2455 8.60343 11.2453 8.61783 11.2599 8.63185L11.3037 8.67543C11.3181 8.67543 11.7201 8.49476 12.2677 7.98423C12.8502 7.45124 13.2959 7.17783 13.5289 7.08414C13.6533 7.03131 13.7832 6.99285 13.9162 6.96951H13.916Z" fill="#C29637"/>
<path fill-rule="evenodd" clip-rule="evenodd" d="M23.8626 4.78015C23.8626 4.78015 23.7693 4.8965 23.6527 5.02476C23.3935 5.29855 23.0556 5.6071 22.7672 5.92466C22.4936 6.22764 22.1849 6.46361 21.8382 6.8597C21.4914 7.2558 21.0893 7.69548 20.9876 7.82373C20.8945 7.95199 20.8217 8.16166 20.8217 8.26937C20.7722 8.23442 20.714 8.1966 20.714 8.1966C20.7385 8.24233 20.7678 8.28532 20.8014 8.32486C20.8741 8.42681 20.9876 8.55526 21.046 8.63359C21.1176 8.73332 21.169 8.84609 21.1973 8.96556C21.2322 8.97132 21.4565 9.0151 21.7362 8.55487C22.0159 8.09465 22.3827 7.59084 22.3827 7.59084L22.9652 6.72569L23.3323 5.99186L23.7931 5.17049L23.8632 4.78015H23.8626Z" fill="#AC8132"/>
<path fill-rule="evenodd" clip-rule="evenodd" d="M24.4562 4.19141C24.4562 4.19141 24.1037 4.47941 23.9668 4.65221C23.8299 4.82501 23.506 5.27851 23.506 5.27851L23.6225 5.26392L24.2139 4.73976L24.4443 4.32907L24.456 4.19217L24.4562 4.19141Z" fill="#A88F33"/>
<path fill-rule="evenodd" clip-rule="evenodd" d="M24.3513 27.3382C24.3513 27.3382 24.3455 27.0994 24.4795 26.9567C24.6164 26.8138 24.963 26.6042 25.3009 25.8178C25.6388 25.0313 25.6765 24.8537 25.6765 24.8537C25.6765 24.8537 25.0707 25.3721 24.6973 25.4944C24.7846 25.3138 24.8341 25.1857 24.8779 25.0924C24.8284 25.0488 24.6187 24.9993 24.5984 24.976C24.7147 24.8595 24.7789 24.574 25.0148 24.3847C25.3178 24.1543 25.8711 23.7584 26.3012 23.4055C26.7313 23.0526 27.5769 22.2318 27.6848 21.9929C27.7489 22.086 27.7633 22.1442 27.7633 22.1442C27.7633 22.1442 27.3382 22.6978 27.1168 23.0501C26.9216 23.353 26.9362 23.5249 26.9362 23.5249L27.3382 23.3521C27.3382 23.3521 27.4546 23.7831 26.9275 24.4386C27.1579 24.3513 27.2509 24.4037 27.3818 24.3307C27.1662 24.4678 26.8692 24.6542 26.5896 25.1667C26.3158 25.6793 25.9429 26.2764 25.314 26.6491C24.7022 27.0423 24.3497 27.3365 24.3497 27.3365L24.3513 27.3382Z" fill="#A67A2E"/>
<path fill-rule="evenodd" clip-rule="evenodd" d="M22.7707 7.66887C22.7707 7.66887 22.5319 8.16672 22.4969 8.55418C22.4912 8.64749 22.4678 8.72026 22.4678 8.82797C22.462 9.17453 22.4881 9.56199 22.4102 9.74247C22.381 9.6697 22.3664 9.62016 22.3372 9.59117C22.2936 9.71347 22.2149 10.095 22.1508 10.2376C22.1218 10.1445 22.0576 9.82119 22.0636 9.43968C22.0696 9.05818 22.078 8.98522 22.078 8.90669C22.0636 9.02304 21.9849 9.18048 21.9557 9.2736C21.9121 9.19508 21.8626 9.09312 21.8042 9.00864C21.7693 9.06624 21.7257 9.1513 21.6879 9.19508C21.6819 9.16013 21.6675 9.06682 21.6587 8.93588C21.6529 8.78439 21.6441 8.58931 21.6529 8.54842C21.6673 8.46989 21.7898 8.16115 22.049 7.87853C22.3577 7.54061 22.6753 6.89127 22.7684 6.69024C22.8615 6.48922 23.2576 5.65344 23.2576 5.65344H23.5606L23.1208 6.6553C23.1208 6.6553 22.8558 7.20288 22.7189 7.4041C22.582 7.60532 22.2936 8.18189 22.1654 8.40615C22.2585 8.28384 22.3372 8.21971 22.4305 8.10317C22.5207 8.02157 22.7711 7.66925 22.7711 7.66925L22.7707 7.66887Z" fill="#8C6228"/>
<path fill-rule="evenodd" clip-rule="evenodd" d="M24.4612 4.15332C24.4117 4.30564 24.3335 4.44707 24.2308 4.56996C24.0501 4.78558 23.6626 5.07377 23.4735 5.30378C23.3007 5.52804 22.9551 6.13975 23.1122 6.86494C23.1698 6.70769 23.2782 6.39607 23.5666 6.04356C23.855 5.69105 24.1637 5.28631 24.3154 4.97182C24.4667 4.65425 24.4871 4.40388 24.4871 4.40388L24.5447 4.33111L24.5097 4.16503L24.4602 4.15332H24.4612Z" fill="#CBA94C"/>
<path fill-rule="evenodd" clip-rule="evenodd" d="M30.3615 23.4724C30.3615 23.4724 30.2449 23.155 30.21 22.8667C30.175 22.5783 30.2676 22.5211 30.1604 22.191C30.0963 21.99 29.9799 22.0182 29.9508 21.99C29.9216 21.9618 29.9012 21.658 29.907 21.4919C29.9127 21.3259 29.9012 21.1104 29.872 21.0171C29.8285 20.9822 29.7993 20.953 29.7351 20.7376C29.6624 20.5219 29.6274 20.4142 29.5925 20.3503C29.5575 20.2864 29.4554 20.228 29.4554 20.1639C29.4554 20.0356 29.5719 19.9688 29.5719 19.9335C29.5662 19.8607 29.4788 19.9191 29.4554 19.8985C29.4264 19.8636 29.5284 19.6539 29.4905 19.6247C29.4759 19.6103 29.374 19.7326 29.3477 19.6977C29.3185 19.6626 29.2836 19.316 29.2311 19.086C29.1818 18.8617 29.1292 18.6987 29.1234 18.6317C29.1177 18.5676 28.7214 17.4375 28.6254 17.1637C28.548 16.9323 28.4829 16.6971 28.4303 16.4588C28.4011 16.3219 28.3808 16.0422 28.3662 16.0714C28.3516 16.1006 28.3604 16.2432 28.337 16.2375C28.3166 16.2315 28.2439 15.7337 28.2207 15.6549C28.2003 15.5762 28.0778 15.3093 28.0479 15.1162C28.0187 14.9209 27.9547 14.4112 27.911 14.0646C27.8672 13.718 27.8468 13.5754 27.8468 13.4886C27.854 13.2763 27.8423 13.0639 27.8119 12.8537C27.7543 12.4866 27.6391 12.0409 27.5381 11.7819C27.343 11.2925 26.8244 10.0401 26.7317 9.72848C26.7317 9.64976 26.8336 9.69353 26.8336 9.69353C26.8336 9.69353 27.0869 10.3285 27.2733 10.8177C27.454 11.3071 27.6258 11.7381 27.6696 11.7819C27.7046 11.8255 27.9783 12.3061 28.1007 13.0925C28.223 13.8789 28.2665 14.6041 28.3395 15.0876C28.3744 15.318 28.4036 15.5624 28.4764 15.807C28.5549 16.0722 28.6772 16.346 28.8375 16.7653C28.9744 17.1178 29.0764 17.4119 29.1317 17.6654C29.1958 17.9887 29.1958 18.2333 29.2336 18.3936C29.2688 18.5305 29.321 18.8041 29.4435 19.2C29.566 19.5959 29.7463 20.1059 29.8686 20.4233C30.1076 21.0582 30.2142 21.5883 30.2503 21.8709C30.2822 22.1622 30.3901 23.17 30.3609 23.4728L30.3615 23.4724Z" fill="#A88F33"/>
<path fill-rule="evenodd" clip-rule="evenodd" d="M24.4772 4.11767L24.4626 4.15261C24.4626 4.15261 24.5062 4.1672 24.4976 4.22557C24.4982 4.30543 24.4933 4.38523 24.483 4.46442C24.4686 4.56637 24.4394 4.6449 24.4337 4.70903C24.4337 4.84592 24.454 5.00317 24.2609 5.39351C24.2033 5.50122 24.1677 5.59434 24.1385 5.65847C24.0658 5.81572 24.0512 5.83914 23.9871 5.91191C24.089 5.85431 24.4561 5.62391 24.6424 5.65847C24.5143 5.73124 24.319 5.87408 24.1967 6.06052C24.2259 6.06628 24.3482 6.0897 24.5423 6.06052C24.8657 6.01098 25.2268 5.89444 25.5442 5.91767C25.8909 5.93802 25.754 5.50122 25.754 5.50122L25.3539 4.62167L24.5967 4.08887L24.4772 4.11786V4.11767Z" fill="#BE9C44"/>
<path fill-rule="evenodd" clip-rule="evenodd" d="M26.4502 10.7071C26.4502 10.7071 26.1123 10.3692 25.9754 9.2095C25.8385 8.04445 25.8677 6.3295 25.8677 6.3295L25.5939 5.65962C25.5939 5.65962 25.5363 5.21398 25.3929 5.04809C25.2495 4.88221 24.9678 4.60246 24.8395 4.46557C24.7113 4.32867 24.5658 4.14224 24.4784 4.11305C24.522 4.04029 24.7172 3.6296 25.4657 3.62384C26.2141 3.61808 26.4449 4.03453 26.523 4.18601C26.6011 4.3375 26.954 4.99241 27.085 6.24042C27.2073 7.48688 27.2132 7.58019 27.1929 8.01123C27.1783 8.25008 27.0996 8.80342 26.9625 9.39459C26.8373 9.89571 26.7004 10.455 26.4499 10.7083L26.4502 10.7071Z" fill="#A17C34"/>
<path fill-rule="evenodd" clip-rule="evenodd" d="M25.3925 11.7002C25.5051 11.7084 25.6176 11.683 25.7158 11.6273C25.8235 11.6215 26.2138 11.6711 26.5138 11.2896C26.5341 11.3767 26.5867 11.6129 26.4496 11.8225C26.5226 11.7496 26.6303 11.7206 26.6449 11.7002C26.6506 11.808 26.7526 12.1399 26.3216 12.9467C26.4379 12.8186 26.5748 12.8244 26.6971 12.8098C26.7031 12.9613 26.7845 13.4709 26.569 13.7448C26.4264 13.9313 26.1933 13.8729 26.1933 13.8729C26.1967 13.8322 26.1967 13.7913 26.1933 13.7506C26.1875 13.6719 26.1584 13.5934 26.1789 13.5409C26.0663 13.4895 25.9637 13.4184 25.8759 13.3311C25.6225 13.0922 25.2934 12.6846 25.2702 12.3816C25.241 12.0437 25.544 11.971 25.544 11.971C25.5186 11.9483 25.4969 11.9217 25.4798 11.8922C25.4652 11.8429 25.4506 11.7642 25.3925 11.7002Z" fill="#8C6228"/>
<path fill-rule="evenodd" clip-rule="evenodd" d="M23.145 8.03623C23.145 8.03623 23.1304 8.01588 23.0519 8.109C23.0665 8.01588 23.0811 7.92833 23.0868 7.84385C23.124 7.76563 23.1721 7.6931 23.2297 7.62842C23.1859 7.71559 23.1567 7.79431 23.1567 7.79431C23.1567 7.79431 23.2646 7.59329 23.4219 7.47098C23.5296 7.38362 23.6665 7.34292 23.7246 7.26132C23.7888 7.17396 23.7742 7.15937 23.7888 7.14477C23.7888 7.14477 23.9316 7.05165 24.1501 6.77767C24.1791 6.74273 24.2229 6.7049 24.2521 6.66996C24.3014 6.64961 24.418 6.59719 24.5549 6.52711C24.6977 6.44858 24.8578 6.34087 24.9569 6.29671C25.152 6.20935 25.359 6.21818 25.455 6.08109C25.5277 6.06074 25.6062 5.84225 25.5918 5.65601C25.6996 5.69959 26.2529 6.04327 26.4424 6.79476C26.5793 7.32775 26.3345 8.14913 26.2326 8.54541C26.1306 8.9417 26.1162 9.23565 25.9734 9.41613C25.7927 9.65517 25.2103 9.99213 25.0675 10.159C24.9452 10.2959 24.5783 10.6424 24.5927 10.8928C24.6073 11.0792 24.8373 11.1808 24.887 11.2161C24.9367 11.2515 24.9364 11.2949 25.0297 11.2737C25.123 11.2526 25.1577 11.2096 25.1958 11.2096C25.2393 11.2154 25.2393 11.2242 25.2597 11.2242C25.2744 11.2238 25.2891 11.2218 25.3035 11.2182C25.3035 11.2182 25.2889 11.4834 24.6685 11.5638C24.6247 11.5698 24.5812 11.5842 24.5257 11.593C24.5986 11.5581 24.6422 11.5581 24.7209 11.4504C24.6336 11.4358 24.383 11.4212 24.3189 11.4008C24.3392 11.3659 24.4062 11.2726 24.4615 11.229C24.5111 11.1854 24.4558 11.1714 24.4122 11.1941C24.3372 11.2451 24.2652 11.3005 24.1966 11.3599C24.1238 11.4241 24.0597 11.5114 23.9431 11.5903C23.9082 11.4738 23.914 11.2524 24.051 11.0923C24.0159 11.0981 23.9489 11.2 23.885 11.1797C23.8734 11.0734 23.8803 10.966 23.9053 10.8621C23.9403 10.7309 24.1296 10.5009 24.1296 10.5009L25.0441 8.86682L25.2391 7.629L23.145 8.03585V8.03623Z" fill="#92723A"/>
<path fill-rule="evenodd" clip-rule="evenodd" d="M23.0952 8.10583C23.0952 8.10583 23.0457 8.14077 23.1448 8.20778C23.1302 8.22813 23.0952 8.3009 23.0515 8.35044C23.0021 8.40804 22.9495 8.44375 22.9292 8.49329C22.8856 8.59524 22.8506 8.66513 22.8506 8.7089C22.8506 8.75268 22.836 9.03223 22.7137 9.21271C22.67 9.27684 22.6204 9.38455 22.5855 9.45732C22.5127 9.58538 22.4486 9.68772 22.434 9.74532C22.405 9.84727 22.3846 10.1268 22.3846 10.1268C22.3846 10.1268 22.4488 10.0481 22.472 10.0191C22.4369 10.0919 22.399 10.1704 22.3438 10.2288C22.3787 10.1996 22.4806 10.1268 22.6525 9.97533C22.8913 9.7745 23.2642 9.43658 23.7187 9.16893C23.5816 9.21847 23.4652 9.21847 23.3721 9.23306C23.4449 9.16029 24.1002 8.39133 24.4438 8.31857C24.4647 8.29211 24.4751 8.25889 24.473 8.22525L24.1787 8.19626L23.5816 8.32433L23.4944 7.86353L23.0952 8.10525V8.10583Z" fill="#B18E3E"/>
<path fill-rule="evenodd" clip-rule="evenodd" d="M24.0455 10.727C24.0455 10.727 23.9667 10.8055 23.894 11.0007C23.838 10.9422 23.7899 10.8766 23.7511 10.8055C23.6434 10.625 23.4775 10.3948 23.0901 10.5259C23.0843 10.4036 23.0755 10.3395 23.0901 10.2521C23.1542 10.2377 23.3493 10.0805 23.5443 9.85028C23.6814 9.69303 23.8095 9.51236 23.8969 9.28234C23.9545 9.23857 24.0541 9.1658 24.1849 9.08132C24.3713 8.95326 24.5955 8.77834 24.6305 8.58327C24.5431 8.61822 24.3567 8.70558 24.077 8.69118C24.1849 8.64164 24.3507 8.58922 24.3304 8.37361C24.3742 8.34442 24.4091 8.32407 24.4091 8.32407C24.3763 8.31312 24.3417 8.30818 24.3072 8.30948C24.3012 8.28913 24.2926 8.26014 24.243 8.27454C24.1935 8.28894 24.1854 8.28913 24.1789 8.30948C24.1586 8.31543 24.0915 8.30948 24.042 8.34462C23.9925 8.37975 23.8556 8.49591 23.8032 8.51626C23.8235 8.48132 23.8525 8.4291 23.8525 8.4291C23.8525 8.4291 23.7099 8.4435 23.6079 8.4867C23.4215 8.55082 23.206 8.66737 22.9875 8.78084C23.0079 8.7459 23.0167 8.72324 23.0311 8.71671C23.0455 8.71018 23.0807 8.70231 23.0807 8.69636C23.0807 8.69041 23.0663 8.63876 23.0749 8.61783C23.1402 8.47945 23.2173 8.34693 23.3053 8.22174C23.4073 8.08465 23.4276 7.88958 23.4276 7.88958L23.8732 7.66532L25.1257 7.37732L25.9384 7.42686L25.8364 7.98903L25.3564 8.97054L24.9458 9.86468L24.4767 10.4125L24.0457 10.727H24.0455Z" fill="#543E26"/>
<path fill-rule="evenodd" clip-rule="evenodd" d="M26.0771 8.29497C26.0771 8.29497 25.5877 8.90073 25.4508 8.99404C25.5381 8.80761 26.0771 7.69785 26.2721 7.38911C26.2285 7.35417 26.1702 7.35417 26.3071 6.81311C26.1907 7.08671 26.1498 7.22956 26.0538 7.30233C25.9578 7.37509 25.9459 7.35186 25.881 7.35186C25.8933 7.3297 25.8983 7.30426 25.8954 7.27909C25.8954 7.27909 25.4847 7.22956 25.2042 7.22956C24.9237 7.22956 24.3685 7.38105 24.0595 7.50335C23.8149 7.6053 23.678 7.6053 23.5907 7.66924C23.5033 7.74201 23.4538 7.82073 23.41 7.84108C23.375 7.86143 23.2092 7.91385 23.1711 7.96914C23.1362 8.02674 23.078 8.09145 23.078 8.10604C23.078 8.12063 23.0634 8.14117 23.1072 8.12639C23.1216 8.12063 23.2295 8.06226 23.3518 7.98949C23.5177 7.89637 23.7187 7.78866 23.8645 7.72453C24.2809 7.55845 24.412 7.58764 24.5983 7.55269C24.7933 7.51775 25.0731 7.43615 25.2593 7.43615C25.4458 7.43039 25.7983 7.43615 25.8799 7.45074C25.8449 7.47993 25.8157 7.51487 25.8303 7.63717C25.8303 7.67212 25.8012 7.70994 25.7727 7.79442C25.6856 8.03327 25.5195 8.42937 25.4271 8.63039C25.2991 8.90399 25.1535 9.1342 25.0815 9.27685C25.0095 9.41951 24.8511 9.79525 24.6943 9.99628C24.5374 10.1973 24.4554 10.3196 24.4063 10.3634C24.3571 10.4072 24.0042 10.6662 24.0305 10.7595C24.0947 10.7391 24.4996 10.5867 24.7935 10.2557C25.0875 9.92466 25.146 9.72268 25.3761 9.54201C25.6061 9.36133 25.7868 9.05855 25.8945 8.80818C25.9847 8.57509 25.9644 8.50233 26.0778 8.29554L26.0771 8.29497Z" fill="#806031"/>
<path fill-rule="evenodd" clip-rule="evenodd" d="M15.5307 12.8157C15.5307 12.8157 15.4666 13.0806 15.3208 13.2118C15.1782 13.34 14.9248 13.4506 14.8958 13.6662C14.8608 13.8817 15.1492 13.9896 15.1492 13.9896C15.1492 13.9896 14.9918 14.2488 14.9918 14.4438C14.9918 14.6449 14.986 14.6827 15.0064 14.8749C14.9833 14.8897 14.9636 14.9094 14.9488 14.9325C14.9488 14.9325 14.9632 15.1189 15.106 15.2353C15.2488 15.3516 15.371 15.4217 15.4437 15.3925C15.4548 15.4162 15.4646 15.4406 15.4729 15.4655C15.4729 15.4655 15.5808 15.1917 15.6536 14.9528C15.7264 14.7082 15.7905 14.743 15.8195 14.4139C15.8485 14.0848 16.1651 13.5197 16.1651 13.5197L16.3811 13.0369L16.0288 12.7631L15.5307 12.8155V12.8157Z" fill="#B6903C"/>
<path fill-rule="evenodd" clip-rule="evenodd" d="M16.1851 13.2902C16.1124 13.3647 16.0454 13.4446 15.9844 13.529C15.8913 13.6573 15.8186 13.7736 15.6817 13.8233C15.5448 13.8731 15.4574 13.8727 15.466 14.0098C15.4747 14.1469 15.6029 14.2048 15.6757 14.2747C15.7544 14.3475 15.8186 14.4698 15.7836 14.6069C15.8272 14.5865 15.9059 14.5631 15.9787 14.4059C16.0514 14.2486 16.5604 13.2904 16.5604 13.2904H16.1851V13.2902Z" fill="#685026"/>
<path fill-rule="evenodd" clip-rule="evenodd" d="M18.1927 11.08C18.1927 11.08 18.2363 10.9637 18.1927 10.8792C18.1489 10.7918 17.884 10.7626 17.7528 10.6636C17.6159 10.5616 17.4499 10.4908 17.313 10.5355C17.3333 10.486 17.4149 10.3781 17.3479 10.3548C17.2838 10.3345 17.0451 10.4422 16.981 10.4917C16.9169 10.5413 16.7711 10.5994 16.7422 10.6346C16.7132 10.6697 16.6634 10.7365 16.6342 10.7073C16.6051 10.687 16.5907 10.6346 16.5411 10.6636C16.4916 10.6926 16.2531 10.8878 16.2092 11.0015C16.1652 11.1151 16.0663 11.3686 15.7693 11.6568C15.4723 11.945 15.344 12.1316 15.4314 12.2393C15.5187 12.347 15.5596 12.2685 15.5742 12.3616C15.5854 12.453 15.5805 12.5457 15.5596 12.6354C15.5247 12.7869 15.4665 12.9295 15.545 12.9587C15.7461 13.0229 15.9413 12.9011 15.9849 12.9384C16.0723 13.0169 15.9354 13.2995 16.1422 13.3548C16.352 13.4124 16.5588 13.3053 16.5588 13.3053L17.3218 12.8946L18.0558 12.5073L18.4314 11.7645L18.23 11.1441L18.1916 11.08H18.1927Z" fill="#D4B968"/>
<path fill-rule="evenodd" clip-rule="evenodd" d="M17.4732 12.8537C17.4732 12.8537 17.3449 12.6586 17.5024 12.4866C17.6598 12.3145 17.8839 12.242 17.9712 12.1342C17.9546 12.1137 17.9323 12.0986 17.9071 12.0907C17.9651 11.9869 18.0536 11.9034 18.1606 11.8516C18.117 11.808 18.0586 11.7731 17.9947 11.7731C17.8518 11.7731 17.7643 11.8604 17.6333 11.8604C17.5053 11.8604 17.4907 11.7963 17.4907 11.7963C17.4907 11.7963 17.7063 11.776 17.6857 11.6798C17.6654 11.5778 17.6281 11.5778 17.6281 11.5778C17.6281 11.5778 18.0446 11.405 18.1174 11.3129C18.1901 11.2207 18.1815 11.1118 18.1961 11.0683C18.2454 11.0683 18.5338 10.9168 18.6504 10.9809C18.7669 11.045 18.6853 11.2197 18.6853 11.2197C18.6853 11.2197 19.038 10.9546 19.2177 10.6946C19.375 10.7092 19.4481 10.5869 19.5633 10.5869C19.7062 10.5869 19.9304 10.782 19.974 11.1984C20.0032 11.4373 20.0468 11.5742 20.0032 11.9966C19.9828 12.2354 19.9886 12.7454 20.0608 12.9984C20.1101 13.1995 20.2267 13.1791 20.2267 13.1791C20.2088 13.2404 20.1733 13.295 20.1247 13.3364C20.046 13.4091 20.0374 13.6015 20.046 13.6743C20.0576 13.7275 20.0722 13.78 20.0898 13.8315C20.0898 13.8315 19.9967 13.9392 19.9732 14.0122C19.9529 14.085 19.8569 14.1345 19.7868 14.1345C19.7167 14.1345 19.7519 14.1285 19.6587 14.1345C19.5656 14.1404 19.5364 14.1548 19.4781 14.1345C19.4197 14.1141 19.3761 14.0907 19.3995 13.9041C19.4199 13.7177 18.6801 13.2837 18.6801 13.2837L17.4705 12.8527L17.4732 12.8537Z" fill="#CCA849"/>
<path fill-rule="evenodd" clip-rule="evenodd" d="M16.0831 14.6941C16.0831 14.6941 16.3481 15.0466 17.4375 15.0466C17.9559 15.0466 18.1366 14.9971 18.2439 14.9679C18.3604 14.9387 18.7972 14.7671 19.2371 14.2485C19.6332 13.7796 19.5458 13.5874 19.5458 13.5874L19.3154 13.5525L18.5666 13.6544L16.351 14.5981L16.0822 14.6941H16.0831Z" fill="#585136"/>
<path fill-rule="evenodd" clip-rule="evenodd" d="M16.897 14.7818C16.897 14.7818 15.9534 14.9917 15.9534 14.3945C15.9534 13.812 16.5359 13.2003 16.6816 13.0926C16.8331 12.9847 17.1943 12.8622 17.1943 12.8622H18.0652L18.2311 13.3021L18.1583 14.2515L16.897 14.7816V14.7818Z" fill="#252211"/>
<path fill-rule="evenodd" clip-rule="evenodd" d="M17.766 13.04C17.766 13.04 17.5855 12.8739 17.1749 13.0976C16.7642 13.3213 16.432 13.7888 16.4117 14.2133C16.3913 14.5889 16.7204 14.8686 17.233 14.8832C17.6145 14.8976 17.8447 14.854 17.9613 14.8256C17.9321 14.7907 17.7806 14.6014 17.7806 14.6014L17.7662 13.0402L17.766 13.04Z" fill="#C3B378"/>
<path fill-rule="evenodd" clip-rule="evenodd" d="M17.5899 13.1326C17.5899 13.1326 17.5463 13.0977 17.4171 13.1676C17.3094 13.2252 17.1522 13.3774 17.0298 13.4851C16.9511 13.5493 16.9016 13.5783 16.857 13.6278C16.6764 13.8434 16.5249 14.1959 16.6124 14.3707C16.7 14.5454 16.9882 14.7464 17.7222 14.6095L17.5878 13.1328L17.5899 13.1326Z" fill="#E6D89C"/>
<path fill-rule="evenodd" clip-rule="evenodd" d="M17.3504 13.4945C17.3504 13.4945 17.2338 13.6752 17.2338 13.9636C17.2338 14.2577 17.3999 14.7266 18.0116 14.7615C18.4805 14.7907 18.795 14.0859 19.1358 13.8121C19.395 13.6024 19.5522 13.5965 19.5522 13.5965C19.5522 13.5965 19.2872 13.3085 18.5795 12.9354C17.8805 12.5597 17.0969 12.5102 16.6716 13.0869C16.8727 13.0723 17.5222 12.9062 17.5222 12.9062L17.8398 13.0082L17.3504 13.4947V13.4945Z" fill="#252211"/>
<path fill-rule="evenodd" clip-rule="evenodd" d="M18.2636 13.8758C18.2433 13.8322 18.2287 13.7738 18.3131 13.7594C18.3976 13.745 18.4354 13.7535 18.4646 13.817C18.4938 13.8806 18.5222 13.9336 18.479 13.9599C18.4354 13.9831 18.3218 13.9599 18.2634 13.8754L18.2636 13.8758ZM18.1267 13.4651C18.1267 13.4651 18.0975 13.4854 18.1121 13.4447C18.1179 13.3954 18.1559 13.3078 18.249 13.3284C18.3421 13.3489 18.322 13.4507 18.3066 13.4799C18.2913 13.5091 18.2135 13.5584 18.1551 13.5375C18.1477 13.5356 18.1409 13.532 18.1351 13.5269C18.1294 13.5219 18.1249 13.5156 18.1221 13.5085C18.1192 13.5014 18.1181 13.4937 18.1188 13.4861C18.1194 13.4785 18.1219 13.4712 18.1259 13.4647L18.1267 13.4651Z" fill="#6F674D"/>
<path fill-rule="evenodd" clip-rule="evenodd" d="M10.244 13.6514C10.244 13.6514 10.4744 13.8242 10.7421 13.8175C11.007 13.8115 11.3478 13.5379 11.5051 13.363C11.5982 13.261 11.6779 13.1533 11.7643 13.0688C11.8372 12.9961 11.8866 12.9611 11.9215 12.9116C11.9711 12.854 12.0235 12.7457 12.0498 12.7106C11.9857 12.7601 11.8925 12.8477 11.7963 12.9058C11.7032 12.9634 11.5022 13.0717 11.4206 13.1009C11.3421 13.1301 10.5265 13.5617 10.5265 13.5617L10.244 13.6514Z" fill="#AC924C"/>
<path fill-rule="evenodd" clip-rule="evenodd" d="M10.5963 11.4992C10.5963 11.4992 10.7244 11.4118 10.9721 11.3563C11.2109 11.2987 11.6915 11.2544 11.6915 11.2544L12.0876 11.4272L12.2448 12.0243L11.9568 12.6449L11.5899 12.8753L11.1733 12.2054L10.5973 11.5003L10.5963 11.4992Z" fill="#9F8E57"/>
<path fill-rule="evenodd" clip-rule="evenodd" d="M10.0762 12.0314L9.93909 12.1337C9.93909 12.1337 9.97422 12.0696 10.0032 11.8745C10.0322 11.6795 10.1839 11.2046 10.4053 10.9309C10.6266 10.6571 10.6209 10.6717 10.6209 10.6717C10.6005 10.6679 10.5796 10.6686 10.5595 10.6736C10.5394 10.6786 10.5206 10.6878 10.5043 10.7006C10.5335 10.6361 10.72 10.4057 10.9064 10.2905C11.0928 10.1753 11.1656 10.139 11.3607 10.2329C11.5557 10.3268 11.6053 10.3756 11.7481 10.3698C11.891 10.3641 12.0131 10.2126 12.0131 10.2126C12.0131 10.2126 12.0423 10.3057 11.9345 10.5213C11.8268 10.7369 11.4016 11.1766 11.4016 11.1766L10.516 11.7824L10.0762 12.032V12.0314Z" fill="#EAC970"/>
<path fill-rule="evenodd" clip-rule="evenodd" d="M10.7327 11.4268C10.7327 11.4268 11.3736 11.5142 11.5687 11.3337C11.5744 11.3541 11.5979 11.3541 11.5979 11.3687C11.5963 11.3797 11.5912 11.3898 11.5833 11.3977C11.6045 11.3943 11.6259 11.3923 11.6474 11.3919C11.673 11.3995 11.6994 11.4044 11.7261 11.4065C11.7476 11.406 11.769 11.404 11.7902 11.4005C11.7882 11.415 11.7833 11.4289 11.7758 11.4415C11.7683 11.454 11.7583 11.4649 11.7465 11.4735C11.7756 11.4735 11.8041 11.4793 11.8041 11.5025C11.8041 11.5257 11.8098 11.5958 11.7749 11.6104C11.7459 11.6184 11.7151 11.6163 11.6875 11.6044C11.6898 11.6596 11.7048 11.7135 11.7313 11.7619C11.7889 11.8696 11.9118 11.9923 12.0769 11.957C12.0769 11.957 12.1641 12.1666 11.7972 12.6326C11.7478 12.6967 11.6952 12.7841 11.6313 12.8569C11.606 12.9119 11.5867 12.9695 11.5737 13.0287C11.5737 13.0287 12.1942 12.7898 12.3718 12.2451C12.5525 11.6976 12.5874 11.1588 12.5525 10.655C12.5465 10.5122 12.5233 10.4104 12.4884 10.3374C12.401 10.1568 12.1562 10.1859 12.0573 10.2879C11.9145 10.4307 11.6756 10.7859 11.3436 11.0306C11.0057 11.2752 10.9913 11.3186 10.7319 11.4268H10.7327Z" fill="#D7BC6B"/>
<path fill-rule="evenodd" clip-rule="evenodd" d="M9.96391 12.2132C9.96391 12.2132 9.8416 12.286 9.77747 12.5588C9.71335 12.8383 9.83507 13.1791 9.90554 13.2869C9.976 13.3946 10.1359 13.6889 10.4677 13.7035C10.5498 13.7031 10.631 13.6862 10.7066 13.654C10.8224 13.6008 10.931 13.5333 11.0299 13.4529C11.1727 13.3452 11.2891 13.2521 11.2745 13.2433C11.2396 13.2287 10.3949 12.5296 10.3949 12.5296L10.0774 12.1752L9.96371 12.2136L9.96391 12.2132Z" fill="#585136"/>
<path fill-rule="evenodd" clip-rule="evenodd" d="M10.7605 13.3718C10.7605 13.3718 10.9323 13.3574 11.0343 13.2933C11.1362 13.2291 10.4371 12.536 10.4371 12.536L10.4867 13.2848L10.7605 13.3718Z" fill="#453A25"/>
<path fill-rule="evenodd" clip-rule="evenodd" d="M10.0191 12.1608C10.0191 12.1608 9.93172 12.3269 9.93172 12.3706C9.91712 12.5133 9.9609 12.9618 9.99585 13.1045C10.0308 13.256 10.2201 13.486 10.4649 13.486C10.6162 13.486 10.8261 13.3929 10.8261 13.3696C10.8261 13.3404 10.6104 13.312 10.5523 13.2035C10.5173 13.1459 10.5027 13.0027 10.4947 12.8579C10.4889 12.7648 10.4889 12.6629 10.5238 12.6275C10.6026 12.5402 10.617 12.2896 10.617 12.2896L10.8965 11.7703H10.5288L10.089 12.0441L10.0191 12.1608Z" fill="#84754B"/>
<path fill-rule="evenodd" clip-rule="evenodd" d="M9.91199 12.3205C9.91199 12.3205 10.2 11.939 10.4596 11.8514C10.7192 11.7639 10.8353 11.8165 10.8353 11.8165L10.6838 12.2039L10.4682 12.4428L10.4828 12.5651C10.4828 12.5651 10.4477 12.8884 10.6633 13.1127C10.8789 13.3369 11.039 13.3283 11.1323 13.3283C11.2257 13.3283 11.4935 13.2496 11.6304 12.9262C11.7527 12.6235 11.8546 12.235 11.61 11.8457C11.371 11.4582 10.9488 11.4432 10.8672 11.4432C10.7856 11.4432 10.1449 11.4753 9.91199 12.3199V12.3205Z" fill="#252211"/>
<path fill-rule="evenodd" clip-rule="evenodd" d="M17.3072 13.6164C17.1995 13.5668 17.3014 13.2641 17.4091 13.1707C17.5169 13.0774 17.6537 12.9699 17.8928 12.9551C17.98 12.9494 18.0644 13.0047 18.05 13.063C18.0297 13.1707 17.8782 13.3222 17.7413 13.4299C17.552 13.5785 17.4295 13.6717 17.3072 13.6164Z" fill="#F7F7E7"/>
<path fill-rule="evenodd" clip-rule="evenodd" d="M11.4807 11.9655C11.5595 11.9597 11.6614 12.0231 11.6818 12.1083C11.7021 12.2014 11.6322 12.3879 11.4807 12.3879C11.3584 12.3879 11.2943 12.2364 11.2943 12.1928C11.2957 12.1569 11.3057 12.122 11.3235 12.0908C11.3293 12.082 11.3438 11.98 11.4807 11.9655Z" fill="#F8F6DE"/>
<path fill-rule="evenodd" clip-rule="evenodd" d="M10.3444 12.032C10.3444 12.032 10.1434 12.1251 10.0503 12.32C9.98375 12.4639 9.96362 12.6249 9.99269 12.7808C10.0073 12.8536 10.08 13.034 10.1296 13.0982C10.1791 13.1623 10.2461 13.2061 10.2957 13.2001C10.3452 13.1942 10.447 13.0632 10.447 12.9847C10.447 12.9062 10.4529 12.574 10.5489 12.3933C10.6334 12.2128 10.345 12.0322 10.345 12.0322L10.3444 12.032Z" fill="#D4C38B"/>
<path fill-rule="evenodd" clip-rule="evenodd" d="M10.3755 12.0175C10.3406 12.0379 10.2824 12.0671 10.2968 12.1049C10.3114 12.1398 10.4337 12.1625 10.4775 12.2477C10.527 12.3351 10.527 12.4282 10.5124 12.472C10.5505 12.4539 10.585 12.4292 10.6144 12.399C10.6785 12.3263 10.757 12.2274 10.824 12.2274C10.8678 12.2274 10.9114 12.2477 10.9523 12.2477C11.0164 12.2477 11.0804 12.2274 11.0892 12.1604C11.1036 12.073 10.9669 11.9943 10.8882 12.0089C10.9028 11.9513 10.9231 11.8662 10.859 11.8079C10.7949 11.7495 10.594 11.8516 10.5502 11.8808C10.5065 11.91 10.3755 12.0177 10.3755 12.0177V12.0175Z" fill="#E2D59D"/>
<path fill-rule="evenodd" clip-rule="evenodd" d="M15.0018 18.1372L15.4328 18.0099L15.5551 18.0972C15.5551 18.0972 15.6423 18.2837 15.7794 18.3069C15.7356 18.4 15.6219 18.4797 15.6279 18.5458C15.6338 18.6118 15.692 18.6623 15.692 18.6623C15.692 18.6623 15.3045 19.303 16.0677 19.9487C15.8871 20.0215 15.6571 20.1215 15.5347 20.1791C15.6219 20.1995 15.8083 20.2367 15.8871 20.3074C15.9658 20.378 15.9658 20.4005 16.0386 20.4443C16.1113 20.488 16.1549 20.5462 16.1405 20.5723C16.091 20.5431 15.9249 20.456 15.8959 20.5374C15.8669 20.6188 15.1765 20.5869 15.1765 20.5869L14.0114 20.8112C14.0114 20.8112 14.055 20.6946 13.9327 20.5869C13.79 20.4588 13.6153 20.5927 13.4289 20.45C13.1843 20.2636 13.1755 20.048 13.0969 19.9666C13.1755 19.917 13.3358 19.8443 13.7173 19.7938C13.7027 19.7646 13.6531 19.6772 13.6823 19.5987C13.7173 19.4967 13.8628 19.4326 13.8192 19.3107C13.8834 19.2961 13.9123 19.2961 14.0727 19.0951C14.2242 18.894 14.3173 18.8505 14.4338 18.8359C14.5504 18.8213 14.6203 18.8359 14.8359 18.6348C14.9872 18.4922 14.9378 18.3699 14.9378 18.3699C14.9378 18.3699 15.0367 18.3378 15.0019 18.1368L15.0018 18.1372Z" fill="#CBAC5A"/>
<path fill-rule="evenodd" clip-rule="evenodd" d="M13.7299 18.2022C13.7357 18.1731 13.7591 18.1585 13.9164 18.1731C14.0736 18.1876 15.0697 18.0799 15.3406 18.0653C15.6144 18.045 16.5784 18.0594 17.0475 18.1585C17.5165 18.2575 17.9912 18.3741 18.2212 18.4323C18.4516 18.4964 18.5242 18.5194 18.5153 18.5486C18.5096 18.5778 18.4577 18.6062 18.428 18.5981C18.399 18.5924 17.6358 18.3593 17.4 18.3101C17.1642 18.261 16.3484 18.1295 15.9024 18.1373C15.486 18.1433 15.3199 18.1316 14.9676 18.1723C14.615 18.2161 14.0325 18.2742 13.8578 18.251C13.685 18.2307 13.7207 18.2307 13.7295 18.2015L13.7299 18.2022Z" fill="#D6BC6F"/>
<path fill-rule="evenodd" clip-rule="evenodd" d="M16.0732 20.4845C16.0732 20.4845 16.6704 20.8079 16.886 21.2039C17.0432 21.4981 16.7928 21.6438 16.7928 21.6438C16.7928 21.6438 17.1308 21.6438 17.087 21.8303C17.0666 21.9466 16.5045 22.2611 16.1287 22.4272C15.7472 22.5933 15.7618 22.5846 15.5754 22.6136C15.3947 22.6428 14.8995 22.556 14.7976 22.701C14.6956 22.8459 14.74 22.9953 14.7684 23.0185C14.7976 23.0389 15.0336 23.0681 15.0336 23.0681C15.0336 23.0681 14.984 23.205 14.4948 23.2196C14.0056 23.2342 13.8831 23.2689 13.8539 23.3215C13.8247 23.3709 13.947 23.3419 14.1715 23.3791C14.3957 23.4141 14.7102 23.4367 14.7102 23.4367C14.7102 23.4367 14.6083 23.5241 14.3433 23.594C14.0403 23.6725 13.5655 23.7455 13.4229 23.8328C13.4956 23.8824 13.6035 23.9551 13.6533 23.9609C13.531 23.9901 13.3589 24.0542 13.3299 24.0774C13.3735 24.1066 13.4319 24.1415 13.4319 24.1415C13.4319 24.1415 13.1871 24.4357 13.0444 24.5087C12.9018 24.5816 12.0804 24.9629 11.7978 24.8902C11.0929 24.7037 11.0056 23.9319 10.8337 23.8737C10.5745 23.7864 10.4522 23.9609 10.222 23.8386C10.324 23.7658 10.3795 23.7222 10.4872 23.6727C10.3706 23.6151 9.76776 23.2328 9.76776 23.2328C9.70472 23.0954 9.63474 22.9613 9.5581 22.831C9.44155 22.6299 9.2701 22.3619 9.14146 22.1259C8.8619 21.6075 8.84731 21.3687 8.59387 21.0745C8.63765 21.0169 8.78894 21.025 8.78894 21.025L10.9125 21.7241L14.6778 21.8331L15.657 20.4352L16.0734 20.4847L16.0732 20.4845Z" fill="#DFC677"/>
<path fill-rule="evenodd" clip-rule="evenodd" d="M10.4982 22.6163C10.5209 22.6416 10.5474 22.6632 10.5767 22.6804C10.6497 22.7299 10.7574 22.7883 10.8301 22.8755C10.8593 22.8319 10.9321 22.7532 11.0605 22.8755C11.189 22.9978 11.3485 22.9106 11.4478 22.9396C11.5498 22.9747 11.5555 22.9891 11.5555 22.9891C11.5555 22.9891 11.6131 22.9396 11.7419 22.8872C11.8207 22.858 11.9138 22.8377 12.0157 22.8087C12.1089 22.7883 12.2108 22.7591 12.2809 22.7591C12.345 22.8027 12.575 23.0471 13.4984 22.6864C14.3693 22.3484 14.5701 22.3106 14.7158 22.3628C14.7304 22.3279 14.745 22.2609 14.9693 22.2697C14.9693 22.1766 14.7828 21.859 14.7828 21.859L13.7547 21.5067H13.1923L11.506 21.8154L10.5715 22.3486L10.4987 22.6174L10.4982 22.6163Z" fill="#C4A859"/>
<path fill-rule="evenodd" clip-rule="evenodd" d="M9.93567 22.0258C9.93567 22.0258 9.95602 22.183 10.1891 22.3491C10.4195 22.515 10.4919 22.6141 10.4919 22.6141C10.4919 22.6141 10.5357 22.5565 10.5706 22.4977C10.6056 22.4336 10.6347 22.3608 10.6929 22.3405C10.8095 22.2909 11.0744 22.3841 11.1328 22.3695C11.1823 22.3551 11.1677 22.2531 11.2201 22.2531C11.3425 22.2472 11.421 22.3316 11.4648 22.3316C11.5085 22.3316 11.6161 22.3259 11.6306 22.3026C11.6452 22.2794 11.651 22.0375 11.8171 21.9209C11.9977 21.7929 12.2191 21.8482 12.2779 21.8774C12.2779 21.9209 12.2836 22.0289 12.4002 22.0346C12.5167 22.0404 12.5282 22.02 12.6306 22.055C12.7329 22.0899 12.8548 22.0492 12.9101 22.2209C12.9597 22.2065 13.0762 22.1919 13.047 22.0258C13.1046 21.9822 13.1549 21.953 13.2774 21.7812C13.3066 21.7376 13.356 21.6881 13.394 21.6239C13.4959 21.6239 13.6182 21.6036 13.7812 21.7462C13.7317 21.7812 13.7025 21.8038 13.6881 21.8393C13.7307 21.8816 13.7697 21.9274 13.8045 21.9762C13.8482 22.0338 13.8774 22.1045 13.9327 22.1191C14.055 22.154 14.2561 22.1045 14.4803 22.1191C14.6959 22.1337 14.8764 22.2122 14.9551 22.2617C14.9843 22.2473 14.9843 22.2414 15.0571 22.256C15.1298 22.2706 15.1851 22.2763 15.1066 22.1832C15.1502 22.2036 15.1997 22.2473 15.2435 22.2036C15.2873 22.1598 15.322 22.0959 15.4443 22.0813C15.5666 22.0667 15.6104 22.087 15.66 21.959C15.7241 21.8017 15.5027 21.8017 15.5027 21.8017C15.5027 21.8017 15.6047 21.7084 15.7183 21.5861C15.8552 21.458 16.0125 21.292 16.0503 21.0881C16.1144 20.7123 15.7475 20.663 15.7475 20.663L13.9679 21.2105L11.7921 21.1026L9.93682 22.026L9.93567 22.0258Z" fill="#927D49"/>
<path fill-rule="evenodd" clip-rule="evenodd" d="M8.33573 16.8844C8.33573 16.8844 8.27813 16.9572 8.24261 17.129C8.20709 17.3009 8.22226 17.2805 8.19308 17.4028C8.16389 17.5251 7.80543 18.7426 7.93983 19.1533C8.07423 19.564 8.30693 19.7155 8.45247 20.0474C8.48165 20.1202 8.51007 20.164 8.52524 20.2281C8.57477 20.4435 8.53119 20.6096 8.58936 20.8252C8.60972 20.898 8.66232 20.9825 8.74085 21.0698C8.91365 21.2503 9.19532 21.4221 9.31685 21.5445C9.4885 21.7251 9.7333 22.0922 10.0449 22.127C10.211 22.1473 10.447 22.0774 10.642 21.9611C10.8148 21.8532 10.9216 21.7019 11.1028 21.6155C11.2309 21.5514 11.3678 21.5281 11.4901 21.4989C11.7435 21.4494 11.9737 21.4413 12.1106 21.4698C12.3203 21.5135 12.8155 21.665 13.0898 21.665C13.3042 21.6616 13.5174 21.6322 13.7248 21.5777C14.1412 21.4554 14.645 21.2455 14.9772 21.1524C15.1723 21.0948 15.3295 21.0796 15.4898 21.0447C15.7636 20.9805 15.9937 20.8932 16.1248 20.7271C16.0374 20.6252 15.9297 20.4679 15.347 20.4737C14.6859 20.4883 13.9227 20.8552 13.547 20.9135C13.1713 20.9719 13.0082 21.0213 12.5887 20.8698C12.1775 20.7167 12.1638 20.6156 12.1638 20.6156C12.1638 20.6156 11.732 20.3135 11.5513 19.5436C11.3707 18.7737 11.5513 18.2127 12.0204 17.6795C12.1427 17.5426 12.1135 17.4203 12.1135 17.4203C12.1135 17.4203 12.4223 17.0038 12.3378 16.6139C12.2447 16.2264 11.6475 16.3052 11.6475 16.3052L8.33592 16.8844H8.33573Z" fill="#6E6342"/>
<path fill-rule="evenodd" clip-rule="evenodd" d="M8.83283 18.1809C8.80715 18.2292 8.79507 18.2835 8.79788 18.3382C8.80364 18.4167 8.82707 18.5186 9.06285 18.7488C9.26387 18.9497 9.22009 19.1739 9.22009 19.1739C9.22009 19.1739 9.32128 19.1943 9.59584 19.0658C9.81145 18.9639 9.88384 19.1446 9.88384 19.1446C9.9466 19.1116 10.0146 19.0899 10.0849 19.0804C10.1485 19.0746 10.2101 19.0549 10.2653 19.0228C10.2653 19.0228 10.5188 19.282 10.7402 19.4043C10.9412 19.5122 11.0577 19.585 11.1568 19.5122C11.2499 19.4481 11.2499 19.317 11.244 19.2588C11.2209 19.2051 11.1916 19.1543 11.1568 19.1073C11.0927 19.0142 10.9907 18.9063 10.984 18.8193C10.9694 18.6185 11.1355 18.3794 11.1003 18.3213C11.0652 18.2631 10.9345 18.2485 10.6111 18.365C10.2763 18.4756 8.83148 18.1815 8.83148 18.1815L8.83283 18.1809Z" fill="#39331F"/>
<path fill-rule="evenodd" clip-rule="evenodd" d="M9.59835 19.4828C9.59835 19.4828 9.43247 19.3256 9.49064 18.5624C9.56107 18.5613 9.63139 18.5682 9.70031 18.5827C9.70031 18.5827 9.79074 19.1741 9.59835 19.4828Z" fill="#292311"/>
<path fill-rule="evenodd" clip-rule="evenodd" d="M8.41572 16.3012C8.43887 16.2841 8.46034 16.2648 8.47985 16.2436C8.42225 16.3514 8.15633 16.7824 8.37194 17.4611C8.58756 18.1368 9.12919 18.6406 9.7962 18.664C10.4632 18.6874 10.8138 18.361 11.2147 17.8718C11.3719 17.6767 11.5526 17.4319 11.7127 17.266C11.9516 17.0066 12.138 16.9339 12.138 16.6835C12.138 16.1709 11.6137 15.9407 10.8418 15.7106C10.07 15.4806 9.3738 15.509 9.01265 15.6665C8.66033 15.8381 8.50884 16.0188 8.41553 16.3014L8.41572 16.3012Z" fill="#252211"/>
<path fill-rule="evenodd" clip-rule="evenodd" d="M10.8917 19.7119L10.9493 19.6828C10.9493 19.6828 10.9637 19.4524 11.057 19.4585C11.1501 19.4731 11.1939 19.5956 11.1851 19.6392C11.1793 19.6828 11.1561 19.7557 11.0628 19.7469C10.9405 19.7498 10.8911 19.7119 10.8911 19.7119H10.8917Z" fill="#3F3824"/>
<path fill-rule="evenodd" clip-rule="evenodd" d="M10.6337 18.7344C10.6337 18.7344 10.6913 18.7141 10.7617 18.784C10.8193 18.784 11.0705 18.7548 11.1492 18.8043C11.2279 18.8539 11.2511 18.8975 11.2511 18.8975C11.2511 18.8975 10.957 18.9616 10.7967 18.8975C10.6337 18.8422 10.6337 18.7344 10.6337 18.7344Z" fill="#2D2815"/>
<path fill-rule="evenodd" clip-rule="evenodd" d="M11.9277 18.7775C11.9277 18.7629 11.7704 18.6552 11.6044 18.62C11.5752 18.6143 11.5692 18.6346 11.5468 18.6346C11.5322 18.6289 11.5264 18.5851 11.5264 18.5851L11.4319 18.6348C11.4319 18.6348 11.4173 18.6552 11.4669 18.6924C11.5105 18.7274 11.5834 18.7565 11.6038 18.8147C11.6241 18.8729 11.6241 18.8932 11.633 18.9021C11.6387 18.9078 11.7407 18.9021 11.7902 18.8729C11.8397 18.8437 11.9331 18.7961 11.9271 18.7769L11.9277 18.7775Z" fill="#82764F"/>
<path fill-rule="evenodd" clip-rule="evenodd" d="M10.4574 19.369C10.4574 19.369 10.4864 19.1682 10.6817 19.1593C10.8825 19.1448 10.9205 19.3398 10.9205 19.3398L10.804 19.4564C10.804 19.4535 10.7166 19.3312 10.4584 19.369H10.4574Z" fill="#2D2816"/>
<path fill-rule="evenodd" clip-rule="evenodd" d="M11.7254 18.5038C11.7254 18.5038 11.6175 18.6203 11.3788 18.6553C11.3584 18.6261 11.3147 18.5679 11.3788 18.4748C11.4429 18.3817 11.5157 18.3525 11.5885 18.3815C11.6206 18.3867 11.6505 18.401 11.6748 18.4226C11.699 18.4443 11.7166 18.4725 11.7254 18.5038Z" fill="#574F35"/>
<path fill-rule="evenodd" clip-rule="evenodd" d="M12.1637 18.6468C12.1697 18.6177 12.1493 18.6119 12.1637 18.5973C12.1781 18.5827 12.257 18.5537 12.2716 18.5681C12.2774 18.5741 12.2716 18.5973 12.2716 18.6257C12.2716 18.6541 12.2716 18.6833 12.257 18.7043C12.2367 18.7334 12.1785 18.748 12.1493 18.7394C12.1201 18.7307 12.1144 18.6899 12.1144 18.6818C12.1288 18.676 12.1637 18.6614 12.1637 18.6468ZM12.661 18.3323C12.661 18.3178 12.7105 18.2886 12.7397 18.2886C12.7833 18.2886 12.7833 18.3235 12.7893 18.3323C12.8037 18.3381 12.8037 18.3264 12.8183 18.3527C12.8328 18.379 12.8534 18.4255 12.8386 18.4547C12.8238 18.4838 12.7658 18.504 12.7514 18.4982C12.7311 18.4836 12.667 18.3527 12.661 18.3323Z" fill="#82764F"/>
<path fill-rule="evenodd" clip-rule="evenodd" d="M11.6637 18.7132C11.6637 18.7132 11.7283 18.7277 11.8164 18.8012C11.787 18.8218 11.7428 18.8452 11.7428 18.8452C11.7428 18.8452 11.737 18.7776 11.6637 18.713V18.7132Z" fill="#6E6342"/>
<path fill-rule="evenodd" clip-rule="evenodd" d="M11.517 18.0722C11.5024 18.0578 11.5605 18.0229 11.5955 18.0286C11.6304 18.0344 11.645 18.0578 11.6828 18.0636C11.7207 18.0693 11.7266 18.049 11.7404 18.0344C11.7543 18.0198 11.8046 18.0286 11.8132 18.0344C11.8186 18.0408 11.8235 18.0476 11.8278 18.0547C11.8284 18.0437 11.8313 18.0328 11.8363 18.0229C11.8413 18.013 11.8483 18.0042 11.8568 17.9971C11.868 17.9889 11.8808 17.9834 11.8945 17.9808C11.9081 17.9783 11.9221 17.9789 11.9355 17.9826C11.9413 18.0029 11.9705 18.0757 11.9647 18.0903C11.9589 18.1049 11.8716 18.1254 11.8568 18.1106C11.8714 18.1458 11.9355 18.2185 11.9442 18.2329C11.9528 18.2473 11.88 18.2825 11.851 18.2767C11.8103 18.2738 11.5598 18.1281 11.5162 18.0728L11.517 18.0722ZM11.8985 17.5888C11.8931 17.5741 11.8827 17.5617 11.8693 17.5538C11.8489 17.5481 11.7819 17.5538 11.7819 17.5888C11.7819 17.6237 11.8395 17.8192 11.9042 17.9209C11.9772 18.0229 12.0265 18.1072 12.0761 18.1306C12.0916 18.1377 12.1093 18.1386 12.1255 18.1332C12.1417 18.1278 12.1552 18.1164 12.1634 18.1014C12.1692 18.0868 12.1838 17.9791 12.178 17.7257C12.1722 17.4722 12.1634 17.2276 12.1488 17.213C12.1342 17.1984 12.0761 17.1986 12.0557 17.2276C12.0354 17.2566 11.9042 17.5452 11.8983 17.5888H11.8985Z" fill="#585136"/>
<path fill-rule="evenodd" clip-rule="evenodd" d="M11.6406 19.0804C11.6406 19.0804 11.5387 19.0163 11.4396 19.0601C11.3465 19.1039 11.3522 19.2757 11.3522 19.2757C11.3732 19.2839 11.3958 19.2869 11.4182 19.2843C11.4405 19.2818 11.4619 19.2738 11.4805 19.2611C11.5446 19.2175 11.626 19.1448 11.6406 19.0806V19.0804Z" fill="#574F35"/>
<path fill-rule="evenodd" clip-rule="evenodd" d="M11.8331 19.3106C11.8274 19.253 11.7755 19.253 11.7755 19.2233C11.7791 19.209 11.7873 19.1964 11.7989 19.1874C11.8105 19.1785 11.8248 19.1736 11.8394 19.1737C11.8686 19.1737 11.897 19.2087 11.9328 19.2313C11.9677 19.2517 12.0201 19.2889 12.0259 19.3333C12.0316 19.3776 11.9683 19.4992 11.8978 19.4992C11.8274 19.4992 11.8483 19.368 11.8337 19.3099L11.8331 19.3106ZM12.3953 19.2319C12.3953 19.2319 12.2787 19.2669 12.2874 19.2319C12.296 19.197 12.3225 19.1883 12.3603 19.1883C12.3796 19.1682 12.4054 19.1557 12.4331 19.1532C12.449 19.1524 12.4645 19.1576 12.4767 19.1678C12.4767 19.1678 12.5554 19.1328 12.5786 19.1532C12.6019 19.1735 12.5846 19.1735 12.599 19.197C12.6173 19.223 12.6294 19.2529 12.6341 19.2843C12.6341 19.3076 12.5468 19.3571 12.4767 19.3485C12.3953 19.331 12.4097 19.2465 12.3953 19.2319ZM13.0738 19.1008C13.0738 19.1008 13.1088 19.1211 13.0798 19.1445C13.0594 19.1649 12.9575 19.2021 12.8699 19.2087C12.7826 19.2087 12.704 19.2231 12.704 19.1941C12.704 19.1651 12.7768 19.1067 12.8204 19.0921C12.8291 19.0812 12.8402 19.0724 12.8529 19.0663C12.8655 19.0603 12.8793 19.0571 12.8933 19.0572C12.9283 19.0572 13.065 19.0426 13.103 19.0368C13.1379 19.0309 13.1671 19.0512 13.1466 19.0804C13.1379 19.1008 13.0738 19.1008 13.0738 19.1008ZM13.2748 18.2014C13.2748 18.2014 13.2311 18.2946 13.1817 18.2946C13.1322 18.2888 13.1322 18.2742 13.1322 18.2596C13.1322 18.2393 13.1817 18.1869 13.1758 18.1723C13.1614 18.1723 13.1262 18.1723 13.1322 18.1373C13.1322 18.1081 13.1817 18.0732 13.2253 18.0797C13.2582 18.0527 13.2992 18.0373 13.3418 18.0361C13.3914 18.0361 13.435 18.0505 13.435 18.0797C13.435 18.1089 13.3774 18.1728 13.3562 18.1876C13.333 18.2109 13.3038 18.226 13.2748 18.202V18.2014ZM12.6107 19.9227C12.6107 19.9227 12.5531 19.9287 12.5531 19.9577C12.5531 19.9723 12.5675 19.9723 12.5881 19.9636C12.5999 19.963 12.6116 19.961 12.623 19.9577C12.6288 19.9636 12.6288 19.9926 12.6725 19.9926C12.7085 19.9878 12.7431 19.9759 12.7745 19.9577C12.8094 19.9433 12.8386 19.9285 12.8386 19.9001C12.824 19.8505 12.7948 19.8271 12.7513 19.8271C12.7289 19.8257 12.7067 19.8308 12.6871 19.8417C12.6871 19.8417 12.6725 19.8125 12.623 19.8417C12.5735 19.8709 12.5792 19.8709 12.5938 19.8855C12.6199 19.9087 12.6113 19.9239 12.6113 19.9239L12.6107 19.9227ZM12.2816 20.2257C12.2816 20.2111 12.3544 20.1819 12.3747 20.1908C12.3951 20.1965 12.4533 20.3071 12.4533 20.3188C12.4533 20.3334 12.3805 20.3684 12.3513 20.3684C12.3221 20.3684 12.2728 20.3188 12.2728 20.3108C12.2728 20.305 12.3077 20.2964 12.3077 20.2904C12.3164 20.276 12.2816 20.2409 12.2816 20.2263V20.2257ZM12.0512 19.8004C12.0658 19.7947 12.0658 19.7801 12.0862 19.7655C12.0925 19.7612 12.0998 19.7585 12.1074 19.7575C12.115 19.7565 12.1227 19.7573 12.1299 19.7597C12.1351 19.7506 12.1422 19.7426 12.1508 19.7366C12.1593 19.7305 12.1691 19.7264 12.1795 19.7246C12.2144 19.7188 12.2436 19.7246 12.2371 19.7392C12.2371 19.7829 12.2663 19.8119 12.2663 19.8469C12.2663 19.8818 12.2459 19.9256 12.1731 19.9548C12.1004 19.9751 12.0013 19.9751 11.9867 19.9694C11.9721 19.9636 11.9575 19.9053 11.9721 19.8761C11.9867 19.8469 12.0274 19.815 12.0508 19.8004H12.0512Z" fill="#82764F"/>
<path fill-rule="evenodd" clip-rule="evenodd" d="M12.1463 19.8204C12.1463 19.8204 12.0964 19.8498 12.0964 19.8646C12.0919 19.8788 12.09 19.8936 12.0906 19.9085C12.0906 19.9172 12.1552 19.9027 12.1639 19.8938C12.1668 19.888 12.1463 19.8357 12.1463 19.8204Z" fill="#6E6342"/>
<path fill-rule="evenodd" clip-rule="evenodd" d="M11.711 19.6837C11.74 19.6896 11.7895 19.6837 11.8273 19.6983C11.8565 19.7129 11.8768 19.7421 11.8477 19.777C11.8185 19.8119 11.7901 19.8644 11.7254 19.8555C11.6526 19.8498 11.5827 19.8119 11.5827 19.7828C11.5815 19.7643 11.5839 19.7458 11.5899 19.7283C11.5959 19.7108 11.6054 19.6946 11.6176 19.6808C11.6468 19.6576 11.6612 19.6722 11.7108 19.6837H11.711Z" fill="#585136"/>
<path fill-rule="evenodd" clip-rule="evenodd" d="M11.6757 19.7128C11.6757 19.7128 11.5826 19.7855 11.5592 19.8207C11.53 19.8556 11.3873 20.0361 11.3437 20.0739C11.3582 20.0484 11.3747 20.024 11.3931 20.0012C11.3355 20.038 11.2923 20.0935 11.2708 20.1584C11.2358 20.2663 11.466 20.3245 11.6173 20.3683C11.7686 20.412 11.8272 20.4259 11.8272 20.4259C11.7715 20.3421 11.7237 20.2534 11.6843 20.1609C11.6267 20.024 11.597 20.0094 11.6348 19.9453C11.664 19.8812 11.7078 19.8376 11.7078 19.788C11.6903 19.742 11.6757 19.7128 11.6757 19.7128Z" fill="#574F35"/>
<path fill-rule="evenodd" clip-rule="evenodd" d="M8.35707 19.9428C8.37827 19.9467 8.4 19.9467 8.4212 19.9428C8.46479 19.9369 8.91925 19.77 9.39407 19.8C9.74952 19.8215 10.1018 19.8794 10.4455 19.9728C11.0426 20.13 11.7852 20.4416 12.2658 20.6194C12.3939 20.6688 12.5192 20.7563 12.6114 20.7911C12.9785 20.9339 12.9929 20.9339 13.2085 20.9718C13.462 21.0067 13.7212 20.9222 13.9921 20.864C14.324 20.7911 14.892 20.7561 15.39 20.6834C15.5511 20.6611 15.7099 20.625 15.8649 20.5757C15.8649 20.5757 15.4688 20.9718 14.5191 21.1144C14.1353 21.1727 13.7452 21.1776 13.36 21.129C13.057 21.0998 12.8562 21.056 12.7047 21.0125C12.5329 20.9629 12.1804 20.8318 11.7464 20.7245C11.4435 20.6457 11.1056 20.5876 10.7183 20.5148C9.7629 20.3399 8.7261 20.1391 8.35669 19.944L8.35707 19.9428Z" fill="#252211"/>
<path fill-rule="evenodd" clip-rule="evenodd" d="M7.2819 18.1429C7.0515 18.338 6.80708 18.5244 6.56843 18.7049L5.849 19.2577C5.6044 19.4382 5.36555 19.6246 5.12075 19.8053C4.87595 19.986 4.63153 20.1576 4.37195 20.3237C4.60235 20.1286 4.84676 19.9479 5.09137 19.7703C5.33598 19.5927 5.58961 19.4186 5.82558 19.2385L6.545 18.685C6.79249 18.5045 7.03134 18.318 7.2819 18.1433V18.1429ZM6.00913 20.1818C6.00913 20.1818 6.26833 19.9662 6.59166 19.6634C6.99352 19.2878 7.4858 18.8071 7.64305 18.7199L6.00894 20.182L6.00913 20.1818Z" fill="#CFB66C"/>
<path fill-rule="evenodd" clip-rule="evenodd" d="M6.01196 20.181C6.14022 20.053 6.27711 19.9278 6.41401 19.8053L6.62368 19.6248C6.6878 19.5672 6.76076 19.5025 6.8247 19.4384C6.95276 19.3103 7.07814 19.1732 7.2062 19.0423C7.26968 18.9764 7.33679 18.9142 7.40723 18.8559C7.44244 18.8247 7.48155 18.7982 7.52358 18.7771C7.55871 18.7568 7.59654 18.7195 7.64588 18.713C7.61689 18.7568 7.58195 18.7771 7.55276 18.815C7.51782 18.8441 7.48863 18.8791 7.45964 18.9081C7.39551 18.9722 7.32275 19.0304 7.25862 19.0888C7.12172 19.2053 6.97907 19.3192 6.84217 19.4411C6.70527 19.563 6.57721 19.6945 6.44012 19.8168C6.29171 19.9422 6.15481 20.0645 6.01196 20.1816V20.181ZM7.75379 19.016C7.75379 19.016 6.80435 19.9453 6.60908 20.0966L7.75379 19.016Z" fill="#CFB66C"/>
<path fill-rule="evenodd" clip-rule="evenodd" d="M7.75298 19.0162C7.66757 19.1151 7.576 19.2085 7.4788 19.2958L7.1908 19.5696C7.09768 19.6627 7.01013 19.756 6.91125 19.8491C6.8093 19.9365 6.71618 20.0219 6.60828 20.1026L6.88783 19.8288C6.98114 19.7357 7.08309 19.6571 7.18216 19.5638L7.46172 19.29C7.55772 19.194 7.65103 19.1007 7.75298 19.0162ZM7.79656 19.52C7.70905 19.7643 7.60592 20.0027 7.48783 20.2337C7.24322 20.7231 6.87631 21.3346 6.71599 21.6464L7.79656 19.52Z" fill="#CFB66C"/>
<path fill-rule="evenodd" clip-rule="evenodd" d="M7.79803 19.5205C7.79803 19.6282 7.76885 19.7215 7.7339 19.8147C7.69984 19.9079 7.66101 19.9992 7.61755 20.0884C7.57378 20.1758 7.52424 20.2691 7.4747 20.3536C7.42517 20.4381 7.36699 20.5252 7.32322 20.6128L7.02907 21.1312C6.92712 21.304 6.82805 21.4778 6.72034 21.6438C6.7931 21.4574 6.89218 21.2827 6.98549 21.1108C7.08744 20.938 7.18056 20.7652 7.27349 20.5865C7.31886 20.4974 7.35968 20.4061 7.39579 20.3129C7.43938 20.2196 7.48296 20.1322 7.5181 20.0477C7.56168 19.9546 7.59662 19.8671 7.6404 19.7828C7.68974 19.6923 7.73064 19.605 7.79765 19.5205H7.79803Z" fill="#CFB66C"/>
<path fill-rule="evenodd" clip-rule="evenodd" d="M8.83471 21.9091C8.83471 21.9091 8.54671 22.2906 8.57551 22.774C8.65404 22.5208 8.75311 22.1333 8.83471 21.9091ZM9.1085 22.2915C9.1085 22.2915 9.00655 23.3283 8.92207 23.8381C9.04149 23.2488 9.06473 23.2984 9.1085 22.2915ZM11.0162 23.8993C11.0162 23.8993 10.5852 25.1665 10.5763 25.5187C10.6697 25.1565 10.8501 24.4168 11.0162 23.8984V23.8993Z" fill="#DEC270"/>
<path fill-rule="evenodd" clip-rule="evenodd" d="M12.0231 21.8306C12.0231 21.8306 12.7221 22.9839 13.2465 23.9683C13.1046 23.4729 12.7782 22.5644 12.0231 21.8306Z" fill="#CBAF59"/>
<path fill-rule="evenodd" clip-rule="evenodd" d="M13.9 23.5278C14.2838 24.2063 14.63 24.9054 14.9368 25.622C14.8786 25.1268 14.7212 24.2793 13.9 23.5278Z" fill="#E3C677"/>
<path fill-rule="evenodd" clip-rule="evenodd" d="M19.4226 25.2283C19.539 25.1555 19.7692 24.7592 19.9702 24.6603C20.171 24.5584 20.3225 24.538 20.5032 24.337C20.6837 24.1271 20.7336 23.9991 21.1293 23.8332C21.6828 23.5942 21.3021 23.2854 21.3021 23.2854C21.3631 23.2255 21.4283 23.1701 21.4972 23.1195C21.64 23.0118 21.8059 22.8807 21.7915 22.6505C21.7712 22.2632 21.6984 21.701 21.3808 21.3748C21.6896 21.3107 22.2807 21.2671 22.648 21.174C23.0731 21.0661 23.2684 20.9146 23.2684 20.9146C23.2684 20.9146 23.0238 20.4982 23.4199 20.0788C23.816 19.6595 24.1393 19.4089 24.3781 18.9399C24.1043 18.9049 23.6869 18.7594 22.6217 19.1641C22.6792 19.1912 22.7347 19.2223 22.7878 19.2573C22.7878 19.2573 22.1325 19.4379 21.8937 19.639C21.477 19.9913 21.4246 20.2797 20.9732 20.4953C20.5218 20.7109 20.0673 20.6525 19.6918 20.8272C19.3162 21.002 19.2608 21.1506 19.1237 21.2147C19.1529 21.2496 19.1179 21.3078 19.1732 21.3574C19.1383 21.4069 18.9344 21.7389 18.7276 21.7389C18.7479 21.8176 18.9226 21.8758 18.9226 21.8758C18.9226 21.8758 18.7946 21.9691 18.4684 21.9923C18.6343 22.1651 18.7917 22.3535 19.2256 22.6272C19.1907 22.7 19.0449 22.8079 19.1033 22.9448C19.1674 23.0817 19.3337 23.2681 19.9975 23.4196C19.6595 23.434 19.2636 23.5127 18.7303 23.44C18.1973 23.3758 18.1099 23.338 17.7808 23.4196C17.8158 23.4546 17.9089 23.4546 17.9905 23.5477C17.9031 23.5534 17.3555 23.4836 17.1691 23.7284C16.974 23.9816 16.8896 24.3982 16.9041 24.6778C16.8022 24.7273 16.7031 24.8147 16.7527 24.9954C16.8022 25.176 17.0614 25.2342 17.2275 25.3477C17.3934 25.47 17.408 25.5136 17.5654 25.4846C17.7313 25.4496 17.9759 25.2838 18.1187 25.2838C18.2616 25.2838 18.3633 25.3915 18.3633 25.3915C18.3633 25.3915 18.7508 25.205 18.7886 25.24C18.8236 25.2749 18.7944 25.4992 18.8322 25.5341C18.8706 25.5604 19.307 25.3012 19.4236 25.2283H19.4226Z" fill="#ECD592"/>
<path fill-rule="evenodd" clip-rule="evenodd" d="M27.8889 13.5726C26.0685 8.87164 21.5684 8.00073 21.5684 8.00073H8.72956L8.7791 12.789H11.336V23.4813H8.72937V28.261H21.213C24.2217 28.261 26.6334 25.2375 26.6334 25.2375C30.4954 19.7561 27.8889 13.5726 27.8889 13.5726ZM21.28 22.0162C21.28 22.0162 20.3008 23.4289 19.2354 23.4289H17.1042L17.0537 12.8007H19.7888C19.7888 12.8007 21.056 13.0657 21.9413 15.5734C21.9413 15.5734 23.115 19.1638 21.28 22.0162Z" fill="white" fill-opacity="0.8"/>
</svg>
