<svg width="36" height="36" viewBox="0 0 36 36" fill="none" xmlns="http://www.w3.org/2000/svg">
<g clip-path="url(#clip0_1_8624)">
<path d="M31.8443 27.0756C31.4577 31.8655 26.0457 35.8991 17.9275 35.6975C10.2926 35.4958 4.92887 32.168 4.54229 27.3781C4.49397 26.7731 4.54229 26.168 4.59062 25.5126C4.83223 23.647 5.46041 21.8823 6.37854 20.2689L6.9584 20.521C8.45639 19.9159 10.0027 19.4622 11.5973 19.1596C13.6752 18.8571 15.8014 18.8067 17.8792 18.958C19.9571 18.8067 22.0832 18.8571 24.1611 19.1596C25.7557 19.4622 27.302 19.9159 28.8 20.521L29.3799 20.2689L29.7665 20.0672C30.6846 21.6807 31.3128 23.4454 31.651 25.3109C31.7477 25.8655 31.796 26.4706 31.7477 27.0252" fill="#F4A427"/>
<path d="M31.8443 27.0756C31.4577 31.8151 26.094 35.6974 17.9275 35.647C10.2926 35.4453 4.92887 32.1176 4.54229 27.3277C4.49397 26.7226 4.54229 26.1176 4.59062 25.4621C5.41209 25.2604 6.23357 25.2604 7.05505 25.4117C8.60135 25.6638 9.47115 26.6722 10.5826 27.1764C11.2107 27.4789 11.8389 26.9747 12.4188 26.4201C13.9651 24.8571 16.043 23.9495 18.1691 23.8991C20.3436 23.8487 22.1316 24.7562 24.0161 26.5714C24.4027 26.9747 24.9342 27.2268 25.4658 27.1764C25.949 27.0251 26.4322 26.773 26.8188 26.4201C28.2685 25.4117 30.0081 25.0083 31.6993 25.2604C31.8443 25.9159 31.8926 26.4705 31.8443 27.0756Z" fill="white"/>
<path d="M9.37451 15.2772C8.84297 15.8319 8.16645 16.2352 7.44162 16.3865L7.15169 16.4369C6.86176 16.5377 6.57182 16.5882 6.23357 16.5882C6.18525 16.5882 6.0886 16.5882 6.04028 16.5882C5.89531 16.5377 5.70203 16.4873 5.55706 16.4369C5.02552 16.1848 4.54229 15.8823 4.10739 15.4789C3.2376 14.7226 2.41612 13.8655 1.78793 12.8571C-0.869787 8.82345 -0.04831 3.37807 3.62417 0.352863C3.86578 0.201602 4.15572 0.201602 4.34901 0.453703C4.44565 0.604964 4.49397 0.756224 4.44565 0.907485C4.10739 2.52093 3.81746 5.04194 5.26713 7.21001C6.5235 9.02513 9.1329 10.7898 10.7275 10.7898C11.0658 12.8066 10.5342 14.168 9.37451 15.2772Z" fill="#F79422"/>
<path d="M9.37451 15.2772C8.84297 15.8319 8.16645 16.2352 7.44162 16.3865L7.15169 16.4369C6.86176 16.5377 6.57182 16.5882 6.23357 16.5882C6.18525 16.5882 6.0886 16.5882 6.04028 16.5882C5.89531 16.5377 5.70203 16.4873 5.55706 16.4369C5.02552 16.1848 4.54229 15.8823 4.10739 15.4789C3.2376 14.7226 2.41612 13.8655 1.78793 12.8571C-0.869787 8.82345 -0.04831 3.37807 3.62417 0.352863C3.86578 0.201602 4.15572 0.201602 4.34901 0.453703C4.44565 0.604964 4.49397 0.756224 4.44565 0.907485C4.10739 2.52093 3.81746 5.04194 5.26713 7.21001C6.5235 9.02513 9.1329 10.7898 10.7275 10.7898C11.0658 12.8066 10.5342 14.168 9.37451 15.2772Z" stroke="#221F1F" stroke-linejoin="round"/>
<path d="M16.3329 8.31934L15.7047 14.7731H15.6564C14.6899 14.9244 13.3852 15.1261 11.5973 15.4286C9.95434 15.6807 7.73152 16.8908 6.42683 17.6975L6.28186 16.6387C6.57179 16.5882 6.91005 16.5378 7.19998 16.4874L7.48991 16.437C8.21475 16.2857 8.89126 15.8824 9.4228 15.3277C10.5342 14.1681 11.1141 12.8572 10.7275 10.7899L10.9208 10.8403C11.5007 10.1849 12.1772 9.68068 12.9503 9.27732C13.9651 8.67228 15.1248 8.36976 16.3329 8.31934Z" fill="#5A595C"/>
<path d="M16.3329 8.31934L15.7047 14.7731H15.6564C14.6899 14.9244 13.3852 15.1261 11.5973 15.4286C9.95434 15.6807 7.73152 16.8908 6.42683 17.6975L6.28186 16.6387C6.57179 16.5882 6.91005 16.5378 7.19998 16.4874L7.48991 16.437C8.21475 16.2857 8.89126 15.8824 9.4228 15.3277C10.5342 14.1681 11.1141 12.8572 10.7275 10.7899L10.9208 10.8403C11.5007 10.1849 12.1772 9.68068 12.9503 9.27732C13.9651 8.67228 15.1248 8.36976 16.3329 8.31934Z" stroke="#221F1F" stroke-linejoin="round"/>
<path d="M30.443 19.9159L30.0564 20.1176L29.6698 20.3193L29.0899 20.5714C27.5919 19.9664 26.0456 19.5126 24.451 19.2101C22.3732 18.8067 20.2953 18.605 18.1691 18.605C16.043 18.605 13.9651 18.7563 11.8873 19.2101C10.2926 19.5126 8.74631 19.9664 7.24833 20.5714C7.05504 20.4706 6.86175 20.3697 6.66846 20.3193L5.84698 19.9159C5.89531 19.2101 5.84698 18.8067 5.84698 18.1008C5.99195 18 6.23356 17.8487 6.47517 17.6975L6.52349 17.647C7.77987 16.8403 10.0027 15.6806 11.6456 15.3781C13.4336 15.0756 14.6899 14.8739 15.7047 14.7227C16.3329 14.6722 17.0094 14.6722 17.6859 14.6722C18.7007 14.6722 19.6188 14.6722 20.5369 14.7227C21.5034 14.8739 22.8081 15.0756 24.6443 15.3781C26.3356 15.6302 28.5584 16.8403 29.8631 17.647H29.9114C30.153 17.7983 30.3463 17.8991 30.4913 18.0504C30.443 18.8067 30.3946 19.2101 30.443 19.9159Z" fill="#929497"/>
<path d="M30.443 19.9159L30.0564 20.1176L29.6698 20.3193L29.0899 20.5714C27.592 19.9664 26.0456 19.5126 24.451 19.2101C22.3732 18.8571 20.2953 18.6554 18.1691 18.6554C16.043 18.6554 13.9651 18.8067 11.8873 19.2101C10.2926 19.5126 8.74631 19.9664 7.24833 20.5714C7.05504 20.4706 6.86175 20.3697 6.66846 20.3193L5.84698 19.9159C5.89531 19.2101 5.84698 18.8067 5.84698 18.1008C5.99195 18 6.23356 17.8487 6.47517 17.6975L6.52349 17.647C7.77987 16.8403 10.0027 15.6806 11.6456 15.3781C13.4336 15.0756 14.6899 14.8739 15.7047 14.7227C16.3329 14.6722 17.0094 14.6722 17.6859 14.6722C18.7007 14.6722 19.6188 14.6722 20.5369 14.7227C21.5034 14.8739 22.8081 15.0756 24.6443 15.3781C26.3356 15.6302 28.5584 16.8403 29.8631 17.647H29.9114C30.153 17.7983 30.3463 17.8991 30.4913 18.0504C30.443 18.8067 30.3946 19.2101 30.443 19.9159Z" stroke="#221F1F" stroke-linecap="round" stroke-linejoin="round"/>
<path d="M20.4886 14.7731C19.6188 14.7226 18.6523 14.6722 17.6376 14.7226C16.9611 14.7226 16.2846 14.7731 15.6564 14.7731H15.7047L16.3329 8.31927L16.4778 7.00835C16.9611 6.70583 17.5409 6.55457 18.0725 6.55457H18.1691C18.749 6.55457 19.2805 6.70583 19.7638 7.00835L19.9087 8.31927V8.36969L20.4886 14.7731Z" fill="#929497"/>
<path d="M20.4886 14.7731C19.6188 14.7226 18.6523 14.6722 17.6376 14.7226C16.9611 14.7226 16.2846 14.7731 15.6564 14.7731H15.7047L16.3329 8.31927L16.4778 7.00835C16.9611 6.70583 17.5409 6.55457 18.0725 6.55457H18.1691C18.749 6.55457 19.2805 6.70583 19.7638 7.00835L19.9087 8.31927V8.36969L20.4886 14.7731Z" stroke="#221F1F" stroke-linecap="round" stroke-linejoin="round"/>
<ellipse cx="30.0564" cy="20.1176" rx="0.241611" ry="0.252101" fill="#221F1F"/>
<path d="M31.8443 27.126C31.4577 31.9159 25.6108 35.7478 17.9275 35.7478C10.2926 35.5462 4.92889 32.2184 4.59063 27.4285C4.54231 26.8235 4.59063 26.2184 4.63896 25.563C4.88057 23.6974 5.50875 21.9327 6.42687 20.3193L7.00674 20.5714C8.50473 19.9663 10.051 19.5125 11.6457 19.21C13.7235 18.8067 15.8014 18.6554 17.9275 18.605C20.0537 18.605 22.1316 18.8067 24.2094 19.21C25.8041 19.5125 27.3504 19.9663 28.8484 20.5714L29.4765 20.3193L29.8631 20.1176C30.7812 21.731 31.4094 23.4957 31.7477 25.3613C31.8926 25.9663 31.8926 26.5714 31.8443 27.126Z" stroke="#221F1F" stroke-linecap="round" stroke-linejoin="round"/>
<path d="M34.212 12.8571C33.5355 13.8151 32.7624 14.7227 31.8443 15.479C31.4094 15.8823 30.9261 16.1849 30.3946 16.437L30.153 16.5378L30.008 16.5882C29.6698 16.6891 29.4765 16.5882 28.8483 16.4874L28.5583 16.437C27.8335 16.2857 27.157 15.8823 26.6255 15.3277C25.514 14.168 24.9342 12.8571 25.3208 10.7899C26.8671 10.8403 29.5248 9.07561 30.7812 7.21006C32.1825 5.042 31.8926 2.52099 31.5543 0.907542C31.506 0.605021 31.651 0.35292 31.9409 0.25208C32.0859 0.20166 32.2791 0.25208 32.3758 0.35292C36.0483 3.37813 36.8698 8.87393 34.212 12.8571Z" fill="#F79422"/>
<path d="M34.212 12.8571C33.5355 13.8151 32.7624 14.7227 31.8443 15.479C31.4094 15.8823 30.9261 16.1849 30.3946 16.437L30.153 16.5378L30.008 16.5882C29.6698 16.6891 29.4765 16.5882 28.8483 16.4874L28.5583 16.437C27.8335 16.2857 27.157 15.8823 26.6255 15.3277C25.514 14.168 24.9342 12.8571 25.3208 10.7899C26.8671 10.8403 29.5248 9.07561 30.7812 7.21006C32.1825 5.042 31.8926 2.52099 31.5543 0.907542C31.506 0.605021 31.651 0.35292 31.9409 0.25208C32.0859 0.20166 32.2791 0.25208 32.3758 0.35292C36.0483 3.37813 36.8698 8.87393 34.212 12.8571Z" stroke="#221F1F" stroke-linejoin="round"/>
<path d="M30.0081 16.5882L29.8148 17.6975C28.5101 16.8908 26.2873 15.6807 24.596 15.4286C22.7598 15.1261 21.5034 14.9244 20.4887 14.7731L19.8605 8.31934C20.9719 8.36976 22.0833 8.7227 23.0981 9.27732C23.8712 9.68068 24.5477 10.2353 25.1276 10.8403L25.3209 10.7899C24.9343 12.8067 25.5142 14.1681 26.6256 15.3277C27.1571 15.8824 27.8336 16.2857 28.5585 16.437C28.6068 16.437 28.8001 16.5378 28.8484 16.5378C29.235 16.6891 29.6215 16.6891 30.0081 16.5882Z" fill="#5A595C"/>
<path d="M30.0081 16.5882L29.8148 17.6975C28.5101 16.8908 26.2873 15.6807 24.596 15.4286C22.7598 15.1261 21.5034 14.9244 20.4887 14.7731L19.8605 8.31934C20.9719 8.36976 22.0833 8.7227 23.0981 9.27732C23.8712 9.68068 24.5477 10.2353 25.1276 10.8403L25.3209 10.7899C24.9343 12.8067 25.5142 14.1681 26.6256 15.3277C27.1571 15.8824 27.8336 16.2857 28.5585 16.437L28.8484 16.4874C29.4766 16.5882 29.6699 16.6891 30.0081 16.5882Z" stroke="#221F1F" stroke-linejoin="round"/>
<path d="M19.8604 8.31934H19.6671" stroke="#221F1F" stroke-linejoin="round"/>
<path d="M30.0564 16.3361C30.3947 16.7394 30.298 17.3445 29.9115 17.6974C29.8631 17.7478 29.8631 17.7478 29.8148 17.7982" fill="#F79422"/>
<path d="M30.0564 16.3361C30.3947 16.7394 30.298 17.3445 29.9115 17.6974C29.8631 17.7478 29.8631 17.7478 29.8148 17.7982" stroke="#221F1F" stroke-miterlimit="10"/>
<path d="M6.23359 16.3361C5.89534 16.7394 5.99198 17.3445 6.37856 17.6974C6.42688 17.7478 6.42688 17.7478 6.4752 17.7982" fill="#F79422"/>
<path d="M6.23359 16.3361C5.89534 16.7394 5.99198 17.3445 6.37856 17.6974C6.42688 17.7478 6.42688 17.7478 6.4752 17.7982" stroke="#221F1F" stroke-miterlimit="10"/>
<path d="M16.3329 29.042C16.6711 29.1429 17.0577 29.0924 17.396 28.8908C17.9275 28.6891 18.2658 28.1345 18.2175 27.5294C18.1691 28.1345 18.5074 28.6891 19.0389 28.8908C19.3772 29.042 19.7154 29.0924 20.0537 29.042" stroke="#171717" stroke-linecap="round" stroke-linejoin="round"/>
<path d="M20.102 25.8151C20.102 26.4202 19.2322 27.2269 18.1691 27.2269C17.106 27.2269 16.2362 26.4202 16.2362 25.8151C16.2362 25.2101 17.106 25.0084 18.1691 25.0084C19.2322 25.0084 20.102 25.2605 20.102 25.8151Z" fill="#171717"/>
<path d="M18.9423 25.6134C18.9423 25.7646 18.5557 25.9663 18.1208 25.9663C17.6859 25.9663 17.2993 25.7646 17.2993 25.6638C17.2993 25.563 17.6859 25.563 18.1208 25.563C18.5557 25.563 18.9423 25.4621 18.9423 25.6134Z" fill="white"/>
<path d="M15.1249 27.5294C15.0765 28.2353 15.5114 28.8403 16.188 28.9916H16.3329" stroke="#171717" stroke-linecap="round" stroke-linejoin="round"/>
<path d="M18.2174 26.8235C18.2174 27.0756 18.2174 27.2773 18.2174 27.5294" stroke="#171717" stroke-linecap="round" stroke-linejoin="round"/>
<path d="M20.1021 29.042H20.247C20.9235 28.8908 21.4067 28.2857 21.3101 27.5798" stroke="#171717" stroke-linecap="round" stroke-linejoin="round"/>
<path d="M32.3759 0.352905C36.0483 3.37812 36.8215 8.82349 34.1638 12.8067" stroke="#221F1F" stroke-linejoin="round"/>
<path d="M9.37451 15.2772C8.84297 15.8319 8.16645 16.2352 7.44162 16.3865L7.15169 16.4369C6.86176 16.5377 6.57182 16.5882 6.23357 16.5882C6.18525 16.5882 6.0886 16.5882 6.04028 16.5882C5.89531 16.5377 5.70203 16.4873 5.55706 16.4369C5.02552 16.1848 4.54229 15.8823 4.10739 15.4789C3.2376 14.7226 2.41612 13.8655 1.78793 12.8571C-0.869787 8.82345 -0.04831 3.37807 3.62417 0.352863C3.86578 0.201602 4.15572 0.201602 4.34901 0.453703C4.44565 0.604964 4.49397 0.756224 4.44565 0.907485C4.10739 2.52093 3.81746 5.04194 5.26713 7.21001C6.5235 9.02513 9.1329 10.7898 10.7275 10.7898C11.0658 12.8066 10.5342 14.168 9.37451 15.2772Z" stroke="#221F1F" stroke-linejoin="round"/>
<path d="M14.6417 22.5378C14.6417 23.647 14.0135 24.5042 13.2403 24.5042C12.4672 24.5042 11.839 23.5966 11.839 22.5378C11.839 21.5798 12.3222 20.7731 12.9504 20.5714L14.4967 21.7815C14.5934 22.0336 14.6417 22.2857 14.6417 22.5378Z" fill="#221F1F"/>
<path d="M14.1101 22.2857C14.1101 22.6891 13.8685 22.9916 13.6269 22.9916C13.3853 22.9916 13.1437 22.6891 13.1437 22.2857C13.1437 21.8824 13.3853 21.5798 13.6269 21.5798C13.8685 21.5798 14.1101 21.8824 14.1101 22.2857Z" fill="white"/>
<path d="M12.9504 24.0504C12.4189 24.5042 11.9356 25.0084 11.5007 25.563C11.3075 25.8151 11.1142 26.1176 10.9692 26.4706C10.8242 26.7731 10.7276 27.126 10.6793 27.479C10.6309 27.6302 10.6309 27.8319 10.6309 27.9832V28.2353V28.4874C10.6309 28.8403 10.6309 29.1933 10.6309 29.5966C10.6793 29.9496 10.7276 30.3529 10.7759 30.7059C10.8242 30.9075 10.8242 31.0588 10.8726 31.2605C10.9209 31.4117 10.9692 31.6134 11.0658 31.7647C10.9692 31.6134 10.9209 31.4117 10.8242 31.2605C10.7759 31.1092 10.6793 30.9075 10.6309 30.7563C10.5343 30.4033 10.4377 30.0504 10.341 29.647C10.2927 29.2941 10.2444 28.8907 10.196 28.5378V28.2857V27.9832C10.196 27.7815 10.196 27.5798 10.196 27.4285C10.2444 27.0252 10.2927 26.6218 10.4377 26.2689C10.5826 25.9159 10.7276 25.563 10.9209 25.2101C11.3558 24.5546 11.7907 23.9496 12.3222 23.4454C12.5155 23.2941 12.7571 23.2941 12.9504 23.4454C13.0954 23.5462 13.1437 23.8487 12.9504 24.0504Z" fill="#221F1F"/>
<path d="M12.6121 23.8991C12.5637 23.8991 12.5637 23.8991 12.5154 23.8991H12.4671H12.3704L12.1288 23.8487C11.9839 23.7983 11.8389 23.7983 11.6939 23.7983C11.404 23.7983 11.0658 23.7983 10.7758 23.8991C10.6309 23.9496 10.4859 24 10.3409 24.0504C9.90602 24.2521 9.51944 24.605 9.27783 25.0084C9.4228 24.6554 9.56776 24.3529 9.80937 24.1008C9.90602 23.9496 10.051 23.8487 10.196 23.7479C10.3409 23.647 10.4859 23.5462 10.6309 23.4454C10.9208 23.2437 11.259 23.1428 11.6456 23.042C11.8389 22.9916 11.9839 22.9916 12.1772 22.9916C12.2738 22.9916 12.3704 22.9916 12.4671 22.9916H12.6604C12.902 22.9916 13.0953 23.1933 13.1436 23.4454C13.1919 23.6975 12.902 23.8991 12.6121 23.8991Z" fill="#221F1F"/>
<path d="M24.5477 22.5378C24.5477 23.647 23.9195 24.5042 23.1947 24.5042C22.4698 24.5042 21.7933 23.5966 21.7933 22.5378C21.7933 22.2857 21.8417 22.0336 21.89 21.7815L23.4363 20.5714C24.0645 20.7731 24.5477 21.5798 24.5477 22.5378Z" fill="#221F1F"/>
<path d="M22.2765 22.2857C22.2765 22.6891 22.5181 22.9916 22.7597 22.9916C23.0013 22.9916 23.2429 22.6891 23.2429 22.2857C23.2429 21.8824 23.0013 21.5798 22.7597 21.5798C22.5181 21.5798 22.2765 21.8824 22.2765 22.2857Z" fill="white"/>
<path d="M24.0644 23.3445C24.596 23.8991 25.0309 24.4538 25.4175 25.1092C25.6107 25.4117 25.804 25.7647 25.949 26.1176C26.094 26.4706 26.1906 26.8739 26.2389 27.2269C26.2873 27.6302 26.2873 27.9832 26.2389 28.3865C26.1906 28.7395 26.1423 29.1428 26.094 29.4958C26.0456 29.8487 25.949 30.2017 25.8524 30.5546C25.804 30.7059 25.7557 30.9075 25.6591 31.0588C25.6107 31.2101 25.5141 31.4117 25.4175 31.563C25.4658 31.4117 25.5624 31.2101 25.6107 31.0588C25.6591 30.9075 25.7074 30.7059 25.7557 30.5546C25.804 30.2017 25.9007 29.8487 25.9007 29.4958C25.949 29.1428 25.949 28.7899 25.949 28.3865C25.949 28.0336 25.9007 27.6806 25.8524 27.3277C25.7557 26.9748 25.6591 26.6722 25.5141 26.3697C25.3691 26.0672 25.1758 25.7647 24.9342 25.5126C24.4993 24.958 24.0161 24.4538 23.4846 24C23.2913 23.7983 23.2913 23.5462 23.4846 23.3445C23.6295 23.1932 23.8711 23.1428 24.0644 23.2941V23.3445Z" fill="#221F1F"/>
<path d="M23.7745 22.9916H24.0161C24.1128 22.9916 24.2094 22.9916 24.3061 22.9916C24.4993 22.9916 24.6926 22.9916 24.8859 23.042C25.2725 23.0924 25.6107 23.1933 25.949 23.3445C26.2873 23.4958 26.5772 23.7479 26.8671 24C27.1087 24.2521 27.302 24.605 27.447 24.9076C27.2537 24.605 27.0121 24.3529 26.7222 24.1513C26.4322 23.9496 26.1423 23.7983 25.804 23.7479C25.4658 23.6975 25.1275 23.6975 24.7893 23.6975C24.6443 23.6975 24.451 23.7479 24.3061 23.7479L24.0644 23.7983H23.9678H23.9195H23.8712H23.8228C23.5812 23.8487 23.3396 23.647 23.3396 23.3949C23.2913 23.1428 23.4846 22.8907 23.7262 22.8907C23.7745 22.8907 23.7745 22.8907 23.8228 22.8907" fill="#221F1F"/>
</g>
<defs>
<clipPath id="clip0_1_8624">
<rect width="36" height="36" fill="white"/>
</clipPath>
</defs>
</svg>
