<svg width="36" height="36" viewBox="0 0 36 36" fill="none" xmlns="http://www.w3.org/2000/svg">
<g clip-path="url(#clip0_1_8558)">
<path d="M18 36C27.9411 36 36 27.9411 36 18C36 8.05887 27.9411 0 18 0C8.05887 0 0 8.05887 0 18C0 27.9411 8.05887 36 18 36Z" fill="#3D8130"/>
<path d="M24.8554 23.8641L24.8484 23.8571L24.8554 23.8641Z" fill="#3D8130"/>
<path d="M10.6945 14.2735L9.88591 15.8485L9.04919 17.5008L8.45857 19.0477L8.06482 20.693L7.81873 22.493L7.67107 24.0469L7.50232 25.0664L7.67107 25.861L7.95935 26.543L8.49373 27.4852L9.73123 28.2586L10.6453 28.6172C10.8703 28.6875 11.1094 28.7578 11.3133 28.8211L12.3961 29.018L13.9429 29.0883H15.2226C15.3703 29.0883 16.664 29.018 16.6711 29.011L18.3164 29.0391L19.9054 28.8422L20.5945 28.5539L21.0656 27.9914L21.0867 27.2461C21.0586 27.1828 20.9672 26.9438 20.939 26.8524C20.9179 26.7891 20.6015 26.4164 20.3133 26.093L20.3062 26.086C20.1797 25.9031 19.9758 25.5867 19.9758 25.4813C19.9758 25.3758 20.1023 25.0664 20.1304 25.0102L20.1445 24.9821L20.8054 24.7922L21.2414 25.1086L21.6351 24.8906L22.0781 24.4477L22.8515 23.8781L23.5547 23.4774L24.1101 23.3719L24.8414 23.8711L24.7922 23.8149L25.0945 23.5477L25.3758 23.0836V22.5985L25.3195 22.4578L24.9609 22.7461L24.3211 22.9289H24.307L23.3226 22.9078L21.8953 23.0555L21.4453 23.1047L21.1008 23.0555L20.1797 22.9289L19.139 22.7321L17.4586 22.4578H17.4515L15.8414 21.7899L14.4281 20.9742L13.5633 20.3906L13.4789 19.9758L13.5914 19.5891L13.9359 19.336L14.7375 19.5188L16.4883 20.0602C17.3461 20.236 18.6539 20.4961 18.7383 20.5031C18.7804 20.5031 18.9492 20.5313 19.3711 20.6016C19.8211 20.6719 20.4398 20.7774 20.5664 20.7774C20.7844 20.7774 22.4648 20.8688 22.5633 20.8758C22.6547 20.8758 24.0187 20.8477 24.1664 20.8477C24.2648 20.8477 24.7922 20.6719 25.1086 20.5594L25.5867 19.9899L26.0437 19.1953C26.0719 18.9633 26.0437 18.7313 25.9594 18.5133C25.8469 18.218 25.6359 17.9649 25.3687 17.7961C25.2281 18.0633 25.0453 18.2321 24.8344 18.3094C24.757 18.3375 24.6656 18.3516 24.5812 18.3516C24.4547 18.3516 24.3281 18.3235 24.2226 18.2672L24.2929 18.1406C24.4476 18.218 24.6234 18.2321 24.7922 18.1758C24.982 18.1055 25.1437 17.9367 25.2703 17.6766C25.1156 17.7328 24.9468 17.768 24.7781 17.768C24.6726 17.768 24.5672 17.761 24.4617 17.7328L24.4758 17.6625L24.4898 17.5922C24.4968 17.5922 25.0383 17.7258 25.4461 17.4094C25.7344 17.1914 25.8961 16.7977 25.9242 16.2563L25.4531 16.8117L24.8836 17.0719C24.6304 17.1352 23.7867 17.3461 23.7094 17.3461C23.6812 17.3461 23.5687 17.3321 23.2945 17.2828C22.95 17.2266 22.4367 17.1492 22.3031 17.1492C22.064 17.1492 21.7265 16.8891 21.6914 16.861L21.6492 16.8328L21.9164 16.0524L22.6547 15.2156L23.4351 14.6602H24.4054L25.3195 14.7586L25.7133 15.2086L25.9031 15.4899V14.7305L25.1437 14.4563C25.0594 14.4422 24.307 14.3367 24.1242 14.3367C23.9484 14.3367 23.2734 14.4422 23.1609 14.4563L22.1836 15.0891L22.1062 14.9696L23.1047 14.3227H23.1187C23.1539 14.3156 23.9133 14.1961 24.1172 14.1961C24.314 14.1961 25.1297 14.3156 25.1648 14.3227L25.1789 14.3297L26.0015 14.6321L26.0789 14.6742L26.0859 14.618L25.6992 14.2805L25.0031 13.943L24.1594 13.8727L23.189 14.0414L22.8023 14.2102L22.7461 14.0766L23.1539 13.9008L24.1523 13.725L25.0383 13.8024L25.0734 13.8235L24.8062 13.4086L24.0539 12.7477L24.0609 12.7406L21.1359 12.825C21.1359 12.825 20.7562 12.8742 20.3203 12.9305L20.7351 13.5281L20.9461 13.9008L20.8406 14.2735L20.7 14.2313L20.7914 13.9149L20.6086 13.5985L20.1656 12.9586L20.1937 12.9375C19.6453 13.0078 19.0617 13.0781 19.0265 13.0781C18.9633 13.0781 16.6148 13.2539 16.5164 13.2539C16.3195 13.2399 16.1226 13.2188 15.9328 13.1766C15.8976 13.1555 14.3297 12.586 14.2734 12.5508C14.2172 12.5156 13.6687 11.9883 13.6687 11.9883L12.6 11.6578L11.6648 12.811L10.6945 14.2735ZM22.1062 17.5008C22.2469 17.5641 22.3734 17.6414 22.507 17.7188L23.3086 17.8102L23.7656 17.7117L23.7937 17.8524L23.3156 17.9508L22.7601 17.8875C22.9992 18.0633 23.2172 18.2602 23.414 18.4852C23.5547 18.6469 23.6812 18.8227 23.7867 19.0055L23.6601 19.0758C23.5336 18.8649 23.3859 18.661 23.2101 18.4852C22.9781 18.2461 22.7179 18.0281 22.4367 17.8524L22.0289 17.6203L22.1062 17.5008ZM14.0695 14.8711L14.7094 14.2594L15.2648 13.8024L16.0594 13.6477L16.8961 13.6196H17.789L18.5273 13.6477L20.025 13.6758L20.4961 13.9641L21.0726 14.4914L21.4031 14.8992L21.5578 15.7289L21.4172 15.7571L21.2695 14.9625L20.9672 14.5828L20.4117 14.0766L19.9898 13.8164L18.8156 13.7953L19.3289 14.0766C19.6031 14.2172 20.0742 14.4703 20.1234 14.5758C20.1586 14.6321 20.5312 14.9977 20.8758 15.3211L20.8828 15.3281L21.4101 16.0102L21.4875 16.5727L21.3469 16.5938L21.2765 16.0735L20.7773 15.4266C20.6015 15.2649 20.0531 14.7446 20.0039 14.6461C19.9617 14.5899 19.5961 14.3789 19.2726 14.2102L18.5203 13.7953L17.7961 13.7742H16.9101L16.0804 13.7953L15.3422 13.936L14.8148 14.3649L14.2172 14.9414L14.1539 15.3211L14.2804 15.4336L14.5969 15.2649L15.1172 14.618L16.0594 14.2594L17.2828 14.1328L18.3164 14.2313L19.6594 14.9274L20.2148 15.2578L20.7492 15.968L20.9953 16.7414L21.3539 16.9735V17.2899L21.0234 17.5922L20.4328 17.8383L20.1797 18.0492L19.9125 18.4852L19.7789 18.7031L19.7648 18.7102C19.589 18.8016 19.2797 18.9633 19.1953 18.9633C19.132 18.9774 18.7383 19.1531 18.3867 19.3289L18.3515 19.336C18.3234 19.343 17.7047 19.5328 17.55 19.561L17.5289 19.4203C17.6625 19.3992 18.2461 19.2235 18.3023 19.2024C18.6539 19.0336 19.0898 18.8297 19.1672 18.8297C19.3359 18.7664 19.4976 18.6891 19.6594 18.5977L19.7226 18.4922L20.0461 17.9649L20.1234 17.9016C19.8984 17.8805 19.6031 17.8453 19.5258 17.8031C19.4906 17.7891 19.2797 17.761 18.1758 17.761C17.9015 17.761 17.2547 17.6133 17.1633 17.5852C17.0929 17.5641 16.432 17.3672 16.425 17.3672L16.4109 17.3602L16.3969 17.3461C16.3898 17.3391 15.7781 16.7555 15.3281 16.4953L15.3984 16.3688C15.8344 16.6219 16.3898 17.1422 16.4883 17.2336C16.5937 17.2617 17.1422 17.4305 17.2125 17.4516C17.2898 17.4797 17.9226 17.6203 18.1758 17.6203C19.5047 17.6203 19.5609 17.6555 19.5961 17.6836C19.6453 17.7117 19.9617 17.7469 20.2289 17.768L20.2219 17.8172L20.3273 17.7258L20.9179 17.4797L21.1781 17.2406V17.0649L20.9953 16.9453L21.0023 16.9664L20.3906 17.1914L19.5469 17.2899C19.5047 17.2899 19.3219 17.2969 19.1179 17.2969C18.8789 17.2969 18.6187 17.2899 18.5414 17.2617C18.4289 17.2266 17.7187 17.0719 17.3672 16.9946H17.3601L17.3531 16.9875C16.9101 16.7485 16.3617 16.4461 16.3195 16.3688C16.2844 16.3266 16.0101 16.186 15.7781 16.0735H15.7711L14.9906 15.6164L14.8851 15.6375L14.8711 15.5461L14.625 15.4055L14.2453 15.6094L13.9781 15.3774L14.0695 14.8711ZM14.3929 18.2391L14.4281 18.3797L13.95 18.4922L13.7109 18.5485L13.6969 18.4922L13.6758 18.4078L14.3929 18.2391ZM14.6953 18.9071L14.6601 19.0477C14.4984 19.0125 14.3297 19.0196 14.1679 19.0477C13.9008 19.0969 13.507 19.2516 13.1273 19.6875L13.0219 19.5961C13.8023 18.6821 14.6601 18.893 14.6953 18.9071Z" fill="#3D8130"/>
<path d="M15.6586 15.3493C15.7008 15.3422 16.6992 15.2227 16.8258 15.2227C16.875 15.2227 17.0156 15.2368 17.1984 15.2508C17.4445 15.2719 17.8594 15.3071 17.9226 15.3C18.0211 15.2719 19.0054 15.1875 19.1179 15.1735L19.7015 15.1313L19.582 15.061L18.2672 14.379L17.2758 14.2805L16.0804 14.4L15.1945 14.7375L14.7445 15.3L15.0328 15.4688L15.6586 15.3493Z" fill="#3D8130"/>
<path d="M19.125 15.3211C18.689 15.3633 18.021 15.4266 17.9507 15.4406C17.8875 15.4547 17.6625 15.4406 17.1843 15.3985C17.0226 15.3844 16.8679 15.3703 16.8257 15.3703C16.7273 15.3703 15.9679 15.4617 15.6796 15.4899L15.2156 15.5742L15.8484 15.9469C16.0453 16.0383 16.3828 16.2071 16.439 16.2914C16.4953 16.3477 16.9734 16.6219 17.4164 16.861C17.5289 16.8821 18.457 17.086 18.5976 17.1352C18.696 17.1703 19.2375 17.1633 19.5539 17.1563L20.3835 17.0578L20.8828 16.868L20.8546 16.8539L20.6015 16.0524L20.1023 15.3844L19.807 15.2086L19.814 15.2789L19.125 15.3211Z" fill="#3D8130"/>
<path d="M25.6219 15.2649L25.2703 14.8711L24.4125 14.7727H23.4984L22.7602 15.3L22.057 16.0946L21.832 16.7485C21.9445 16.8329 22.1695 16.9735 22.3172 16.9735C22.4648 16.9735 22.943 17.0508 23.3297 17.1141C23.5125 17.1422 23.6953 17.1704 23.7234 17.1704C23.7867 17.1633 24.4477 17.0016 24.8555 16.9032L25.3758 16.6641L25.7906 16.186L25.7555 15.961L24.4758 15.4407L22.8375 15.3915L22.8445 15.2508L24.5109 15.3L25.8891 15.8625L25.9453 16.2211C25.9453 16.2 25.9453 16.179 25.9453 16.1579V15.7641L25.6219 15.2649Z" fill="#3D8130"/>
<path d="M24.0891 23.5125L23.6109 23.6039L22.9359 23.9906L22.1766 24.5531L21.9656 24.764L22.4438 25.1015L22.4789 25.3687L22.1555 25.6921L22.057 25.5937L22.3313 25.3195L22.3172 25.1859L21.8672 24.8695L21.7336 25.0031L21.4523 25.1578L21.375 25.5375L21.7688 25.882L22.3383 25.8609C22.4438 25.7835 22.6195 25.671 22.7039 25.664C22.7883 25.6148 22.8727 25.5585 22.95 25.4953C23.1398 25.3476 23.2172 25.2984 23.2734 25.2984C23.4422 25.214 23.6039 25.1226 23.7586 25.0171L23.7797 25.0031L24.4688 25.0804L24.7078 25.3195L24.6586 25.3687C24.5109 25.5304 24.3422 25.7414 24.3352 25.7906C24.3352 25.8257 24.3281 25.8609 24.3141 25.889L24.4758 25.7976L25.2352 25.2562L25.3195 25.3757L24.5461 25.9242L24.1875 26.121C24.1734 26.1421 24.1594 26.1632 24.1523 26.1703L24.1242 26.1492L23.5758 26.4515L23.1961 27L23.0625 27.3234L23.3367 27.7101L23.6391 28.0546L23.9977 28.0968L24.3281 28.0265L24.3211 27.9562L24.6867 27.3796L25.3758 26.7117L25.4742 26.8171L24.7922 27.4781L24.4617 27.9914L24.4828 28.3781L24.8344 28.6171L25.2984 28.6664L25.5586 28.589L25.5094 28.5117L25.5445 28.4695C25.5586 28.4484 25.9383 28.0195 26.0156 27.9492C26.0719 27.8929 26.3953 27.5203 26.557 27.3375L26.6625 27.4289C26.6414 27.45 26.1914 27.9773 26.1141 28.0476C26.0578 28.1039 25.7836 28.4062 25.6852 28.5187L25.9312 28.8843H26.3461L26.7047 28.7226L27 28.2867L27.3938 27.8648L27.4992 27.9632L27.1055 28.3781L26.8031 28.8351L26.3742 29.025H25.8539L25.6359 28.7015L25.3055 28.8L24.7781 28.7507L24.3422 28.4484L24.3281 28.1671L23.9977 28.2375L23.5617 28.1812L23.2312 27.8015L22.7391 27.5062L22.2258 26.9367L22.0992 26.0507L22.2398 26.0296L22.3453 26.789L22.957 26.3039L23.618 25.671L23.9977 25.1507L23.8148 25.1296C23.6109 25.2632 23.3719 25.4109 23.2875 25.425C23.2031 25.4742 23.1188 25.5304 23.0414 25.5937C22.8445 25.7414 22.7672 25.7906 22.718 25.7906C22.6125 25.8398 22.507 25.9031 22.4156 25.9734L22.3945 25.9875L21.7266 26.0156L21.2273 25.5726L21.2977 25.2351L21.2484 25.2632L20.7984 24.9398L20.2711 25.0945C20.2148 25.221 20.1727 25.3476 20.1445 25.4812C20.1516 25.5375 20.3062 25.7976 20.4469 26.0015C20.6367 26.2125 21.0727 26.7117 21.1008 26.8171C21.1219 26.8945 21.2133 27.1195 21.2484 27.2039L21.2555 27.2179L21.2344 28.1742L21.5086 28.582C21.6492 28.6664 22.6828 29.271 22.8023 29.3414C22.8867 29.3906 23.632 29.6015 24.0891 29.7281L25.6289 29.8757L26.8664 29.707L27.9281 29.2218L28.5047 28.6664L28.3711 28.1742L27.6609 26.8523L27.1477 26.0718L26.2547 25.1015L24.9398 24.3773L24.743 23.9554L24.0891 23.5125Z" fill="#3D8130"/>
<path d="M25.207 20.6648L25.1859 20.6719C25.0453 20.7211 24.3281 20.9742 24.1734 20.9742C24.0257 20.9742 22.5843 20.9953 22.5703 21.0023C22.5492 21.0023 20.7914 20.9039 20.5734 20.9039C20.4328 20.9039 19.8632 20.8125 19.357 20.7281C19.0757 20.6789 18.7875 20.6367 18.7453 20.6367C18.6468 20.6367 16.8257 20.2641 16.4601 20.1938H16.4531L14.7023 19.6523L13.971 19.4906L13.7179 19.6805L13.6335 19.9828L13.6968 20.3062L14.5125 20.8547L15.9117 21.6633L17.5007 22.3242L19.1671 22.5914L20.2078 22.7883L21.4523 22.957L23.3226 22.7602H23.3296L24.307 22.7812L24.8976 22.6125L25.3968 22.2117L25.8046 21.5859L25.896 21.2977L25.7625 20.9742C25.1718 21.5086 25.1085 21.5297 25.0734 21.5367L24.4687 21.6844L22.7882 21.7617H22.7812L21.0234 21.6633L19.2796 21.3469L17.8734 21.375H17.8664L16.4039 21.0023L15.1101 20.5523L14.421 20.1305L14.4984 20.0109L15.1804 20.4258L16.4531 20.8687L17.8945 21.2344L19.3007 21.2063H19.3078L21.0515 21.5227L22.7953 21.6211L24.4617 21.5508L25.0453 21.4031C25.0804 21.3891 25.2773 21.2344 25.6921 20.8547C25.7484 20.8055 25.7835 20.7703 25.7976 20.7563L26.332 20.025L26.5148 19.6805C26.4867 19.5609 26.4585 19.4484 26.4445 19.3289C26.3742 19.2164 26.2968 19.118 26.2054 19.0195C26.2054 19.0828 26.2054 19.1461 26.1914 19.2094V19.2234L25.7062 20.0602L25.207 20.6648Z" fill="#983B1F"/>
<path d="M28.4836 28.125L27.7664 26.7891L27.2461 25.9945L26.3461 24.9891L25.0453 24.2789L24.8555 23.8711L24.8203 23.8922C24.8203 23.8922 24.9398 24.3281 25.0242 24.3703C25.1086 24.4125 26.2336 24.9891 26.2898 25.0172C26.3461 25.0453 27.3234 26.2125 27.3234 26.2125L28.1109 27.5836L28.582 28.6383C28.582 28.6383 27.9773 29.257 27.9422 29.2641C27.907 29.2711 26.7398 29.8406 26.7047 29.8406C26.6695 29.8406 25.5375 29.9672 25.4742 29.9531C25.4109 29.932 24.0188 29.8125 23.9133 29.8055C23.8008 29.7984 22.5141 29.2852 22.5141 29.2852L21.4031 28.6172L21.0867 28.125L20.6438 28.6242C20.6438 28.6242 20.018 28.9406 19.9336 28.9406C19.8492 28.9406 18.3164 29.1445 18.1969 29.1445H15.1102C15.1102 29.1445 12.0586 29.0883 11.925 29.025C11.8828 29.0039 11.6367 28.9266 11.3133 28.8211L11.0531 28.7719L10.6453 28.6172C10.1461 28.4625 9.69609 28.3289 9.69609 28.3289L8.4375 27.5133C8.4375 27.5133 7.91016 26.5992 7.88906 26.55C7.86797 26.5008 7.54453 25.7344 7.54453 25.6992C7.54453 25.6641 7.43203 25.0523 7.43203 25.0523L7.65703 23.6531L7.75547 22.1836L7.99453 20.5805C7.99453 20.5805 8.39531 18.9703 8.40234 18.9C8.40937 18.8227 9.05625 17.2336 9.05625 17.2336L9.73828 16.0031L10.6383 14.1469L11.6297 12.7477L12.593 11.6016L12.6562 11.6227L12.5437 11.5312L11.6086 12.6914L10.568 14.2031L9.75234 15.7922L8.91563 17.4375L8.31797 18.9984L7.91719 20.6578L7.67109 22.4719L7.52344 24.0258L7.34766 25.0734L7.52344 25.9031L7.82578 26.6062L8.38125 27.5906L9.65391 28.3922L10.9969 28.9195L12.368 29.1727L13.9359 29.25H15.2156C15.3633 29.25 16.5938 29.1797 16.6711 29.1727L18.3234 29.2008H18.3305L19.9406 29.0039H19.9477L20.6859 28.6945L21.0656 28.2375L21.382 28.7086L21.3961 28.7156C21.4102 28.7227 22.5844 29.4047 22.7039 29.482C22.8305 29.5594 23.9062 29.8547 24.0328 29.8828L25.6078 30.0305L26.8734 29.8547H26.8805L27.9773 29.3555L27.9914 29.3484L28.6453 28.7156L28.4836 28.125Z" fill="black"/>
<path d="M11.6297 12.7477L10.6383 14.1469L9.73826 16.0031L9.05623 17.2336C9.05623 17.2336 8.40935 18.8227 8.40232 18.9C8.39529 18.9773 7.99451 20.5805 7.99451 20.5805L7.75544 22.1836L7.65701 23.6531L7.43201 25.0523C7.43201 25.0523 7.54451 25.6641 7.54451 25.6992C7.54451 25.7344 7.86794 26.5008 7.88904 26.55C7.91013 26.5992 8.43748 27.5133 8.43748 27.5133L9.69607 28.3289C9.69607 28.3289 10.1461 28.4625 10.6453 28.6172L9.73123 28.2586L8.49373 27.4852L7.95935 26.543L7.67107 25.8609L7.50232 25.0664L7.67107 24.0469L7.81873 22.493L8.06482 20.693L8.45857 19.0477L9.04919 17.5008L9.88591 15.8484L10.6945 14.2734L11.7281 12.7758L12.6633 11.6227L12.6 11.6016L11.6297 12.7477Z" fill="black"/>
<path d="M24.1172 23.3649L23.5617 23.4703L22.8586 23.8711L22.0852 24.4407L21.6422 24.8836L21.2484 25.1016L20.8125 24.7852L20.1516 24.975L20.1375 25.0032C20.1094 25.0664 19.9828 25.3688 19.9828 25.4742C19.9828 25.5797 20.1937 25.9031 20.3133 26.0789L20.3203 26.086C20.6086 26.4094 20.925 26.7821 20.9461 26.8453C20.9672 26.9367 21.0656 27.1758 21.0938 27.2391L21.0727 27.9844L20.6016 28.5469L19.9125 28.8352L18.3234 29.0321L16.6781 29.0039C16.6641 29.0039 15.3703 29.0813 15.2297 29.0813H13.95L12.4031 29.011L11.3203 28.8141C11.6367 28.9125 11.8898 28.9969 11.932 29.018C12.0586 29.0813 15.1172 29.1375 15.1172 29.1375H18.2039C18.3234 29.1375 19.8633 28.9336 19.9406 28.9336C20.025 28.9336 20.6508 28.6172 20.6508 28.6172L21.0938 28.118L21.4102 28.6102L22.5211 29.2781C22.5211 29.2781 23.8078 29.7844 23.9203 29.7985C24.0328 29.8055 25.418 29.925 25.4812 29.9461C25.5445 29.9672 26.6766 29.8336 26.7117 29.8336C26.7469 29.8336 27.9141 29.2711 27.9492 29.2571C27.9844 29.25 28.5891 28.6313 28.5891 28.6313L28.118 27.5766L27.3305 26.2055C27.3305 26.2055 26.3531 25.0383 26.2969 25.0102C26.2406 24.9821 25.1156 24.4055 25.0312 24.3633C24.9469 24.3211 24.8273 23.8852 24.8273 23.8852L24.8625 23.8641V23.8571L24.1172 23.3649ZM24.9328 24.3774L26.2477 25.1016L27.1266 26.0719L27.6398 26.8524L28.35 28.1742L28.4836 28.6664L27.907 29.2219L26.8453 29.7071L25.6078 29.8758L24.068 29.7281C23.6109 29.6016 22.8656 29.3906 22.7812 29.3414C22.6617 29.2711 21.6281 28.6664 21.4875 28.5821L21.2133 28.1742L21.2344 27.218V27.211C21.1992 27.1266 21.1078 26.9016 21.0867 26.8242C21.0586 26.7188 20.6227 26.2196 20.4328 26.0086C20.2922 25.7977 20.1305 25.5375 20.1305 25.4883C20.1586 25.3547 20.2008 25.2282 20.257 25.1016L20.7844 24.9469L21.2344 25.2703L21.2836 25.2422L21.2133 25.5797L21.7125 26.0227L22.3805 25.9946L22.4016 25.9805C22.493 25.9102 22.5984 25.8469 22.7039 25.7977C22.7602 25.7977 22.8305 25.7485 23.0273 25.6008C23.1047 25.5375 23.1891 25.4813 23.2734 25.4321C23.3578 25.425 23.6039 25.2703 23.8008 25.1367L23.9836 25.1578L23.6039 25.6782L22.943 26.311L22.3313 26.7961L22.2258 26.0367L22.0852 26.0578L22.2117 26.9438L22.725 27.5133L23.2172 27.8086L23.5477 28.1883L23.9836 28.2446L24.3141 28.1742L24.3281 28.4555L24.7641 28.7578L25.2914 28.8071L25.6219 28.7086L25.8398 29.0321H26.3602L26.7891 28.8422L27.0914 28.3852L27.4852 27.9703L27.3797 27.8719L26.9859 28.2938L26.6906 28.7297L26.332 28.8914H25.9172L25.6711 28.5258C25.7695 28.4133 26.0438 28.111 26.1 28.0547C26.1773 27.9774 26.6273 27.4571 26.6484 27.436L26.543 27.3446C26.3813 27.5344 26.0578 27.9 26.0016 27.9563C25.9242 28.0336 25.5445 28.4625 25.5305 28.4766L25.4953 28.5188L25.5445 28.5961L25.2844 28.6735L24.8203 28.6242L24.4688 28.3852L24.4477 27.9985L24.7781 27.4852L25.4602 26.8242L25.3617 26.7188L24.6727 27.3867L24.307 27.9633L24.3141 28.0336L23.9836 28.1039L23.625 28.0617L23.3227 27.7172L23.0484 27.3305L23.182 27.0071L23.5617 26.4586L24.1102 26.1563L24.1383 26.1774C24.1453 26.1633 24.1594 26.1492 24.1734 26.1282L24.532 25.9313L25.3055 25.3828L25.2211 25.2633L24.4617 25.8047L24.3 25.8961C24.3141 25.868 24.3211 25.8328 24.3211 25.7977C24.3281 25.7414 24.4969 25.5375 24.6445 25.3758L24.6938 25.3266L24.4547 25.0875L23.7656 25.0102L23.7445 25.0242C23.5898 25.1297 23.4281 25.2281 23.2594 25.3055C23.2031 25.3055 23.1258 25.3617 22.9359 25.5024C22.8586 25.5657 22.7742 25.6219 22.6898 25.6711C22.6055 25.6782 22.4367 25.7906 22.3242 25.868L21.7547 25.8891L21.3609 25.5446L21.4383 25.1649L21.7195 25.0102L21.8531 24.8766L22.3031 25.193L22.3172 25.3266L22.043 25.6008L22.1414 25.6992L22.4648 25.3758L22.4297 25.1086L21.9516 24.7711L22.1625 24.5602L22.9219 23.9977L23.5969 23.611L24.075 23.5196L24.7219 23.9625L24.9328 24.3774ZM23.0063 27.5203L22.8164 27.4078L22.3945 26.9438L23.0414 26.4375L23.7094 25.7906L24.1453 25.186L24.3914 25.2141L24.4969 25.3196C24.3633 25.4672 24.1805 25.6852 24.1805 25.7836C24.1594 25.868 24.1172 25.9453 24.068 26.0086L23.4563 26.3461L23.0484 26.9297L22.8797 27.3516L23.0063 27.5203Z" fill="black"/>
<path d="M24.7289 13.1907L25.0875 13.6618C25.0875 13.6618 25.2632 13.936 25.3265 13.9571C25.3898 13.9782 25.9734 14.3157 25.9734 14.3157L26.2125 14.5829L26.1632 14.7375L25.9804 14.6813L26.0085 15.5883H26.0648V14.7727L26.2265 14.8641L26.2687 14.5196L25.8117 14.1188L25.3195 13.8797L25.3406 13.8657L24.9609 13.268L24.1945 12.593L24.1101 12.6915H24.1875L24.7289 13.1907Z" fill="black"/>
<path d="M25.9242 16.8961C25.9242 16.8961 25.664 17.4164 25.6359 17.4305C25.6078 17.4516 25.3757 17.55 25.3757 17.55L25.3968 17.6766C25.5023 17.7539 25.6078 17.8383 25.6992 17.9297C25.7132 17.9508 25.8679 18.2602 25.9945 18.4922H26.121C26.0015 18.1406 25.7625 17.8383 25.446 17.6485C25.4601 17.6203 25.4742 17.5852 25.4882 17.5571C25.5093 17.543 25.5375 17.5289 25.5585 17.5078C25.9031 17.2477 26.0789 16.7977 26.1 16.1649V15.7219L26.0156 15.5953L26.0367 16.2774L25.9242 16.8961Z" fill="black"/>
<path d="M24.8555 13.3735L25.1227 13.7883L25.0875 13.7672L24.2016 13.6899L23.2032 13.8656L22.7954 14.0414L22.8516 14.175L23.2383 14.0063L24.2086 13.8375L25.0524 13.9078L25.7485 14.2453L26.1352 14.5828L26.1282 14.6391L26.0508 14.5969L25.2282 14.2946L25.2141 14.2875C25.179 14.2805 24.3704 14.161 24.1665 14.161C23.9625 14.161 23.2032 14.2805 23.168 14.2875H23.154L22.1555 14.9344L22.2329 15.0539L23.2102 14.4211C23.3227 14.4071 23.9977 14.3016 24.1735 14.3016C24.3563 14.3016 25.1086 14.4141 25.193 14.4211L25.9524 14.6953V15.4688L25.7625 15.1875L25.3688 14.7375L24.4547 14.6391H23.4844L22.704 15.1946L21.9657 16.0313L21.6985 16.8117L21.7407 16.8399C21.7758 16.868 22.1133 17.1281 22.3524 17.1281C22.486 17.1281 23.0063 17.2125 23.3438 17.2617C23.618 17.3039 23.7305 17.325 23.7586 17.325C23.836 17.325 24.6797 17.1141 24.9329 17.0508L25.5024 16.7906L25.9735 16.2352C25.9454 16.7766 25.7836 17.1703 25.4954 17.3883C25.0805 17.7047 24.5391 17.5711 24.5391 17.5711L24.525 17.6414L24.511 17.7117C24.6165 17.7328 24.7219 17.7469 24.8274 17.7469C24.9961 17.7469 25.1649 17.7188 25.3196 17.6555C25.193 17.9156 25.0313 18.0844 24.8415 18.1547C24.6797 18.211 24.4969 18.1969 24.3422 18.1196L24.2719 18.2461C24.3844 18.3024 24.511 18.3305 24.6305 18.3305C24.7149 18.3305 24.7993 18.3164 24.8836 18.2883C25.0946 18.211 25.2704 18.0422 25.418 17.775C25.6852 17.9438 25.8961 18.1969 26.0086 18.4922H26.0297C25.9102 18.2602 25.7485 17.9508 25.7344 17.9297C25.636 17.8383 25.5375 17.7539 25.4321 17.6766L25.411 17.55C25.411 17.55 25.643 17.4516 25.6711 17.4305C25.6993 17.4094 25.9594 16.8961 25.9594 16.8961L26.0719 16.2844L26.0508 15.6024L26.0227 14.6953L26.2055 14.7516L26.2547 14.5969L26.0157 14.3297C26.0157 14.3297 25.4321 13.9852 25.3688 13.9711C25.3055 13.95 25.1297 13.6758 25.1297 13.6758L24.7711 13.2047L24.2227 12.7125H24.1454L24.1383 12.7196L24.8555 13.3735ZM25.9524 16.2211L25.8961 15.8625L24.518 15.3L22.8516 15.2508L22.8446 15.3914L24.4829 15.4406L25.7625 15.961L25.7977 16.186L25.3829 16.6641L24.8625 16.9031C24.4547 17.0016 23.7938 17.1633 23.7305 17.1703C23.7024 17.1703 23.5196 17.1422 23.3368 17.1141C22.95 17.0508 22.4719 16.9735 22.3243 16.9735C22.1836 16.9735 21.9586 16.8328 21.8391 16.7485L22.0641 16.0946L22.7672 15.3L23.5055 14.7727H24.4196L25.2774 14.8711L25.629 15.2649L25.9594 15.7641V16.1578C25.9524 16.1789 25.9524 16.2 25.9524 16.2211Z" fill="black"/>
<path d="M21.4594 23.0906L21.9094 23.0414H21.1149L21.4594 23.0906Z" fill="black"/>
<path d="M25.4601 23.0695C25.439 23.1047 25.0312 23.7656 25.0312 23.7656L24.8484 23.864L24.8906 23.9133L25.214 23.632L25.5234 23.1117V23.0414H25.4601C25.4671 23.0554 25.4671 23.0625 25.4601 23.0695Z" fill="black"/>
<path d="M25.4602 23.0695C25.4602 23.0625 25.4672 23.0484 25.4672 23.0414H25.3899V23.0695L25.1086 23.5336L24.8063 23.8008L24.8555 23.857L24.8625 23.864L25.0453 23.7656C25.0383 23.7656 25.4461 23.1117 25.4602 23.0695Z" fill="black"/>
<path d="M26.1351 18.7594L26.1984 18.8508C26.1844 18.7313 26.1633 18.6117 26.1211 18.4922H25.9945C26.0719 18.6398 26.1351 18.7594 26.1351 18.7594Z" fill="black"/>
<path d="M26.5922 19.5468C26.5852 19.582 26.5008 19.8633 26.4797 19.9054C26.4586 19.9547 25.7977 20.8617 25.7977 20.8617L25.9524 21.1781C25.9524 21.1781 25.9805 21.4031 25.9594 21.4383C25.9383 21.4734 25.3547 22.3804 25.3547 22.3804L25.4461 22.6336C25.4461 22.6336 25.4672 22.95 25.4602 23.0484H25.5235V22.5633L25.4461 22.3523L25.5094 22.3031L25.9383 21.6422L26.0508 21.2836L25.8821 20.8687C25.8961 20.8547 25.9032 20.8476 25.9032 20.8476L26.4516 20.0953L26.6696 19.6945L26.6625 19.6664C26.6344 19.5539 26.6063 19.4344 26.5922 19.3148C26.5922 19.2867 26.5922 19.2094 26.2266 18.8226L26.1985 18.8508L26.4165 19.1601C26.4165 19.1601 26.5993 19.5117 26.5922 19.5468Z" fill="black"/>
<path d="M25.9946 18.4922H25.9735C26.0578 18.7102 26.086 18.9422 26.0578 19.1742L25.5938 19.9688L25.1157 20.5383C24.7922 20.6508 24.2649 20.8266 24.1735 20.8266C24.0258 20.8266 22.6617 20.8477 22.5703 20.8547C22.4649 20.8477 20.7914 20.7563 20.5735 20.7563C20.4469 20.7563 19.8281 20.6578 19.3781 20.5805C18.9633 20.5102 18.7875 20.482 18.7453 20.482C18.6539 20.475 17.3531 20.2148 16.4953 20.0391L14.7446 19.4977L13.943 19.3148L13.5985 19.568L13.486 19.9547L13.5703 20.3695L14.4352 20.9531L15.8485 21.7688L17.4586 22.4367H17.4656L19.1461 22.7109L20.1867 22.9078L21.1078 23.0344H21.9094L23.3367 22.8867L24.3211 22.9078H24.3352L24.975 22.725L25.3336 22.4367L25.3899 22.5773V23.0344H25.4672C25.4742 22.9359 25.4531 22.6195 25.4531 22.6195L25.3617 22.3664C25.3617 22.3664 25.9453 21.4594 25.9664 21.4242C25.9875 21.3891 25.9594 21.1641 25.9594 21.1641L25.8047 20.8477C25.8047 20.8477 26.4727 19.9406 26.4867 19.8914C26.5078 19.8422 26.5852 19.568 26.5992 19.5328C26.6063 19.4977 26.4235 19.1461 26.4235 19.1461L26.2055 18.8367L26.1422 18.7453C26.1352 18.7594 26.0719 18.6398 25.9946 18.4922ZM26.1985 19.2094C26.2055 19.1461 26.2125 19.0828 26.2125 19.0195C26.3039 19.1109 26.3813 19.2164 26.4516 19.3289C26.4657 19.4484 26.4867 19.568 26.5219 19.6805L26.3391 20.025L25.8047 20.7563C25.7906 20.7703 25.7485 20.8055 25.6992 20.8547C25.2844 21.2344 25.0946 21.382 25.0524 21.4031L24.4688 21.5508L22.8024 21.6211L21.0586 21.5227L19.3149 21.2063H19.3078L17.9016 21.2344L16.4602 20.8687L15.1875 20.4258L14.5055 20.0109L14.4281 20.1305L15.1172 20.5523L16.411 21.0023L17.8735 21.375H17.8805L19.2867 21.3469L21.0305 21.6633L22.7883 21.7617H22.7953L24.4758 21.6844L25.0805 21.5367C25.1086 21.5297 25.1789 21.5086 25.7696 20.9742L25.9031 21.2977L25.8117 21.5859L25.4039 22.2117L24.9047 22.6125L24.3141 22.7812L23.3367 22.7602H23.3297L21.4594 22.957L20.2149 22.7883L19.1742 22.5914L17.5078 22.3242L15.9188 21.6633L14.5196 20.8547L13.7039 20.3062L13.6406 19.9828L13.725 19.6805L13.9781 19.4906L14.7094 19.6523L16.4602 20.1938H16.4672C16.8328 20.2711 18.6469 20.6367 18.7524 20.6367C18.7875 20.6367 19.0828 20.6859 19.3641 20.7281C19.8703 20.8125 20.4399 20.9039 20.5805 20.9039C20.7985 20.9039 22.5563 21.0023 22.5774 21.0023C22.5914 21.0023 24.0328 20.9742 24.1805 20.9742C24.3352 20.9742 25.0524 20.7211 25.193 20.6719L25.2141 20.6648L25.7203 20.0602L26.2055 19.2234L26.1985 19.2094Z" fill="black"/>
<path d="M14.1679 19.0476C14.3297 19.0125 14.4984 19.0125 14.6601 19.0476L14.6953 18.907C14.6601 18.9 13.8023 18.682 13.0219 19.5961L13.1273 19.6875C13.507 19.2445 13.9008 19.0968 14.1679 19.0476Z" fill="black"/>
<path d="M13.943 18.4921L14.4211 18.3796L14.393 18.239L13.6758 18.4078L13.6969 18.4921H13.943Z" fill="black"/>
<path d="M13.711 18.5484L13.943 18.4922H13.6969L13.711 18.5484Z" fill="black"/>
<path d="M22.4508 17.8594C22.7321 18.0422 22.9922 18.2531 23.2243 18.4922H23.4211C23.2243 18.2672 23.0063 18.0703 22.7672 17.8945L23.3227 17.9578L23.8008 17.8594L23.7727 17.7188L23.3157 17.8172L22.5141 17.7258C22.3875 17.6414 22.254 17.5711 22.1133 17.5078L22.05 17.6344L22.4508 17.8594Z" fill="black"/>
<path d="M23.6672 19.0828L23.7938 19.0125C23.6883 18.8297 23.5617 18.6539 23.4211 18.4922H23.2242C23.393 18.675 23.5407 18.8719 23.6672 19.0828Z" fill="black"/>
<path d="M14.625 15.4055L14.8711 15.5461L14.8852 15.6375L14.9907 15.6164L15.7711 16.0735H15.7782C16.0102 16.186 16.2844 16.3266 16.3196 16.3688C16.3688 16.4391 16.9102 16.7414 17.3532 16.9875L17.3602 16.9946H17.3672C17.7258 17.0719 18.429 17.2266 18.5415 17.2617C18.6258 17.2899 18.886 17.2969 19.118 17.2969C19.3219 17.2969 19.5118 17.2899 19.5469 17.2899L20.3907 17.1914L21.0024 16.9664L20.9954 16.9453L21.1782 17.0649V17.2406L20.918 17.4797L20.3274 17.7258L20.2219 17.8172L20.229 17.768C19.9618 17.7469 19.6454 17.7047 19.5961 17.6836C19.561 17.6625 19.5047 17.6203 18.1758 17.6203C17.9227 17.6203 17.2899 17.4797 17.2125 17.4516C17.1422 17.4305 16.5938 17.2617 16.4883 17.2336C16.3969 17.1422 15.8415 16.6289 15.3985 16.3688L15.3282 16.4953C15.7852 16.7625 16.3969 17.3391 16.3969 17.3461L16.411 17.3602L16.425 17.3672C16.4321 17.3672 17.093 17.5641 17.1633 17.5852C17.2477 17.6133 17.8946 17.761 18.1758 17.761C19.2797 17.761 19.4836 17.7891 19.5258 17.8031C19.6032 17.8453 19.8985 17.8805 20.1235 17.9016L20.0461 17.9649L19.7227 18.4922H19.8915L20.1586 18.0563L20.4118 17.8453L21.0024 17.5992L21.3329 17.2969V16.9805L20.9743 16.7485L20.7282 15.975L20.1938 15.2649L19.6383 14.9344L18.2954 14.2383L17.2618 14.1399L16.0383 14.2664L15.0961 14.625L14.5758 15.2719L14.2594 15.4406L14.1329 15.3281L14.1961 14.9485L14.7938 14.3719L15.3211 13.943L16.0594 13.8024L16.8891 13.7813H17.775L18.4993 13.8024L19.2516 14.2172C19.575 14.386 19.9477 14.5969 19.9829 14.6531C20.0321 14.7516 20.5805 15.2719 20.7563 15.4336L21.2555 16.0805L21.3258 16.6008L21.4665 16.5797L21.3891 16.0172L20.8618 15.3352L20.8547 15.3281C20.5102 15.0117 20.1375 14.6461 20.1024 14.5828C20.0532 14.4774 19.5821 14.2242 19.3079 14.0836L18.7946 13.8024L19.9688 13.8235L20.3907 14.0836L20.9461 14.5899L21.2485 14.9696L21.3961 15.7641L21.5368 15.736L21.3821 14.9063L21.0516 14.4985L20.475 13.9711L20.004 13.6828L18.5063 13.6547L17.768 13.6266H16.875L16.0383 13.6547L15.2438 13.8094L14.6883 14.2664L14.0485 14.8781L13.9641 15.3844L14.2313 15.6164L14.625 15.4055ZM20.1094 15.3774L20.6086 16.0453L20.8618 16.8469L20.8899 16.861L20.3907 17.0508L19.561 17.1492C19.2446 17.1563 18.7032 17.1633 18.6047 17.1281C18.4641 17.0789 17.536 16.8821 17.4235 16.8539C16.9805 16.6149 16.4954 16.3406 16.4461 16.2844C16.3899 16.2071 16.0524 16.0383 15.8555 15.9399L15.2227 15.5672L15.6868 15.4828C15.975 15.4477 16.7344 15.3633 16.8329 15.3633C16.875 15.3633 17.0297 15.3774 17.1915 15.3914C17.6696 15.4336 17.8946 15.4477 17.9579 15.4336C18.0282 15.4196 18.6961 15.3492 19.1321 15.3141L19.8211 15.2649L19.8141 15.1946L20.1094 15.3774ZM15.1875 14.7446L16.0735 14.4071L17.2688 14.2875L18.2602 14.386L19.575 15.068L19.6946 15.1383L19.111 15.1805C18.9985 15.1875 18.0141 15.2789 17.9157 15.3071C17.8524 15.3211 17.4446 15.2789 17.1915 15.2578C17.0086 15.2438 16.868 15.2297 16.8188 15.2297C16.6922 15.2297 15.6938 15.3492 15.6516 15.3563L15.0188 15.4758L14.7305 15.3071L15.1875 14.7446Z" fill="black"/>
<path d="M19.6594 18.5976C19.4977 18.689 19.336 18.7593 19.1672 18.8296C19.0899 18.8296 18.6539 19.0335 18.3024 19.2023C18.2391 19.2234 17.6625 19.3992 17.5289 19.4203L17.55 19.5609C17.6977 19.5328 18.3235 19.3429 18.3516 19.3359L18.3586 19.3289C18.7102 19.1601 19.111 18.9773 19.1672 18.9632C19.2516 18.9562 19.561 18.8015 19.7367 18.7101L19.7508 18.7031L19.8844 18.4851H19.7156L19.6594 18.5976Z" fill="black"/>
<path d="M20.3343 12.8391L20.2429 12.9024C20.2851 12.8954 20.3273 12.8954 20.3695 12.8883L20.3343 12.8391Z" fill="black"/>
<path d="M20.6649 13.5632L20.8477 13.8796L20.7563 14.196L20.8969 14.2382L21.0024 13.8656L20.7915 13.4929L20.3766 12.8953C20.3344 12.9023 20.2922 12.9023 20.25 12.9093L20.2219 12.9304L20.6649 13.5632Z" fill="black"/>
<path d="M24.9679 13.3946L25.5937 13.3313C25.5937 13.3313 27.1546 13.7953 27.2179 13.8586C27.2812 13.9219 28.0687 14.2664 28.0687 14.2664L28.5328 14.3086L28.596 13.8867L28.2515 13.3946L27.2601 12.6633L26.1281 12.1149L25.4179 11.8688L25.1648 8.28284L24.5671 7.38987L23.6742 6.65862L22.521 6.08909L21.3257 6.06799L19.0757 6.34924L17.0085 6.75706L16.889 6.40549C16.7273 6.36331 16.5656 6.33518 16.4039 6.31409C16.2843 6.31409 15.1875 6.65159 15.1875 6.65159L14.5195 7.00315L14.3789 7.41096L13.4226 7.93831L12.6492 8.90862L12.2062 9.84377C12.2062 9.84377 11.9812 10.7789 11.9812 10.8352C11.9812 10.8914 12.1007 11.4047 12.1851 11.4399C12.2695 11.475 12.8953 11.6438 12.8953 11.6438L13.7179 12.0516L14.9062 12.7406L16.3828 13.2258C16.3828 13.2258 17.782 13.1274 17.9226 13.1274C18.0632 13.1274 20.1726 12.9024 20.2921 12.9024C20.4117 12.9024 22.725 12.7196 22.7882 12.7196C22.8515 12.7196 24.2296 12.6985 24.2296 12.6985L24.7781 13.1836L24.9679 13.3946Z" fill="#C82727"/>
<path d="M24.4195 15.3844L24.6023 15.7711L24.7148 16.214L24.6586 16.4953L24.4195 17.107L23.6602 17.2336L22.4367 17.0156L22.2891 16.5867L22.3453 16.2L22.4719 15.5883L22.7883 15.2367L22.9922 15.3492L24.3422 15.3844" fill="black"/>
<path d="M18.8508 15.3281L19.0758 15.757L19.0969 16.2773L18.9844 16.7414L18.7454 17.114L18.3586 17.1351L16.875 16.6922L16.2844 16.1719L16.3618 15.8414L16.5657 15.525L16.8399 15.307L17.8805 15.3351C17.8665 15.3281 18.8086 15.4054 18.8508 15.3281Z" fill="black"/>
<path d="M28.4062 13.4508L27.8296 12.9445L27 12.3891L25.6359 11.8898L25.446 11.8125L25.3898 10.6383C25.3195 10.0617 25.221 9.18984 25.221 9.11953C25.221 9.02109 25.1718 8.30391 25.1718 8.27578V8.26172L24.764 7.52344L24.082 6.82031L23.0343 6.22266L22.1625 5.97656H20.9671L19.7929 6.12422C19.3218 6.20156 18.5835 6.32109 18.4992 6.32109C18.3726 6.32109 17.3882 6.54609 17.2757 6.56719L16.9312 6.65859L16.9875 6.63047L16.875 6.40547L16.5093 6.26484L15.975 6.31406L15.1171 6.525L14.4703 6.93984L14.3367 7.28437L14.4281 7.31953L14.0695 7.41094H14.0554L13.296 7.88906L12.7687 8.48672L12.2906 9.28828L11.9109 10.5961V11.0672L12.157 11.5031L13.6968 12.0516L14.2101 12.5156L15.3562 13.0359L16.3687 13.2891L18.2601 13.1625L20.9953 12.8672L22.9429 12.7195L24.5601 12.7406L26.2687 12.9867L27.6187 13.6266L27.682 13.5L26.3179 12.8531L24.5812 12.607L22.9429 12.5789L20.9882 12.7266L18.2531 13.0219L16.3898 13.1414L15.4195 12.9023L14.3015 12.3891L13.7812 11.918L12.2625 11.3766L12.0656 11.025V10.6102L12.4312 9.34453L12.8953 8.57109L13.4015 7.99453L14.1257 7.5375L17.3179 6.70078C17.7328 6.60938 18.4289 6.45469 18.5132 6.45469C18.6398 6.45469 19.7085 6.27891 19.8281 6.25781L20.9812 6.11016H22.1484L22.971 6.34922L23.9906 6.93281L24.6445 7.60781L25.0242 8.30391C25.0382 8.56406 25.0734 9.04922 25.0734 9.11953C25.0734 9.21797 25.2281 10.5117 25.2492 10.6523L25.3054 11.7562L24.4757 11.4398L22.8375 11.2641L21.6 11.1375L20.3835 11.2359L18.9773 11.3836L17.339 11.7562L16.1085 12.0516L15.2859 12.1008L14.2312 11.8898L14.7656 12.2766L15.2015 12.5297L16.2 12.7758L17.1773 12.8039H17.1843L18.0562 12.7055L19.2867 12.5086L20.489 12.3117L21.839 12.2133L22.7742 12.1641L23.8992 12.2344L25.425 12.4313L27.3937 12.8039L27.7382 13.0289L28.2867 13.507L28.4414 13.8656L28.4062 14.1328L28.1109 14.1539L27.5343 13.8867L26.4726 13.4648L25.6359 13.2117L24.9046 13.2891L24.9187 13.4297L25.6218 13.3594L26.4164 13.5984L27.471 14.0133L28.0828 14.2945L28.5257 14.2664L28.589 13.8445L28.4062 13.4508ZM14.4843 7.29844L14.5898 7.03125L15.1734 6.65859L15.996 6.46172L16.4953 6.4125L16.7765 6.51797L16.8539 6.67266L14.4843 7.29844ZM25.446 12.3187L23.9062 12.1219L22.7671 12.0445L21.825 12.0938L20.4679 12.1922L19.2515 12.3891L18.021 12.5859L17.1632 12.6844L16.214 12.6633L15.2437 12.4242L14.8359 12.1852H14.8289L15.2578 12.2695L16.1085 12.2203L17.3531 11.925L18.9773 11.5594L20.3765 11.4117L21.5789 11.3133L22.8023 11.4328L24.4195 11.6016L25.5726 12.0445L26.9226 12.5367L27.0773 12.6422L25.446 12.3187Z" fill="black"/>
<path d="M18.3873 16.4937C18.6218 16.424 18.7643 16.2075 18.7057 16.0103C18.647 15.813 18.4093 15.7096 18.1748 15.7793C17.9403 15.8491 17.7978 16.0656 17.8565 16.2628C17.9152 16.4601 18.1528 16.5635 18.3873 16.4937Z" fill="white"/>
<path d="M17.2407 16.4531C17.3416 16.4531 17.4235 16.3713 17.4235 16.2703C17.4235 16.1694 17.3416 16.0875 17.2407 16.0875C17.1397 16.0875 17.0579 16.1694 17.0579 16.2703C17.0579 16.3713 17.1397 16.4531 17.2407 16.4531Z" fill="white"/>
<path d="M17.1281 15.8836C17.2291 15.8836 17.3109 15.8017 17.3109 15.7008C17.3109 15.5998 17.2291 15.5179 17.1281 15.5179C17.0272 15.5179 16.9453 15.5998 16.9453 15.7008C16.9453 15.8017 17.0272 15.8836 17.1281 15.8836Z" fill="white"/>
<path d="M23.0835 16.6852C23.1767 16.6852 23.2523 16.6096 23.2523 16.5164C23.2523 16.4232 23.1767 16.3477 23.0835 16.3477C22.9903 16.3477 22.9148 16.4232 22.9148 16.5164C22.9148 16.6096 22.9903 16.6852 23.0835 16.6852Z" fill="white"/>
<path d="M23.0625 16.0453C23.1634 16.0453 23.2453 15.9635 23.2453 15.8625C23.2453 15.7615 23.1634 15.6797 23.0625 15.6797C22.9615 15.6797 22.8796 15.7615 22.8796 15.8625C22.8796 15.9635 22.9615 16.0453 23.0625 16.0453Z" fill="white"/>
<path d="M24.068 16.5656C24.2505 16.5656 24.3985 16.4176 24.3985 16.2351C24.3985 16.0526 24.2505 15.9047 24.068 15.9047C23.8855 15.9047 23.7375 16.0526 23.7375 16.2351C23.7375 16.4176 23.8855 16.5656 24.068 16.5656Z" fill="white"/>
</g>
<defs>
<clipPath id="clip0_1_8558">
<rect width="36" height="36" fill="white"/>
</clipPath>
</defs>
</svg>
