<svg width="36" height="36" viewBox="0 0 36 36" fill="none" xmlns="http://www.w3.org/2000/svg">
<g clip-path="url(#clip0_1_8524)">
<path d="M26.3592 3.16715C25.4223 4.0935 24.564 5.09751 23.801 6.16808L23.5598 6.09042C22.1684 5.64111 20.7267 5.36376 19.2736 5.26947C18.836 5.23618 17.2035 5.23618 16.6705 5.26947C15.0605 5.37486 13.8262 5.61338 12.4237 6.09597C12.3676 6.11816 12.3171 6.1348 12.2666 6.15144C11.4756 5.08641 10.5948 4.08796 9.62427 3.1727C14.2806 0.815229 19.7281 0.532331 24.6032 2.39058C25.125 2.58472 25.6355 2.81215 26.1348 3.05621L26.3592 3.16715Z" fill="#F00500"/>
<path d="M35.0436 24.2069C34.3367 26.1983 33.2764 28.0454 31.9019 29.654C31.1558 30.5194 30.3311 31.3126 29.4447 32.0337C27.369 33.6867 24.9454 34.8682 22.3592 35.4895C19.498 36.1718 16.5134 36.1718 13.6523 35.4895C11.0604 34.8682 8.64247 33.6867 6.56674 32.0337C5.68034 31.3126 4.85566 30.5194 4.10951 29.654C0.154393 25.0334 -1.04617 18.6876 0.967857 12.9687C1.34934 11.9092 1.8262 10.8886 2.39843 9.91783C2.66211 9.47407 2.98749 8.97484 3.14458 8.7696C3.68315 11.0605 4.34513 13.0741 4.59198 13.8007C4.57515 13.8396 4.55271 13.8839 4.53027 13.9228C3.22312 16.5409 2.51625 19.0648 2.34794 21.7496C2.34794 21.7829 2.34233 21.8217 2.34233 21.855C2.29745 22.6593 2.31989 23.042 2.45453 23.5468C2.87529 25.1277 4.17123 26.8694 6.20208 28.5779C9.52887 31.3736 14.0394 33.3927 17.4559 33.6257C21.0183 33.8642 26.275 31.8063 29.7757 28.7998C30.3255 28.3172 30.8416 27.8069 31.3241 27.2633C31.6719 26.8639 32.1881 26.1761 32.1488 26.1761C32.1376 26.1761 32.1488 26.165 32.1712 26.1539C32.1881 26.1428 32.2049 26.1262 32.1937 26.1151C32.188 26.1095 32.1993 26.0929 32.2161 26.0873C32.2329 26.0818 32.2442 26.0707 32.2385 26.0596C32.2329 26.0485 32.2385 26.0374 32.261 26.0319C32.2778 26.0263 32.2834 26.0097 32.2778 25.9986C32.2722 25.9875 32.2778 25.9764 32.289 25.9764C32.3003 25.9764 32.3115 25.9597 32.3115 25.9486C32.3115 25.9376 32.3227 25.9209 32.3339 25.9209C32.3451 25.9209 32.3564 25.9098 32.3564 25.8987C32.3732 25.8543 32.4012 25.81 32.4293 25.7711C32.5134 25.6436 32.85 25.05 32.8949 24.9502C33.2147 24.2346 33.4167 23.5967 33.512 22.9588C33.5569 22.6537 33.585 22.0935 33.5625 21.9604C33.5569 21.9382 33.5569 21.8993 33.5513 21.8383C33.5401 21.7274 33.5345 21.561 33.5233 21.3946C33.512 21.1449 33.4896 20.7955 33.4728 20.6235C33.2315 18.1052 32.5808 16.0473 31.3465 13.8673C31.296 13.7841 31.2512 13.7009 31.2231 13.6343C31.2119 13.6177 31.2063 13.601 31.2007 13.5899C31.3746 13.0741 32.0871 10.9163 32.6537 8.44788L32.6649 8.45897L32.7491 8.56991C32.8949 8.76406 33.282 9.34094 33.4559 9.61829C34.247 10.8941 34.8641 12.2642 35.3017 13.6953C36.3171 17.14 36.2329 20.8121 35.0436 24.2069Z" fill="#F00500"/>
<path d="M27.7617 17.5782C27.7449 17.6669 27.4812 17.9332 27.2175 18.1273C26.4433 18.6876 25.0576 19.209 23.6495 19.4586C22.8473 19.6028 22.045 19.625 21.8038 19.5085C21.6467 19.4309 21.6243 19.3699 21.6804 19.1702C21.7982 18.7542 22.1797 18.2993 22.7743 17.8722C23.0773 17.6559 24.3059 16.9181 24.8781 16.6075C25.8206 16.0971 26.5836 15.7921 27.0997 15.72C27.2624 15.6978 27.4588 15.6922 27.5205 15.72C27.6214 15.7588 27.7337 16.0528 27.7785 16.4078C27.801 16.5964 27.7897 17.4284 27.7617 17.5782Z" fill="black"/>
<path d="M14.5443 19.4143C14.5106 19.4808 14.3423 19.5529 14.1516 19.5807C13.9608 19.6084 13.3774 19.5918 13.0464 19.5529C11.8571 19.3976 10.5948 19.0371 9.67474 18.5933C9.15861 18.3437 8.78834 18.0941 8.51344 17.8223L8.35637 17.6614L8.33953 17.4506C8.31148 17.0845 8.31709 16.5076 8.36197 16.3024C8.39002 16.1304 8.45173 15.964 8.53589 15.8143C8.58077 15.7588 8.58077 15.7588 8.78273 15.7588C9.02958 15.7588 9.23715 15.7976 9.57375 15.903C10.2638 16.1138 11.2904 16.6241 12.5415 17.3674C13.5738 17.9776 13.9609 18.2771 14.2582 18.6876C14.4602 18.9428 14.5948 19.3033 14.5443 19.4143Z" fill="black"/>
<path d="M22.4882 27.1358C22.4882 27.1524 22.4209 27.4187 22.3368 27.7348C22.2526 28.051 22.1853 28.3062 22.1853 28.3173C22.1236 28.3228 22.0675 28.3284 22.0058 28.3228H21.8262L21.5794 28.8997C21.4448 29.2159 21.3213 29.5099 21.3045 29.5542L21.2708 29.6319L21.153 29.4433L21.0352 29.2547V27.7182L20.9903 27.7293C20.895 27.7515 20.2161 27.8402 19.9188 27.868C18.6902 27.99 17.456 27.9623 16.233 27.7903C16.0366 27.7626 15.8683 27.7404 15.8627 27.7459C15.8571 27.7515 15.8627 28.1065 15.8739 28.5447L15.8908 29.3324L15.7954 29.4766C15.7449 29.5542 15.6944 29.6208 15.6944 29.6264C15.6776 29.643 15.6215 29.5542 15.4924 29.2991C15.3522 29.0328 15.2512 28.7499 15.1783 28.4559L15.139 28.2951L14.9651 28.3062L14.7912 28.3228L14.7463 28.1176C14.7239 28.0066 14.6958 27.8347 14.6846 27.7404L14.6678 27.5629L14.5219 27.4353C14.4377 27.3632 14.3536 27.2911 14.3368 27.28C14.3087 27.2578 14.2975 27.219 14.2975 27.1857V27.1191L14.9987 27.1247L15.7 27.1302L15.7225 27.2023L15.7449 27.2744L15.9861 27.2855C16.1208 27.2911 16.5471 27.3022 16.9286 27.3133L17.6299 27.3299L17.8094 27.0525L17.9945 26.7752H18.2302L18.2246 26.1983L18.2189 25.6214L17.9104 25.4883C16.9174 25.0556 16.334 24.5619 16.1152 23.9629C16.0703 23.8408 16.0703 23.7965 16.0591 23.2418C16.0534 22.6926 16.0534 22.6427 16.0927 22.5207C16.1713 22.2433 16.3901 22.027 16.6706 21.9549C16.7659 21.9271 17.0184 21.9271 18.3424 21.9271L19.902 21.9327L20.0759 22.0159C20.2835 22.1157 20.3788 22.1878 20.4966 22.3431C20.6313 22.5207 20.6706 22.6593 20.6706 22.9977C20.6706 23.4803 20.6369 23.8963 20.5864 24.0627C20.5135 24.2901 20.4013 24.5065 20.261 24.7006C19.9805 25.0556 19.47 25.4106 19.0044 25.5715L18.8697 25.6214L18.8753 26.2039L18.8809 26.7863L19.0044 26.7974L19.1278 26.8085L19.2961 27.0581L19.4588 27.3077H20.2105C20.6257 27.3077 20.9903 27.3133 21.024 27.3188C21.0801 27.3299 21.0913 27.3244 21.1474 27.2301L21.2147 27.1302H21.8599C22.3424 27.108 22.4882 27.1191 22.4882 27.1358Z" fill="black"/>
<path d="M19.526 28.7277C19.4194 28.7887 19.3465 28.8165 19.3297 28.8054C19.3129 28.7998 19.2343 28.7333 19.1502 28.6723L18.9987 28.5502L18.8416 28.7166C18.4994 29.0827 18.4882 29.0994 18.3872 29.1049C18.2301 29.1216 18.1964 29.0938 18.0057 28.8109C17.9047 28.6667 17.8262 28.5447 17.8262 28.5447C17.8262 28.5447 17.7533 28.5336 17.6691 28.528L17.512 28.5114L17.4391 28.6612L17.3662 28.8109L17.2371 28.7721C17.1361 28.7388 17.0352 28.7 16.9398 28.6556L16.7715 28.5724V28.2562L18.2638 28.2618L19.7561 28.2673L19.7617 28.4171C19.7673 28.5946 19.7729 28.589 19.526 28.7277Z" fill="black"/>
<path d="M33.5513 21.9605C33.5457 21.9383 33.5457 21.8995 33.5401 21.8384C32.1937 21.6942 28.3508 21.6055 24.7827 24.5176C24.7827 24.5176 23.6327 19.3035 18.247 19.3035C12.8613 19.3035 10.8641 24.5176 10.8641 24.5176C7.84586 21.3059 3.80659 21.5389 2.34797 21.7497C2.34797 21.783 2.34236 21.8218 2.34236 21.8551C2.29748 22.6594 2.31992 23.0421 2.45456 23.5469C2.87532 25.1278 4.17125 26.8696 6.20211 28.578C9.52889 31.3737 14.0394 33.3928 17.456 33.6258C21.0184 33.8643 26.275 31.8064 29.7757 28.7999C30.3255 28.3173 30.8417 27.807 31.3241 27.2634C31.6719 26.864 32.1881 26.1762 32.1488 26.1762C32.1376 26.1762 32.1488 26.1651 32.1713 26.154C32.1881 26.1429 32.2049 26.1263 32.1937 26.1152C32.1881 26.1096 32.1993 26.093 32.2161 26.0874C32.233 26.0819 32.2442 26.0708 32.2386 26.0597C32.233 26.0486 32.2386 26.0375 32.261 26.032C32.2778 26.0264 32.2834 26.0098 32.2778 25.9987C32.2722 25.9876 32.2778 25.9765 32.2891 25.9765C32.3003 25.9765 32.3115 25.9599 32.3115 25.9488C32.3115 25.9377 32.3227 25.921 32.3339 25.921C32.3452 25.921 32.3564 25.9099 32.3564 25.8988C32.3732 25.8545 32.4013 25.8101 32.4293 25.7713C32.5135 25.6437 32.8501 25.0502 32.8949 24.9503C33.2147 24.2347 33.4167 23.5968 33.5121 22.9589C33.5457 22.6539 33.5738 22.0936 33.5513 21.9605ZM19.5261 28.7278C19.4195 28.7888 19.3466 28.8166 19.3297 28.8055C19.3129 28.7999 19.2344 28.7334 19.1502 28.6723L18.9987 28.5503L18.8417 28.7167C18.4994 29.0828 18.4882 29.0995 18.3872 29.105C18.2302 29.1216 18.1965 29.0939 18.0058 28.811C17.9048 28.6668 17.8262 28.5448 17.8262 28.5448C17.8262 28.5448 17.7533 28.5337 17.6691 28.5281L17.5121 28.5115L17.4391 28.6612L17.3662 28.811L17.2372 28.7722C17.1362 28.7389 17.0352 28.7001 16.9398 28.6557L16.7715 28.5725V28.2563L18.2638 28.2619L19.7561 28.2674L19.7617 28.4172C19.7673 28.5947 19.7729 28.5891 19.5261 28.7278ZM22.3311 27.7294C22.247 28.0455 22.1797 28.3007 22.1797 28.3118C22.1179 28.3173 22.0619 28.3229 22.0001 28.3173H21.8206L21.5794 28.8998C21.4447 29.2159 21.3213 29.5099 21.3045 29.5543L21.2708 29.632L21.153 29.4434L21.0352 29.2548V27.7183L20.9903 27.7294C20.895 27.7515 20.2161 27.8403 19.9188 27.868C18.6902 27.9901 17.456 27.9623 16.233 27.7904C16.0366 27.7626 15.8683 27.7404 15.8627 27.746C15.8571 27.7515 15.8627 28.1065 15.8739 28.5448L15.8907 29.3324L15.7954 29.4767C15.7449 29.5543 15.6944 29.6209 15.6944 29.6264C15.6776 29.6431 15.6215 29.5543 15.4924 29.2992C15.3522 29.0329 15.2512 28.75 15.1783 28.456L15.139 28.2951L14.9651 28.3062L14.7912 28.3229L14.7463 28.1176C14.7238 28.0067 14.6958 27.8347 14.6846 27.7404L14.6677 27.5629L14.5219 27.4354C14.4377 27.3632 14.3536 27.2911 14.3367 27.28C14.3087 27.2579 14.2975 27.219 14.2975 27.1857V27.1192L14.9987 27.1247L15.7 27.1303L15.7224 27.2024L15.7449 27.2745L15.9861 27.2856C16.1208 27.2911 16.5471 27.3022 16.9286 27.3133L17.6299 27.33L17.8094 27.0526L17.9945 26.7753H18.2302L18.2245 26.1984L18.2189 25.6215L17.9104 25.4884C16.9174 25.0557 16.3339 24.562 16.1151 23.9629C16.0703 23.8409 16.0703 23.7965 16.059 23.2418C16.0534 22.6927 16.0534 22.6428 16.0927 22.5207C16.1712 22.2434 16.39 22.027 16.6705 21.9549C16.7659 21.9272 17.0184 21.9272 18.3424 21.9272L19.902 21.9327L20.0759 22.0159C20.2834 22.1158 20.3788 22.1879 20.4966 22.3432C20.6313 22.5207 20.6705 22.6594 20.6705 22.9978C20.6705 23.4804 20.6369 23.8964 20.5864 24.0628C20.5135 24.2902 20.4013 24.5065 20.261 24.7007C19.9805 25.0557 19.47 25.4107 19.0043 25.5716L18.8697 25.6215L18.8753 26.2039L18.8809 26.7864L19.0043 26.7975L19.1278 26.8086L19.2961 27.0582L19.4588 27.3078H20.2105C20.6257 27.3078 20.9903 27.3133 21.024 27.3189C21.0801 27.33 21.0913 27.3244 21.1474 27.2301L21.2147 27.1303H21.8599C22.3592 27.1303 22.505 27.1358 22.505 27.1525C22.4882 27.1469 22.4153 27.4187 22.3311 27.7294Z" fill="white"/>
<path d="M33.5064 21.3946C33.4952 21.145 33.4728 20.7956 33.4559 20.6236C33.2147 18.1053 32.5639 16.0473 31.3297 13.8674C31.2792 13.7842 31.2343 13.701 31.2063 13.6344C31.1951 13.6178 31.1895 13.6011 31.1839 13.59C31.3578 13.0741 32.0702 10.9164 32.6369 8.44795C33.4055 5.09757 33.8935 1.18139 32.4012 0.00542565C32.4012 0.00542565 29.8206 -0.183172 26.3648 3.16721C25.4279 4.09356 24.5695 5.09757 23.8066 6.16814L23.5653 6.09048C22.174 5.64117 20.7322 5.36382 19.2792 5.26952C18.8416 5.23624 17.2091 5.23624 16.6761 5.26952C15.066 5.37492 13.8318 5.61344 12.4293 6.09603C12.3732 6.11821 12.3227 6.13485 12.2722 6.1515C11.4812 5.08647 10.6004 4.08801 9.62986 3.17276C6.03379 -0.194266 3.35777 -0.00012168 3.35777 -0.00012168C1.77572 1.21467 2.31429 5.30835 3.13337 8.76968C3.67193 11.0606 4.33393 13.0741 4.58077 13.8008C4.56394 13.8396 4.5415 13.884 4.51906 13.9228C3.21191 16.541 2.50503 19.0649 2.33673 21.7496C3.80097 21.5389 7.83463 21.3003 10.8585 24.5176C10.8585 24.5176 12.8557 19.3034 18.2414 19.3034C23.6271 19.3034 24.7771 24.5176 24.7771 24.5176C28.3451 21.6054 32.1881 21.6997 33.5345 21.8384C33.5289 21.7275 33.5177 21.561 33.5064 21.3946ZM5.64108 11.7096C5.64108 11.7096 3.5429 6.52315 4.08147 3.56105C4.17123 3.06182 4.33954 2.62361 4.60321 2.29079C4.60321 2.29079 6.98189 2.52376 10.8192 6.73948C10.8192 6.73948 10.0899 7.08894 9.11373 7.83224C9.11373 7.83224 9.10812 7.83778 9.10251 7.83778C8.0422 8.6421 6.68456 9.91791 5.64108 11.7096ZM14.5443 19.4144C14.5106 19.4809 14.3423 19.553 14.1516 19.5808C13.9609 19.6085 13.3774 19.5919 13.0464 19.553C11.8571 19.3977 10.5948 19.0372 9.67474 18.5934C9.15861 18.3438 8.78834 18.0942 8.51345 17.8224L8.35637 17.6615L8.33954 17.4507C8.31149 17.0846 8.3171 16.5077 8.36198 16.3025C8.39003 16.1305 8.45174 15.9641 8.53589 15.8144C8.58077 15.7589 8.58077 15.7589 8.78273 15.7589C9.02958 15.7589 9.23715 15.7977 9.57376 15.9031C10.2638 16.1139 11.2904 16.6242 12.5415 17.3675C13.5738 17.9777 13.9609 18.2772 14.2582 18.6877C14.4602 18.9429 14.5948 19.3034 14.5443 19.4144ZM27.7617 17.5783C27.7449 17.6671 27.4812 17.9333 27.2175 18.1275C26.4433 18.6877 25.0576 19.2091 23.6495 19.4587C22.8472 19.603 22.045 19.6251 21.8038 19.5087C21.6467 19.431 21.6243 19.37 21.6804 19.1703C21.7982 18.7543 22.1796 18.2994 22.7743 17.8723C23.0773 17.656 24.3059 16.9182 24.8781 16.6076C25.8206 16.0973 26.5836 15.7922 27.0997 15.7201C27.2624 15.6979 27.4588 15.6923 27.5205 15.7201C27.6214 15.7589 27.7336 16.0529 27.7785 16.4079C27.801 16.5965 27.7897 17.4285 27.7617 17.5783ZM26.8304 7.83224L26.8192 7.82669C25.8767 7.08339 25.1698 6.73393 25.1698 6.73393C28.8781 2.51821 31.1726 2.28524 31.1726 2.28524C31.4251 2.62361 31.5878 3.05627 31.6775 3.5555C32.1993 6.5176 30.174 11.7096 30.174 11.7096C29.3269 10.2174 28.1881 8.89726 26.8304 7.83224Z" fill="#FFA409"/>
<path d="M31.6831 3.55554C31.2455 3.50007 29.1754 3.48898 26.8304 7.83227L26.8192 7.82673C25.8767 7.08343 25.1698 6.73397 25.1698 6.73397C28.8781 2.51825 31.1726 2.28528 31.1726 2.28528C31.4307 2.62365 31.5934 3.05631 31.6831 3.55554Z" fill="#FF9300"/>
<path d="M30.1797 11.7097C29.3269 10.212 28.1937 8.89733 26.8304 7.83231C29.1755 3.48901 31.24 3.5001 31.6832 3.55557C32.2049 6.52322 30.1797 11.7097 30.1797 11.7097Z" fill="#FF8300"/>
<path d="M31.7673 3.57218C31.7392 3.56664 31.7112 3.56109 31.6831 3.55554L31.7673 3.57218Z" fill="#FF8300"/>
<path d="M10.8192 6.73397C10.8192 6.73397 10.0899 7.08343 9.11374 7.82673C9.11374 7.82673 9.10812 7.83227 9.10251 7.83227C6.67334 3.48343 4.53589 3.50007 4.07587 3.55554C4.16563 3.05631 4.33393 2.6181 4.59761 2.28528C4.60322 2.28528 6.98189 2.51825 10.8192 6.73397Z" fill="#FF9300"/>
<path d="M9.10809 7.83231C8.04217 8.64217 6.68454 9.91243 5.64106 11.7097C5.64106 11.7097 3.54288 6.52322 4.08145 3.55557C4.53586 3.5001 6.67892 3.48901 9.10809 7.83231Z" fill="#FF8300"/>
<path d="M4.08146 3.55554C4.05341 3.56109 4.01975 3.56664 3.9917 3.57218L4.08146 3.55554Z" fill="#FF8300"/>
<path d="M24.5022 14.5885C24.5022 14.5885 22.707 14.6995 22.9314 13.3127C23.1558 11.926 24.5583 11.7595 24.951 11.815C25.3437 11.8705 26.9146 12.4252 26.6341 13.5901C26.3536 14.7549 25.9609 14.533 25.7364 14.5885C25.512 14.644 24.5022 14.5885 24.5022 14.5885Z" fill="white"/>
<path d="M11.2624 14.5885C11.2624 14.5885 9.46713 14.6995 9.69153 13.3127C9.91594 11.926 11.3185 11.7595 11.7112 11.815C12.1039 11.8705 13.6747 12.4252 13.3942 13.5901C13.1137 14.7549 12.721 14.533 12.4966 14.5885C12.2722 14.644 11.2624 14.5885 11.2624 14.5885Z" fill="white"/>
</g>
<defs>
<clipPath id="clip0_1_8524">
<rect width="36" height="36" fill="white"/>
</clipPath>
</defs>
</svg>
