<svg width="37" height="41" viewBox="0 0 37 41" fill="none" xmlns="http://www.w3.org/2000/svg">
<path d="M14.0917 27.555C21.0233 27.555 26.601 21.9778 26.601 15.0468C26.601 8.11571 21.0233 2.5385 14.0917 2.5385C7.16017 2.5385 1.58244 8.11571 1.58244 15.0468C1.58244 21.9778 7.16017 27.555 14.0917 27.555Z" fill="#204AF8" stroke="white" stroke-width="0.728666"/>
<path fill-rule="evenodd" clip-rule="evenodd" d="M9.76125 8.18144C9.44308 7.53342 8.78402 7.1228 8.0621 7.1228H6.68316C6.3993 7.1228 6.16919 7.35292 6.16919 7.63677C6.16919 7.96554 6.50863 8.20904 6.78177 8.39202C6.79852 8.40324 6.81498 8.41519 6.8311 8.42786L10.9079 11.6322C11.2519 11.9027 11.3116 12.4008 11.0411 12.7449C10.7707 13.0889 10.2725 13.1486 9.92839 12.8782L7.65893 11.0943C7.05482 10.6195 6.16919 11.0499 6.16919 11.8182C6.16919 12.25 6.46925 12.6238 6.89084 12.7172L9.74579 13.3495C10.1731 13.4441 10.4427 13.8672 10.3481 14.2945C10.2534 14.7218 9.83032 14.9914 9.40305 14.8968L7.13415 14.3943C6.63881 14.2846 6.16919 14.6616 6.16919 15.1689C6.16919 15.6802 6.64579 16.0581 7.14363 15.9414L9.44256 15.4026C9.86864 15.3027 10.295 15.5671 10.3949 15.9932C10.4948 16.4193 10.2303 16.8457 9.80425 16.9455L6.89694 17.6269C6.47062 17.7268 6.16919 18.1071 6.16919 18.545C6.16919 19.3372 7.08701 19.7763 7.70383 19.2791L10.0547 17.3842C10.3954 17.1096 10.8943 17.1631 11.169 17.5038C11.4437 17.8445 11.3901 18.3434 11.0494 18.618L7.0122 21.8721C6.93731 21.9325 6.85477 21.977 6.76865 22.0061C6.49871 22.0973 6.16919 22.2994 6.16919 22.5844C6.16919 22.7977 6.34212 22.9706 6.55544 22.9706H8.22889C9.02353 22.9706 9.74729 22.5135 10.0887 21.796L11.4646 18.9047C11.6527 18.5095 12.1255 18.3416 12.5207 18.5296C12.9159 18.7176 13.0838 19.1904 12.8958 19.5856L11.8445 21.7947C11.5848 22.3405 11.9828 22.9706 12.5872 22.9706C13.0428 22.9706 13.4115 22.6003 13.4097 22.1448L13.3995 19.6611C13.3977 19.2234 13.7511 18.8672 14.1887 18.8654C14.6264 18.8636 14.9826 19.2169 14.9844 19.6546L14.9946 22.1438C14.9965 22.601 15.3676 22.9706 15.8248 22.9706C16.4379 22.9706 16.8396 22.3289 16.5716 21.7775L15.4685 19.5074C15.2772 19.1138 15.4413 18.6396 15.8349 18.4484C16.2286 18.2571 16.7027 18.4212 16.894 18.8148L18.3911 21.8956C18.7106 22.5532 19.3776 22.9706 20.1087 22.9706H21.5248C21.7974 22.9706 22.0183 22.7496 22.0183 22.477C22.0183 22.1534 21.6777 21.9157 21.402 21.7463C21.3752 21.7298 21.3491 21.7116 21.3239 21.6916L17.2602 18.4706C16.9173 18.1987 16.8596 17.7003 17.1315 17.3574C17.4034 17.0144 17.9018 16.9568 18.2448 17.2287L20.5174 19.03C21.1242 19.511 22.0183 19.0788 22.0183 18.3044C22.0183 17.8717 21.7185 17.4966 21.2964 17.4013L18.4464 16.7579C18.0195 16.6615 17.7516 16.2373 17.848 15.8104C17.9444 15.3835 18.3686 15.1156 18.7954 15.212L21.0525 15.7216C21.5475 15.8333 22.0183 15.457 22.0183 14.9495C22.0183 14.4407 21.5452 14.064 21.0494 14.1781L18.7531 14.7064C18.3267 14.8045 17.9014 14.5383 17.8032 14.1119C17.7051 13.6854 17.9713 13.2601 18.3978 13.162L21.2895 12.4967C21.7161 12.3985 22.0183 12.0188 22.0183 11.5811C22.0183 10.7935 21.1075 10.3555 20.4923 10.8472L18.1464 12.7223C17.8045 12.9956 17.3059 12.94 17.0326 12.5981C16.7593 12.2563 16.8149 11.7577 17.1568 11.4844L21.2072 8.24686C21.2732 8.19412 21.345 8.15364 21.4199 8.12509C21.6908 8.02188 22.0183 7.81524 22.0183 7.52539C22.0183 7.30305 21.8381 7.1228 21.6158 7.1228H19.9756C19.1905 7.1228 18.4749 7.57273 18.1347 8.28024L16.732 11.1971C16.5423 11.5915 16.0688 11.7575 15.6744 11.5679C15.2799 11.3782 15.1139 10.9047 15.3036 10.5103L16.3683 8.29641C16.6297 7.75284 16.2336 7.1228 15.6304 7.1228C15.1782 7.1228 14.8116 7.48937 14.8116 7.94156V10.4325C14.8116 10.8701 14.4569 11.2249 14.0192 11.2249C13.5815 11.2249 13.2267 10.8701 13.2267 10.4325V7.97486C13.2267 7.50428 12.8453 7.1228 12.3747 7.1228C11.744 7.1228 11.3319 7.78424 11.6098 8.35039L12.7084 10.5878C12.9013 10.9807 12.7392 11.4555 12.3463 11.6484C11.9535 11.8412 11.4786 11.6791 11.2857 11.2863L9.76125 8.18144Z" fill="white"/>
<g clip-path="url(#clip0_1_11981)">
<path d="M23.7796 40.7441C30.697 40.7441 36.3046 35.1365 36.3046 28.2191C36.3046 21.3017 30.697 15.6941 23.7796 15.6941C16.8623 15.6941 11.2546 21.3017 11.2546 28.2191C11.2546 35.1365 16.8623 40.7441 23.7796 40.7441Z" fill="#FDDE00"/>
<path d="M17.6823 24.5495C17.6823 24.5495 17.0365 25.3666 17.2517 29.0605C17.2517 29.0605 15.8378 32.681 16.3172 34.5304C16.7967 36.3749 18.6657 36.2819 18.6657 36.2819C18.6657 36.2819 21.6648 38.919 23.9643 36.595C26.2687 34.2662 22.0465 25.2491 22.0465 25.2491L21.5181 22.1326C21.5181 22.1326 20.9407 22.5876 21.0141 25.5867C21.0875 28.5859 19.8399 26.4723 19.8399 26.4723L17.6823 24.5495Z" fill="#3C2D0C"/>
<path d="M17.9232 27.8131L17.1306 30.0442L16.8419 31.6049C16.8419 31.6049 15.8585 35.0835 19.9145 35.0346C19.9145 35.0346 23.08 37.8674 25.1446 35.9691L25.6975 35.3673L26.6564 33.8799L28.2416 29.1537C28.2416 29.1537 27.7377 25.9148 24.5477 24.5742C24.5477 24.5742 24.2835 24.4324 23.8041 24.6232C23.8041 24.6232 22.4831 21.6485 21.6464 22.0105C21.6464 22.0105 20.9272 22.3922 21.5486 25.3228L20.4233 25.8267C20.4233 25.8267 19.1904 23.4881 18.0504 23.9578C16.9887 24.3834 17.9232 27.8131 17.9232 27.8131Z" fill="#E78C19"/>
<path d="M22.023 23.4685L22.1209 24.765C22.1209 24.765 22.1943 25.5087 22.982 25.2445C23.207 25.1711 23.4028 25.0145 23.3832 24.7601C23.3685 24.5693 23.2364 24.3932 23.1483 24.2317C22.9869 23.9235 22.8548 23.5957 22.664 23.2972C22.5661 23.1456 22.3655 22.808 22.1454 22.8471C22.1454 22.8471 21.979 22.7982 22.023 23.4685Z" fill="#EFB99D"/>
<path d="M18.5605 24.9265C18.5752 24.9167 18.8981 24.5106 19.5684 25.4989C20.2387 26.4872 20.1702 26.36 20.1702 26.36C20.1702 26.36 20.5322 26.7563 19.7935 27.2652C19.632 27.3826 19.4559 27.4804 19.27 27.5587C19.1525 27.6027 19.0302 27.6272 18.9079 27.6272C18.766 27.6223 18.7024 27.5489 18.6682 27.4168C18.5556 26.9863 18.4284 26.5557 18.3648 26.1154C18.3159 25.7729 18.2181 25.1467 18.5605 24.9265Z" fill="#EFB99D"/>
<path d="M26.3488 26.9177C26.3488 27.1525 26.0063 27.3433 25.5806 27.3433C25.155 27.3433 24.8125 27.1525 24.8125 26.9177C24.8125 26.6828 25.1648 26.3354 25.5855 26.3354C26.0063 26.3354 26.3488 26.6828 26.3488 26.9177Z" fill="#FBFBFB"/>
<path d="M21.9184 28.7556C22.1459 28.3535 22.1207 27.9088 21.862 27.7624C21.6034 27.616 21.2092 27.8234 20.9816 28.2255C20.7541 28.6276 20.7793 29.0723 21.038 29.2187C21.2966 29.3651 21.6908 29.1577 21.9184 28.7556Z" fill="#FBFBFB"/>
<path d="M23.006 30.6996L25.1049 29.6085C25.1049 29.6085 27.7176 28.2435 28.3536 29.2954C28.9896 30.3473 28.3536 31.957 28.3536 31.957C28.3536 31.957 28.0796 33.8406 26.1568 34.0069L25.1245 34.1488L23.8035 34.1831C23.8035 34.1831 21.6801 34.3054 20.1194 33.1507L19.6252 32.549C19.6252 32.549 18.632 31.1839 19.3268 30.2005C20.0215 29.2171 22.3993 30.7387 22.3993 30.7387C22.3993 30.7387 22.732 30.9197 23.006 30.6996Z" fill="#FBFBFB"/>
<path d="M27.7683 25.2593C28.0467 25.2593 28.2723 25.0337 28.2723 24.7554C28.2723 24.4771 28.0467 24.2515 27.7683 24.2515C27.49 24.2515 27.2644 24.4771 27.2644 24.7554C27.2644 25.0337 27.49 25.2593 27.7683 25.2593Z" fill="#E72D36"/>
<path d="M26.6512 24.0211C26.9295 24.0211 27.1551 23.7954 27.1551 23.5171C27.1551 23.2388 26.9295 23.0132 26.6512 23.0132C26.3728 23.0132 26.1472 23.2388 26.1472 23.5171C26.1472 23.7954 26.3728 24.0211 26.6512 24.0211Z" fill="#E72D36"/>
<path d="M24.8653 23.6251C25.1436 23.6251 25.3692 23.3994 25.3692 23.1211C25.3692 22.8428 25.1436 22.6172 24.8653 22.6172C24.5869 22.6172 24.3613 22.8428 24.3613 23.1211C24.3613 23.3994 24.5869 23.6251 24.8653 23.6251Z" fill="#E72D36"/>
<path d="M25.2621 19.5497C25.3698 21.037 25.1545 22.3825 24.7925 22.3825C24.4304 22.3825 23.9509 20.9294 23.9509 19.5497C23.9509 18.9821 24.2494 18.8892 24.6114 18.8892C24.9784 18.8892 25.223 18.9821 25.2621 19.5497Z" fill="#E72D36"/>
<path d="M28.6 20.4741C28.0521 21.8587 27.2742 22.9791 26.9512 22.8225C26.6283 22.666 26.824 21.1493 27.4258 19.9065C27.6754 19.3928 27.9836 19.4418 28.3065 19.5983C28.6294 19.7598 28.8104 19.9457 28.6 20.4741Z" fill="#E72D36"/>
<path d="M30.9864 23.1749C29.7779 24.0507 28.5254 24.5791 28.3346 24.2709C28.1438 23.9626 29.1272 22.7933 30.2965 22.0643C30.7809 21.7659 31.0157 21.9714 31.2065 22.2747C31.3925 22.5829 31.4463 22.8374 30.9864 23.1749Z" fill="#E72D36"/>
<path d="M22.9093 29.2366C22.8652 29.2415 22.8212 29.2464 22.7772 29.2513C22.782 29.266 22.7869 29.2807 22.7869 29.3002C22.7869 29.4519 22.5472 29.5791 22.2488 29.5889C22.2488 29.6036 22.2439 29.6134 22.2488 29.628C22.2634 29.814 22.5863 29.9412 22.9631 29.9118C23.3447 29.8825 23.6431 29.7063 23.6285 29.5204C23.6089 29.3345 23.2909 29.2073 22.9093 29.2366Z" fill="black"/>
<path d="M25.5594 28.5814C25.5154 28.5863 25.4713 28.5911 25.4273 28.596C25.4322 28.6107 25.4371 28.6254 25.4371 28.645C25.4371 28.7966 25.1974 28.9238 24.8989 28.9336C24.8989 28.9483 24.894 28.9581 24.8989 28.9728C24.9136 29.1587 25.2365 29.2859 25.6132 29.2565C25.9948 29.2272 26.2933 29.051 26.2786 28.8651C26.2639 28.6792 25.941 28.552 25.5594 28.5814Z" fill="black"/>
<path d="M26.4315 29.3588C26.4315 29.3588 25.3796 29.667 25.4432 30.259C25.5068 30.851 26.774 31.1592 26.774 31.1592C26.774 31.1592 27.1165 31.2962 27.3122 30.9684C27.5079 30.6455 27.7965 30.2052 27.7183 29.574C27.7183 29.574 27.6938 29.1043 26.4315 29.3588Z" fill="black"/>
</g>
<defs>
<clipPath id="clip0_1_11981">
<rect width="25.05" height="25.05" fill="white" transform="translate(11.2578 15.6938)"/>
</clipPath>
</defs>
</svg>
