<svg width="36" height="40" viewBox="0 0 36 40" fill="none" xmlns="http://www.w3.org/2000/svg">
<path d="M14.0917 26.595C21.0233 26.595 26.601 21.0178 26.601 14.0868C26.601 7.15575 21.0233 1.57854 14.0917 1.57854C7.16017 1.57854 1.58244 7.15575 1.58244 14.0868C1.58244 21.0178 7.16017 26.595 14.0917 26.595Z" fill="#204AF8" stroke="white" stroke-width="0.728666"/>
<path fill-rule="evenodd" clip-rule="evenodd" d="M9.76125 7.22148C9.44308 6.57346 8.78402 6.16284 8.0621 6.16284H6.68316C6.3993 6.16284 6.16919 6.39295 6.16919 6.67681C6.16919 7.00558 6.50863 7.24908 6.78177 7.43206C6.79852 7.44328 6.81498 7.45523 6.8311 7.4679L10.9079 10.6723C11.2519 10.9427 11.3116 11.4409 11.0411 11.7849C10.7707 12.129 10.2725 12.1886 9.92839 11.9182L7.65893 10.1344C7.05482 9.65955 6.16919 10.0899 6.16919 10.8583C6.16919 11.2901 6.46925 11.6639 6.89084 11.7572L9.74579 12.3896C10.1731 12.4842 10.4427 12.9073 10.3481 13.3345C10.2534 13.7618 9.83032 14.0315 9.40305 13.9368L7.13415 13.4343C6.63881 13.3246 6.16919 13.7016 6.16919 14.2089C6.16919 14.7203 6.64579 15.0981 7.14363 14.9814L9.44256 14.4426C9.86864 14.3427 10.295 14.6072 10.3949 15.0333C10.4948 15.4593 10.2303 15.8857 9.80425 15.9856L6.89694 16.667C6.47062 16.7669 6.16919 17.1471 6.16919 17.585C6.16919 18.3772 7.08701 18.8163 7.70383 18.3191L10.0547 16.4242C10.3954 16.1496 10.8943 16.2032 11.169 16.5439C11.4437 16.8846 11.3901 17.3834 11.0494 17.6581L7.0122 20.9122C6.93731 20.9725 6.85477 21.017 6.76865 21.0461C6.49871 21.1373 6.16919 21.3395 6.16919 21.6244C6.16919 21.8377 6.34212 22.0107 6.55544 22.0107H8.22889C9.02353 22.0107 9.74729 21.5535 10.0887 20.836L11.4646 17.9447C11.6527 17.5495 12.1255 17.3816 12.5207 17.5697C12.9159 17.7577 13.0838 18.2305 12.8958 18.6257L11.8445 20.8348C11.5848 21.3805 11.9828 22.0107 12.5872 22.0107C13.0428 22.0107 13.4115 21.6404 13.4097 21.1848L13.3995 18.7011C13.3977 18.2635 13.7511 17.9072 14.1887 17.9054C14.6264 17.9036 14.9826 18.257 14.9844 18.6946L14.9946 21.1838C14.9965 21.641 15.3676 22.0107 15.8248 22.0107C16.4379 22.0107 16.8396 21.369 16.5716 20.8175L15.4685 18.5475C15.2772 18.1538 15.4413 17.6797 15.8349 17.4884C16.2286 17.2972 16.7027 17.4612 16.894 17.8549L18.3911 20.9357C18.7106 21.5932 19.3776 22.0107 20.1087 22.0107H21.5248C21.7974 22.0107 22.0183 21.7897 22.0183 21.5171C22.0183 21.1935 21.6777 20.9558 21.402 20.7863C21.3752 20.7699 21.3491 20.7516 21.3239 20.7316L17.2602 17.5106C16.9173 17.2388 16.8596 16.7404 17.1315 16.3974C17.4034 16.0545 17.9018 15.9968 18.2448 16.2687L20.5174 18.07C21.1242 18.5511 22.0183 18.1189 22.0183 17.3445C22.0183 16.9117 21.7185 16.5366 21.2964 16.4413L18.4464 15.7979C18.0195 15.7015 17.7516 15.2773 17.848 14.8505C17.9444 14.4236 18.3686 14.1557 18.7954 14.252L21.0525 14.7616C21.5475 14.8734 22.0183 14.497 22.0183 13.9895C22.0183 13.4807 21.5452 13.1041 21.0494 13.2182L18.7531 13.7464C18.3267 13.8446 17.9014 13.5784 17.8032 13.1519C17.7051 12.7254 17.9713 12.3001 18.3978 12.202L21.2895 11.5367C21.7161 11.4386 22.0183 11.0589 22.0183 10.6211C22.0183 9.83355 21.1075 9.39553 20.4923 9.88728L18.1464 11.7624C17.8045 12.0356 17.3059 11.98 17.0326 11.6382C16.7593 11.2964 16.8149 10.7977 17.1568 10.5245L21.2072 7.2869C21.2732 7.23416 21.345 7.19367 21.4199 7.16513C21.6908 7.06192 22.0183 6.85528 22.0183 6.56543C22.0183 6.34309 21.8381 6.16284 21.6158 6.16284H19.9756C19.1905 6.16284 18.4749 6.61277 18.1347 7.32028L16.732 10.2371C16.5423 10.6315 16.0688 10.7975 15.6744 10.6079C15.2799 10.4183 15.1139 9.94477 15.3036 9.55035L16.3683 7.33644C16.6297 6.79288 16.2336 6.16284 15.6304 6.16284C15.1782 6.16284 14.8116 6.52941 14.8116 6.9816V9.47253C14.8116 9.91019 14.4569 10.265 14.0192 10.265C13.5815 10.265 13.2267 9.91019 13.2267 9.47253V7.0149C13.2267 6.54432 12.8453 6.16284 12.3747 6.16284C11.744 6.16284 11.3319 6.82428 11.6098 7.39043L12.7084 9.62787C12.9013 10.0207 12.7392 10.4955 12.3463 10.6884C11.9535 10.8813 11.4786 10.7192 11.2857 10.3263L9.76125 7.22148Z" fill="white"/>
<g clip-path="url(#clip0_1_11704)">
<path d="M23.4749 39.1309C30.3911 39.1309 35.9977 33.5247 35.9977 26.6091C35.9977 19.6936 30.3911 14.0874 23.4749 14.0874C16.5588 14.0874 10.9521 19.6936 10.9521 26.6091C10.9521 33.5247 16.5588 39.1309 23.4749 39.1309Z" fill="#988430"/>
<path d="M23.4766 38.73C30.1713 38.73 35.5983 33.3034 35.5983 26.6094C35.5983 19.9154 30.1713 14.4888 23.4766 14.4888C16.782 14.4888 11.355 19.9154 11.355 26.6094C11.355 33.3034 16.782 38.73 23.4766 38.73Z" fill="#7A6A2A"/>
<path d="M23.4761 38.4744C30.0297 38.4744 35.3424 33.1622 35.3424 26.6092C35.3424 20.0562 30.0297 14.7439 23.4761 14.7439C16.9226 14.7439 11.6099 20.0562 11.6099 26.6092C11.6099 33.1622 16.9226 38.4744 23.4761 38.4744Z" fill="#BA9F33"/>
<path fill-rule="evenodd" clip-rule="evenodd" d="M16.4252 25.2714C16.3543 25.2066 16.2794 25.1417 16.2105 25.0769C16.1415 25.0121 16.0707 24.9472 15.9998 24.8824L15.789 24.6821C15.7546 24.6476 15.7181 24.6173 15.6836 24.5827C15.6492 24.5524 15.6087 24.5179 15.5742 24.4875C15.2945 24.2221 15.0132 23.9567 14.7374 23.6912C15.0231 23.9525 15.3028 24.2121 15.5885 24.4773L15.6878 24.5767C15.7222 24.611 15.7587 24.6415 15.7932 24.6759L16.0038 24.8704C16.0747 24.9352 16.1437 25.0001 16.2146 25.0708C16.2855 25.1414 16.3545 25.2065 16.4254 25.2711L16.4252 25.2714ZM12.713 25.2313C12.713 25.2313 13.7302 25.3366 14.2267 25.4075C14.6866 25.4724 16.1254 25.6932 16.1254 25.6932L12.713 25.2313ZM12.713 25.2313C12.9987 25.2556 13.2845 25.2859 13.5702 25.3164C13.716 25.3305 13.8559 25.3467 13.9958 25.3609L14.2104 25.3853C14.2813 25.3953 14.3503 25.4055 14.4212 25.4156L15.2723 25.5513L15.6978 25.6222C15.8376 25.6466 15.9775 25.673 16.1234 25.6973C15.9835 25.6832 15.8376 25.6629 15.6978 25.6425L15.2723 25.5818L14.4212 25.4562C14.3503 25.4461 14.2813 25.4318 14.2104 25.4218L13.9956 25.3971C13.8558 25.3829 13.7099 25.3626 13.5701 25.3463C13.2843 25.312 12.9986 25.2754 12.7129 25.2309L12.713 25.2313ZM16.0241 25.9582C16.0241 25.9582 14.938 26.2338 14.5712 26.3392C14.2105 26.4385 13.1183 26.7708 13.1183 26.7708L16.024 25.9583L16.0241 25.9582Z" fill="#CFB66C"/>
<path fill-rule="evenodd" clip-rule="evenodd" d="M16.0277 25.9592C15.7866 26.0302 15.5468 26.0991 15.3022 26.164L14.5768 26.3585C14.3357 26.4294 14.0959 26.4983 13.8554 26.5692L13.4948 26.6685C13.3752 26.7029 13.2537 26.7332 13.1301 26.7678C13.2495 26.7278 13.3712 26.6868 13.4908 26.6523L13.8514 26.5369C14.0925 26.4618 14.3323 26.3909 14.5728 26.316C14.8179 26.2552 15.0591 26.1903 15.3042 26.1315C15.5372 26.0728 15.7824 26.0141 16.0277 25.9594V25.9592ZM13.274 27.4405C13.3934 27.3959 14.7714 26.7537 15.0916 26.6037C15.2519 26.5286 15.7178 26.3633 15.7178 26.3633L13.274 27.4405Z" fill="#CFB66C"/>
<path fill-rule="evenodd" clip-rule="evenodd" d="M13.2716 27.4405C13.3769 27.4004 13.4763 27.3514 13.5775 27.3048L13.8774 27.1649L14.4793 26.8752C14.6796 26.78 14.8744 26.6749 15.081 26.5854C15.1864 26.5409 15.2918 26.5044 15.3971 26.47L15.5574 26.4194C15.612 26.4052 15.6628 26.3889 15.7177 26.3748C15.5173 26.47 15.3064 26.5511 15.1058 26.6442C14.9054 26.7435 14.7005 26.8246 14.4937 26.9137L13.8818 27.1831C13.6764 27.2663 13.476 27.3554 13.2715 27.4405H13.2716ZM13.4052 28.0014C13.4052 28.0014 14.6533 27.27 15.0829 27.035C15.3079 26.9094 16.0353 26.5487 16.0353 26.5487L13.4052 28.0014Z" fill="#CFB66C"/>
<path fill-rule="evenodd" clip-rule="evenodd" d="M13.4062 28.0012C13.6169 27.8715 13.8317 27.7398 14.0465 27.6061L14.3671 27.4115C14.4765 27.3468 14.5819 27.286 14.6934 27.2212C14.8028 27.1563 14.9082 27.0915 15.0196 27.0307C15.0726 26.998 15.1282 26.9695 15.1858 26.9457L15.3559 26.8606C15.5809 26.7512 15.8058 26.6397 16.0429 26.5444C15.8281 26.6803 15.6072 26.7958 15.3864 26.9152C15.277 26.976 15.1655 27.0307 15.0561 27.0915C14.9467 27.1523 14.8413 27.2172 14.7297 27.276C14.6203 27.3407 14.5149 27.4015 14.4035 27.4603L14.0732 27.6406L13.4065 28.0012H13.4062ZM16.0262 26.7085C16.0262 26.7085 15.2501 27.3042 14.9989 27.4946C14.7476 27.6851 14.008 28.22 14.008 28.22L16.0262 26.7085Z" fill="#CFB66C"/>
<path fill-rule="evenodd" clip-rule="evenodd" d="M20.4789 31.513L20.0818 30.7613L20.3127 29.8211L21.9601 29.185L21.259 27.7465L21.6055 26.2937L22.256 24.9927L24.2662 24.6767L25.7433 23.2686L28.9328 23.5096L29.5589 26.9197L28.3532 31.2131L27.6664 33.4359L24.8821 33.5413L23.5894 32.6458L22.0757 32.0135L20.4789 31.513Z" fill="#E2CC85"/>
<path fill-rule="evenodd" clip-rule="evenodd" d="M25.3678 31.4876C25.3678 31.4876 24.9826 31.6639 24.3259 31.6233C24.1358 31.368 22.8046 31.2485 22.8046 31.2485C22.8046 31.2485 22.6384 31.1979 22.3445 31.3194C22.0488 31.4396 21.7691 31.4248 21.5077 31.4896C21.2462 31.5543 20.9867 31.214 20.7863 31.1431C20.586 31.0682 20.3203 30.8879 20.3203 30.8879L19.7593 30.8331L18.6327 30.3569L16.8429 28.574L16.3565 29.3353L16.2065 30.2775L16.7477 31.3939L18.2046 32.721L21.0455 33.4423L22.7293 32.9462L24.8388 32.0547L25.3678 31.4874V31.4876Z" fill="#F1D789"/>
<path fill-rule="evenodd" clip-rule="evenodd" d="M15.2741 25.1867L15.6347 24.0947L16.0644 23.3895L17.4483 23.2739L17.0329 24.4856L15.876 26.5443L16.3562 28.382L15.5052 28.8074L15.2436 28.4063L15.033 27.4864L15.0188 26.453L15.2741 25.1867Z" fill="#F4ECB4"/>
<path fill-rule="evenodd" clip-rule="evenodd" d="M16.823 31.4136L16.5576 31.0429C16.5576 31.0429 16.4867 30.8665 16.5273 30.7125C16.5674 30.5565 16.5616 30.5464 16.5415 30.4876C16.5213 30.4289 16.351 30.2262 16.3611 30.0519C16.3712 29.8756 16.347 29.8169 16.4765 29.6772C16.6123 29.5415 16.5718 29.3064 16.5718 29.3064L16.7481 29.4158L16.7882 29.355C16.7882 29.355 16.853 29.4056 16.853 29.4847C16.8671 29.3753 16.8084 28.8687 16.9421 28.7533C17.0758 28.6379 17.3129 29.2942 17.3129 29.2942L17.167 28.3419L16.7921 27.3654L16.1254 26.4739L16.0853 25.4911V25.406C16.0853 25.406 15.7793 25.8762 15.6942 26.2475C15.6334 26.5027 15.7793 26.8127 15.749 27.1795C15.7245 27.5442 15.6942 27.5158 15.7833 27.6603C15.8724 27.8048 16.0893 28.102 16.0042 28.3168C15.9293 28.5012 15.6739 28.3716 15.6739 28.3716C15.6739 28.3716 15.6233 28.5214 15.5543 28.5762C15.53 28.4871 15.5037 28.4303 15.4551 28.3758C15.4509 28.4103 15.4409 28.4569 15.4409 28.4569C15.4409 28.4569 15.3963 28.3171 15.3517 28.1408C15.2911 27.9058 15.2261 27.5958 15.1674 27.4297C15.1431 27.5249 15.0823 27.8146 15.0823 27.8146L15.1167 28.2604L15.2829 28.8723L15.4432 29.273L15.5992 29.7633L15.7348 30.0927L15.8442 30.3439L15.9394 30.9093L16.3993 31.3955L16.6446 31.505L16.8228 31.4138L16.823 31.4136Z" fill="#F3E19D"/>
<path fill-rule="evenodd" clip-rule="evenodd" d="M15.5135 24.2956C15.5135 24.2956 15.1831 24.8566 15.088 25.4221C14.9929 25.9876 14.9077 26.5852 14.9678 27.355C15.0286 28.1312 15.1441 28.6072 15.2374 28.9477C15.3977 29.513 15.8128 30.2992 15.8128 30.2992L15.827 30.2688C15.7572 30.1365 15.7015 29.9973 15.6608 29.8534C15.606 29.6386 15.5857 29.3834 15.5351 29.2678C15.4905 29.1524 15.4156 29.0531 15.3791 28.9112C15.3446 28.7755 15.339 28.5607 15.2332 28.4007C15.1886 28.3358 15.1339 28.1656 15.1177 27.9955C15.0974 27.7401 15.1278 27.4544 15.1035 27.2195C15.0589 26.8284 15.0286 26.563 15.0691 26.3582C15.1095 26.1535 15.3205 25.5722 15.4502 25.1102C15.5352 24.8144 15.4845 24.5651 15.6405 24.3077C15.7965 24.0525 15.8919 23.8276 15.9262 23.6716C15.9663 23.5297 15.5129 24.2956 15.5129 24.2956H15.5135Z" fill="#F2E8B0"/>
<path fill-rule="evenodd" clip-rule="evenodd" d="M17.0775 24.0703C17.0775 24.0703 16.9074 24.1211 16.8263 24.2102C16.7452 24.2952 16.7107 24.3662 16.6013 24.51C16.4919 24.6539 16.4858 24.7714 16.3966 24.9517C16.3075 25.128 16.1108 25.3934 16.0865 25.4886C16.0622 25.5839 16.0218 26.0296 15.9711 26.2403C15.9265 26.4511 16.0218 26.7105 16.0218 26.7105L16.1372 26.6861C16.1372 26.6861 16.1372 26.836 16.2527 26.9374C16.3681 27.0367 16.3884 26.601 16.3884 26.601L16.82 25.1442L17.4704 24.7025L17.5413 24.3459L17.0773 24.0703H17.0775Z" fill="#F5EEC0"/>
<path fill-rule="evenodd" clip-rule="evenodd" d="M17.3916 24.7307C17.3916 24.7307 17.0856 24.7509 16.9357 24.8604C16.875 24.9049 16.8507 24.9414 16.7859 24.9961C16.6663 25.0954 16.5446 25.1866 16.486 25.3167C16.4211 25.4462 16.3501 25.6428 16.3015 26.0136C16.2812 26.1696 16.2812 26.3135 16.2671 26.4392C16.2468 26.6093 16.2164 26.745 16.2326 26.8398C16.2529 27.0343 16.4535 27.1357 16.473 27.3565L16.8885 27.1458L17.2796 25.6038L18.1104 25.0829L17.6402 24.5562L17.3911 24.7298L17.3916 24.7307Z" fill="#E6DB9D"/>
<path fill-rule="evenodd" clip-rule="evenodd" d="M15.2023 35.1147C15.204 35.0995 15.2058 35.0842 15.2075 35.0686C15.2681 34.5477 15.2784 34.1529 15.3229 33.9057C15.3877 33.5552 15.4323 33.4248 15.4221 33.2937C15.408 33.083 15.3918 32.929 15.4121 32.7669C15.4425 32.5521 15.6532 32.2969 15.6472 32.1206C15.6431 31.9807 15.5722 31.8896 15.5114 31.8045C15.4506 31.7195 15.402 31.6485 15.402 31.6485C15.402 31.6485 15.8174 31.3628 15.8134 30.2119C15.8219 30.2143 15.83 30.2177 15.8377 30.2221L16.0423 30.8035L16.1822 30.9736L16.7192 31.9746L17.4102 32.6453L18.4314 33.3321L19.0717 34.0289L19.1365 35.887L18.2997 36.973L18.1626 37.2211C17.0738 36.6746 16.0753 35.9641 15.2021 35.1146L15.2023 35.1147Z" fill="#E5CB7A"/>
<path fill-rule="evenodd" clip-rule="evenodd" d="M17.7625 36.8919C17.7625 36.8919 17.7766 36.6609 17.9671 36.5109C17.9975 36.5616 18.0177 36.6103 18.0117 36.6466C18.0462 36.586 18.2873 36.1969 18.8324 36.0955C19.3775 35.9963 19.5092 35.5992 19.5092 35.5992L20.6661 34.5477L21.9893 33.3299L23.5983 32.7646L24.3502 32.5801C24.3502 32.5801 24.3643 32.6349 24.336 32.7564C24.4757 32.7464 24.7858 32.6755 25.108 32.5619C25.2377 32.5113 25.3593 32.491 25.4241 32.5579C25.5194 32.647 25.5335 32.8578 25.5395 32.9833C25.6956 32.9489 25.8759 32.799 26.0204 32.8132C26.2515 32.8375 26.4561 33.109 26.6912 33.109C27.0013 33.109 27.141 32.9186 27.3579 32.7686C27.4876 32.6795 27.674 32.5682 27.7793 32.493C28.0306 32.3086 30.6892 31.4961 30.6892 31.4961L31.6213 31.5569L31.7713 32.5578L31.6911 35.1743C31.6813 35.1838 31.6714 35.1937 31.6613 35.2032L27.4232 37.4165L21.5485 38.317C20.2326 38.102 18.9627 37.6652 17.7929 37.0253L17.7629 36.8917L17.7625 36.8919Z" fill="#D8C173"/>
<path fill-rule="evenodd" clip-rule="evenodd" d="M15.563 35.447C15.6465 35.2724 15.7215 35.1264 15.7348 35.0742C15.7452 35.1795 15.7643 35.4104 15.8028 35.6559C15.722 35.5872 15.6421 35.5176 15.563 35.4469V35.447Z" fill="#F1D789"/>
<path fill-rule="evenodd" clip-rule="evenodd" d="M19.8496 37.9097L20.6094 37.6984L20.6741 37.7187C20.6741 37.7187 20.7086 37.739 20.7086 37.8078C20.8038 37.7531 20.8849 37.7632 20.9437 37.7268C20.974 37.7916 21.0043 38.0064 21.1382 38.0327C21.2779 38.0632 21.4279 37.9719 21.5799 37.8565C21.7298 37.737 21.9005 37.587 22.0297 37.5262C22.0771 37.6134 22.119 37.7033 22.1554 37.7956C22.3255 37.6599 22.6214 37.1088 23.0428 37.1188C23.1647 36.831 23.3682 36.5852 23.6282 36.4118C24.0193 36.1464 24.2644 36.1261 24.5704 36.1504C24.692 35.9925 24.8418 35.8585 25.0122 35.7553C25.0628 35.7756 25.2026 35.8607 25.377 35.7796C25.5533 35.6986 25.7518 35.3845 26.0132 35.344C26.1541 35.3246 26.2973 35.3547 26.4185 35.4291C26.4185 35.4291 27.1798 34.6733 27.7052 34.422C27.6849 34.3613 27.6444 34.1323 28.2603 33.6257C28.2948 33.6562 28.2705 33.7412 28.2948 33.7459C28.3048 33.7459 28.4551 33.6811 28.6453 33.5352C28.8804 33.359 29.162 33.1745 29.3322 33.1239C29.6527 33.0287 29.9928 33.2231 29.9928 33.2231C30.0217 33.2029 30.054 33.1878 30.0881 33.1785C30.169 33.1644 30.2278 33.1542 30.2724 33.1385C30.2684 33.2439 30.3272 33.4242 30.2724 33.5802C30.3358 33.6158 30.403 33.6444 30.4728 33.6653C30.4384 33.7402 30.3634 33.9306 30.2378 34.0219C30.3431 34.0725 30.3572 34.1313 30.5072 34.1821C30.4465 34.2672 30.3469 34.4132 30.3026 34.5027C30.258 34.5979 30.0978 34.993 30.0269 35.1429C29.952 35.2929 29.8507 35.5684 29.8019 35.6237C29.7532 35.679 29.577 35.9134 29.4413 36.0288C29.5615 35.9842 30.0533 35.8343 30.262 35.7776C30.1999 35.8687 29.885 36.3358 29.5823 36.7849C28.1331 37.6535 26.5154 38.2032 24.837 38.3975C23.1586 38.5918 21.458 38.4262 19.8486 37.9117L19.8496 37.9097Z" fill="#E0CD81"/>
<path fill-rule="evenodd" clip-rule="evenodd" d="M17.4393 24.6761C17.4393 24.6761 17.2631 24.6761 17.2286 24.7005C17.1942 24.7248 17.405 24.7755 17.4697 24.7998C17.5345 24.8241 17.6744 24.9355 17.7108 25.0248C17.7453 25.1098 18.9773 25.6062 18.9773 25.6062L19.8486 25.5615L20.149 25.1466L19.5776 24.6461L19.9783 23.4648L19.4475 23.5499L18.1709 24.3112L17.5305 24.5565L17.4393 24.6761Z" fill="#DFC57C"/>
<path fill-rule="evenodd" clip-rule="evenodd" d="M19.3562 25.0676C19.3688 25.088 19.3865 25.1047 19.4076 25.1161C19.4287 25.1274 19.4524 25.1331 19.4764 25.1324C19.6567 25.1324 19.8228 25.177 19.8917 25.2681C20.0072 25.4141 20.3274 25.8801 20.3274 25.8801L21.0933 26.1556L21.1428 25.2538L20.3059 24.6724L19.3535 25.0228V25.0674H19.3557L19.3562 25.0676Z" fill="#E5CC7C"/>
<path fill-rule="evenodd" clip-rule="evenodd" d="M19.2067 25.4016C19.2067 25.4016 19.3464 25.4118 19.5228 25.3469C19.6991 25.282 19.9888 25.1423 20.1145 25.197C20.2907 25.272 20.2542 25.507 20.4448 25.7179C20.5602 25.8476 20.771 25.8436 20.8906 25.9835C21.0101 26.1233 21.4214 26.0584 21.4214 26.0584L21.5774 26.8998L20.9514 27.7023L20.7466 28.6991H19.9L19.1266 28.3923L18.7456 27.4707L18.9361 26.5387L19.2067 25.4016Z" fill="#D2C281"/>
<path fill-rule="evenodd" clip-rule="evenodd" d="M20.8466 25.4421C20.8676 25.4486 20.8895 25.452 20.9114 25.4523C20.8871 25.4726 20.8364 25.5171 20.8567 25.6326C20.877 25.7481 20.9417 25.894 20.8871 25.9831C20.9307 26.0308 20.9632 26.0875 20.9824 26.1492C21.0168 26.2486 21.027 26.3397 21.2518 26.354C21.2193 26.374 21.1894 26.3978 21.1627 26.4249C21.1627 26.4249 21.3187 26.5606 21.3978 26.6862C21.4787 26.6827 21.6935 26.6159 21.6935 26.6159L21.7381 26.6464L21.8334 26.6063C21.8334 26.6063 21.7443 26.5718 21.8091 26.3551C21.8698 26.1646 21.9246 26.1747 21.9293 26.1606C21.9339 26.1464 21.9739 25.9458 21.9739 25.8647C22.0042 25.7595 22.0285 25.4393 22.0285 25.4393L21.9637 24.7322L21.5991 24.5113L21.3025 24.2251L21.0228 24.7519L20.8386 24.9355L20.8245 25.3914L20.8466 25.4421Z" fill="#E2C270"/>
<path fill-rule="evenodd" clip-rule="evenodd" d="M21.7229 24.8502C21.7229 24.8502 21.7877 25.0345 21.8121 25.1764C21.8207 25.1488 21.8255 25.1202 21.8263 25.0913C21.8263 25.0913 21.8769 25.371 21.8869 25.4865C21.9072 25.4824 21.927 25.4764 21.9315 25.4965C21.9361 25.5167 21.9823 25.7418 21.9716 25.8673C22.056 25.7281 22.1728 25.6114 22.312 25.527C22.3931 25.4762 22.4883 25.4216 22.5877 25.4175C22.7437 25.4135 22.8571 25.5169 23.0436 25.5169C23.4933 25.5169 23.9007 25.1865 24.2006 25.0853C24.4214 25.0102 24.6119 24.9556 24.7456 24.8339C24.8105 24.7793 24.9261 24.6578 25.0313 24.4773C25.1712 24.2369 25.317 24.0276 25.463 24.0013C25.397 24.0134 25.3298 24.0182 25.2627 24.0154C25.2627 24.0154 25.3073 23.9708 25.3829 23.9101C25.4585 23.8493 25.5491 23.7744 25.6786 23.7744C25.9097 23.7744 26.0251 23.8087 26.1548 23.8087C26.2845 23.8047 26.3595 23.7744 26.3595 23.7744C26.3595 23.7744 26.4953 23.8696 26.8012 23.8696C27.1072 23.8736 27.3119 23.8999 27.472 23.9142C27.6322 23.9285 28.169 23.8696 28.323 23.8741C28.4235 23.878 28.5221 23.9021 28.6129 23.9451L28.1164 22.5026L26.3329 20.9438L25.2711 21.6956L23.6377 23.3287L22.0572 23.9142L21.7269 24.285V24.8502H21.7229Z" fill="#CCB360"/>
<path fill-rule="evenodd" clip-rule="evenodd" d="M25.2624 24.0235C25.2624 24.0235 25.307 23.979 25.3819 23.9182C25.4567 23.8574 25.5482 23.7824 25.6777 23.7824C25.9087 23.7824 26.0242 23.8168 26.1539 23.8168C26.2836 23.8128 26.3586 23.7824 26.3586 23.7824C26.3586 23.7824 26.4945 23.8775 26.8003 23.8775C27.1063 23.8815 27.311 23.9078 27.4711 23.922C27.6313 23.9361 28.1681 23.8775 28.3221 23.8819C28.4225 23.8857 28.5211 23.9098 28.6119 23.9528L28.3869 23.3023L28.1256 22.806L27.3799 21.9894C27.3799 21.9894 26.4849 21.4626 26.4781 21.4586C26.4741 21.4546 26.1681 21.3735 26.1681 21.3735L25.3575 21.8639L24.6221 23.7665L24.6079 24.1672L25.084 24.3921C25.2035 24.1918 25.3354 24.0315 25.4589 24.0112C25.3474 24.0233 25.2623 24.0233 25.2623 24.0233L25.2624 24.0235Z" fill="#D5B457"/>
<path fill-rule="evenodd" clip-rule="evenodd" d="M25.2565 24.1594C25.1856 24.1634 25.127 24.1492 25.1107 24.0986C25.0499 23.9284 25.0013 23.9041 24.9504 23.9041C24.8995 23.9041 24.8308 24.0135 24.7901 24.0235C24.7493 24.0336 24.701 23.898 24.701 23.898L24.6564 23.8777C24.6564 23.8777 24.395 24.0478 24.2106 24.2485C24.0263 24.4491 23.7243 24.7895 23.5886 24.8502C23.4529 24.9108 22.9867 24.9312 22.8272 24.9657C22.6677 25.0002 22.4908 25.1157 22.4665 25.142C22.4422 25.1683 22.5376 25.1966 22.5517 25.223C22.5659 25.2473 22.3956 25.2371 22.3814 25.263C22.3714 25.2833 22.4215 25.3987 22.4464 25.4575C22.4898 25.4359 22.5375 25.4241 22.5861 25.423C22.7421 25.419 22.8556 25.5224 23.042 25.5224C23.4919 25.5224 23.8991 25.1921 24.199 25.0907C24.4199 25.0158 24.6104 24.961 24.7441 24.8395C24.8089 24.7849 24.9245 24.6632 25.0299 24.4829C25.1068 24.3593 25.1819 24.2438 25.2569 24.1587L25.2565 24.1594Z" fill="#D2B257"/>
<path fill-rule="evenodd" clip-rule="evenodd" d="M18.8089 34.1872C18.8089 34.1872 18.7688 34.0372 18.3975 33.6503C18.2921 33.5409 18.2273 33.4499 18.1563 33.3849C17.98 33.2186 17.8766 33.1741 17.7511 33.0789C17.4755 32.8743 17.1756 32.8743 16.9447 32.623C16.7137 32.3718 16.4446 31.8918 16.2576 31.4012C16.0732 30.9109 16.0225 30.7549 16.0225 30.7407C16.0225 30.7265 16.0732 30.6313 16.138 30.6455C16.2028 30.6596 16.2028 30.7852 16.2191 30.8156C16.2514 30.8653 16.288 30.9121 16.3285 30.9553C16.4237 31.0649 16.5594 31.1958 16.6284 31.391C16.6142 31.2249 16.5574 31.0406 16.5574 31.0406C16.5574 31.0406 16.9141 31.2655 17.218 31.5004C17.524 31.7355 17.6496 31.8166 17.7389 31.9664C17.8283 32.1163 18.0388 32.5115 18.1396 32.627C18.2405 32.7426 19.6223 33.1781 19.6223 33.1781L20.2797 33.6682L20.606 34.3834L20.3506 34.7841L19.8602 34.8895L19.0639 34.5329L18.8089 34.1871V34.1872Z" fill="#D2B159"/>
<path fill-rule="evenodd" clip-rule="evenodd" d="M17.041 31.7234C17.041 31.7234 17.2072 31.9888 17.6125 32.2401C17.9773 32.461 18.5547 32.6616 19.0695 32.7811C19.3652 32.852 19.6611 32.9067 19.9265 32.9108C20.6418 32.9208 21.1342 32.7163 21.7442 32.6494C22.0746 32.615 22.4798 32.5887 22.9013 32.4892C23.4423 32.3595 23.7624 32.2135 24.1982 32.0083C24.5142 31.8625 24.8041 31.7531 25.039 31.6132C25.3694 31.4188 25.6105 31.202 25.8902 31.1372C25.8557 31.2324 25.8193 31.4026 25.5437 31.5789C25.6896 31.5748 25.8902 31.5647 25.8902 31.5647C25.8902 31.5647 25.6957 31.6801 25.3532 31.9395C25.1424 32.0998 24.8629 32.3711 24.5771 32.5514C24.3927 32.6669 24.192 32.7517 24.0603 32.8209C23.7397 32.9972 23.6104 33.0863 23.3998 33.3018C23.4747 33.2978 23.4809 33.3018 23.4809 33.3018C23.4809 33.3018 23.2153 33.3362 23.025 33.4375C22.9849 33.4375 22.9154 33.4233 22.7939 33.4578C22.6986 33.4881 22.573 33.5571 22.4434 33.5935C22.2589 33.6482 22.1983 33.6239 22.1983 33.6239L22.2286 33.6847C22.2286 33.6847 21.9882 33.6806 21.908 33.6887C21.9222 33.6927 21.9182 33.6989 21.9182 33.6989C21.9041 33.7012 21.8905 33.706 21.8781 33.713C21.8395 33.738 21.7971 33.7565 21.7525 33.7676C21.7282 33.7716 21.7079 33.7716 21.6775 33.7778C21.6876 33.8021 21.7667 33.9381 21.8031 34.0182C21.7728 34.0385 21.3168 34.383 21.3168 34.383C21.3309 34.4052 21.3425 34.429 21.3513 34.4539C21.3654 34.4984 21.3716 34.5633 21.3857 34.5936C21.4201 34.6544 21.4404 34.6645 21.4404 34.6645C21.4404 34.6645 21.3857 34.6747 21.2903 34.699C21.2094 34.7193 21.11 34.7536 20.9698 34.7739C20.9267 34.7795 20.8834 34.7829 20.8401 34.7841C20.8604 34.8287 20.9495 34.9988 20.7853 35.1953C20.6211 35.3918 20.5705 35.4204 20.5199 35.5459C20.4944 35.5267 20.4673 35.5097 20.4388 35.4952C20.3842 35.4709 20.3091 35.4345 20.2828 35.3858C20.2674 35.4507 20.2471 35.5144 20.222 35.5762C20.1714 35.7119 20.0964 35.8458 20.0823 35.947C20.0275 35.8862 19.9263 35.7667 19.7864 35.791C19.6466 35.8153 19.5352 36.0058 19.5108 36.0606C19.5108 36.0261 19.4865 35.9998 19.4805 36.0402C19.4764 36.0849 19.3994 36.5507 18.9699 36.9277C18.9659 36.8324 18.9659 36.6217 18.9557 36.5529C18.9156 36.5929 18.8666 36.6521 18.5747 36.7778C18.289 36.9033 18.3343 37.029 18.3343 37.029C18.3343 37.029 18.31 36.8287 18.464 36.6177C18.62 36.407 18.7153 36.3076 18.7153 36.2915C18.7127 36.275 18.7057 36.2596 18.695 36.2469C18.6747 36.2266 18.6342 36.2023 18.6342 36.1861C18.6585 36.1761 18.8996 36.0606 18.8854 35.8213C18.8713 35.6067 18.7802 35.4952 18.7153 35.4162C18.7052 35.4061 18.8106 35.3312 18.7963 35.3068C18.7862 35.2927 18.6566 35.1973 18.6403 35.1466C18.6442 35.1163 18.651 35.0864 18.6606 35.0575C18.6748 35.0129 18.6849 34.9824 18.6809 34.9521C18.6708 34.9015 18.616 34.7616 18.5999 34.7475C18.614 34.7515 18.7153 34.7475 18.7153 34.7475C18.7153 34.7475 18.6343 34.6178 18.62 34.557C18.6057 34.4962 18.5754 34.3361 18.5592 34.3058C18.5937 34.3098 18.6788 34.3158 18.6788 34.3058C18.6829 34.2753 18.6039 34.2247 18.6387 34.1856C18.663 34.1896 18.7097 34.2099 18.7541 34.2666C18.7298 34.2017 18.6893 34.0762 18.6041 34.0256C18.6442 34.0114 18.7804 33.9748 18.9 34.0457C19.0195 34.1166 19.0603 34.2159 19.0603 34.2159C19.0603 34.2159 19.1312 34.2706 19.2408 34.3517C19.3663 34.451 19.5263 34.5921 19.7817 34.692C19.8365 34.7225 19.9762 34.7225 20.0776 34.7022C20.1218 34.6917 20.1641 34.6746 20.2032 34.6516C20.2173 34.6433 20.2322 34.6364 20.2478 34.6313C20.226 34.5876 20.201 34.5455 20.1728 34.5056C20.2073 34.5056 20.2478 34.5097 20.2478 34.5097C20.2478 34.5097 20.2721 34.455 20.1627 34.3494C20.187 34.3251 20.2175 34.3094 20.2175 34.2684C20.183 34.2644 20.1222 34.2137 20.1081 34.1934C20.1282 34.1793 20.1587 34.1327 20.1932 34.1185C20.1627 34.0942 20.0878 33.9928 20.0533 33.9828C20.0862 33.9706 20.1181 33.9557 20.1485 33.9382C20.1485 33.9382 19.9784 33.8936 19.9236 33.8571C19.8688 33.8171 19.7879 33.7477 19.7393 33.7274C19.6885 33.7071 19.5994 33.6971 19.5629 33.6565C19.5973 33.6667 19.652 33.6565 19.6926 33.6565C19.723 33.6565 19.7373 33.6605 19.7473 33.6605C19.7433 33.6464 19.7433 33.6159 19.8223 33.6059C19.8604 33.6002 19.8973 33.5885 19.9317 33.5714C19.9317 33.5714 19.8567 33.5674 19.7715 33.4864C19.6862 33.4053 19.6154 33.3405 19.5668 33.3303C19.5162 33.3202 19.4209 33.3648 19.3622 33.3607C19.2811 33.3506 19.2466 33.31 19.2466 33.31C19.2466 33.31 18.9772 33.3344 18.3795 32.9697C17.8626 32.6536 17.6377 32.374 17.6377 32.374C17.5893 32.3565 17.5426 32.3347 17.498 32.3091C17.3035 32.2079 17.0339 31.9971 17.0421 31.7214L17.041 31.7234Z" fill="#C2A44D"/>
<path fill-rule="evenodd" clip-rule="evenodd" d="M24.4932 19.5623C24.5401 19.5775 24.5818 19.6056 24.6135 19.6434C24.7087 19.7528 24.7695 19.9594 24.5527 20.1803C24.6378 20.2106 24.6729 20.2204 24.7472 20.2106C24.6722 20.2998 24.5021 20.4903 24.4919 20.6565C24.4818 20.7922 24.5668 20.8328 24.5668 20.8328C24.5668 20.8328 24.4371 20.9826 24.4311 21.2335C24.4924 21.1644 24.5594 21.1007 24.6315 21.043C24.7815 20.9235 24.9881 20.7878 25.128 20.7027C25.1261 20.7383 25.1309 20.774 25.1422 20.8079C25.1422 20.8079 25.4034 20.5932 25.623 20.6885C25.7223 20.7331 25.6777 20.8728 25.6777 20.8728C25.6777 20.8728 25.8135 20.8222 25.9088 20.9175C26.004 21.0127 26.1386 21.2583 26.2077 21.3535C26.238 21.3982 26.3171 21.4832 26.398 21.6149C26.5086 21.7993 26.601 21.994 26.6737 22.1963C26.6778 22.091 26.7041 21.9269 27.0041 22.0302C27.304 22.1356 27.6443 22.3565 27.93 22.7915C28.2157 23.2265 28.2865 23.7176 28.4304 23.9046C28.5763 24.085 28.7263 24.3848 28.7364 24.5105C28.7466 24.6362 28.6918 25.0413 28.9917 26.1374C29.0768 25.7971 29.2065 25.0413 29.2065 25.0413L29.2774 24.3747L29.3585 22.312L27.2044 20.5226L25.5206 19.3008L24.4243 19.4062L24.4931 19.5622L24.4932 19.5623Z" fill="#CAA13E"/>
<path fill-rule="evenodd" clip-rule="evenodd" d="M28.4908 22.6313C28.4908 22.6313 28.4603 22.4309 27.9538 22.0903C27.4471 21.754 27.052 21.754 26.6874 21.4683C26.4076 21.2434 26.1159 20.7266 25.926 20.5564C25.7415 20.3883 25.7112 19.902 25.7112 19.902L26.3332 19.3811L27.2584 18.044L28.0405 17.1829L28.4153 17.7038L28.9363 18.3156L29.226 19.5435L29.3314 21.3407L28.4898 22.6314L28.4908 22.6313Z" fill="#B59544"/>
<path fill-rule="evenodd" clip-rule="evenodd" d="M29.1201 24.786C29.1354 24.5134 29.1017 24.2403 29.0207 23.9797C28.8871 23.5643 28.5953 22.8267 28.4597 22.5505C28.4049 22.2445 28.4455 22.2202 28.5043 22.1857C28.5631 22.1513 28.784 22.0255 28.905 21.584C29.026 21.1426 29.4015 21.1282 29.4015 21.1282L29.6325 20.958L29.9831 21.8353L30.289 22.6276L30.3842 23.2334L30.4552 23.7501L30.289 24.8422L29.4684 25.5838L29.1199 24.786H29.1201Z" fill="#C89D3A"/>
<path fill-rule="evenodd" clip-rule="evenodd" d="M17.6707 36.9587V36.9362C17.6877 36.9256 17.7028 36.912 17.7151 36.8961C17.7293 36.8758 17.7396 36.8515 17.7496 36.8455C17.7699 36.8354 17.8651 36.8055 17.9158 36.8151C17.9664 36.8247 18.1002 36.8799 18.1712 36.8758C18.317 36.8718 18.4872 36.7603 18.7568 36.8111C19.162 36.886 19.2573 37.1615 19.4924 37.3175C19.6527 37.4271 19.8186 37.3783 19.8429 37.3783H19.8975C19.9077 37.3783 19.9826 37.2932 20.0232 37.2974C20.1043 37.3014 20.1123 37.3683 20.1629 37.3723C20.2825 37.3865 20.5136 37.3115 20.6291 37.342C20.6634 37.3527 20.6945 37.3716 20.7199 37.3969C20.7453 37.4223 20.7642 37.4535 20.775 37.4877C20.7993 37.5626 20.779 37.6579 20.7202 37.7126C20.5946 37.828 20.4751 37.9376 20.4508 38.0332C20.4817 38.0568 20.5114 38.0819 20.5397 38.1085C19.5371 37.8531 18.5725 37.4669 17.6707 36.9599V36.9587Z" fill="#CEB052"/>
<path fill-rule="evenodd" clip-rule="evenodd" d="M28.4551 32.9103C28.4551 32.9103 28.7711 32.4889 28.8807 32.2802C28.9901 32.065 28.5342 29.3403 28.5342 29.3403L29.4501 26.3396L29.4256 25.363C29.4256 25.363 29.4703 24.4613 29.5756 24.0702C29.7013 24.2951 30.0925 24.5666 30.1775 24.7105C30.2176 24.4348 30.3537 23.8534 30.3336 23.2334C30.4085 23.3488 30.5888 24.5099 30.5888 24.5099L30.7692 25.2919L31.0043 26.1227L31.2657 27.0001L31.4217 27.6059L31.5108 27.7518L31.5858 28.007L31.6568 28.2827L31.8614 28.929L31.9816 29.4598L32.0769 30.4223C32.0976 30.496 32.1125 30.5712 32.1215 30.6472C32.1255 30.7526 32.1073 30.8134 32.1073 30.8317C32.1073 30.85 32.1418 31.0626 32.1276 31.2227C32.1073 31.383 32.1073 31.5084 31.9816 31.6234C31.8559 31.7384 31.777 32.4258 31.777 32.4258L31.552 32.2759C31.552 32.2759 31.5967 32.0711 31.4913 31.8848C31.3859 31.6985 31.1812 31.6599 31.0657 31.6903C30.9503 31.7147 30.7193 31.751 30.6443 31.8159C30.5733 31.8807 30.3991 32.0813 30.239 32.1725C30.0386 32.2927 29.7122 32.3022 29.538 32.3427C29.3617 32.3827 29.1672 32.503 28.9624 32.6425C28.8018 32.7465 28.6323 32.8359 28.4559 32.9097L28.4551 32.9103Z" fill="#CCA847"/>
<path fill-rule="evenodd" clip-rule="evenodd" d="M28.4551 37.3377C28.4551 37.3377 28.4684 37.3463 28.4942 37.3605C29.9338 36.6861 31.2238 35.7301 32.2878 34.5489C32.2762 34.1389 32.2611 33.7186 32.2445 33.5628C32.2102 33.2325 32.2345 32.8962 32.2243 32.7017C32.2142 32.5073 32.1048 31.715 32.0542 31.5103C31.9994 31.3057 31.8939 31.2043 31.8778 31.2043C31.8637 31.2085 31.7785 31.5894 31.7785 31.6852C31.7785 31.7809 31.7582 32.0115 31.7582 32.0702C31.744 32.0661 31.738 32.0302 31.738 32.0155C31.7177 32.0661 31.6934 32.1553 31.6832 32.1655C31.6731 32.1756 31.6974 32.0804 31.6832 32.0601C31.6691 32.0398 31.6431 32.0499 31.6488 31.9993C31.6512 31.9693 31.6559 31.9395 31.6629 31.9102C31.6629 31.9102 31.6021 31.9993 31.5577 32.2263C31.513 32.4512 31.513 32.4573 31.4969 32.4775C31.4827 32.5019 31.4016 32.5829 31.3975 32.6133C31.3935 32.668 31.4726 32.7227 31.4786 32.753C31.4826 32.8038 31.4077 33.0387 31.3833 33.1537C31.359 33.2687 31.3692 33.4941 31.3433 33.6096C31.323 33.715 31.3032 33.7757 31.2339 33.8202C31.2845 33.8304 31.3331 33.8445 31.3331 33.8445C31.3331 33.8445 31.404 34.1444 31.2237 34.3998C31.1589 34.4888 31.1428 34.5294 31.0738 34.6105C30.938 34.7604 30.8326 34.9311 30.8225 35.0421C30.8154 35.0093 30.8107 34.9761 30.8083 34.9427C30.8083 34.9427 30.5976 35.1879 30.5084 35.3278C30.393 35.5081 30.2328 35.4979 30.1878 35.5425C30.1428 35.5872 30.1331 35.6681 30.1478 35.733C30.1077 35.743 30.0323 35.7573 29.9816 35.9133C29.9573 35.9943 29.8965 36.0736 29.8013 36.1281C29.706 36.1826 29.5905 36.199 29.5317 36.2132C29.5823 36.2273 29.6026 36.2273 29.6269 36.2435C29.5966 36.2941 29.4568 36.3732 29.3007 36.4746C29.1447 36.5698 29.0697 36.7095 29.0312 36.8007C28.9911 36.8858 28.9319 36.9406 28.8367 36.9507C28.8768 36.975 28.9361 37.0317 28.9664 37.05C28.9218 37.0601 28.8462 37.0601 28.7111 37.1756C28.5693 37.2932 28.5207 37.3276 28.4557 37.3378L28.4551 37.3377Z" fill="#C39D3C"/>
<path fill-rule="evenodd" clip-rule="evenodd" d="M25.641 38.2773C25.7186 38.2229 25.8027 38.1783 25.8912 38.1446C26.2073 38.0191 26.5416 37.9948 26.6733 37.9543C26.799 37.9142 26.8983 37.8589 27.0543 37.8286C27.0501 37.8641 27.0467 37.8975 27.0429 37.9291C26.583 38.0736 26.1146 38.1899 25.6404 38.2773H25.641Z" fill="#D2BA6B"/>
<path fill-rule="evenodd" clip-rule="evenodd" d="M31.4627 29.9641C31.4627 29.9641 31.3979 30.3145 31.2823 30.5355C31.1668 30.7564 31.0419 31.0622 31.0419 31.0622C31.0427 30.9933 31.0508 30.9247 31.0662 30.8575C30.9204 30.9426 30.5657 31.1473 30.4651 31.2384C30.3699 31.3235 30.2097 31.4735 30.1693 31.5444C30.2645 31.2649 30.3637 31.0136 30.38 30.8981C30.2342 31.0035 29.5532 31.5647 29.1987 31.9355L28.0943 32.829C27.9668 32.8978 27.8356 32.9592 27.7012 33.0131C27.5108 33.094 27.2859 33.163 27.1197 33.2279C27.1643 33.1083 27.2351 33.0028 27.3345 32.9016C27.4399 32.8023 27.7559 32.4599 27.8045 32.3005C27.8492 32.1344 27.8593 32.0351 27.8005 31.8953C27.7458 31.9094 27.6202 31.9156 27.5351 31.9399C27.45 31.9642 27.3588 32.0553 27.3588 32.0553C27.3588 32.0553 27.4236 31.6845 27.5634 31.334C27.458 31.3381 27.2777 31.3684 27.2777 31.3684C27.2777 31.3684 27.529 30.947 27.959 30.6533C27.8273 30.6813 27.6984 30.7213 27.574 30.7727C27.3227 30.8781 27.0472 31.0341 26.8425 31.1191C26.9579 30.9589 27.7685 29.8022 28.2508 28.7242C28.7317 27.6483 28.9114 27.3728 29.0168 26.7954C29.0714 26.5097 29.0568 26.0875 29.0714 25.7094C29.0855 25.3344 29.1322 24.9981 29.1018 24.7732C29.2274 24.9292 29.6976 25.3689 29.7138 26.3517C29.7279 27.3343 29.264 28.6615 28.7715 29.3766C28.8917 29.4111 29.2032 29.4517 29.5233 28.8958C29.8433 28.3399 29.8395 28.1847 29.955 27.9536C29.9692 28.0692 29.965 28.1097 29.965 28.1097C29.965 28.1097 30.4312 27.5444 30.652 26.8332C30.6966 27.1392 30.8283 27.4087 30.6215 27.9699C30.4372 28.4764 30.1961 28.6001 30.1961 28.6001C30.1961 28.6001 30.3157 28.5798 30.4918 28.4744C30.5223 28.5493 30.5163 28.6347 30.5669 28.6649C30.6175 28.6951 30.6865 28.746 30.6966 28.7946C30.7512 28.7135 30.8363 28.6101 30.8628 28.5332C30.8425 28.6935 30.8283 29.3943 30.9029 29.7509C31.059 29.7367 31.219 29.7266 31.3284 29.4449C31.2535 29.7206 31.2535 29.8866 31.3041 30.1217C31.3872 30.065 31.4621 29.9637 31.4621 29.9637L31.4627 29.9641Z" fill="#C0993A"/>
<path fill-rule="evenodd" clip-rule="evenodd" d="M26.2037 18.796C26.2037 18.796 26.0477 18.8608 25.7822 18.8608C25.5513 18.8608 25.6161 18.7717 25.2554 18.7717C24.7003 18.7717 22.761 19.0923 22.4205 19.0877C22.1996 19.0837 23.1661 19.183 23.1661 19.183L25.6364 19.2174L26.1327 19.1774L26.3172 18.802L26.2037 18.796Z" fill="#A88F33"/>
<path fill-rule="evenodd" clip-rule="evenodd" d="M19.7992 23.6246C19.7992 23.6246 19.483 23.8657 19.3493 24.0501C19.2156 24.2346 19.1447 24.356 18.9927 24.506C19.0284 24.5073 19.064 24.5025 19.0981 24.4918C19.0981 24.4918 19.0981 24.5319 19.0738 24.5424C19.0948 24.5401 19.116 24.5425 19.136 24.5494C19.156 24.5563 19.1741 24.5676 19.1892 24.5825C19.1446 24.6068 19.023 24.7285 19.1182 24.8723C19.1892 24.9817 19.3392 24.9917 19.3392 24.9917C19.3392 24.9917 19.3047 25.0911 19.4486 25.081C19.7586 25.0668 20.1051 24.931 20.2651 24.9654C20.4254 25.0055 20.5165 25.0202 20.6299 25.2168C20.7501 25.4113 20.8549 25.4417 20.8549 25.4417C20.8549 25.4417 20.9258 25.2613 20.9096 24.9919C20.9678 24.8467 21 24.6924 21.0049 24.536L20.8995 23.76L20.4396 23.1785L19.8438 23.5088L19.7992 23.6242V23.6246Z" fill="#E3C571"/>
<path fill-rule="evenodd" clip-rule="evenodd" d="M20.365 23.5092C20.365 23.5092 20.4096 23.6146 20.5961 23.6246C20.5758 23.6692 20.5758 23.6753 20.5819 23.7097C20.5859 23.7441 20.5919 23.7947 20.5919 23.7947C20.6125 23.7848 20.631 23.7712 20.6467 23.7547C20.6569 23.7993 20.6366 23.8701 20.6467 23.9208C20.653 23.9517 20.6632 23.9816 20.677 24.0099C20.68 24.003 20.6834 23.9962 20.6872 23.9897C20.6912 23.9796 20.7272 24.0991 20.827 24.1901C20.8269 24.1761 20.8304 24.1623 20.837 24.15C20.8386 24.1754 20.847 24.1999 20.8614 24.2209C20.8539 24.2174 20.8471 24.2126 20.8412 24.2068C20.8412 24.2068 20.8512 24.5273 20.906 24.6931C20.9151 24.6824 20.9233 24.6708 20.9303 24.6586C20.9303 24.6486 20.9263 24.7479 20.9161 24.8189C20.902 24.8898 20.9121 24.9891 20.9121 24.9891C20.9487 24.9603 20.9888 24.9365 21.0315 24.9181C21.0923 24.8937 21.1918 24.8188 21.2525 24.6526C21.2877 24.5585 21.3148 24.4616 21.3336 24.3629C21.3531 24.4006 21.3667 24.4412 21.3736 24.4831C21.3778 24.5337 21.473 24.5074 21.473 24.5074L21.4933 24.2865L21.6135 23.7861L21.7229 23.476L22.2498 22.6556L23.2016 21.9226L24.0325 22.113L24.7335 21.1607L23.5258 20.4353L22.3829 20.5548L21.3457 21.9913L20.515 23.2943L20.365 23.509V23.5092Z" fill="#D8B65B"/>
<path fill-rule="evenodd" clip-rule="evenodd" d="M26.3537 21.4299C26.3537 21.4299 26.2828 21.444 26.0782 21.5501C25.8735 21.6561 25.7317 21.6898 25.6526 21.8458C25.5735 22.0018 25.5675 22.1255 25.5675 22.1255C25.5675 22.1255 25.7074 22.0647 25.7884 22.0444C25.8735 22.0242 25.9688 22.0302 25.9586 22.0647C25.9489 22.0883 25.9353 22.1102 25.9185 22.1295C25.9185 22.1295 26.0788 22.1255 26.0746 22.2045C26.0703 22.2836 26.0442 22.3707 26.0139 22.4092C25.9835 22.4492 25.8579 22.5085 25.8437 22.5551C25.8093 22.6504 25.8579 22.6544 25.8396 22.7313C25.8254 22.8064 25.7587 22.9522 25.5397 23.2075C25.3148 23.4629 25.2191 23.6432 25.2191 23.6432C25.2191 23.6432 25.1097 23.4385 25.053 23.2622C25.0129 23.2824 24.7977 23.4019 24.7977 23.4019L24.2992 21.6656L24.3092 21.5501C24.3092 21.5501 24.3538 21.4954 24.364 21.3941C24.289 21.3698 24.2789 21.3495 24.1795 21.2544C24.0801 21.1593 23.9992 21.0436 23.8332 20.9645C23.8088 20.9199 23.7784 20.8593 23.6568 20.8348C23.5353 20.8104 23.4623 20.7903 23.4623 20.7903C23.4623 20.7903 23.5271 20.7659 23.5576 20.7153C23.4825 20.7254 23.4219 20.7497 23.2577 20.7457C23.0915 20.7416 23.0732 20.7356 22.9821 20.7497C22.891 20.7639 22.7818 20.8045 22.741 20.6647C22.6964 20.6302 22.6012 20.6607 22.5201 20.7801C22.439 20.8995 22.4107 20.9948 22.2547 21.0415C22.2437 21.1102 22.2196 21.1762 22.1838 21.2359C22.1391 21.311 22.0682 21.3859 21.973 21.4973C21.823 21.6736 21.8473 21.9633 21.6082 22.1842C21.3671 22.405 21.6482 21.5722 21.6482 21.5722L22.0332 20.6506L23.1295 19.5788L24.8316 19.4634L24.9978 20.3449L25.8286 20.6306L26.3535 21.4309L26.3537 21.4299Z" fill="#D3AE4D"/>
<path fill-rule="evenodd" clip-rule="evenodd" d="M26.6216 21.6245L25.9063 20.5933L25.4058 20.2082C25.4058 20.2082 25.0492 19.5519 25.0249 19.5316C25.0046 19.5174 24.6682 19.481 24.4534 19.4668L24.4935 19.566C24.5404 19.5813 24.582 19.6094 24.6137 19.6471C24.709 19.7565 24.7697 19.9631 24.553 20.184C24.638 20.2144 24.6732 20.2241 24.7474 20.2144C24.6725 20.3036 24.5023 20.494 24.4922 20.6602C24.482 20.7959 24.5671 20.8364 24.5671 20.8364C24.5671 20.8364 24.4374 20.9864 24.4314 21.2371C24.4926 21.168 24.5597 21.1043 24.6318 21.0466C24.7818 20.9264 24.9884 20.7912 25.1283 20.7061C25.1264 20.7419 25.1312 20.7776 25.1424 20.8115C25.1424 20.8115 25.4037 20.5968 25.6233 20.692C25.7225 20.7366 25.6779 20.8764 25.6779 20.8764C25.6779 20.8764 25.8138 20.8258 25.909 20.9211C26.0043 21.0163 26.14 21.2614 26.2089 21.3567C26.2392 21.4014 26.3183 21.4864 26.3992 21.618C26.5099 21.8024 26.6022 21.9972 26.6749 22.1995C26.679 22.1185 26.6953 22.0051 26.8352 22.0051L26.6225 21.6241L26.6216 21.6245Z" fill="#CAA13E"/>
<path fill-rule="evenodd" clip-rule="evenodd" d="M15.8968 24.5547C15.8968 24.5547 15.8461 24.429 15.8968 24.1839C15.9474 23.9388 16.0265 23.8233 16.0528 23.4626C16.0791 23.102 16.3142 22.6522 16.3142 22.6522L16.9646 22.3564L17.4246 22.482L17.5603 23.098L16.9787 23.4186C16.9787 23.4186 16.9484 23.5543 16.7842 23.6636C16.6201 23.773 16.3931 23.8581 16.3385 23.9696C16.3058 24.0379 16.282 24.1101 16.2676 24.1844C16.2676 24.1844 16.1014 24.15 16.0022 24.2593C15.8968 24.3709 15.9008 24.4701 15.8968 24.5552V24.5547Z" fill="#F4EFC8"/>
<path fill-rule="evenodd" clip-rule="evenodd" d="M17.212 24.391C17.212 24.391 17.1572 24.4254 17.1167 24.5112C17.0766 24.4464 16.9809 24.0613 16.9769 23.7149C16.9729 23.3684 16.9522 23.2825 17.0323 23.1631C17.1124 23.0437 17.4267 22.9179 17.3821 22.7028C17.3375 22.4982 17.151 22.4131 16.9221 22.4719C16.7618 22.512 16.6425 22.8528 16.4764 23.023C16.3507 23.1527 16.2008 23.1324 16.1603 23.2033C16.1055 23.2985 16.1562 23.3938 16.14 23.4545C16.1359 23.4748 16.0852 23.5842 15.994 23.7159C15.8097 23.9813 15.4976 24.3562 15.457 24.6926C15.4712 24.5021 15.4612 24.4981 15.5118 24.2873L15.4813 24.2367L15.6817 23.5802L15.8114 23.0393L16.1013 22.1334L16.6118 21.2076L17.1083 20.6523L17.625 20.6868L17.6858 21.4628L17.9816 22.9197L18.6037 23.6856L17.6067 24.3565L17.2116 24.391H17.212Z" fill="#EBCC73"/>
<path fill-rule="evenodd" clip-rule="evenodd" d="M17.5168 24.6662C17.5168 24.6662 17.4318 24.6865 17.4013 24.6703C17.3708 24.6542 17.3407 24.6359 17.3507 24.6156C17.3607 24.5953 17.4155 24.5609 17.4155 24.5446C17.4166 24.5299 17.4119 24.5153 17.4025 24.504C17.393 24.4926 17.3795 24.4854 17.3648 24.4839C17.3182 24.4779 17.3041 24.5082 17.3041 24.5082C17.3041 24.5082 17.2594 24.4739 17.2231 24.4681C17.2446 24.4655 17.2662 24.4641 17.2879 24.464C17.2319 24.4386 17.1725 24.4216 17.1116 24.4133C17.1622 24.383 17.2616 24.2938 17.3264 24.2938C17.3911 24.2938 17.4318 24.2838 17.4216 24.2493C17.4115 24.2149 17.3608 24.1642 17.3062 24.1439C17.3264 24.1196 17.3407 24.0832 17.292 23.9837C17.2413 23.8844 17.2616 23.8175 17.2779 23.7933C17.292 23.7629 17.3427 23.7083 17.367 23.6738C17.3913 23.6393 17.4116 23.5927 17.4521 23.5684C17.4724 23.5543 17.5371 23.5283 17.6021 23.5036C17.673 23.4793 17.7318 23.4489 17.7722 23.4793C17.8169 23.5096 17.7966 23.5502 17.7966 23.5502C17.7966 23.5502 17.9364 23.4995 18.062 23.5644C18.1877 23.625 18.4937 23.6636 18.4937 23.6636L18.6034 23.8846L17.8779 24.5066L17.578 24.6566L17.5172 24.6666L17.5168 24.6662Z" fill="#E5C66B"/>
<path fill-rule="evenodd" clip-rule="evenodd" d="M18.5298 23.6487C18.5298 23.6487 18.3049 23.7987 18.2543 23.8533C18.2846 23.8575 18.3352 23.8778 18.3149 23.9081C18.2906 23.9384 18.1447 24.0438 18.0636 24.1432C17.9786 24.2424 17.8975 24.3681 17.8692 24.4289C17.8388 24.4835 17.6078 24.6437 17.5288 24.6638C17.695 24.6638 18.0293 24.4592 18.1549 24.4592C18.1509 24.52 18.1893 24.5889 18.2603 24.5949C18.3312 24.6009 18.5358 24.6395 18.8114 24.4694C19.087 24.3032 18.9959 24.1795 19.1113 24.0986C19.3322 23.9526 19.4213 23.8229 19.5429 23.742C19.6644 23.661 19.7273 23.6426 19.7273 23.6426C19.7273 23.6426 19.7314 23.5818 19.7674 23.588C19.7773 23.5891 19.7867 23.5929 19.7945 23.599C19.8024 23.605 19.8084 23.6132 19.812 23.6224C19.812 23.6224 20.0228 23.4724 20.2929 23.432C20.2866 23.4291 20.2816 23.4241 20.2787 23.4178C20.2787 23.4178 20.2989 23.4076 20.3031 23.3975C20.3031 23.3975 20.3172 23.3772 20.3274 23.3873C20.3375 23.3975 20.3517 23.4724 20.372 23.5029C20.4166 23.4826 20.5017 23.2921 20.5017 23.2921L20.7065 22.7066V22.1716L20.5462 22.2021L19.344 22.7126L18.6144 23.4684L18.5293 23.6487H18.5298Z" fill="#E6BD62"/>
<path fill-rule="evenodd" clip-rule="evenodd" d="M21.9914 21.0253C22.0565 21.0095 22.1188 20.9842 22.1764 20.9502C22.1521 21.0151 22.1521 21.086 22.0467 21.24C21.9413 21.394 21.9373 21.4164 21.8523 21.5764C21.7672 21.7425 21.757 21.9816 21.6759 22.0869C21.7123 22.0692 21.7513 22.0576 21.7913 22.0525C21.7913 22.0525 21.7104 22.1234 21.6759 22.1984C21.6415 22.2733 21.5807 22.4293 21.4308 22.5247C21.2809 22.62 21.0903 22.6807 20.8857 22.9056C20.6809 23.1264 20.4703 23.4061 20.3647 23.5066C20.4195 23.4114 20.4944 23.221 20.5148 23.0954C20.5351 22.9698 20.5106 22.8197 20.5451 22.6537C20.5795 22.4877 20.5795 22.368 20.7454 22.0782C20.9113 21.7883 21.1953 20.7814 21.1953 20.7814L21.8072 20.5869L21.9917 21.0246L21.9914 21.0253Z" fill="#B6933F"/>
<path fill-rule="evenodd" clip-rule="evenodd" d="M21.5462 20.6543C21.5462 20.6543 21.3619 20.9197 21.3112 21.1547C21.2606 21.3898 21.3071 21.3695 21.2768 21.4851C21.2586 21.5555 21.2586 21.6294 21.2768 21.6998C21.3406 21.597 21.428 21.5108 21.5318 21.4485C21.7061 21.3432 21.848 21.2681 21.9325 21.1791C22.0176 21.0838 22.0885 20.9278 22.2729 20.8083C22.1979 20.7981 22.0925 20.7637 22.0725 20.7682C22.1476 20.6831 22.3724 20.5534 22.5993 20.3974C22.8243 20.2372 22.8101 20.1725 23.1749 20.0125C23.0554 20.0328 22.9986 20.0023 22.8992 20.0125C22.9393 19.9274 23.0795 19.8868 23.2198 19.7471C23.36 19.6074 23.1307 19.4006 23.1307 19.4006L22.0621 20.047L21.5454 20.6548L21.5462 20.6543Z" fill="#C49937"/>
<path fill-rule="evenodd" clip-rule="evenodd" d="M18.6465 20.172L18.6708 19.9775L18.9768 19.4872L19.297 18.6261V17.4488L19.2727 16.768L19.3233 16.3222L19.3618 16.1805L19.4024 16.1257L19.6637 16.2614L20.0245 16.7518L20.0589 17.6981L19.7083 19.1913L18.7073 20.2835L18.6465 20.172Z" fill="#DFC068"/>
<path fill-rule="evenodd" clip-rule="evenodd" d="M19.4416 16.0714C19.4416 16.0714 19.2813 16.0756 19.2472 16.7422C19.213 17.4088 19.1964 17.7593 19.1721 18.0896C19.1478 18.4199 19.0911 18.6204 19.0627 18.815C19.0342 19.0096 19.0181 19.2749 18.927 19.437C18.8869 19.5119 18.8013 19.747 18.6006 19.9233C18.3757 20.1178 18.0396 20.2536 17.9887 20.2638C17.8995 20.2839 17.4476 20.3286 17.2633 20.4299C17.1985 20.4644 17.087 20.5049 16.9634 20.6204C16.7181 20.8412 16.392 21.2363 16.1569 21.7124C15.7962 22.4237 15.4355 24.4315 15.4355 24.4315L15.5166 24.2958C15.5166 24.2958 15.5268 24.1155 15.7071 23.7994C15.8834 23.4834 15.8328 23.1287 16.0779 22.5229C16.1732 22.292 16.2927 21.9921 16.4386 21.7367C16.6697 21.3213 16.9492 20.9647 17.2309 20.7703C17.6909 20.4542 18.1975 20.3853 18.1975 20.3853L18.7426 20.0247C18.7426 20.0247 18.8379 19.8404 18.9636 19.6296C19.1398 19.3339 19.3643 19.0036 19.4133 18.5234C19.4884 17.8122 19.3079 17.3462 19.3181 16.9248C19.3282 16.5034 19.3322 16.1934 19.4175 16.1183C19.5027 16.0432 19.4418 16.0717 19.4418 16.0717L19.4416 16.0714Z" fill="#A88F33"/>
<path fill-rule="evenodd" clip-rule="evenodd" d="M19.4442 19.2522C19.4442 19.2522 19.6846 18.6605 19.7947 18.1358C19.815 18.0304 19.8555 17.9251 19.8656 17.8401C19.9163 17.3436 19.9304 17.139 19.8656 16.8674C19.815 16.6671 19.6205 16.4865 19.5191 16.3465C19.4199 16.2005 19.3733 16.1462 19.3936 16.1155C19.4139 16.0847 19.4928 16.0345 19.5698 16.0405C19.6516 16.0429 19.732 16.0619 19.8062 16.0963C19.8804 16.1308 19.9469 16.18 20.0015 16.2409C20.1575 16.4212 20.2811 17.0332 20.2811 17.0332L20.411 17.8407L20.7414 18.8578L19.4445 19.253L19.4442 19.2522Z" fill="#C99E3D"/>
<path fill-rule="evenodd" clip-rule="evenodd" d="M21.71 18.6363C21.71 18.6363 21.6654 18.6565 21.5845 18.6363C21.5879 18.6694 21.5822 18.7028 21.5679 18.7328C21.5536 18.7628 21.5312 18.7883 21.5034 18.8065C21.4183 18.772 20.6218 18.8409 20.6218 18.8409C20.6218 18.8409 20.251 18.776 20.1354 18.2857C20.0545 17.9594 20.1962 17.5097 20.1496 17.2138C20.0786 16.7782 19.9794 16.6929 19.9692 16.5574C19.9591 16.4218 19.9489 16.3872 19.9489 16.3021C19.9043 16.292 19.878 16.2778 19.8335 16.2778C19.8234 16.2378 19.8436 16.2028 19.7991 16.1318C19.8234 16.142 19.9896 16.1623 20.184 16.3466C20.3443 16.4966 20.3443 16.5512 20.3685 16.5817C20.3988 16.612 20.6441 16.8221 20.7495 17.0315C20.8549 17.241 21.0595 17.9088 21.1061 18.0182C21.1203 18.0628 21.1507 18.1074 21.2263 18.2086C21.3439 18.3546 21.5161 18.596 21.7106 18.636L21.71 18.6363Z" fill="#B58634"/>
<path fill-rule="evenodd" clip-rule="evenodd" d="M20.3862 16.5916C20.509 16.7898 20.6193 16.9956 20.7164 17.2076C20.836 17.477 20.9069 17.6979 21.0569 17.8782C20.9758 17.6432 20.832 17.1812 20.7469 17.0171C20.6516 16.8435 20.4572 16.6565 20.3862 16.5917V16.5916Z" fill="#A88F33"/>
<path fill-rule="evenodd" clip-rule="evenodd" d="M19.0044 19.9232C19.0044 19.9232 18.7998 19.9739 18.4188 20.1745C18.2931 20.2392 18.1737 20.2939 18.0582 20.3446C17.758 20.4803 17.4361 20.6057 17.1807 20.6749C17.201 20.6992 17.211 20.7093 17.211 20.7093C17.211 20.7093 17.211 20.8086 17.2658 20.8653C17.2355 20.8957 16.8301 21.1713 16.9498 22.0931C17.0307 22.0628 17.126 22.0222 17.1401 22.0222C17.1646 22.0263 17.1706 22.0931 17.2009 22.0931C17.2312 22.0931 17.3306 22.0531 17.436 21.9168C17.432 21.9716 17.3712 22.5227 17.6974 22.8935C17.7582 22.8225 17.9122 22.5875 17.9122 22.5875L17.9162 22.5125C17.9162 22.5125 17.9304 22.2511 18.0156 22.0121C18.1008 21.773 18.2668 21.5967 18.2668 21.5967L19.1339 20.3587L19.0042 19.9231L19.0044 19.9232Z" fill="#E6C367"/>
<path fill-rule="evenodd" clip-rule="evenodd" d="M18.2001 21.7406C18.1604 21.7687 18.1167 21.7905 18.0704 21.8054C18.0563 21.7548 18.036 21.5805 18.1555 21.4103C18.2954 21.2056 18.6013 20.9402 18.6864 20.7292C18.7411 20.5933 18.7168 20.253 19.2032 19.8173C19.6895 19.3816 19.8799 19.2318 19.8799 19.2318L20.6661 18.8367L21.6327 19.2176L21.1525 21.0995L20.7796 21.9811L19.2969 21.7015L18.2 21.7406H18.2001Z" fill="#DCBA5A"/>
<path fill-rule="evenodd" clip-rule="evenodd" d="M18.7666 21.2299L18.9511 20.999V20.8348C18.9511 20.8348 19.1557 20.7801 19.3765 20.5551C19.5973 20.3302 19.9033 19.8987 20.1729 19.925C20.4425 19.9554 20.4688 20.5105 20.4789 20.6667C20.4891 20.8228 20.5235 21.1772 20.5782 21.3677C20.6389 21.5582 19.9216 22.2795 19.9216 22.2795L19.4345 22.6502L18.7666 21.2299Z" fill="#E9CE77"/>
<path fill-rule="evenodd" clip-rule="evenodd" d="M19.3396 23.1524C19.3396 23.1524 19.4896 22.9173 19.3797 22.8667C19.4445 22.7209 19.564 22.5669 19.564 22.5669C19.564 22.5669 19.6491 22.3562 19.9247 22.0969C20.2002 21.8375 20.3705 21.6652 20.4152 21.491C20.4427 21.3775 20.4576 21.2613 20.4598 21.1445C20.4896 21.1689 20.5214 21.1905 20.555 21.2093C20.5996 21.2296 20.8103 21.4038 20.78 21.7544C20.7496 22.105 20.6197 22.2509 20.6197 22.2509C20.6197 22.2509 20.4941 22.3764 20.405 22.4413C20.3096 22.5061 20.2753 22.581 20.1151 22.5872C20.1316 22.5741 20.1501 22.5638 20.1699 22.5567C20.1699 22.5567 20.0037 22.5365 19.9145 22.6175C19.8253 22.6984 19.6356 22.9478 19.5404 23.0229C19.4451 23.0836 19.34 23.1525 19.34 23.1525L19.3396 23.1524Z" fill="#CDAE50"/>
<path fill-rule="evenodd" clip-rule="evenodd" d="M26.0729 19.2115C25.8335 19.1242 25.5819 19.075 25.3273 19.0656C24.9017 19.0514 24.2797 19.0757 23.6698 19.0798C23.0132 19.0838 22.4175 18.8548 21.5908 18.8144C21.4551 18.7333 21.1099 18.3787 20.0325 19.1304C20.0973 19.1264 20.8147 18.9642 21.0638 19.2764C21.3151 19.5864 21.2441 20.1131 21.2098 20.2387C21.1449 20.5184 20.9341 20.9256 20.8492 21.2113C20.7642 21.497 20.7842 21.6471 20.7235 21.8475C20.6627 22.0478 20.529 22.1473 20.6079 22.3783C20.7133 22.3135 20.7682 22.3135 20.9443 21.9184C21.1203 21.5233 21.0841 21.2416 21.376 20.9073C21.6617 20.571 22.1374 20.111 22.3182 19.9955C22.4991 19.8799 23.9352 19.1344 25.4388 19.8456C25.8015 19.8072 26.0731 19.2113 26.0731 19.2113L26.0729 19.2115Z" fill="#D2A83E"/>
<path fill-rule="evenodd" clip-rule="evenodd" d="M20.635 18.9357C20.6336 18.9204 20.6302 18.9055 20.625 18.8911C20.611 18.8614 20.5925 18.8341 20.5703 18.81C20.5703 18.81 20.2136 18.7452 20.0333 18.7654C19.7171 18.7998 19.4314 19.1909 19.2977 19.3915C19.164 19.5921 18.9978 19.902 18.8175 20.0622C18.8194 20.0465 18.8158 20.0308 18.8073 20.0175C18.8073 20.0175 18.8175 20.0317 18.7973 20.052C18.7771 20.0723 18.777 20.0823 18.7871 20.0921L18.8176 20.1224C18.8276 20.1224 19.1073 19.9967 19.4883 19.6416C19.8936 19.2708 20.2036 19.0806 20.3658 19.0154C20.4522 18.9787 20.5426 18.9519 20.6352 18.9357H20.635Z" fill="#C29637"/>
<path fill-rule="evenodd" clip-rule="evenodd" d="M27.5623 17.4124C27.5623 17.4124 27.4974 17.4933 27.4163 17.5825C27.236 17.773 27.0009 17.9876 26.8003 18.2085C26.6099 18.4193 26.3952 18.5835 26.1539 18.859C25.9127 19.1345 25.633 19.4404 25.5622 19.5296C25.4974 19.6188 25.4468 19.7647 25.4468 19.8396C25.4123 19.8153 25.3718 19.789 25.3718 19.789C25.3889 19.8208 25.4092 19.8507 25.4326 19.8782C25.4832 19.9492 25.5622 20.0385 25.6028 20.093C25.6526 20.1624 25.6884 20.2408 25.708 20.3239C25.7323 20.3279 25.8884 20.3584 26.083 20.0382C26.2776 19.7181 26.5327 19.3676 26.5327 19.3676L26.938 18.7658L27.1934 18.2553L27.514 17.6839L27.5627 17.4124H27.5623Z" fill="#AC8132"/>
<path fill-rule="evenodd" clip-rule="evenodd" d="M27.9704 17.0034C27.9704 17.0034 27.7251 17.2038 27.6299 17.324C27.5347 17.4442 27.3093 17.7597 27.3093 17.7597L27.3904 17.7495L27.8018 17.3849L27.9621 17.0992L27.9703 17.004L27.9704 17.0034Z" fill="#A88F33"/>
<path fill-rule="evenodd" clip-rule="evenodd" d="M27.9044 33.1047C27.9044 33.1047 27.9004 32.9385 27.9936 32.8393C28.0889 32.7399 28.33 32.5941 28.5651 32.047C28.8002 31.4999 28.8263 31.3764 28.8263 31.3764C28.8263 31.3764 28.4049 31.737 28.1451 31.8221C28.2059 31.6964 28.2403 31.6073 28.2708 31.5424C28.2363 31.5121 28.0905 31.4776 28.0763 31.4614C28.1573 31.3804 28.2019 31.1817 28.366 31.0501C28.5768 30.8898 28.9618 30.6144 29.261 30.3689C29.5602 30.1234 30.1485 29.5524 30.2235 29.3862C30.2682 29.451 30.2782 29.4915 30.2782 29.4915C30.2782 29.4915 29.9824 29.8765 29.8284 30.1216C29.6926 30.3324 29.7027 30.4519 29.7027 30.4519L29.9824 30.3317C29.9824 30.3317 30.0634 30.6316 29.6967 31.0876C29.857 31.0268 29.9217 31.0633 30.0128 31.0125C29.8628 31.1079 29.6561 31.2376 29.4616 31.5941C29.2711 31.9507 29.0117 32.3661 28.5741 32.6253C28.1486 32.8989 27.9033 33.1035 27.9033 33.1035L27.9044 33.1047Z" fill="#A67A2E"/>
<path fill-rule="evenodd" clip-rule="evenodd" d="M26.8027 19.4223C26.8027 19.4223 26.6366 19.7686 26.6123 20.0382C26.6083 20.1031 26.592 20.1537 26.592 20.2286C26.588 20.4697 26.6061 20.7392 26.5519 20.8648C26.5316 20.8142 26.5214 20.7797 26.5011 20.7596C26.4708 20.8446 26.416 21.11 26.3714 21.2093C26.3513 21.1445 26.3066 20.9196 26.3108 20.6542C26.3149 20.3888 26.3208 20.338 26.3208 20.2834C26.3108 20.3643 26.256 20.4739 26.2357 20.5386C26.2054 20.484 26.1709 20.4131 26.1303 20.3543C26.106 20.3944 26.0757 20.4536 26.0494 20.484C26.0452 20.4597 26.0352 20.3948 26.0291 20.3037C26.0251 20.1983 26.0189 20.0626 26.0251 20.0342C26.0351 19.9795 26.1203 19.7648 26.3006 19.5682C26.5154 19.3331 26.7364 18.8814 26.8011 18.7415C26.8659 18.6017 27.1415 18.0203 27.1415 18.0203H27.3523L27.0463 18.7172C27.0463 18.7172 26.8619 19.0981 26.7667 19.2381C26.6714 19.3781 26.4708 19.7792 26.3816 19.9352C26.4464 19.8501 26.5011 19.8055 26.566 19.7244C26.6288 19.6677 26.803 19.4226 26.803 19.4226L26.8027 19.4223Z" fill="#8C6228"/>
<path fill-rule="evenodd" clip-rule="evenodd" d="M27.9787 16.9771C27.9443 17.083 27.8899 17.1814 27.8184 17.2669C27.6927 17.4169 27.4232 17.6174 27.2916 17.7774C27.1714 17.9334 26.9309 18.3589 27.0402 18.8634C27.0803 18.754 27.1558 18.5372 27.3564 18.292C27.557 18.0468 27.7718 17.7652 27.8773 17.5464C27.9826 17.3255 27.9968 17.1514 27.9968 17.1514L28.0368 17.1007L28.0125 16.9852L27.9781 16.9771H27.9787Z" fill="#CBA94C"/>
<path fill-rule="evenodd" clip-rule="evenodd" d="M32.0836 30.4158C32.0836 30.4158 32.0025 30.195 31.9782 29.9944C31.9539 29.7938 32.0183 29.754 31.9438 29.5244C31.8991 29.3845 31.8182 29.4041 31.7979 29.3845C31.7776 29.3649 31.7634 29.1536 31.7674 29.038C31.7714 28.9225 31.7634 28.7726 31.7431 28.7077C31.7128 28.6834 31.6925 28.6631 31.6479 28.5133C31.5973 28.3633 31.5729 28.2883 31.5486 28.2439C31.5243 28.1994 31.4533 28.1588 31.4533 28.1142C31.4533 28.025 31.5343 27.9785 31.5343 27.9539C31.5303 27.9033 31.4696 27.9439 31.4533 27.9296C31.4331 27.9053 31.504 27.7594 31.4777 27.7391C31.4676 27.7291 31.3966 27.8142 31.3783 27.7899C31.358 27.7654 31.3337 27.5243 31.2972 27.3643C31.2629 27.2083 31.2263 27.0949 31.2223 27.0483C31.2183 27.0037 30.9426 26.2175 30.8758 26.0271C30.822 25.8661 30.7767 25.7025 30.7401 25.5368C30.7198 25.4415 30.7056 25.2469 30.6955 25.2672C30.6853 25.2875 30.6915 25.3868 30.6752 25.3828C30.661 25.3786 30.6104 25.0323 30.5942 24.9775C30.5801 24.9228 30.4949 24.7371 30.474 24.6027C30.4537 24.4669 30.4092 24.1123 30.3788 23.8712C30.3483 23.6301 30.3342 23.5309 30.3342 23.4705C30.3391 23.3229 30.331 23.175 30.3099 23.0288C30.2698 22.7734 30.1896 22.4634 30.1194 22.2833C29.9837 21.9428 29.6229 21.0715 29.5583 20.8548C29.5583 20.8 29.6293 20.8305 29.6293 20.8305C29.6293 20.8305 29.8055 21.2722 29.9352 21.6125C30.0609 21.9529 30.1804 22.2528 30.2109 22.2833C30.2352 22.3136 30.4257 22.6479 30.5108 23.195C30.5958 23.7421 30.6262 24.2465 30.6769 24.5828C30.7012 24.7431 30.7215 24.9132 30.7722 25.0833C30.8268 25.2678 30.9119 25.4582 31.0234 25.7499C31.1187 25.9952 31.1896 26.1998 31.2281 26.3761C31.2727 26.601 31.2727 26.7712 31.299 26.8827C31.3234 26.9779 31.3598 27.1683 31.445 27.4437C31.5302 27.7191 31.6556 28.0738 31.7407 28.2946C31.907 28.7363 31.9812 29.1051 32.0063 29.3017C32.0284 29.5043 32.1035 30.2054 32.0832 30.416L32.0836 30.4158Z" fill="#A88F33"/>
<path fill-rule="evenodd" clip-rule="evenodd" d="M27.9829 16.9519L27.9727 16.9762C27.9727 16.9762 28.003 16.9864 27.997 17.027C27.9975 17.0825 27.9941 17.1381 27.9869 17.1931C27.9769 17.2641 27.9566 17.3187 27.9525 17.3633C27.9525 17.4585 27.9667 17.5679 27.8323 17.8395C27.7923 17.9144 27.7675 17.9792 27.7472 18.0238C27.6966 18.1332 27.6865 18.1495 27.6418 18.2001C27.7128 18.16 27.9682 17.9997 28.0977 18.0238C28.0086 18.0744 27.8728 18.1738 27.7877 18.3035C27.808 18.3075 27.8931 18.3238 28.0281 18.3035C28.2531 18.269 28.5043 18.1879 28.7252 18.2041C28.9664 18.2183 28.8711 17.9144 28.8711 17.9144L28.5928 17.3025L28.066 16.9319L27.9829 16.9521V16.9519Z" fill="#BE9C44"/>
<path fill-rule="evenodd" clip-rule="evenodd" d="M29.3604 21.5354C29.3604 21.5354 29.1253 21.3004 29.03 20.4936C28.9348 19.6832 28.9551 18.4902 28.9551 18.4902L28.7646 18.0241C28.7646 18.0241 28.7245 17.7141 28.6248 17.5987C28.525 17.4833 28.329 17.2887 28.2398 17.1935C28.1506 17.0983 28.0493 16.9686 27.9885 16.9483C28.0188 16.8977 28.1547 16.612 28.6754 16.608C29.1961 16.6039 29.3566 16.8936 29.411 16.999C29.4653 17.1044 29.7109 17.56 29.802 18.4282C29.887 19.2953 29.8912 19.3602 29.877 19.66C29.8669 19.8262 29.8121 20.2111 29.7167 20.6224C29.6296 20.971 29.5344 21.3601 29.3601 21.5362L29.3604 21.5354Z" fill="#A17C34"/>
<path fill-rule="evenodd" clip-rule="evenodd" d="M28.6263 22.2266C28.7046 22.2323 28.7829 22.2146 28.8512 22.1759C28.9261 22.1719 29.1977 22.2063 29.4063 21.9409C29.4205 22.0016 29.4571 22.1658 29.3617 22.3117C29.4125 22.2609 29.4874 22.2408 29.4976 22.2266C29.5016 22.3015 29.5725 22.5325 29.2726 23.0937C29.3536 23.0046 29.4488 23.0086 29.5339 22.9985C29.5381 23.1039 29.5947 23.4584 29.4448 23.6489C29.3456 23.7786 29.1834 23.738 29.1834 23.738C29.1858 23.7097 29.1858 23.6813 29.1834 23.653C29.1794 23.5982 29.1591 23.5436 29.1734 23.5071C29.095 23.4713 29.0237 23.4219 28.9626 23.3611C28.7863 23.195 28.5573 22.9114 28.5412 22.7006C28.5209 22.4656 28.7317 22.4149 28.7317 22.4149C28.714 22.3991 28.6989 22.3807 28.687 22.3602C28.6769 22.3259 28.6667 22.2711 28.6263 22.2266Z" fill="#8C6228"/>
<path fill-rule="evenodd" clip-rule="evenodd" d="M27.0633 19.6775C27.0633 19.6775 27.0532 19.6634 26.9985 19.7282C27.0087 19.6634 27.0188 19.6025 27.0228 19.5437C27.0487 19.4893 27.0822 19.4388 27.1222 19.3938C27.0918 19.4545 27.0715 19.5092 27.0715 19.5092C27.0715 19.5092 27.1465 19.3694 27.2559 19.2843C27.3309 19.2235 27.4261 19.1952 27.4666 19.1385C27.5112 19.0777 27.501 19.0675 27.5112 19.0574C27.5112 19.0574 27.6106 18.9926 27.7626 18.802C27.7828 18.7777 27.8132 18.7514 27.8335 18.7271C27.8679 18.7129 27.9489 18.6765 28.0442 18.6277C28.1436 18.5731 28.255 18.4982 28.3239 18.4674C28.4596 18.4067 28.6036 18.4128 28.6704 18.3174C28.721 18.3033 28.7756 18.1513 28.7656 18.0217C28.8406 18.052 29.2255 18.2911 29.3574 18.8139C29.4526 19.1847 29.2823 19.7561 29.2114 20.0318C29.1404 20.3074 29.1304 20.5119 29.031 20.6375C28.9053 20.8038 28.5002 21.0382 28.4008 21.1542C28.3157 21.2495 28.0605 21.4905 28.0705 21.6647C28.0806 21.7944 28.2407 21.8651 28.2753 21.8896C28.3099 21.9142 28.3096 21.9444 28.3745 21.9297C28.4394 21.915 28.4636 21.8851 28.4901 21.8851C28.5204 21.8891 28.5204 21.8953 28.5345 21.8953C28.5448 21.8949 28.555 21.8936 28.565 21.8911C28.565 21.8911 28.5548 22.0756 28.1232 22.1315C28.0928 22.1357 28.0625 22.1457 28.0239 22.1518C28.0746 22.1275 28.1049 22.1275 28.1597 22.0526C28.0989 22.0424 27.9246 22.0323 27.88 22.0181C27.8942 21.9938 27.9408 21.9289 27.9793 21.8986C28.0137 21.8683 27.9752 21.8585 27.9449 21.8743C27.8927 21.9098 27.8426 21.9483 27.7949 21.9897C27.7443 22.0343 27.6997 22.0951 27.6186 22.15C27.5943 22.0689 27.5983 21.9149 27.6937 21.8035C27.6692 21.8075 27.6226 21.8784 27.5781 21.8643C27.5701 21.7904 27.5749 21.7156 27.5923 21.6433C27.6166 21.5521 27.7483 21.3921 27.7483 21.3921L28.3845 20.2553L28.5202 19.3942L27.0633 19.6773V19.6775Z" fill="#92723A"/>
<path fill-rule="evenodd" clip-rule="evenodd" d="M27.0262 19.7264C27.0262 19.7264 26.9918 19.7507 27.0607 19.7973C27.0505 19.8115 27.0262 19.8621 26.9958 19.8966C26.9615 19.9367 26.9249 19.9615 26.9107 19.996C26.8804 20.0669 26.8561 20.1155 26.8561 20.1459C26.8561 20.1764 26.8459 20.3709 26.7608 20.4964C26.7304 20.541 26.6959 20.616 26.6716 20.6666C26.621 20.7557 26.5764 20.8269 26.5662 20.8669C26.546 20.9379 26.5319 21.1323 26.5319 21.1323C26.5319 21.1323 26.5765 21.0776 26.5926 21.0574C26.5682 21.108 26.5419 21.1626 26.5034 21.2033C26.5277 21.1829 26.5987 21.1323 26.7182 21.0269C26.8844 20.8872 27.1438 20.6522 27.46 20.466C27.3646 20.5004 27.2836 20.5004 27.2189 20.5106C27.2695 20.46 27.7254 19.925 27.9645 19.8744C27.979 19.856 27.9862 19.8329 27.9848 19.8095L27.78 19.7893L27.3646 19.8784L27.3039 19.5579L27.0262 19.726V19.7264Z" fill="#B18E3E"/>
<path fill-rule="evenodd" clip-rule="evenodd" d="M27.6918 21.5504C27.6918 21.5504 27.6371 21.605 27.5864 21.7409C27.5474 21.7002 27.514 21.6545 27.487 21.605C27.4121 21.4795 27.2967 21.3193 27.0271 21.4105C27.0231 21.3255 27.017 21.2809 27.0271 21.2201C27.0718 21.2101 27.2075 21.1007 27.3432 20.9405C27.4386 20.8311 27.5277 20.7055 27.5884 20.5454C27.6285 20.515 27.6978 20.4644 27.7888 20.4056C27.9185 20.3165 28.0745 20.1948 28.0988 20.0591C28.038 20.0834 27.9083 20.1442 27.7137 20.1342C27.7888 20.0997 27.9042 20.0633 27.89 19.9133C27.9205 19.893 27.9448 19.8788 27.9448 19.8788C27.922 19.8712 27.8979 19.8678 27.8739 19.8687C27.8697 19.8545 27.8637 19.8343 27.8293 19.8444C27.7948 19.8544 27.7892 19.8545 27.7847 19.8687C27.7705 19.8728 27.7239 19.8687 27.6894 19.8931C27.6549 19.9176 27.5597 19.9984 27.5232 20.0125C27.5374 19.9882 27.5576 19.9519 27.5576 19.9519C27.5576 19.9519 27.4583 19.9619 27.3874 19.992C27.2577 20.0366 27.1078 20.1176 26.9558 20.1966C26.97 20.1723 26.9761 20.1565 26.9861 20.152C26.9962 20.1474 27.0206 20.1419 27.0206 20.1378C27.0206 20.1337 27.0106 20.0977 27.0166 20.0832C27.062 19.9869 27.1157 19.8947 27.1769 19.8076C27.2478 19.7123 27.262 19.5766 27.262 19.5766L27.572 19.4206L28.4433 19.2202L29.0087 19.2547L28.9378 19.6458L28.6039 20.3285L28.3182 20.9506L27.9918 21.3316L27.692 21.5504H27.6918Z" fill="#543E26"/>
<path fill-rule="evenodd" clip-rule="evenodd" d="M29.1008 19.8575C29.1008 19.8575 28.7603 20.2789 28.6651 20.3438C28.7258 20.2141 29.1008 19.4421 29.2365 19.2274C29.2062 19.203 29.1656 19.203 29.2608 18.8267C29.1799 19.017 29.1514 19.1164 29.0846 19.167C29.0178 19.2176 29.0096 19.2014 28.9644 19.2014C28.9729 19.186 28.9764 19.1683 28.9744 19.1508C28.9744 19.1508 28.6887 19.1164 28.4935 19.1164C28.2984 19.1164 27.9121 19.2217 27.6972 19.3068C27.527 19.3777 27.4317 19.3777 27.371 19.4222C27.3102 19.4728 27.2757 19.5276 27.2453 19.5418C27.221 19.5559 27.1056 19.5924 27.0791 19.6309C27.0548 19.6709 27.0143 19.7159 27.0143 19.7261C27.0143 19.7362 27.0042 19.7505 27.0346 19.7402C27.0446 19.7362 27.1197 19.6956 27.2048 19.645C27.3202 19.5802 27.4601 19.5053 27.5614 19.4607C27.8512 19.3452 27.9424 19.3655 28.072 19.3412C28.2077 19.3168 28.4023 19.2601 28.5319 19.2601C28.6616 19.2561 28.9068 19.2601 28.9636 19.2702C28.9393 19.2905 28.919 19.3148 28.9291 19.3999C28.9291 19.4242 28.9088 19.4505 28.8891 19.5093C28.8284 19.6755 28.7129 19.951 28.6486 20.0909C28.5595 20.2812 28.4583 20.4413 28.4082 20.5406C28.3581 20.6398 28.2479 20.9012 28.1388 21.041C28.0296 21.1809 27.9726 21.266 27.9384 21.2964C27.9042 21.3269 27.6587 21.507 27.677 21.572C27.7216 21.5578 28.0033 21.4517 28.2078 21.2215C28.4123 20.9912 28.4531 20.8507 28.6131 20.725C28.7731 20.5993 28.8988 20.3887 28.9738 20.2145C29.0365 20.0524 29.0224 20.0018 29.1013 19.8579L29.1008 19.8575Z" fill="#806031"/>
<path fill-rule="evenodd" clip-rule="evenodd" d="M21.756 23.0029C21.756 23.0029 21.7114 23.1872 21.61 23.2785C21.5108 23.3677 21.3345 23.4446 21.3143 23.5946C21.29 23.7445 21.4906 23.8195 21.4906 23.8195C21.4906 23.8195 21.3811 23.9998 21.3811 24.1355C21.3811 24.2754 21.3771 24.3017 21.3912 24.4354C21.3752 24.4457 21.3615 24.4594 21.3512 24.4755C21.3512 24.4755 21.3612 24.6052 21.4606 24.6861C21.5599 24.767 21.6449 24.8158 21.6955 24.7955C21.7033 24.812 21.71 24.8289 21.7158 24.8462C21.7158 24.8462 21.7909 24.6558 21.8415 24.4896C21.8922 24.3195 21.9368 24.3436 21.9569 24.1147C21.9771 23.8858 22.1974 23.4927 22.1974 23.4927L22.3476 23.1568L22.1025 22.9663L21.756 23.0028V23.0029Z" fill="#B6903C"/>
<path fill-rule="evenodd" clip-rule="evenodd" d="M22.2233 23.3323C22.1728 23.3842 22.1261 23.4397 22.0837 23.4984C22.0189 23.5877 21.9683 23.6686 21.8731 23.7032C21.7778 23.7378 21.7171 23.7375 21.7231 23.8329C21.7291 23.9282 21.8183 23.9686 21.8689 24.0172C21.9237 24.0678 21.9683 24.1529 21.944 24.2483C21.9743 24.2341 22.0291 24.2178 22.0797 24.1084C22.1303 23.999 22.4845 23.3324 22.4845 23.3324H22.2233V23.3323Z" fill="#685026"/>
<path fill-rule="evenodd" clip-rule="evenodd" d="M23.62 21.7948C23.62 21.7948 23.6503 21.7139 23.62 21.6551C23.5896 21.5943 23.4052 21.574 23.314 21.5051C23.2188 21.4342 23.1032 21.3849 23.008 21.416C23.0221 21.3816 23.0789 21.3065 23.0323 21.2903C22.9877 21.2762 22.8216 21.3511 22.777 21.3856C22.7324 21.42 22.631 21.4605 22.6109 21.4849C22.5907 21.5094 22.5561 21.5559 22.5358 21.5356C22.5155 21.5214 22.5055 21.4849 22.471 21.5051C22.4365 21.5253 22.2706 21.6611 22.24 21.7402C22.2095 21.8193 22.1407 21.9956 21.934 22.196C21.7274 22.3965 21.6381 22.5263 21.6989 22.6013C21.7597 22.6762 21.7882 22.6216 21.7983 22.6864C21.8061 22.7499 21.8027 22.8144 21.7882 22.8768C21.7638 22.9822 21.7234 23.0814 21.778 23.1017C21.9179 23.1464 22.0537 23.0617 22.084 23.0876C22.1448 23.1422 22.0496 23.3388 22.1934 23.3773C22.3394 23.4174 22.4833 23.3428 22.4833 23.3428L23.0141 23.0571L23.5248 22.7877L23.7861 22.271L23.6459 21.8394L23.6192 21.7948H23.62Z" fill="#D4B968"/>
<path fill-rule="evenodd" clip-rule="evenodd" d="M23.1146 23.029C23.1146 23.029 23.0254 22.8933 23.1349 22.7736C23.2444 22.654 23.4003 22.6035 23.4611 22.5285C23.4495 22.5143 23.434 22.5037 23.4165 22.4982C23.4568 22.426 23.5184 22.368 23.5928 22.3319C23.5625 22.3016 23.5219 22.2773 23.4774 22.2773C23.378 22.2773 23.3171 22.3381 23.226 22.3381C23.1369 22.3381 23.1267 22.2935 23.1267 22.2935C23.1267 22.2935 23.2767 22.2793 23.2625 22.2124C23.2483 22.1415 23.2224 22.1415 23.2224 22.1415C23.2224 22.1415 23.5121 22.0213 23.5627 21.9572C23.6134 21.893 23.6073 21.8173 23.6175 21.787C23.6518 21.787 23.8525 21.6816 23.9335 21.7262C24.0146 21.7708 23.9579 21.8924 23.9579 21.8924C23.9579 21.8924 24.2032 21.7079 24.3283 21.5271C24.4377 21.5372 24.4886 21.4521 24.5687 21.4521C24.6681 21.4521 24.8241 21.5879 24.8544 21.8776C24.8747 22.0437 24.905 22.1389 24.8747 22.4328C24.8606 22.5989 24.8646 22.9537 24.9148 23.1297C24.9491 23.2696 25.0302 23.2554 25.0302 23.2554C25.0178 23.298 24.9931 23.3361 24.9593 23.3648C24.9045 23.4154 24.8985 23.5493 24.9045 23.5999C24.9126 23.6369 24.9228 23.6734 24.935 23.7093C24.935 23.7093 24.8702 23.7842 24.8539 23.835C24.8397 23.8856 24.7729 23.92 24.7242 23.92C24.6754 23.92 24.6999 23.9159 24.6351 23.92C24.5703 23.9242 24.55 23.9342 24.5094 23.92C24.4688 23.9059 24.4385 23.8896 24.4548 23.7598C24.4689 23.6301 23.9542 23.3282 23.9542 23.3282L23.1127 23.0284L23.1146 23.029Z" fill="#CCA849"/>
<path fill-rule="evenodd" clip-rule="evenodd" d="M22.1479 24.3091C22.1479 24.3091 22.3322 24.5543 23.0901 24.5543C23.4508 24.5543 23.5765 24.5198 23.6512 24.4995C23.7322 24.4792 24.0361 24.3598 24.3421 23.9991C24.6177 23.6729 24.5569 23.5392 24.5569 23.5392L24.3966 23.5149L23.8757 23.5858L22.3342 24.2423L22.1472 24.3091H22.1479Z" fill="#585136"/>
<path fill-rule="evenodd" clip-rule="evenodd" d="M22.7115 24.3708C22.7115 24.3708 22.0549 24.5168 22.0549 24.1014C22.0549 23.6961 22.4602 23.2706 22.5616 23.1957C22.667 23.1206 22.9182 23.0354 22.9182 23.0354H23.5241L23.6395 23.3414L23.5889 24.0019L22.7115 24.3707V24.3708Z" fill="#252211"/>
<path fill-rule="evenodd" clip-rule="evenodd" d="M23.3159 23.158C23.3159 23.158 23.1904 23.0424 22.9046 23.198C22.6189 23.3536 22.3878 23.6789 22.3737 23.9742C22.3595 24.2354 22.5885 24.43 22.9451 24.4402C23.2105 24.4502 23.3707 24.4199 23.4518 24.4001C23.4315 24.3758 23.3261 24.2441 23.3261 24.2441L23.316 23.1581L23.3159 23.158Z" fill="#C3B378"/>
<path fill-rule="evenodd" clip-rule="evenodd" d="M23.1985 23.2234C23.1985 23.2234 23.1682 23.1991 23.0783 23.2477C23.0034 23.2877 22.894 23.3937 22.8089 23.4686C22.7541 23.5132 22.7197 23.5334 22.6887 23.5678C22.563 23.7178 22.4576 23.963 22.5185 24.0846C22.5794 24.2061 22.7799 24.346 23.2906 24.2507L23.1971 23.2235L23.1985 23.2234Z" fill="#E6D89C"/>
<path fill-rule="evenodd" clip-rule="evenodd" d="M23.0296 23.4744C23.0296 23.4744 22.9485 23.6 22.9485 23.8007C22.9485 24.0053 23.064 24.3315 23.4896 24.3558C23.8158 24.3761 24.0346 23.8857 24.2717 23.6953C24.452 23.5494 24.5614 23.5453 24.5614 23.5453C24.5614 23.5453 24.3771 23.3449 23.8847 23.0854C23.3984 22.824 22.8532 22.7896 22.5574 23.1908C22.6972 23.1807 23.1491 23.0651 23.1491 23.0651L23.3701 23.136L23.0296 23.4745V23.4744Z" fill="#252211"/>
<path fill-rule="evenodd" clip-rule="evenodd" d="M23.6624 23.7399C23.6483 23.7095 23.6381 23.6689 23.6969 23.6589C23.7557 23.6489 23.782 23.6548 23.8023 23.699C23.8226 23.7432 23.8424 23.7801 23.8123 23.7984C23.782 23.8145 23.7029 23.7984 23.6623 23.7396L23.6624 23.7399ZM23.5672 23.4542C23.5672 23.4542 23.5469 23.4683 23.557 23.44C23.561 23.4057 23.5875 23.3448 23.6523 23.3591C23.7171 23.3734 23.703 23.4441 23.6924 23.4645C23.6817 23.4848 23.6276 23.5191 23.587 23.5045C23.5818 23.5032 23.5771 23.5007 23.5731 23.4972C23.5691 23.4937 23.5659 23.4893 23.564 23.4844C23.562 23.4794 23.5612 23.4741 23.5617 23.4688C23.5621 23.4635 23.5638 23.4584 23.5667 23.4539L23.5672 23.4542Z" fill="#6F674D"/>
<path fill-rule="evenodd" clip-rule="evenodd" d="M18.0876 23.5837C18.0876 23.5837 18.2479 23.7039 18.4341 23.6992C18.6185 23.6951 18.8556 23.5047 18.965 23.3831C19.0298 23.3121 19.0852 23.2372 19.1453 23.1784C19.1961 23.1278 19.2304 23.1035 19.2547 23.069C19.2892 23.029 19.3256 22.9536 19.3439 22.9292C19.2993 22.9637 19.2345 23.0246 19.1676 23.065C19.1028 23.1051 18.963 23.1804 18.9062 23.2007C18.8516 23.221 18.2841 23.5213 18.2841 23.5213L18.0876 23.5837Z" fill="#AC924C"/>
<path fill-rule="evenodd" clip-rule="evenodd" d="M18.3284 22.087C18.3284 22.087 18.4175 22.0263 18.5898 21.9877C18.7559 21.9476 19.0903 21.9167 19.0903 21.9167L19.3659 22.037L19.4753 22.4523L19.2749 22.884L19.0196 23.0443L18.7298 22.5783L18.329 22.0878L18.3284 22.087Z" fill="#9F8E57"/>
<path fill-rule="evenodd" clip-rule="evenodd" d="M17.9711 22.4573L17.8757 22.5285C17.8757 22.5285 17.9002 22.4838 17.9203 22.3481C17.9405 22.2124 18.046 21.8821 18.2001 21.6917C18.3541 21.5012 18.3501 21.5114 18.3501 21.5114C18.3359 21.5088 18.3213 21.5092 18.3073 21.5127C18.2934 21.5162 18.2803 21.5226 18.269 21.5315C18.2893 21.4866 18.419 21.3264 18.5487 21.2462C18.6784 21.1661 18.729 21.1408 18.8647 21.2062C19.0004 21.2715 19.0349 21.3054 19.1343 21.3014C19.2337 21.2974 19.3186 21.192 19.3186 21.192C19.3186 21.192 19.3389 21.2568 19.264 21.4068C19.1891 21.5568 18.8932 21.8626 18.8932 21.8626L18.2771 22.284L17.9711 22.4577V22.4573Z" fill="#EAC970"/>
<path fill-rule="evenodd" clip-rule="evenodd" d="M18.4275 22.0369C18.4275 22.0369 18.8734 22.0977 19.0091 21.9721C19.0131 21.9863 19.0294 21.9863 19.0294 21.9964C19.0283 22.0041 19.0248 22.0112 19.0193 22.0166C19.034 22.0142 19.0489 22.0129 19.0639 22.0126C19.0817 22.0179 19.1001 22.0213 19.1187 22.0227C19.1336 22.0224 19.1485 22.021 19.1633 22.0186C19.1619 22.0287 19.1584 22.0383 19.1532 22.0471C19.148 22.0558 19.141 22.0634 19.1328 22.0693C19.1531 22.0693 19.1729 22.0734 19.1729 22.0895C19.1729 22.1057 19.1769 22.1544 19.1526 22.1646C19.1324 22.1701 19.111 22.1687 19.0918 22.1604C19.0934 22.1988 19.1038 22.2363 19.1223 22.27C19.1623 22.3449 19.2478 22.4302 19.3627 22.4057C19.3627 22.4057 19.4233 22.5515 19.1681 22.8757C19.1338 22.9203 19.0972 22.9811 19.0527 23.0317C19.0351 23.07 19.0217 23.1101 19.0126 23.1512C19.0126 23.1512 19.4443 22.9851 19.5679 22.6061C19.6936 22.2252 19.7179 21.8504 19.6936 21.5C19.6894 21.4006 19.6733 21.3298 19.649 21.279C19.5882 21.1534 19.4179 21.1737 19.3491 21.2446C19.2497 21.344 19.0835 21.5911 18.8526 21.7612C18.6175 21.9314 18.6075 21.9616 18.427 22.0369H18.4275Z" fill="#D7BC6B"/>
<path fill-rule="evenodd" clip-rule="evenodd" d="M17.8903 22.5836C17.8903 22.5836 17.8052 22.6342 17.7606 22.824C17.716 23.0185 17.8007 23.2555 17.8497 23.3305C17.8987 23.4054 18.01 23.6102 18.2408 23.6203C18.298 23.62 18.3545 23.6083 18.407 23.5858C18.4876 23.5489 18.5632 23.5019 18.6319 23.446C18.7313 23.3711 18.8123 23.3063 18.8021 23.3002C18.7778 23.29 18.1902 22.8037 18.1902 22.8037L17.9693 22.5571L17.8902 22.5838L17.8903 22.5836Z" fill="#585136"/>
<path fill-rule="evenodd" clip-rule="evenodd" d="M18.4398 23.3895C18.4398 23.3895 18.5593 23.3795 18.6303 23.3349C18.7012 23.2903 18.2148 22.8081 18.2148 22.8081L18.2493 23.329L18.4398 23.3895Z" fill="#453A25"/>
<path fill-rule="evenodd" clip-rule="evenodd" d="M17.9312 22.5468C17.9312 22.5468 17.8704 22.6624 17.8704 22.6928C17.8603 22.792 17.8907 23.1041 17.915 23.2033C17.9393 23.3087 18.071 23.4687 18.2414 23.4687C18.3466 23.4687 18.4926 23.4039 18.4926 23.3877C18.4926 23.3674 18.3426 23.3477 18.3021 23.2722C18.2778 23.2321 18.2677 23.1325 18.2621 23.0318C18.2581 22.967 18.2581 22.8961 18.2824 22.8715C18.3371 22.8107 18.3471 22.6364 18.3471 22.6364L18.5416 22.2751H18.2858L17.9798 22.4656L17.9312 22.5468Z" fill="#84754B"/>
<path fill-rule="evenodd" clip-rule="evenodd" d="M17.8545 22.6581C17.8545 22.6581 18.0549 22.3927 18.2355 22.3318C18.416 22.2709 18.4969 22.3075 18.4969 22.3075L18.3915 22.577L18.2415 22.7432L18.2516 22.8283C18.2516 22.8283 18.2272 23.0532 18.3772 23.2092C18.5272 23.3652 18.6386 23.3592 18.7035 23.3592C18.7684 23.3592 18.9548 23.3044 19.05 23.0795C19.1351 22.8689 19.206 22.5987 19.0358 22.3278C18.8695 22.0583 18.5758 22.0479 18.519 22.0479C18.4623 22.0479 18.0165 22.0702 17.8545 22.6577V22.6581Z" fill="#252211"/>
<path fill-rule="evenodd" clip-rule="evenodd" d="M22.9992 23.5592C22.9242 23.5247 22.9952 23.3141 23.0701 23.2492C23.145 23.1842 23.2403 23.1094 23.4066 23.0992C23.4672 23.0952 23.526 23.1336 23.516 23.1742C23.5018 23.2492 23.3964 23.3545 23.3012 23.4295C23.1695 23.5329 23.0843 23.5976 22.9992 23.5592Z" fill="#F7F7E7"/>
<path fill-rule="evenodd" clip-rule="evenodd" d="M18.9456 22.4109C19.0004 22.4069 19.0713 22.451 19.0855 22.5103C19.0996 22.575 19.051 22.7047 18.9456 22.7047C18.8605 22.7047 18.8159 22.5994 18.8159 22.569C18.8169 22.5441 18.8238 22.5198 18.8362 22.4981C18.8402 22.492 18.8504 22.421 18.9456 22.4109Z" fill="#F8F6DE"/>
<path fill-rule="evenodd" clip-rule="evenodd" d="M18.1578 22.4575C18.1578 22.4575 18.0179 22.5223 17.9531 22.6579C17.9068 22.758 17.8928 22.87 17.9131 22.9784C17.9232 23.029 17.9738 23.1546 18.0083 23.1992C18.0428 23.2438 18.0894 23.2743 18.1238 23.2701C18.1583 23.266 18.2291 23.1749 18.2291 23.1203C18.2291 23.0656 18.2332 22.8346 18.3 22.7089C18.3588 22.5833 18.1582 22.4577 18.1582 22.4577L18.1578 22.4575Z" fill="#D4C38B"/>
<path fill-rule="evenodd" clip-rule="evenodd" d="M18.1796 22.4475C18.1553 22.4616 18.1148 22.4819 18.1249 22.5083C18.135 22.5326 18.2201 22.5483 18.2505 22.6076C18.285 22.6684 18.285 22.7332 18.2749 22.7636C18.3013 22.7511 18.3253 22.7339 18.3458 22.7129C18.3904 22.6623 18.445 22.5935 18.4917 22.5935C18.5221 22.5935 18.5524 22.6076 18.5809 22.6076C18.6255 22.6076 18.67 22.5935 18.6761 22.5469C18.6861 22.4861 18.591 22.4313 18.5363 22.4415C18.5464 22.4014 18.5606 22.3422 18.516 22.3016C18.4714 22.261 18.3316 22.3321 18.3012 22.3524C18.2707 22.3727 18.1796 22.4476 18.1796 22.4476V22.4475Z" fill="#E2D59D"/>
<path fill-rule="evenodd" clip-rule="evenodd" d="M21.3928 26.7045L21.6927 26.616L21.7778 26.6767C21.7778 26.6767 21.8384 26.8064 21.9338 26.8226C21.9034 26.8874 21.8243 26.9428 21.8284 26.9887C21.8326 27.0347 21.873 27.0698 21.873 27.0698C21.873 27.0698 21.6035 27.5155 22.1345 27.9647C22.0088 28.0153 21.8487 28.0849 21.7636 28.125C21.8243 28.1391 21.954 28.1651 22.0088 28.2142C22.0635 28.2634 22.0635 28.279 22.1142 28.3094C22.1648 28.3399 22.1951 28.3804 22.1851 28.3985C22.1506 28.3782 22.0351 28.3176 22.0149 28.3742C21.9947 28.4309 21.5144 28.4087 21.5144 28.4087L20.7039 28.5647C20.7039 28.5647 20.7342 28.4836 20.6491 28.4087C20.5498 28.3196 20.4283 28.4127 20.2986 28.3134C20.1284 28.1838 20.1223 28.0338 20.0676 27.9771C20.1223 27.9427 20.2338 27.892 20.4992 27.8569C20.4891 27.8366 20.4546 27.7758 20.4749 27.7212C20.4992 27.6503 20.6005 27.6057 20.5701 27.5209C20.6148 27.5107 20.6349 27.5107 20.7465 27.3709C20.8519 27.231 20.9166 27.2007 20.9977 27.1906C21.0788 27.1804 21.1274 27.1906 21.2774 27.0507C21.3827 26.9515 21.3484 26.8664 21.3484 26.8664C21.3484 26.8664 21.4171 26.8441 21.393 26.7043L21.3928 26.7045Z" fill="#CBAC5A"/>
<path fill-rule="evenodd" clip-rule="evenodd" d="M20.5127 26.7495C20.5167 26.7292 20.533 26.719 20.6424 26.7292C20.7518 26.7393 21.4448 26.6644 21.6333 26.6542C21.8237 26.6401 22.4944 26.6501 22.8208 26.719C23.1471 26.7879 23.4773 26.869 23.6373 26.9095C23.7976 26.9541 23.8481 26.9701 23.8419 26.9904C23.8379 27.0107 23.8019 27.0305 23.7812 27.0249C23.761 27.0209 23.23 26.8587 23.066 26.8245C22.902 26.7903 22.3344 26.6988 22.0241 26.7043C21.7344 26.7085 21.6188 26.7003 21.3737 26.7286C21.1285 26.7591 20.7232 26.7995 20.6016 26.7834C20.4814 26.7692 20.5063 26.7692 20.5124 26.7489L20.5127 26.7495Z" fill="#D6BC6F"/>
<path fill-rule="evenodd" clip-rule="evenodd" d="M22.1454 28.3378C22.1454 28.3378 22.5608 28.5627 22.7108 28.8383C22.8202 29.0429 22.646 29.1443 22.646 29.1443C22.646 29.1443 22.8811 29.1443 22.8506 29.274C22.8365 29.3549 22.4454 29.5737 22.184 29.6892C21.9186 29.8047 21.9287 29.7987 21.799 29.8189C21.6733 29.8392 21.3288 29.7788 21.2579 29.8797C21.187 29.9805 21.2178 30.0844 21.2376 30.1006C21.2579 30.1147 21.422 30.135 21.422 30.135C21.422 30.135 21.3876 30.2303 21.0472 30.2404C20.7069 30.2506 20.6217 30.2748 20.6014 30.3114C20.5811 30.3457 20.6661 30.3255 20.8223 30.3514C20.9783 30.3757 21.1971 30.3915 21.1971 30.3915C21.1971 30.3915 21.1262 30.4523 20.9418 30.5009C20.7311 30.5555 20.4007 30.6063 20.3015 30.667C20.3521 30.7015 20.4272 30.7521 20.4618 30.7561C20.3767 30.7764 20.257 30.821 20.2368 30.8372C20.2671 30.8575 20.3078 30.8818 20.3078 30.8818C20.3078 30.8818 20.1374 31.0864 20.0382 31.1372C19.9389 31.1879 19.3675 31.4532 19.1709 31.4026C18.6805 31.2729 18.6197 30.736 18.5002 30.6955C18.3199 30.6347 18.2348 30.7561 18.0746 30.671C18.1456 30.6204 18.1842 30.5901 18.2591 30.5556C18.178 30.5156 17.7586 30.2496 17.7586 30.2496C17.7147 30.1541 17.666 30.0607 17.6127 29.9701C17.5316 29.8303 17.4124 29.6438 17.3229 29.4796C17.1284 29.119 17.1182 28.9529 16.9419 28.7482C16.9723 28.7082 17.0776 28.7138 17.0776 28.7138L18.555 29.2001L21.1745 29.276L21.8558 28.3035L22.1455 28.3379L22.1454 28.3378Z" fill="#DFC677"/>
<path fill-rule="evenodd" clip-rule="evenodd" d="M18.2573 29.8205C18.2731 29.838 18.2916 29.8531 18.312 29.8651C18.3627 29.8995 18.4377 29.9401 18.4883 30.0008C18.5086 29.9704 18.5592 29.9157 18.6486 30.0008C18.7379 30.0858 18.8489 30.0252 18.918 30.0454C18.9889 30.0698 18.9929 30.0798 18.9929 30.0798C18.9929 30.0798 19.033 30.0454 19.1226 30.0089C19.1774 29.9886 19.2422 29.9745 19.3131 29.9543C19.3779 29.9401 19.4488 29.9198 19.4976 29.9198C19.5422 29.9501 19.7022 30.1202 20.3446 29.8692C20.9505 29.6341 21.0902 29.6078 21.1916 29.6442C21.2017 29.6198 21.2119 29.5732 21.3679 29.5794C21.3679 29.5146 21.2382 29.2937 21.2382 29.2937L20.5229 29.0486H20.1317L18.9585 29.2634L18.3084 29.6343L18.2577 29.8213L18.2573 29.8205Z" fill="#C4A859"/>
<path fill-rule="evenodd" clip-rule="evenodd" d="M17.8755 29.4087C17.8755 29.4087 17.8896 29.5181 18.0518 29.6337C18.2121 29.7491 18.2625 29.818 18.2625 29.818C18.2625 29.818 18.2929 29.7779 18.3172 29.737C18.3415 29.6924 18.3618 29.6418 18.4023 29.6277C18.4834 29.5932 18.6677 29.658 18.7083 29.6478C18.7428 29.6378 18.7326 29.5669 18.7691 29.5669C18.8542 29.5627 18.9088 29.6215 18.9393 29.6215C18.9697 29.6215 19.0445 29.6175 19.0547 29.6013C19.0649 29.5852 19.0689 29.4169 19.1844 29.3358C19.3101 29.2467 19.4641 29.2852 19.505 29.3055C19.505 29.3358 19.509 29.4109 19.5901 29.4149C19.6712 29.4189 19.6792 29.4047 19.7504 29.429C19.8216 29.4533 19.9064 29.425 19.9449 29.5444C19.9793 29.5344 20.0604 29.5243 20.0401 29.4087C20.0802 29.3784 20.1152 29.3581 20.2004 29.2386C20.2207 29.2083 20.255 29.1738 20.2815 29.1292C20.3524 29.1292 20.4375 29.115 20.5509 29.2143C20.5164 29.2386 20.4961 29.2543 20.4861 29.279C20.5158 29.3084 20.5428 29.3403 20.5671 29.3743C20.5975 29.4143 20.6178 29.4635 20.6563 29.4737C20.7414 29.498 20.8812 29.4635 21.0372 29.4737C21.1872 29.4838 21.3128 29.5384 21.3676 29.5729C21.3879 29.5629 21.3879 29.5587 21.4385 29.5689C21.4891 29.579 21.5276 29.583 21.473 29.5183C21.5033 29.5324 21.5378 29.5629 21.5682 29.5324C21.5987 29.502 21.6228 29.4575 21.7079 29.4473C21.793 29.4372 21.8235 29.4513 21.8579 29.3623C21.9026 29.2529 21.7485 29.2529 21.7485 29.2529C21.7485 29.2529 21.8195 29.188 21.8985 29.1029C21.9938 29.0138 22.1032 28.8983 22.1295 28.7564C22.1741 28.495 21.9188 28.4607 21.9188 28.4607L20.6807 28.8416L19.167 28.7666L17.8763 29.4089L17.8755 29.4087Z" fill="#927D49"/>
<path fill-rule="evenodd" clip-rule="evenodd" d="M16.7575 25.8333C16.7575 25.8333 16.7174 25.8839 16.6927 26.0035C16.668 26.123 16.6786 26.1089 16.6583 26.1939C16.638 26.279 16.3886 27.126 16.4821 27.4117C16.5756 27.6974 16.7375 27.8027 16.8387 28.0337C16.859 28.0843 16.8788 28.1147 16.8894 28.1594C16.9238 28.3092 16.8935 28.4248 16.934 28.5747C16.9481 28.6254 16.9847 28.6841 17.0394 28.7449C17.1596 28.8705 17.3555 28.99 17.4401 29.0751C17.5595 29.2008 17.7298 29.4561 17.9466 29.4803C18.0622 29.4945 18.2263 29.4459 18.362 29.3649C18.4823 29.2899 18.5565 29.1846 18.6826 29.1245C18.7717 29.0799 18.867 29.0637 18.952 29.0434C19.1284 29.009 19.2885 29.0034 19.3838 29.0231C19.5296 29.0536 19.8741 29.159 20.065 29.159C20.2142 29.1566 20.3625 29.1361 20.5067 29.0982C20.7965 29.0131 21.147 28.8671 21.3781 28.8023C21.5138 28.7623 21.6232 28.7517 21.7347 28.7274C21.9252 28.6828 22.0852 28.622 22.1764 28.5065C22.1157 28.4356 22.0407 28.3262 21.6353 28.3302C21.1754 28.3403 20.6445 28.5956 20.383 28.6362C20.1216 28.6768 20.0082 28.7111 19.7164 28.6057C19.4302 28.4993 19.4208 28.4289 19.4208 28.4289C19.4208 28.4289 19.1203 28.2188 18.9947 27.6832C18.869 27.1476 18.9947 26.7573 19.321 26.3864C19.4061 26.2912 19.3858 26.2061 19.3858 26.2061C19.3858 26.2061 19.6006 25.9164 19.5418 25.6451C19.477 25.3756 19.0616 25.4304 19.0616 25.4304L16.7576 25.8333H16.7575Z" fill="#6E6342"/>
<path fill-rule="evenodd" clip-rule="evenodd" d="M17.1078 26.7354C17.09 26.7689 17.0816 26.8067 17.0835 26.8447C17.0875 26.8994 17.1038 26.9703 17.2679 27.1304C17.4077 27.2701 17.3773 27.4262 17.3773 27.4262C17.3773 27.4262 17.4477 27.4403 17.6387 27.351C17.7887 27.28 17.839 27.4057 17.839 27.4057C17.8827 27.3828 17.93 27.3677 17.9789 27.3611C18.0232 27.357 18.066 27.3434 18.1045 27.321C18.1045 27.321 18.2808 27.5013 18.4348 27.5864C18.5746 27.6615 18.6557 27.7121 18.7246 27.6615C18.7894 27.6169 18.7894 27.5257 18.7853 27.4852C18.7692 27.4478 18.7489 27.4125 18.7246 27.3798C18.68 27.315 18.6091 27.24 18.6044 27.1795C18.5943 27.0397 18.7098 26.8735 18.6854 26.833C18.6609 26.7925 18.57 26.7824 18.345 26.8634C18.1121 26.9404 17.1069 26.7358 17.1069 26.7358L17.1078 26.7354Z" fill="#39331F"/>
<path fill-rule="evenodd" clip-rule="evenodd" d="M17.6338 27.6404C17.6338 27.6404 17.5184 27.531 17.5589 27.0001C17.6079 26.9994 17.6568 27.0041 17.7048 27.0142C17.7048 27.0142 17.7677 27.4256 17.6338 27.6404Z" fill="#292311"/>
<path fill-rule="evenodd" clip-rule="evenodd" d="M16.8179 25.4277C16.834 25.4158 16.849 25.4024 16.8626 25.3876C16.8225 25.4626 16.6375 25.7624 16.7875 26.2346C16.9375 26.7046 17.3143 27.0551 17.7784 27.0714C18.2424 27.0877 18.4863 26.8606 18.7652 26.5203C18.8746 26.3846 19.0003 26.2143 19.1117 26.0989C19.2779 25.9184 19.4076 25.8678 19.4076 25.6936C19.4076 25.337 19.0428 25.1769 18.5058 25.0169C17.9688 24.8569 17.4845 24.8766 17.2332 24.9861C16.9881 25.1056 16.8827 25.2312 16.8178 25.4278L16.8179 25.4277Z" fill="#252211"/>
<path fill-rule="evenodd" clip-rule="evenodd" d="M18.5407 27.8023L18.5811 27.7818C18.5811 27.7818 18.5912 27.6203 18.6566 27.6246C18.7219 27.6348 18.7526 27.7207 18.7464 27.7513C18.7424 27.7818 18.7261 27.833 18.6606 27.8268C18.5749 27.8288 18.5403 27.8023 18.5403 27.8023H18.5407Z" fill="#3F3824"/>
<path fill-rule="evenodd" clip-rule="evenodd" d="M18.3567 27.1201C18.3567 27.1201 18.3968 27.1059 18.4458 27.1545C18.4859 27.1545 18.6606 27.1342 18.7153 27.1687C18.7701 27.2032 18.7863 27.2335 18.7863 27.2335C18.7863 27.2335 18.5816 27.2781 18.4701 27.2335C18.3567 27.195 18.3567 27.1201 18.3567 27.1201Z" fill="#2D2815"/>
<path fill-rule="evenodd" clip-rule="evenodd" d="M19.2613 27.1502C19.2613 27.14 19.1519 27.0651 19.0364 27.0407C19.0161 27.0367 19.0119 27.0508 18.9963 27.0508C18.9862 27.0468 18.9822 27.0164 18.9822 27.0164L18.9164 27.051C18.9164 27.051 18.9063 27.0651 18.9407 27.091C18.9711 27.1153 19.0218 27.1356 19.036 27.1761C19.0501 27.2166 19.0501 27.2307 19.0563 27.2369C19.0603 27.2409 19.1312 27.2369 19.1657 27.2166C19.2002 27.1963 19.2651 27.1631 19.2609 27.1498L19.2613 27.1502Z" fill="#82764F"/>
<path fill-rule="evenodd" clip-rule="evenodd" d="M18.2363 27.5614C18.2363 27.5614 18.2565 27.4217 18.3923 27.4156C18.5321 27.4054 18.5585 27.5411 18.5585 27.5411L18.4774 27.6222C18.4774 27.6202 18.4167 27.5351 18.237 27.5614H18.2363Z" fill="#2D2816"/>
<path fill-rule="evenodd" clip-rule="evenodd" d="M19.116 26.9595C19.116 26.9595 19.041 27.0406 18.8749 27.0649C18.8608 27.0446 18.8303 27.0041 18.8749 26.9393C18.9195 26.8746 18.9702 26.8543 19.0208 26.8744C19.0431 26.878 19.064 26.888 19.0808 26.9031C19.0977 26.9181 19.1099 26.9377 19.116 26.9595Z" fill="#574F35"/>
<path fill-rule="evenodd" clip-rule="evenodd" d="M19.4235 27.0588C19.4276 27.0385 19.4135 27.0345 19.4235 27.0243C19.4335 27.0142 19.4884 26.994 19.4986 27.004C19.5026 27.0082 19.4986 27.0243 19.4986 27.0441C19.4986 27.0639 19.4986 27.0842 19.4884 27.0987C19.4742 27.119 19.4338 27.1292 19.4135 27.1232C19.3932 27.1172 19.3892 27.0887 19.3892 27.0831C19.3992 27.0791 19.4235 27.069 19.4235 27.0588ZM19.7695 26.84C19.7695 26.8299 19.8039 26.8096 19.8242 26.8096C19.8545 26.8096 19.8545 26.8339 19.8587 26.84C19.8687 26.844 19.8687 26.8359 19.8789 26.8542C19.889 26.8725 19.9033 26.9048 19.893 26.9251C19.8827 26.9454 19.8424 26.9594 19.8324 26.9554C19.8182 26.9453 19.7736 26.8542 19.7695 26.84Z" fill="#82764F"/>
<path fill-rule="evenodd" clip-rule="evenodd" d="M19.0776 27.1049C19.0776 27.1049 19.1226 27.115 19.1839 27.1661C19.1634 27.1804 19.1327 27.1967 19.1327 27.1967C19.1327 27.1967 19.1287 27.1497 19.0776 27.1047V27.1049Z" fill="#6E6342"/>
<path fill-rule="evenodd" clip-rule="evenodd" d="M18.9662 26.659C18.956 26.649 18.9965 26.6247 19.0208 26.6287C19.0451 26.6327 19.0553 26.649 19.0816 26.653C19.1079 26.657 19.1121 26.6429 19.1217 26.6327C19.1313 26.6226 19.1663 26.6287 19.1723 26.6327C19.1761 26.6372 19.1794 26.6419 19.1825 26.6469C19.1829 26.6392 19.1849 26.6316 19.1884 26.6247C19.1918 26.6178 19.1967 26.6117 19.2026 26.6068C19.2104 26.6011 19.2194 26.5972 19.2289 26.5954C19.2383 26.5937 19.2481 26.5941 19.2574 26.5966C19.2614 26.6108 19.2817 26.6614 19.2777 26.6716C19.2737 26.6817 19.2129 26.696 19.2026 26.6857C19.2128 26.7102 19.2574 26.7608 19.2634 26.7708C19.2694 26.7808 19.2188 26.8053 19.1986 26.8013C19.1703 26.7993 18.996 26.6979 18.9657 26.6594L18.9662 26.659ZM19.2316 26.3227C19.2279 26.3125 19.2207 26.3039 19.2113 26.2984C19.1972 26.2944 19.1505 26.2984 19.1505 26.3227C19.1505 26.347 19.1906 26.483 19.2356 26.5538C19.2864 26.6247 19.3207 26.6833 19.3552 26.6996C19.366 26.7045 19.3783 26.7052 19.3896 26.7014C19.4008 26.6977 19.4103 26.6898 19.416 26.6793C19.42 26.6692 19.4301 26.5942 19.4261 26.4179C19.4221 26.2416 19.416 26.0715 19.4058 26.0613C19.3957 26.0512 19.3552 26.0513 19.341 26.0715C19.3269 26.0916 19.2356 26.2924 19.2315 26.3227H19.2316Z" fill="#585136"/>
<path fill-rule="evenodd" clip-rule="evenodd" d="M19.0536 27.3614C19.0536 27.3614 18.9821 27.3165 18.9126 27.3471C18.8473 27.3778 18.8514 27.4983 18.8514 27.4983C18.8661 27.5041 18.8819 27.5061 18.8976 27.5044C18.9133 27.5026 18.9283 27.497 18.9413 27.4881C18.9863 27.4575 19.0433 27.4065 19.0536 27.3616V27.3614Z" fill="#574F35"/>
<path fill-rule="evenodd" clip-rule="evenodd" d="M19.1956 27.5211C19.1916 27.4811 19.1555 27.4811 19.1555 27.4604C19.158 27.4505 19.1637 27.4417 19.1718 27.4354C19.1799 27.4292 19.1898 27.4258 19.2 27.4259C19.2203 27.4259 19.2401 27.4502 19.2649 27.466C19.2892 27.4801 19.3257 27.506 19.3297 27.5369C19.3337 27.5677 19.2896 27.6523 19.2406 27.6523C19.1916 27.6523 19.2061 27.5611 19.196 27.5206L19.1956 27.5211ZM19.5867 27.4664C19.5867 27.4664 19.5056 27.4907 19.5116 27.4664C19.5176 27.4421 19.5361 27.436 19.5624 27.436C19.5758 27.4221 19.5937 27.4134 19.613 27.4116C19.624 27.4111 19.6349 27.4147 19.6433 27.4218C19.6433 27.4218 19.6981 27.3974 19.7143 27.4116C19.7304 27.4258 19.7184 27.4258 19.7284 27.4421C19.7412 27.4601 19.7496 27.4809 19.7529 27.5028C19.7529 27.519 19.6921 27.5534 19.6433 27.5474C19.5867 27.5353 19.5967 27.4765 19.5867 27.4664ZM20.0588 27.3751C20.0588 27.3751 20.0831 27.3893 20.0629 27.4056C20.0487 27.4198 19.9778 27.4457 19.9169 27.4502C19.8561 27.4502 19.8015 27.4602 19.8015 27.4401C19.8015 27.4199 19.8521 27.3793 19.8824 27.3691C19.8885 27.3615 19.8962 27.3554 19.905 27.3512C19.9138 27.347 19.9235 27.3448 19.9332 27.3448C19.9575 27.3448 20.0526 27.3347 20.0791 27.3307C20.1034 27.3265 20.1237 27.3407 20.1094 27.361C20.1034 27.3751 20.0588 27.3751 20.0588 27.3751ZM20.1986 26.7495C20.1986 26.7495 20.1682 26.8143 20.1338 26.8143C20.0994 26.8103 20.0994 26.8001 20.0994 26.79C20.0994 26.7758 20.1338 26.7394 20.1297 26.7292C20.1197 26.7292 20.0952 26.7292 20.0994 26.7049C20.0994 26.6846 20.1338 26.6603 20.1642 26.6648C20.1871 26.646 20.2156 26.6353 20.2452 26.6345C20.2797 26.6345 20.31 26.6445 20.31 26.6648C20.31 26.6851 20.2699 26.7296 20.2553 26.7399C20.2391 26.7561 20.2188 26.7666 20.1986 26.7499V26.7495ZM19.7366 27.9469C19.7366 27.9469 19.6965 27.9511 19.6965 27.9712C19.6965 27.9814 19.7065 27.9814 19.7208 27.9754C19.729 27.9749 19.7372 27.9735 19.7451 27.9712C19.7491 27.9754 19.7491 27.9956 19.7796 27.9956C19.8046 27.9922 19.8287 27.9839 19.8505 27.9712C19.8748 27.9612 19.8951 27.9509 19.8951 27.9312C19.885 27.8967 19.8647 27.8804 19.8344 27.8804C19.8188 27.8794 19.8033 27.883 19.7897 27.8906C19.7897 27.8906 19.7796 27.8703 19.7451 27.8906C19.7107 27.9109 19.7147 27.9109 19.7248 27.921C19.743 27.9372 19.737 27.9477 19.737 27.9477L19.7366 27.9469ZM19.5076 28.1577C19.5076 28.1475 19.5583 28.1272 19.5724 28.1334C19.5866 28.1374 19.627 28.2143 19.627 28.2225C19.627 28.2326 19.5764 28.2569 19.5561 28.2569C19.5358 28.2569 19.5015 28.2225 19.5015 28.2169C19.5015 28.2129 19.5258 28.2069 19.5258 28.2027C19.5318 28.1927 19.5076 28.1682 19.5076 28.1581V28.1577ZM19.3473 27.8619C19.3575 27.8578 19.3575 27.8477 19.3716 27.8375C19.3761 27.8346 19.3811 27.8327 19.3864 27.832C19.3917 27.8313 19.3971 27.8318 19.4021 27.8335C19.4057 27.8272 19.4106 27.8217 19.4166 27.8174C19.4225 27.8132 19.4294 27.8104 19.4366 27.8091C19.4609 27.8051 19.4812 27.8091 19.4766 27.8192C19.4766 27.8497 19.4969 27.8699 19.4969 27.8942C19.4969 27.9185 19.4828 27.9489 19.4322 27.9692C19.3815 27.9834 19.3126 27.9834 19.3025 27.9794C19.2923 27.9754 19.2821 27.9348 19.2923 27.9145C19.3025 27.8942 19.3308 27.872 19.3471 27.8619H19.3473Z" fill="#82764F"/>
<path fill-rule="evenodd" clip-rule="evenodd" d="M19.4133 27.8757C19.4133 27.8757 19.3788 27.896 19.3788 27.9062C19.3758 27.916 19.3744 27.9262 19.3748 27.9365C19.3748 27.9425 19.4194 27.9325 19.4255 27.9264C19.4275 27.9223 19.4133 27.8863 19.4133 27.8757Z" fill="#6E6342"/>
<path fill-rule="evenodd" clip-rule="evenodd" d="M19.1041 27.7802C19.1244 27.7844 19.1591 27.7802 19.1856 27.7904C19.2061 27.8007 19.2204 27.8211 19.1999 27.8456C19.1794 27.8701 19.1595 27.9069 19.1142 27.9007C19.0631 27.8966 19.0141 27.8701 19.0141 27.8497C19.0133 27.8367 19.015 27.8237 19.0192 27.8115C19.0234 27.7992 19.03 27.7879 19.0386 27.7782C19.0591 27.7619 19.0692 27.7721 19.1039 27.7802H19.1041Z" fill="#585136"/>
<path fill-rule="evenodd" clip-rule="evenodd" d="M19.0789 27.7996C19.0789 27.7996 19.0141 27.8502 18.9978 27.8746C18.9775 27.8989 18.8782 28.0245 18.8479 28.0508C18.858 28.033 18.8695 28.0161 18.8822 28.0002C18.8422 28.0258 18.8121 28.0644 18.7972 28.1096C18.7728 28.1846 18.933 28.2251 19.0383 28.2556C19.1435 28.286 19.1843 28.2956 19.1843 28.2956C19.1455 28.2374 19.1122 28.1757 19.0849 28.1113C19.0448 28.0161 19.0241 28.0059 19.0504 27.9613C19.0707 27.9167 19.1012 27.8864 19.1012 27.8519C19.089 27.8199 19.0789 27.7996 19.0789 27.7996Z" fill="#574F35"/>
<path fill-rule="evenodd" clip-rule="evenodd" d="M16.7725 27.9608C16.7872 27.9635 16.8024 27.9635 16.8171 27.9608C16.8474 27.9566 17.1636 27.8406 17.4939 27.8614C17.7412 27.8763 17.9863 27.9166 18.2254 27.9816C18.6408 28.091 19.1575 28.3078 19.4918 28.4314C19.5809 28.4658 19.6682 28.5267 19.7323 28.5509C19.9877 28.6502 19.9977 28.6502 20.1477 28.6765C20.324 28.7008 20.5043 28.6421 20.6928 28.6016C20.9238 28.5509 21.3189 28.5265 21.6654 28.4759C21.7774 28.4604 21.8879 28.4353 21.9957 28.401C21.9957 28.401 21.7202 28.6765 21.0595 28.7758C20.7924 28.8163 20.5211 28.8197 20.2531 28.7859C20.0423 28.7656 19.9026 28.7352 19.7972 28.7049C19.6776 28.6704 19.4324 28.5792 19.1305 28.5045C18.9197 28.4497 18.6846 28.4093 18.4152 28.3587C17.7505 28.237 17.0292 28.0973 16.7722 27.9616L16.7725 27.9608Z" fill="#252211"/>
<path fill-rule="evenodd" clip-rule="evenodd" d="M16.0245 26.7087C15.8642 26.8444 15.6942 26.9741 15.5281 27.0997L15.0276 27.4842C14.8574 27.6098 14.6913 27.7395 14.5209 27.8651C14.3506 27.9908 14.1806 28.1102 14 28.2258C14.1603 28.0901 14.3303 27.9644 14.5005 27.8408C14.6707 27.7173 14.8471 27.5961 15.0113 27.4709L15.5118 27.0858C15.684 26.9602 15.8502 26.8306 16.0245 26.709V26.7087ZM15.139 28.1271C15.139 28.1271 15.3193 27.9771 15.5443 27.7664C15.8239 27.5052 16.1663 27.1707 16.2757 27.1101L15.1389 28.1272L15.139 28.1271Z" fill="#CFB66C"/>
<path fill-rule="evenodd" clip-rule="evenodd" d="M15.1458 28.126C15.235 28.0369 15.3302 27.9498 15.4255 27.8646L15.5713 27.739C15.6159 27.699 15.6667 27.654 15.7112 27.6093C15.8003 27.5203 15.8875 27.4249 15.9766 27.3338C16.0208 27.288 16.0674 27.2447 16.1165 27.2041C16.141 27.1824 16.1682 27.164 16.1974 27.1493C16.2218 27.1352 16.2482 27.1093 16.2825 27.1047C16.2623 27.1352 16.238 27.1493 16.2177 27.1757C16.1934 27.196 16.1731 27.2203 16.1529 27.2404C16.1083 27.285 16.0577 27.3255 16.0131 27.3661C15.9178 27.4472 15.8186 27.5264 15.7233 27.6112C15.6281 27.696 15.539 27.7875 15.4436 27.8726C15.3404 27.9598 15.2451 28.0449 15.1458 28.1264V28.126ZM16.3576 27.3155C16.3576 27.3155 15.697 27.962 15.5612 28.0672L16.3576 27.3155Z" fill="#CFB66C"/>
<path fill-rule="evenodd" clip-rule="evenodd" d="M16.3523 27.3169C16.2929 27.3857 16.2292 27.4506 16.1615 27.5114L15.9612 27.7018C15.8964 27.7666 15.8355 27.8315 15.7667 27.8963C15.6958 27.9571 15.631 28.0165 15.5559 28.0726L15.7504 27.8821C15.8153 27.8174 15.8862 27.7627 15.9552 27.6978L16.1497 27.5074C16.2164 27.4406 16.2814 27.3757 16.3523 27.3169ZM16.3826 27.6674C16.3217 27.8373 16.25 28.0031 16.1678 28.1638C15.9976 28.5043 15.7424 28.9297 15.6308 29.1466L16.3826 27.6674Z" fill="#CFB66C"/>
<path fill-rule="evenodd" clip-rule="evenodd" d="M16.3904 27.667C16.3904 27.7419 16.3701 27.8068 16.3458 27.8716C16.3221 27.9364 16.2951 28 16.2648 28.0621C16.2344 28.1229 16.1999 28.1878 16.1654 28.2465C16.131 28.3053 16.0905 28.3659 16.0601 28.4268L15.8554 28.7875C15.7845 28.9077 15.7156 29.0286 15.6406 29.1441C15.6913 29.0144 15.7602 28.8929 15.8251 28.7733C15.896 28.6531 15.9608 28.5329 16.0255 28.4085C16.057 28.3466 16.0854 28.2831 16.1105 28.2182C16.1409 28.1533 16.1712 28.0925 16.1956 28.0338C16.226 27.969 16.2503 27.9081 16.2807 27.8494C16.3151 27.7865 16.3435 27.7258 16.3901 27.667H16.3904Z" fill="#CFB66C"/>
<path fill-rule="evenodd" clip-rule="evenodd" d="M17.1095 29.3289C17.1095 29.3289 16.9091 29.5943 16.9291 29.9306C16.9838 29.7544 17.0527 29.4849 17.1095 29.3289ZM17.3 29.5949C17.3 29.5949 17.229 30.3162 17.1702 30.6708C17.2533 30.2609 17.2695 30.2953 17.3 29.5949ZM18.6272 30.7134C18.6272 30.7134 18.3273 31.5949 18.3211 31.8399C18.3861 31.588 18.5116 31.0734 18.6272 30.7127V30.7134Z" fill="#DEC270"/>
<path fill-rule="evenodd" clip-rule="evenodd" d="M19.3181 29.2739C19.3181 29.2739 19.8045 30.0763 20.1693 30.761C20.0706 30.4164 19.8435 29.7844 19.3181 29.2739Z" fill="#CBAF59"/>
<path fill-rule="evenodd" clip-rule="evenodd" d="M20.6335 30.4548C20.9006 30.9268 21.1414 31.4131 21.3549 31.9116C21.3144 31.5672 21.2049 30.9776 20.6335 30.4548Z" fill="#E3C677"/>
<path fill-rule="evenodd" clip-rule="evenodd" d="M24.4731 31.6373C24.5541 31.5867 24.7142 31.311 24.8541 31.2422C24.9938 31.1713 25.0992 31.1571 25.2249 31.0173C25.3504 30.8713 25.3852 30.7822 25.6605 30.6668C26.0456 30.5005 25.7807 30.2857 25.7807 30.2857C25.8231 30.2441 25.8685 30.2055 25.9164 30.1703C26.0158 30.0954 26.1312 30.0042 26.1212 29.844C26.107 29.5746 26.0564 29.1836 25.8355 28.9566C26.0503 28.912 26.4615 28.8817 26.7171 28.8169C27.0128 28.7419 27.1486 28.6365 27.1486 28.6365C27.1486 28.6365 26.9785 28.3468 27.254 28.0551C27.5296 27.7634 27.7546 27.5891 27.9207 27.2628C27.7302 27.2385 27.4398 27.1372 26.6988 27.4188C26.7388 27.4376 26.7774 27.4592 26.8143 27.4835C26.8143 27.4835 26.3584 27.6092 26.1922 27.7491C25.9024 27.9942 25.8659 28.1948 25.5519 28.3448C25.2378 28.4948 24.9217 28.4542 24.6604 28.5757C24.3991 28.6973 24.3605 28.8006 24.2651 28.8452C24.2854 28.8695 24.2611 28.91 24.2996 28.9445C24.2753 28.9789 24.1334 29.2099 23.9896 29.2099C24.0037 29.2646 24.1253 29.3051 24.1253 29.3051C24.1253 29.3051 24.0362 29.37 23.8092 29.3862C23.9246 29.5064 24.0342 29.6374 24.3361 29.8279C24.3118 29.8785 24.2104 29.9536 24.251 30.0488C24.2956 30.144 24.4113 30.2737 24.873 30.3791C24.6379 30.3891 24.3625 30.4439 23.9914 30.3933C23.6206 30.3486 23.5599 30.3223 23.3309 30.3791C23.3552 30.4034 23.42 30.4034 23.4768 30.4682C23.416 30.4722 23.035 30.4236 22.9053 30.5939C22.7696 30.77 22.7108 31.0599 22.721 31.2544C22.6501 31.2888 22.5811 31.3496 22.6156 31.4753C22.6501 31.601 22.8304 31.6414 22.9459 31.7204C23.0613 31.8054 23.0715 31.8358 23.181 31.8156C23.2964 31.7913 23.4666 31.6759 23.566 31.6759C23.6654 31.6759 23.7362 31.7508 23.7362 31.7508C23.7362 31.7508 24.0057 31.6211 24.032 31.6454C24.0564 31.6697 24.0361 31.8257 24.0624 31.8501C24.0891 31.8684 24.3927 31.688 24.4738 31.6373H24.4731Z" fill="#ECD592"/>
<path fill-rule="evenodd" clip-rule="evenodd" d="M30.3563 23.5294C29.0899 20.2592 25.9591 19.6533 25.9591 19.6533H17.027L17.0615 22.9843H18.8403V30.4224H17.0269V33.7474H25.7119C27.805 33.7474 29.4829 31.6441 29.4829 31.6441C32.1697 27.831 30.3562 23.5294 30.3562 23.5294H30.3563ZM25.7585 29.4032C25.7585 29.4032 25.0772 30.3859 24.336 30.3859H22.8533L22.8182 22.9924H24.721C24.721 22.9924 25.6026 23.1768 26.2185 24.9213C26.2185 24.9213 27.0351 27.4189 25.7585 29.4032Z" fill="white" fill-opacity="0.8"/>
</g>
<defs>
<clipPath id="clip0_1_11704">
<rect width="25.0456" height="25.0435" fill="white" transform="translate(10.9543 14.0869)"/>
</clipPath>
</defs>
</svg>
