<svg width="37" height="41" viewBox="0 0 37 41" fill="none" xmlns="http://www.w3.org/2000/svg">
<path d="M14.0917 27.3387C21.0233 27.3387 26.601 21.7615 26.601 14.8304C26.601 7.8994 21.0233 2.32219 14.0917 2.32219C7.16017 2.32219 1.58244 7.8994 1.58244 14.8304C1.58244 21.7615 7.16017 27.3387 14.0917 27.3387Z" fill="#204AF8" stroke="white" stroke-width="0.728666"/>
<path fill-rule="evenodd" clip-rule="evenodd" d="M9.76125 7.96513C9.44308 7.31711 8.78402 6.90649 8.0621 6.90649H6.68316C6.3993 6.90649 6.16919 7.13661 6.16919 7.42047C6.16919 7.74923 6.50863 7.99273 6.78177 8.17571C6.79852 8.18694 6.81498 8.19888 6.8311 8.21155L10.9079 11.4159C11.2519 11.6864 11.3116 12.1845 11.0411 12.5286C10.7707 12.8726 10.2725 12.9323 9.92839 12.6619L7.65893 10.878C7.05482 10.4032 6.16919 10.8335 6.16919 11.6019C6.16919 12.0337 6.46925 12.4075 6.89084 12.5009L9.74579 13.1332C10.1731 13.2278 10.4427 13.6509 10.3481 14.0782C10.2534 14.5055 9.83032 14.7751 9.40305 14.6805L7.13415 14.178C6.63881 14.0683 6.16919 14.4453 6.16919 14.9526C6.16919 15.4639 6.64579 15.8417 7.14363 15.7251L9.44256 15.1863C9.86864 15.0864 10.295 15.3508 10.3949 15.7769C10.4948 16.203 10.2303 16.6294 9.80425 16.7292L6.89694 17.4106C6.47062 17.5105 6.16919 17.8908 6.16919 18.3286C6.16919 19.1209 7.08701 19.56 7.70383 19.0628L10.0547 17.1679C10.3954 16.8932 10.8943 16.9468 11.169 17.2875C11.4437 17.6282 11.3901 18.1271 11.0494 18.4017L7.0122 21.6558C6.93731 21.7162 6.85477 21.7607 6.76865 21.7898C6.49871 21.881 6.16919 22.0831 6.16919 22.3681C6.16919 22.5814 6.34212 22.7543 6.55544 22.7543H8.22889C9.02353 22.7543 9.74729 22.2972 10.0887 21.5797L11.4646 18.6884C11.6527 18.2932 12.1255 18.1253 12.5207 18.3133C12.9159 18.5013 13.0838 18.9741 12.8958 19.3693L11.8445 21.5784C11.5848 22.1242 11.9828 22.7543 12.5872 22.7543C13.0428 22.7543 13.4115 22.384 13.4097 21.9285L13.3995 19.4448C13.3977 19.0071 13.7511 18.6509 14.1887 18.6491C14.6264 18.6473 14.9826 19.0006 14.9844 19.4383L14.9946 21.9275C14.9965 22.3847 15.3676 22.7543 15.8248 22.7543C16.4379 22.7543 16.8396 22.1126 16.5716 21.5612L15.4685 19.2911C15.2772 18.8975 15.4413 18.4233 15.8349 18.2321C16.2286 18.0408 16.7027 18.2049 16.894 18.5985L18.3911 21.6793C18.7106 22.3369 19.3776 22.7543 20.1087 22.7543H21.5248C21.7974 22.7543 22.0183 22.5333 22.0183 22.2607C22.0183 21.9371 21.6777 21.6994 21.402 21.53C21.3752 21.5135 21.3491 21.4953 21.3239 21.4753L17.2602 18.2543C16.9173 17.9824 16.8596 17.484 17.1315 17.1411C17.4034 16.7981 17.9018 16.7405 18.2448 17.0123L20.5174 18.8137C21.1242 19.2947 22.0183 18.8625 22.0183 18.0881C22.0183 17.6553 21.7185 17.2803 21.2964 17.185L18.4464 16.5415C18.0195 16.4452 17.7516 16.021 17.848 15.5941C17.9444 15.1672 18.3686 14.8993 18.7954 14.9957L21.0525 15.5053C21.5475 15.617 22.0183 15.2406 22.0183 14.7332C22.0183 14.2244 21.5452 13.8477 21.0494 13.9618L18.7531 14.4901C18.3267 14.5882 17.9014 14.322 17.8032 13.8955C17.7051 13.4691 17.9713 13.0438 18.3978 12.9457L21.2895 12.2804C21.7161 12.1822 22.0183 11.8025 22.0183 11.3648C22.0183 10.5772 21.1075 10.1392 20.4923 10.6309L18.1464 12.506C17.8045 12.7793 17.3059 12.7237 17.0326 12.3818C16.7593 12.04 16.8149 11.5414 17.1568 11.2681L21.2072 8.03055C21.2732 7.97781 21.345 7.93733 21.4199 7.90878C21.6908 7.80557 22.0183 7.59893 22.0183 7.30908C22.0183 7.08674 21.8381 6.90649 21.6158 6.90649H19.9756C19.1905 6.90649 18.4749 7.35642 18.1347 8.06393L16.732 10.9808C16.5423 11.3752 16.0688 11.5412 15.6744 11.3516C15.2799 11.1619 15.1139 10.6884 15.3036 10.294L16.3683 8.0801C16.6297 7.53653 16.2336 6.90649 15.6304 6.90649C15.1782 6.90649 14.8116 7.27307 14.8116 7.72526V10.2162C14.8116 10.6538 14.4569 11.0086 14.0192 11.0086C13.5815 11.0086 13.2267 10.6538 13.2267 10.2162V7.75855C13.2267 7.28797 12.8453 6.90649 12.3747 6.90649C11.744 6.90649 11.3319 7.56793 11.6098 8.13409L12.7084 10.3715C12.9013 10.7644 12.7392 11.2392 12.3463 11.4321C11.9535 11.6249 11.4786 11.4628 11.2857 11.0699L9.76125 7.96513Z" fill="white"/>
<g clip-path="url(#clip0_1_12024)">
<path d="M33.1883 34.216C32.9193 37.6088 29.1534 40.466 23.5046 40.3231C18.192 40.1803 14.4597 37.8231 14.1907 34.4303C14.1571 34.0017 14.1907 33.5731 14.2243 33.1088C14.3924 31.7874 14.8295 30.5374 15.4684 29.3945L15.8719 29.5731C16.9142 29.1445 17.9902 28.8231 19.0998 28.6088C20.5457 28.3945 22.0251 28.3588 23.471 28.466C24.9168 28.3588 26.3963 28.3945 27.8421 28.6088C28.9517 28.8231 30.0277 29.1445 31.07 29.5731L31.4735 29.3945L31.7425 29.2517C32.3814 30.3945 32.8185 31.6445 33.0538 32.966C33.1211 33.3588 33.1547 33.7874 33.1211 34.1803" fill="#F4A427"/>
<path d="M33.1883 34.216C32.9193 37.5732 29.1871 40.3232 23.5046 40.2874C18.192 40.1446 14.4597 37.7874 14.1907 34.3946C14.1571 33.966 14.1907 33.5374 14.2243 33.0732C14.7959 32.9303 15.3675 32.9303 15.9391 33.0374C17.0151 33.216 17.6203 33.9303 18.3937 34.2874C18.8308 34.5017 19.2679 34.1446 19.6714 33.7517C20.7474 32.6446 22.1932 32.0017 23.6727 31.966C25.1858 31.9303 26.4299 32.5732 27.7412 33.8589C28.0102 34.1446 28.3801 34.3232 28.7499 34.2874C29.0862 34.1803 29.4224 34.0017 29.6914 33.7517C30.7001 33.0374 31.9106 32.7517 33.0875 32.9303C33.1883 33.3946 33.222 33.7874 33.1883 34.216Z" fill="white"/>
<path d="M17.5537 25.8587C17.1838 26.2515 16.7131 26.5372 16.2087 26.6444L16.007 26.6801C15.8052 26.7515 15.6035 26.7872 15.3681 26.7872C15.3345 26.7872 15.2672 26.7872 15.2336 26.7872C15.1327 26.7515 14.9982 26.7158 14.8974 26.6801C14.5275 26.5015 14.1913 26.2872 13.8886 26.0015C13.2834 25.4658 12.7118 24.8587 12.2747 24.1444C10.4253 21.2872 10.997 17.4301 13.5524 15.2872C13.7205 15.1801 13.9223 15.1801 14.0568 15.3587C14.124 15.4658 14.1576 15.5729 14.124 15.6801C13.8886 16.8229 13.6869 18.6087 14.6956 20.1444C15.5698 21.4301 17.3855 22.6801 18.4951 22.6801C18.7305 24.1087 18.3606 25.0729 17.5537 25.8587Z" fill="#F79422"/>
<path d="M17.5537 25.8587C17.1838 26.2515 16.7131 26.5372 16.2087 26.6444L16.007 26.6801C15.8052 26.7515 15.6035 26.7872 15.3681 26.7872C15.3345 26.7872 15.2672 26.7872 15.2336 26.7872C15.1327 26.7515 14.9982 26.7158 14.8974 26.6801C14.5275 26.5015 14.1913 26.2872 13.8886 26.0015C13.2834 25.4658 12.7118 24.8587 12.2747 24.1444C10.4253 21.2872 10.997 17.4301 13.5524 15.2872C13.7205 15.1801 13.9223 15.1801 14.0568 15.3587C14.124 15.4658 14.1576 15.5729 14.124 15.6801C13.8886 16.8229 13.6869 18.6087 14.6956 20.1444C15.5698 21.4301 17.3855 22.6801 18.4951 22.6801C18.7305 24.1087 18.3606 25.0729 17.5537 25.8587Z" stroke="#221F1F" stroke-width="0.708333" stroke-linejoin="round"/>
<path d="M22.3964 20.9302L21.9593 25.5016H21.9257C21.2532 25.6087 20.3453 25.7516 19.1012 25.9659C17.958 26.1445 16.4113 27.0016 15.5035 27.573L15.4026 26.823C15.6043 26.7873 15.8397 26.7516 16.0414 26.7159L16.2432 26.6802C16.7476 26.573 17.2183 26.2873 17.5882 25.8945C18.3615 25.073 18.765 24.1445 18.496 22.6802L18.6305 22.7159C19.034 22.2516 19.5047 21.8945 20.0427 21.6087C20.7488 21.1802 21.5558 20.9659 22.3964 20.9302Z" fill="#5A595C"/>
<path d="M22.3964 20.9302L21.9593 25.5016H21.9257C21.2532 25.6087 20.3453 25.7516 19.1012 25.9659C17.958 26.1445 16.4113 27.0016 15.5035 27.573L15.4026 26.823C15.6043 26.7873 15.8397 26.7516 16.0414 26.7159L16.2432 26.6802C16.7476 26.573 17.2183 26.2873 17.5882 25.8945C18.3615 25.073 18.765 24.1445 18.496 22.6802L18.6305 22.7159C19.034 22.2516 19.5047 21.8945 20.0427 21.6087C20.7488 21.1802 21.5558 20.9659 22.3964 20.9302Z" stroke="#221F1F" stroke-width="0.708333" stroke-linejoin="round"/>
<path d="M32.2128 29.1445L31.9438 29.2873L31.6749 29.4302L31.2714 29.6087C30.229 29.1802 29.153 28.8587 28.0434 28.6445C26.5976 28.3587 25.1518 28.2159 23.6723 28.2159C22.1928 28.2159 20.747 28.323 19.3012 28.6445C18.1916 28.8587 17.1156 29.1802 16.0732 29.6087C15.9387 29.5373 15.8043 29.4659 15.6698 29.4302L15.0981 29.1445C15.1318 28.6445 15.0981 28.3587 15.0981 27.8587C15.199 27.7873 15.3671 27.6802 15.5353 27.573L15.5689 27.5373C16.4431 26.9659 17.9898 26.1445 19.133 25.9302C20.3771 25.7159 21.2514 25.573 21.9575 25.4659C22.3946 25.4302 22.8653 25.4302 23.3361 25.4302C24.0422 25.4302 24.681 25.4302 25.3199 25.4659C25.9924 25.573 26.9002 25.7159 28.1779 25.9302C29.3548 26.1087 30.9015 26.9659 31.8094 27.5373H31.843C32.0111 27.6445 32.1456 27.7159 32.2465 27.823C32.2128 28.3587 32.1792 28.6445 32.2128 29.1445Z" fill="#929497"/>
<path d="M32.2128 29.1445L31.9438 29.2873L31.6749 29.4302L31.2714 29.6087C30.229 29.1802 29.153 28.8587 28.0434 28.6445C26.5976 28.3945 25.1518 28.2516 23.6723 28.2516C22.1928 28.2516 20.747 28.3587 19.3012 28.6445C18.1916 28.8587 17.1156 29.1802 16.0732 29.6087C15.9387 29.5373 15.8043 29.4659 15.6698 29.4302L15.0981 29.1445C15.1318 28.6445 15.0981 28.3587 15.0981 27.8587C15.199 27.7873 15.3671 27.6802 15.5353 27.573L15.5689 27.5373C16.4431 26.9659 17.9898 26.1445 19.133 25.9302C20.3771 25.7159 21.2514 25.573 21.9575 25.4659C22.3946 25.4302 22.8653 25.4302 23.3361 25.4302C24.0422 25.4302 24.681 25.4302 25.3199 25.4659C25.9924 25.573 26.9002 25.7159 28.1779 25.9302C29.3548 26.1087 30.9015 26.9659 31.8094 27.5373H31.843C32.0111 27.6445 32.1456 27.7159 32.2465 27.823C32.2128 28.3587 32.1792 28.6445 32.2128 29.1445Z" stroke="#221F1F" stroke-width="0.708333" stroke-linecap="round" stroke-linejoin="round"/>
<path d="M25.2884 25.5016C24.6832 25.4659 24.0107 25.4302 23.3046 25.4659C22.8339 25.4659 22.3631 25.5016 21.926 25.5016H21.9596L22.3968 20.9302L22.4976 20.0016C22.8339 19.7873 23.2374 19.6802 23.6072 19.6802H23.6745C24.078 19.6802 24.4478 19.7873 24.7841 20.0016L24.885 20.9302V20.9659L25.2884 25.5016Z" fill="#929497"/>
<path d="M25.2884 25.5016C24.6832 25.4659 24.0107 25.4302 23.3046 25.4659C22.8339 25.4659 22.3631 25.5016 21.926 25.5016H21.9596L22.3968 20.9302L22.4976 20.0016C22.8339 19.7873 23.2374 19.6802 23.6072 19.6802H23.6745C24.078 19.6802 24.4478 19.7873 24.7841 20.0016L24.885 20.9302V20.9659L25.2884 25.5016Z" stroke="#221F1F" stroke-width="0.708333" stroke-linecap="round" stroke-linejoin="round"/>
<ellipse cx="31.9445" cy="29.2875" rx="0.168121" ry="0.178571" fill="#221F1F"/>
<path d="M33.1899 34.2515C32.9209 37.6444 28.8523 40.3587 23.5061 40.3587C18.1935 40.2158 14.4612 37.8587 14.2258 34.4658C14.1922 34.0372 14.2258 33.6087 14.2595 33.1444C14.4276 31.823 14.8647 30.573 15.5036 29.4301L15.907 29.6087C16.9494 29.1801 18.0254 28.8587 19.135 28.6444C20.5808 28.3587 22.0266 28.2515 23.5061 28.2158C24.9856 28.2158 26.4314 28.3587 27.8772 28.6444C28.9868 28.8587 30.0628 29.1801 31.1052 29.6087L31.5423 29.4301L31.8113 29.2872C32.4501 30.4301 32.8872 31.6801 33.1226 33.0015C33.2235 33.4301 33.2235 33.8587 33.1899 34.2515Z" stroke="#221F1F" stroke-width="0.708333" stroke-linecap="round" stroke-linejoin="round"/>
<path d="M34.8366 24.1445C34.3658 24.8231 33.8278 25.4659 33.189 26.0016C32.8863 26.2873 32.5501 26.5016 32.1802 26.6802L32.0121 26.7516L31.9112 26.7873C31.6759 26.8588 31.5414 26.7873 31.1043 26.7159L30.9025 26.6802C30.3982 26.5731 29.9274 26.2873 29.5576 25.8945C28.7842 25.0731 28.3807 24.1445 28.6497 22.6802C29.7257 22.7159 31.575 21.4659 32.4492 20.1445C33.4243 18.6088 33.2226 16.8231 32.9872 15.6802C32.9536 15.4659 33.0545 15.2873 33.2562 15.2159C33.3571 15.1802 33.4916 15.2159 33.5588 15.2873C36.1143 17.4302 36.6859 21.3231 34.8366 24.1445Z" fill="#F79422"/>
<path d="M34.8366 24.1445C34.3658 24.8231 33.8278 25.4659 33.189 26.0016C32.8863 26.2873 32.5501 26.5016 32.1802 26.6802L32.0121 26.7516L31.9112 26.7873C31.6759 26.8588 31.5414 26.7873 31.1043 26.7159L30.9025 26.6802C30.3982 26.5731 29.9274 26.2873 29.5576 25.8945C28.7842 25.0731 28.3807 24.1445 28.6497 22.6802C29.7257 22.7159 31.575 21.4659 32.4492 20.1445C33.4243 18.6088 33.2226 16.8231 32.9872 15.6802C32.9536 15.4659 33.0545 15.2873 33.2562 15.2159C33.3571 15.1802 33.4916 15.2159 33.5588 15.2873C36.1143 17.4302 36.6859 21.3231 34.8366 24.1445Z" stroke="#221F1F" stroke-width="0.708333" stroke-linejoin="round"/>
<path d="M31.9117 26.7873L31.7772 27.573C30.8693 27.0016 29.3226 26.1445 28.1458 25.9659C26.868 25.7516 25.9938 25.6087 25.2877 25.5016L24.8506 20.9302C25.6239 20.9659 26.3973 21.2159 27.1034 21.6087C27.6414 21.8945 28.1121 22.2873 28.5156 22.7159L28.6501 22.6802C28.3811 24.1087 28.7846 25.073 29.558 25.8945C29.9278 26.2873 30.3986 26.573 30.9029 26.6802C30.9366 26.6802 31.0711 26.7516 31.1047 26.7516C31.3737 26.8587 31.6427 26.8587 31.9117 26.7873Z" fill="#5A595C"/>
<path d="M31.9117 26.7873L31.7772 27.573C30.8693 27.0016 29.3226 26.1445 28.1458 25.9659C26.868 25.7516 25.9938 25.6087 25.2877 25.5016L24.8506 20.9302C25.6239 20.9659 26.3973 21.2159 27.1034 21.6087C27.6414 21.8945 28.1121 22.2873 28.5156 22.7159L28.6501 22.6802C28.3811 24.1087 28.7846 25.073 29.558 25.8945C29.9278 26.2873 30.3986 26.573 30.9029 26.6802L31.1047 26.7159C31.5418 26.7873 31.6763 26.8587 31.9117 26.7873Z" stroke="#221F1F" stroke-width="0.708333" stroke-linejoin="round"/>
<path d="M24.8491 20.9302H24.7146" stroke="#221F1F" stroke-width="0.708333" stroke-linejoin="round"/>
<path d="M31.9445 26.6089C32.1799 26.8946 32.1126 27.3232 31.8436 27.5732C31.81 27.6089 31.81 27.6089 31.7764 27.6446" fill="#F79422"/>
<path d="M31.9445 26.6089C32.1799 26.8946 32.1126 27.3232 31.8436 27.5732C31.81 27.6089 31.81 27.6089 31.7764 27.6446" stroke="#221F1F" stroke-width="0.708333" stroke-miterlimit="10"/>
<path d="M15.367 26.6089C15.1317 26.8946 15.1989 27.3232 15.4679 27.5732C15.5015 27.6089 15.5015 27.6089 15.5352 27.6446" fill="#F79422"/>
<path d="M15.367 26.6089C15.1317 26.8946 15.1989 27.3232 15.4679 27.5732C15.5015 27.6089 15.5015 27.6089 15.5352 27.6446" stroke="#221F1F" stroke-width="0.708333" stroke-miterlimit="10"/>
<path d="M22.3962 35.6085C22.6316 35.68 22.9006 35.6443 23.136 35.5014C23.5058 35.3585 23.7412 34.9657 23.7076 34.5371C23.674 34.9657 23.9093 35.3585 24.2792 35.5014C24.5146 35.6085 24.7499 35.6443 24.9853 35.6085" stroke="#171717" stroke-width="0.708333" stroke-linecap="round" stroke-linejoin="round"/>
<path d="M25.0183 33.3231C25.0183 33.7517 24.4131 34.3231 23.6733 34.3231C22.9336 34.3231 22.3284 33.7517 22.3284 33.3231C22.3284 32.8946 22.9336 32.7517 23.6733 32.7517C24.4131 32.7517 25.0183 32.9303 25.0183 33.3231Z" fill="#171717"/>
<path d="M24.2108 33.1801C24.2108 33.2873 23.9419 33.4301 23.6392 33.4301C23.3366 33.4301 23.0676 33.2873 23.0676 33.2158C23.0676 33.1444 23.3366 33.1444 23.6392 33.1444C23.9419 33.1444 24.2108 33.073 24.2108 33.1801Z" fill="white"/>
<path d="M21.556 34.5371C21.5224 35.0371 21.825 35.4657 22.2957 35.5728H22.3966" stroke="#171717" stroke-width="0.708333" stroke-linecap="round" stroke-linejoin="round"/>
<path d="M23.7063 34.0374C23.7063 34.2159 23.7063 34.3588 23.7063 34.5374" stroke="#171717" stroke-width="0.708333" stroke-linecap="round" stroke-linejoin="round"/>
<path d="M25.019 35.609H25.1199C25.5907 35.5018 25.9269 35.0732 25.8596 34.5732" stroke="#171717" stroke-width="0.708333" stroke-linecap="round" stroke-linejoin="round"/>
<path d="M33.5593 15.2874C36.1148 17.4302 36.6527 21.2874 34.8034 24.1088" stroke="#221F1F" stroke-width="0.708333" stroke-linejoin="round"/>
<path d="M17.5537 25.8587C17.1838 26.2515 16.7131 26.5372 16.2087 26.6444L16.007 26.6801C15.8052 26.7515 15.6035 26.7872 15.3681 26.7872C15.3345 26.7872 15.2672 26.7872 15.2336 26.7872C15.1327 26.7515 14.9982 26.7158 14.8974 26.6801C14.5275 26.5015 14.1913 26.2872 13.8886 26.0015C13.2834 25.4658 12.7118 24.8587 12.2747 24.1444C10.4253 21.2872 10.997 17.4301 13.5524 15.2872C13.7205 15.1801 13.9223 15.1801 14.0568 15.3587C14.124 15.4658 14.1576 15.5729 14.124 15.6801C13.8886 16.8229 13.6869 18.6087 14.6956 20.1444C15.5698 21.4301 17.3855 22.6801 18.4951 22.6801C18.7305 24.1087 18.3606 25.0729 17.5537 25.8587Z" stroke="#221F1F" stroke-width="0.708333" stroke-linejoin="round"/>
<path d="M21.2178 31.0015C21.2178 31.7872 20.7807 32.3944 20.2427 32.3944C19.7047 32.3944 19.2676 31.7515 19.2676 31.0015C19.2676 30.3229 19.6038 29.7515 20.0409 29.6086L21.1169 30.4658C21.1842 30.6444 21.2178 30.8229 21.2178 31.0015Z" fill="#221F1F"/>
<path d="M20.848 30.8232C20.848 31.109 20.6799 31.3232 20.5118 31.3232C20.3437 31.3232 20.1755 31.109 20.1755 30.8232C20.1755 30.5375 20.3437 30.3232 20.5118 30.3232C20.6799 30.3232 20.848 30.5375 20.848 30.8232Z" fill="white"/>
<path d="M20.0426 32.0731C19.6727 32.3946 19.3364 32.7517 19.0338 33.1446C18.8993 33.3231 18.7648 33.5374 18.664 33.7874C18.5631 34.0017 18.4958 34.2517 18.4622 34.5017C18.4286 34.6089 18.4286 34.7517 18.4286 34.8589V35.0374V35.216C18.4286 35.466 18.4286 35.716 18.4286 36.0017C18.4622 36.2517 18.4958 36.5374 18.5295 36.7874C18.5631 36.9303 18.5631 37.0374 18.5967 37.1803C18.6303 37.2874 18.664 37.4303 18.7312 37.5374C18.664 37.4303 18.6303 37.2874 18.5631 37.1803C18.5295 37.0731 18.4622 36.9303 18.4286 36.8231C18.3613 36.5731 18.2941 36.3231 18.2268 36.0374C18.1932 35.7874 18.1596 35.5017 18.126 35.2517V35.0731V34.8589C18.126 34.716 18.126 34.5731 18.126 34.466C18.1596 34.1803 18.1932 33.8946 18.2941 33.6446C18.395 33.3946 18.4958 33.1446 18.6303 32.8946C18.933 32.4303 19.2356 32.0017 19.6054 31.6446C19.7399 31.5374 19.9081 31.5374 20.0426 31.6446C20.1434 31.716 20.177 31.9303 20.0426 32.0731Z" fill="#221F1F"/>
<path d="M19.8074 31.9659C19.7737 31.9659 19.7737 31.9659 19.7401 31.9659H19.7065H19.6393L19.4711 31.9301C19.3703 31.8944 19.2694 31.8944 19.1685 31.8944C18.9668 31.8944 18.7314 31.8944 18.5297 31.9659C18.4288 32.0016 18.3279 32.0373 18.227 32.073C17.9244 32.2159 17.6554 32.4659 17.4873 32.7516C17.5882 32.5016 17.689 32.2873 17.8572 32.1087C17.9244 32.0016 18.0253 31.9301 18.1262 31.8587C18.227 31.7873 18.3279 31.7159 18.4288 31.6444C18.6305 31.5016 18.8659 31.4301 19.1349 31.3587C19.2694 31.323 19.3703 31.323 19.5048 31.323C19.572 31.323 19.6393 31.323 19.7065 31.323H19.841C20.0091 31.323 20.1436 31.4659 20.1772 31.6444C20.2109 31.823 20.0091 31.9659 19.8074 31.9659Z" fill="#221F1F"/>
<path d="M28.1126 31.0015C28.1126 31.7872 27.6755 32.3944 27.1711 32.3944C26.6668 32.3944 26.196 31.7515 26.196 31.0015C26.196 30.8229 26.2297 30.6444 26.2633 30.4658L27.3393 29.6086C27.7764 29.7515 28.1126 30.3229 28.1126 31.0015Z" fill="#221F1F"/>
<path d="M26.5305 30.8232C26.5305 31.109 26.6986 31.3232 26.8668 31.3232C27.0349 31.3232 27.203 31.109 27.203 30.8232C27.203 30.5375 27.0349 30.3232 26.8668 30.3232C26.6986 30.3232 26.5305 30.5375 26.5305 30.8232Z" fill="white"/>
<path d="M27.7741 31.5733C28.144 31.9662 28.4466 32.359 28.7156 32.8233C28.8501 33.0376 28.9846 33.2876 29.0855 33.5376C29.1864 33.7876 29.2536 34.0733 29.2872 34.3233C29.3208 34.609 29.3208 34.859 29.2872 35.1447C29.2536 35.3947 29.22 35.6804 29.1864 35.9304C29.1527 36.1804 29.0855 36.4304 29.0182 36.6804C28.9846 36.7876 28.951 36.9304 28.8837 37.0376C28.8501 37.1447 28.7829 37.2876 28.7156 37.3947C28.7492 37.2876 28.8165 37.1447 28.8501 37.0376C28.8837 36.9304 28.9174 36.7876 28.951 36.6804C28.9846 36.4304 29.0519 36.1804 29.0519 35.9304C29.0855 35.6804 29.0855 35.4304 29.0855 35.1447C29.0855 34.8947 29.0519 34.6447 29.0182 34.3947C28.951 34.1447 28.8837 33.9304 28.7829 33.7162C28.682 33.5019 28.5475 33.2876 28.3794 33.109C28.0768 32.7162 27.7405 32.359 27.3706 32.0376C27.2362 31.8947 27.2362 31.7162 27.3706 31.5733C27.4715 31.4662 27.6396 31.4305 27.7741 31.5376V31.5733Z" fill="#221F1F"/>
<path d="M27.5749 31.3229H27.743C27.8103 31.3229 27.8775 31.3229 27.9448 31.3229C28.0793 31.3229 28.2138 31.3229 28.3483 31.3586C28.6172 31.3943 28.8526 31.4657 29.088 31.5729C29.3234 31.68 29.5251 31.8586 29.7268 32.0372C29.895 32.2157 30.0295 32.4658 30.1303 32.68C29.9958 32.4658 29.8277 32.2872 29.626 32.1443C29.4242 32.0015 29.2225 31.8943 28.9871 31.8586C28.7517 31.8229 28.5164 31.8229 28.281 31.8229C28.1801 31.8229 28.0456 31.8586 27.9448 31.8586L27.7766 31.8943H27.7094H27.6758H27.6421H27.6085C27.4404 31.93 27.2723 31.7872 27.2723 31.6086C27.2387 31.43 27.3731 31.2515 27.5413 31.2515C27.5749 31.2515 27.5749 31.2515 27.6085 31.2515" fill="#221F1F"/>
</g>
<defs>
<clipPath id="clip0_1_12024">
<rect width="25.05" height="25.5" fill="white" transform="translate(11.0312 15.0371)"/>
</clipPath>
</defs>
</svg>
