<svg width="36" height="40" viewBox="0 0 36 40" fill="none" xmlns="http://www.w3.org/2000/svg">
<path d="M14.0917 27.0753C21.0233 27.0753 26.601 21.4981 26.601 14.567C26.601 7.63598 21.0233 2.05876 14.0917 2.05876C7.16017 2.05876 1.58244 7.63598 1.58244 14.567C1.58244 21.4981 7.16017 27.0753 14.0917 27.0753Z" fill="#204AF8" stroke="white" stroke-width="0.728666"/>
<path fill-rule="evenodd" clip-rule="evenodd" d="M9.76125 7.7017C9.44308 7.05369 8.78402 6.64307 8.0621 6.64307H6.68316C6.3993 6.64307 6.16919 6.87318 6.16919 7.15704C6.16919 7.4858 6.50863 7.7293 6.78177 7.91228C6.79852 7.92351 6.81498 7.93545 6.8311 7.94812L10.9079 11.1525C11.2519 11.4229 11.3116 11.9211 11.0411 12.2652C10.7707 12.6092 10.2725 12.6689 9.92839 12.3984L7.65893 10.6146C7.05482 10.1398 6.16919 10.5701 6.16919 11.3385C6.16919 11.7703 6.46925 12.1441 6.89084 12.2375L9.74579 12.8698C10.1731 12.9644 10.4427 13.3875 10.3481 13.8148C10.2534 14.242 9.83032 14.5117 9.40305 14.4171L7.13415 13.9145C6.63881 13.8048 6.16919 14.1818 6.16919 14.6892C6.16919 15.2005 6.64579 15.5783 7.14363 15.4616L9.44256 14.9228C9.86864 14.823 10.295 15.0874 10.3949 15.5135C10.4948 15.9396 10.2303 16.3659 9.80425 16.4658L6.89694 17.1472C6.47062 17.2471 6.16919 17.6274 6.16919 18.0652C6.16919 18.8575 7.08701 19.2965 7.70383 18.7993L10.0547 16.9045C10.3954 16.6298 10.8943 16.6834 11.169 17.0241C11.4437 17.3648 11.3901 17.8636 11.0494 18.1383L7.0122 21.3924C6.93731 21.4528 6.85477 21.4973 6.76865 21.5264C6.49871 21.6176 6.16919 21.8197 6.16919 22.1046C6.16919 22.318 6.34212 22.4909 6.55544 22.4909H8.22889C9.02353 22.4909 9.74729 22.0338 10.0887 21.3162L11.4646 18.425C11.6527 18.0298 12.1255 17.8618 12.5207 18.0499C12.9159 18.2379 13.0838 18.7107 12.8958 19.1059L11.8445 21.315C11.5848 21.8608 11.9828 22.4909 12.5872 22.4909C13.0428 22.4909 13.4115 22.1206 13.4097 21.665L13.3995 19.1813C13.3977 18.7437 13.7511 18.3874 14.1887 18.3857C14.6264 18.3839 14.9826 18.7372 14.9844 19.1749L14.9946 21.664C14.9965 22.1212 15.3676 22.4909 15.8248 22.4909C16.4379 22.4909 16.8396 21.8492 16.5716 21.2978L15.4685 19.0277C15.2772 18.634 15.4413 18.1599 15.8349 17.9686C16.2286 17.7774 16.7027 17.9414 16.894 18.3351L18.3911 21.4159C18.7106 22.0735 19.3776 22.4909 20.1087 22.4909H21.5248C21.7974 22.4909 22.0183 22.2699 22.0183 21.9973C22.0183 21.6737 21.6777 21.436 21.402 21.2666C21.3752 21.2501 21.3491 21.2319 21.3239 21.2118L17.2602 17.9908C16.9173 17.719 16.8596 17.2206 17.1315 16.8776C17.4034 16.5347 17.9018 16.4771 18.2448 16.7489L20.5174 18.5503C21.1242 19.0313 22.0183 18.5991 22.0183 17.8247C22.0183 17.3919 21.7185 17.0169 21.2964 16.9216L18.4464 16.2781C18.0195 16.1817 17.7516 15.7576 17.848 15.3307C17.9444 14.9038 18.3686 14.6359 18.7954 14.7323L21.0525 15.2418C21.5475 15.3536 22.0183 14.9772 22.0183 14.4697C22.0183 13.961 21.5452 13.5843 21.0494 13.6984L18.7531 14.2267C18.3267 14.3248 17.9014 14.0586 17.8032 13.6321C17.7051 13.2056 17.9713 12.7804 18.3978 12.6822L21.2895 12.0169C21.7161 11.9188 22.0183 11.5391 22.0183 11.1014C22.0183 10.3138 21.1075 9.87575 20.4923 10.3675L18.1464 12.2426C17.8045 12.5158 17.3059 12.4602 17.0326 12.1184C16.7593 11.7766 16.8149 11.278 17.1568 11.0047L21.2072 7.76712C21.2732 7.71439 21.345 7.6739 21.4199 7.64535C21.6908 7.54214 22.0183 7.33551 22.0183 7.04566C22.0183 6.82331 21.8381 6.64307 21.6158 6.64307H19.9756C19.1905 6.64307 18.4749 7.09299 18.1347 7.80051L16.732 10.7174C16.5423 11.1118 16.0688 11.2778 15.6744 11.0881C15.2799 10.8985 15.1139 10.425 15.3036 10.0306L16.3683 7.81667C16.6297 7.2731 16.2336 6.64307 15.6304 6.64307C15.1782 6.64307 14.8116 7.00964 14.8116 7.46183V9.95275C14.8116 10.3904 14.4569 10.7452 14.0192 10.7452C13.5815 10.7452 13.2267 10.3904 13.2267 9.95275V7.49512C13.2267 7.02455 12.8453 6.64307 12.3747 6.64307C11.744 6.64307 11.3319 7.3045 11.6098 7.87066L12.7084 10.1081C12.9013 10.5009 12.7392 10.9758 12.3463 11.1686C11.9535 11.3615 11.4786 11.1994 11.2857 10.8065L9.76125 7.7017Z" fill="white"/>
<g clip-path="url(#clip0_1_11914)">
<path d="M23.3062 39.9599C30.2236 39.9599 35.8312 34.3523 35.8312 27.4349C35.8312 20.5175 30.2236 14.9099 23.3062 14.9099C16.3889 14.9099 10.7812 20.5175 10.7812 27.4349C10.7812 34.3523 16.3889 39.9599 23.3062 39.9599Z" fill="#3D8130"/>
<path d="M28.0764 31.5154L28.0715 31.5105L28.0764 31.5154Z" fill="#3D8130"/>
<path d="M18.2229 24.8418L17.6603 25.9377L17.0781 27.0875L16.6671 28.1638L16.3931 29.3087L16.2219 30.5612L16.1191 31.6425L16.0017 32.3519L16.1191 32.9047L16.3197 33.3793L16.6916 34.0349L17.5527 34.5731L18.1887 34.8226C18.3453 34.8716 18.5116 34.9205 18.6535 34.9645L19.4069 35.1015L20.4833 35.1504H21.3738C21.4765 35.1504 22.3767 35.1015 22.3816 35.0966L23.5265 35.1162L24.6322 34.9792L25.1117 34.7786L25.4395 34.3872L25.4542 33.8686C25.4346 33.8245 25.371 33.6582 25.3514 33.5946C25.3367 33.5506 25.1166 33.2913 24.916 33.0662L24.9111 33.0613C24.823 32.9341 24.6811 32.7139 24.6811 32.6405C24.6811 32.5671 24.7692 32.3519 24.7888 32.3127L24.7986 32.2932L25.2585 32.1611L25.5618 32.3812L25.8358 32.2296L26.144 31.9213L26.6822 31.525L27.1715 31.2462L27.558 31.1728L28.0668 31.5201L28.0326 31.481L28.2429 31.2951L28.4386 30.9722V30.6346L28.3995 30.5367L28.15 30.7373L27.7048 30.8645H27.695L27.01 30.8499L26.0168 30.9526L25.7037 30.9868L25.464 30.9526L24.823 30.8645L24.0989 30.7275L22.9296 30.5367H22.9247L21.8043 30.0719L20.8209 29.5044L20.2191 29.0983L20.1604 28.8096L20.2387 28.5406L20.4784 28.3644L21.0362 28.4916L22.2544 28.8684C22.8513 28.9907 23.7613 29.1717 23.82 29.1766C23.8494 29.1766 23.9668 29.1962 24.2604 29.2451C24.5735 29.294 25.0041 29.3674 25.0921 29.3674C25.2438 29.3674 26.4131 29.431 26.4816 29.4359C26.5452 29.4359 27.4944 29.4163 27.5971 29.4163C27.6656 29.4163 28.0326 29.294 28.2527 29.2157L28.5854 28.8194L28.9034 28.2666C28.923 28.1051 28.9034 27.9437 28.8447 27.792C28.7664 27.5865 28.6197 27.4104 28.4338 27.2929C28.3359 27.4789 28.2087 27.5963 28.0619 27.6501C28.0081 27.6697 27.9445 27.6795 27.8858 27.6795C27.7977 27.6795 27.7096 27.6599 27.6363 27.6208L27.6852 27.5327C27.7928 27.5865 27.9151 27.5963 28.0326 27.5571C28.1647 27.5082 28.2772 27.3908 28.3653 27.2098C28.2576 27.2489 28.1402 27.2734 28.0228 27.2734C27.9494 27.2734 27.876 27.2685 27.8026 27.2489L27.8124 27.2L27.8222 27.1511C27.8271 27.1511 28.2038 27.244 28.4876 27.0239C28.6882 26.8722 28.8007 26.5982 28.8203 26.2215L28.4925 26.608L28.0962 26.789C27.92 26.833 27.3329 26.9798 27.2791 26.9798C27.2595 26.9798 27.1812 26.97 26.9904 26.9358C26.7507 26.8967 26.3935 26.8428 26.3006 26.8428C26.1342 26.8428 25.8994 26.6618 25.8749 26.6422L25.8456 26.6227L26.0315 26.0796L26.5452 25.4974L27.0883 25.1109H27.7635L28.3995 25.1794L28.6735 25.4925L28.8056 25.6882V25.1598L28.2772 24.969C28.2185 24.9592 27.695 24.8858 27.5678 24.8858C27.4454 24.8858 26.9758 24.9592 26.8975 24.969L26.2174 25.4093L26.1636 25.3261L26.8583 24.876H26.8681C26.8926 24.8711 27.421 24.7879 27.5629 24.7879C27.6999 24.7879 28.2674 24.8711 28.2919 24.876L28.3017 24.8809L28.8741 25.0913L28.9279 25.1206L28.9328 25.0815L28.6637 24.8467L28.1793 24.6118L27.5922 24.5629L26.9171 24.6803L26.648 24.7977L26.6088 24.7048L26.8926 24.5825L27.5873 24.4601L28.2038 24.514L28.2283 24.5286L28.0423 24.24L27.5188 23.7801L27.5237 23.7752L25.4884 23.8339C25.4884 23.8339 25.2242 23.8681 24.9209 23.9073L25.2095 24.3232L25.3563 24.5825L25.2829 24.8418L25.1851 24.8124L25.2487 24.5922L25.1215 24.3721L24.8132 23.9269L24.8328 23.9122C24.4512 23.9611 24.0451 24.01 24.0206 24.01C23.9766 24.01 22.3425 24.1323 22.274 24.1323C22.137 24.1226 22 24.1079 21.8679 24.0785C21.8434 24.0638 20.7524 23.6675 20.7133 23.6431C20.6741 23.6186 20.2925 23.2517 20.2925 23.2517L19.5488 23.0217L18.8981 23.8241L18.2229 24.8418ZM26.1636 27.0875C26.2614 27.1315 26.3495 27.1853 26.4425 27.2391L27.0002 27.3027L27.3182 27.2342L27.3378 27.3321L27.0051 27.4006L26.6186 27.3566C26.785 27.4789 26.9366 27.6159 27.0736 27.7724C27.1715 27.885 27.2595 28.0073 27.3329 28.1345L27.2449 28.1834C27.1568 28.0366 27.054 27.8947 26.9317 27.7724C26.7703 27.6061 26.5892 27.4544 26.3935 27.3321L26.1098 27.1706L26.1636 27.0875ZM20.5714 25.2576L21.0166 24.832L21.4031 24.514L21.956 24.4063L22.5382 24.3868H23.1596L23.6733 24.4063L24.7154 24.4259L25.0432 24.6265L25.4444 24.9934L25.6743 25.2772L25.782 25.8545L25.6841 25.8741L25.5814 25.3212L25.371 25.057L24.9845 24.7048L24.6909 24.5237L23.8739 24.5091L24.231 24.7048C24.4218 24.8026 24.7496 24.9788 24.7839 25.0521C24.8084 25.0913 25.0677 25.3457 25.3074 25.5708L25.3123 25.5757L25.6792 26.0502L25.733 26.4416L25.6352 26.4563L25.5863 26.0943L25.2389 25.6441C25.1166 25.5316 24.735 25.1696 24.7007 25.1011C24.6714 25.0619 24.4169 24.9152 24.1919 24.7977L23.6684 24.5091L23.1644 24.4944H22.548L21.9707 24.5091L21.4569 24.6069L21.09 24.9054L20.6741 25.3066L20.6301 25.5708L20.7182 25.649L20.9383 25.5316L21.3004 25.0815L21.956 24.832L22.8073 24.7439L23.5265 24.8124L24.461 25.2968L24.8475 25.5267L25.2193 26.0209L25.3906 26.5591L25.6401 26.7205V26.9407L25.4101 27.1511L24.9992 27.3223L24.823 27.4691L24.6371 27.7724L24.5442 27.9241L24.5344 27.929C24.4121 27.9926 24.1968 28.1051 24.1381 28.1051C24.094 28.1149 23.82 28.2372 23.5754 28.3595L23.551 28.3644C23.5314 28.3693 23.1008 28.5014 22.9932 28.521L22.9785 28.4231C23.0715 28.4085 23.4776 28.2861 23.5167 28.2715C23.7613 28.154 24.0647 28.0122 24.1185 28.0122C24.2359 27.9681 24.3484 27.9143 24.461 27.8507L24.505 27.7773L24.7301 27.4104L24.7839 27.3663C24.6273 27.3517 24.4218 27.3272 24.368 27.2978C24.3436 27.2881 24.1968 27.2685 23.4286 27.2685C23.2378 27.2685 22.7877 27.1657 22.7241 27.1462C22.6752 27.1315 22.2153 26.9945 22.2104 26.9945L22.2006 26.9896L22.1908 26.9798C22.1859 26.9749 21.7603 26.5688 21.4471 26.3878L21.4961 26.2998C21.7994 26.4759 22.1859 26.8379 22.2544 26.9015C22.3278 26.9211 22.7094 27.0385 22.7584 27.0532C22.8122 27.0728 23.2525 27.1706 23.4286 27.1706C24.3533 27.1706 24.3925 27.1951 24.4169 27.2147C24.4512 27.2342 24.6714 27.2587 24.8573 27.2734L24.8524 27.3076L24.9258 27.244L25.3367 27.0728L25.5178 26.9064V26.7841L25.3906 26.7009L25.3955 26.7156L24.9698 26.8722L24.3827 26.9407C24.3533 26.9407 24.2261 26.9456 24.0842 26.9456C23.9179 26.9456 23.7369 26.9407 23.6831 26.9211C23.6048 26.8967 23.1106 26.789 22.866 26.7352H22.8611L22.8562 26.7303C22.548 26.564 22.1664 26.3536 22.137 26.2998C22.1125 26.2704 21.9217 26.1725 21.7603 26.0943H21.7554L21.2123 25.7763L21.1389 25.7909L21.1291 25.7273L20.9579 25.6295L20.6937 25.7714L20.5078 25.6099L20.5714 25.2576ZM20.7964 27.6012L20.8209 27.699L20.4882 27.7773L20.3219 27.8165L20.3121 27.7773L20.2974 27.7186L20.7964 27.6012ZM21.0068 28.066L20.9824 28.1638C20.8698 28.1394 20.7524 28.1443 20.6399 28.1638C20.454 28.1981 20.18 28.3057 19.9158 28.6091L19.8424 28.5454C20.3855 27.9094 20.9824 28.0562 21.0068 28.066Z" fill="#3D8130"/>
<path d="M21.6771 25.5904C21.7064 25.5855 22.4012 25.5023 22.4892 25.5023C22.5235 25.5023 22.6213 25.5121 22.7485 25.5219C22.9198 25.5365 23.2084 25.561 23.2525 25.5561C23.321 25.5365 24.0059 25.4778 24.0842 25.468L24.4903 25.4387L24.4071 25.3898L23.4922 24.9152L22.8023 24.8467L21.9706 24.9299L21.3541 25.1647L21.041 25.5561L21.2416 25.6735L21.6771 25.5904Z" fill="#3D8130"/>
<path d="M24.0892 25.571C23.7858 25.6003 23.321 25.6443 23.2721 25.6541C23.2281 25.6639 23.0715 25.6541 22.7388 25.6248C22.6263 25.615 22.5187 25.6052 22.4893 25.6052C22.4208 25.6052 21.8924 25.6688 21.6918 25.6884L21.3689 25.7471L21.8092 26.0064C21.9462 26.07 22.1811 26.1874 22.2202 26.2461C22.2593 26.2853 22.592 26.4761 22.9003 26.6424C22.9786 26.6571 23.6244 26.799 23.7222 26.8332C23.7907 26.8577 24.1675 26.8528 24.3876 26.8479L24.9649 26.7794L25.3123 26.6473L25.2927 26.6375L25.1166 26.0798L24.7692 25.615L24.5638 25.4927L24.5686 25.5416L24.0892 25.571Z" fill="#3D8130"/>
<path d="M28.6098 25.5317L28.3651 25.2577L27.7682 25.1892H27.1322L26.6185 25.5562L26.1292 26.109L25.9727 26.564C26.0509 26.6227 26.2075 26.7206 26.3102 26.7206C26.413 26.7206 26.7457 26.7744 27.0148 26.8184C27.142 26.838 27.2692 26.8576 27.2888 26.8576C27.3328 26.8527 27.7927 26.7402 28.0765 26.6717L28.4385 26.5053L28.7272 26.1726L28.7027 26.0161L27.8123 25.654L26.6723 25.6198L26.6772 25.5219L27.8367 25.5562L28.7957 25.9476L28.8348 26.1971C28.8348 26.1824 28.8348 26.1677 28.8348 26.153V25.8791L28.6098 25.5317Z" fill="#3D8130"/>
<path d="M27.5433 31.2708L27.2106 31.3344L26.7409 31.6034L26.2125 31.9949L26.0658 32.1416L26.3985 32.3765L26.4229 32.5624L26.1979 32.7875L26.1294 32.719L26.3202 32.5281L26.3104 32.4352L25.9973 32.215L25.9043 32.308L25.7086 32.4156L25.6548 32.6798L25.9288 32.9196L26.3251 32.9049C26.3985 32.8511 26.5208 32.7728 26.5795 32.7679C26.6382 32.7336 26.6969 32.6945 26.7507 32.6505C26.8828 32.5477 26.9366 32.5135 26.9758 32.5135C27.0932 32.4548 27.2057 32.3912 27.3134 32.3178L27.328 32.308L27.8075 32.3618L27.9739 32.5281L27.9396 32.5624C27.8369 32.6749 27.7195 32.8217 27.7146 32.8559C27.7146 32.8804 27.7097 32.9049 27.6999 32.9244L27.8124 32.8608L28.3408 32.4841L28.3995 32.5673L27.8613 32.9489L27.6118 33.0859C27.602 33.1006 27.5922 33.1153 27.5874 33.1201L27.5678 33.1055L27.1862 33.3159L26.922 33.6975L26.829 33.9225L27.0198 34.1916L27.2302 34.4314L27.4797 34.4607L27.7097 34.4118L27.7048 34.3629L27.9592 33.9617L28.4387 33.4969L28.5072 33.5703L28.0326 34.0302L27.8026 34.3873L27.8173 34.6564L28.0619 34.8228L28.3848 34.857L28.5659 34.8032L28.5316 34.7494L28.5561 34.72C28.5659 34.7053 28.8301 34.4069 28.8839 34.358C28.923 34.3188 29.1481 34.0595 29.2606 33.9323L29.334 33.9959C29.3193 34.0106 29.0062 34.3775 28.9524 34.4265C28.9132 34.4656 28.7224 34.676 28.6539 34.7543L28.8252 35.0087H29.1138L29.3634 34.8962L29.5688 34.5928L29.8428 34.2993L29.9162 34.3678L29.6422 34.6564L29.4319 34.9744L29.1334 35.1065H28.7714L28.6197 34.8815L28.3897 34.95L28.0228 34.9157L27.7195 34.7053L27.7097 34.5096L27.4797 34.5586L27.1764 34.5194L26.9464 34.2552L26.6039 34.0497L26.2468 33.6534L26.1587 33.037L26.2566 33.0223L26.33 33.5507L26.7556 33.2131L27.2155 32.7728L27.4797 32.4107L27.3525 32.396C27.2106 32.489 27.0443 32.5917 26.9856 32.6015C26.9269 32.6358 26.8681 32.6749 26.8143 32.719C26.6773 32.8217 26.6235 32.8559 26.5893 32.8559C26.5159 32.8902 26.4425 32.9342 26.3789 32.9832L26.3642 32.9929L25.8994 33.0125L25.552 32.7043L25.601 32.4694L25.5667 32.489L25.2536 32.2639L24.8866 32.3716C24.8475 32.4596 24.8182 32.5477 24.7986 32.6407C24.8035 32.6798 24.9111 32.8608 25.009 33.0027C25.1411 33.1495 25.4444 33.4969 25.464 33.5703C25.4787 33.6241 25.5423 33.7806 25.5667 33.8394L25.5716 33.8491L25.5569 34.5145L25.7477 34.7983C25.8456 34.857 26.5648 35.2778 26.648 35.3267C26.7067 35.3609 27.2253 35.5077 27.5433 35.5958L28.6148 35.6985L29.4759 35.5811L30.2147 35.2435L30.6159 34.857L30.5229 34.5145L30.0287 33.5947L29.6716 33.0517L29.0502 32.3765L28.1353 31.8725L27.9983 31.579L27.5433 31.2708Z" fill="#3D8130"/>
<path d="M28.3212 29.2891L28.3066 29.294C28.2087 29.3283 27.7097 29.5044 27.602 29.5044C27.4993 29.5044 26.4963 29.5191 26.4865 29.524C26.4719 29.524 25.2487 29.4555 25.097 29.4555C24.9992 29.4555 24.6029 29.3919 24.2506 29.3332C24.0549 29.2989 23.8543 29.2696 23.825 29.2696C23.7565 29.2696 22.4893 29.0103 22.2349 28.9613H22.23L21.0117 28.5846L20.5029 28.4721L20.3268 28.6042L20.2681 28.8146L20.3121 29.0396L20.8796 29.4213L21.8533 29.9839L22.959 30.4438L24.1185 30.6297L24.8426 30.7667L25.7086 30.8841L27.01 30.7471H27.0149L27.695 30.7618L28.106 30.6444L28.4534 30.3655L28.7371 29.9301L28.8007 29.7295L28.7078 29.5044C28.2968 29.8763 28.2528 29.8909 28.2283 29.8958L27.8075 29.9986L26.6382 30.0524H26.6333L25.4102 29.9839L24.1968 29.7637L23.2183 29.7833H23.2134L22.1957 29.524L21.2955 29.2109L20.816 28.9173L20.8699 28.8341L21.3444 29.1228L22.23 29.431L23.233 29.6854L24.2115 29.6659H24.2164L25.4297 29.886L26.6431 29.9545L27.8026 29.9056L28.2087 29.8029C28.2332 29.7931 28.3702 29.6854 28.6588 29.4213C28.698 29.387 28.7224 29.3625 28.7322 29.3528L29.1041 28.8439L29.2313 28.6042C29.2117 28.521 29.1921 28.4427 29.1823 28.3596C29.1334 28.2813 29.0796 28.2128 29.016 28.1443C29.016 28.1883 29.016 28.2324 29.0062 28.2764V28.2862L28.6686 28.8684L28.3212 29.2891Z" fill="#983B1F"/>
<path d="M30.6011 34.4803L30.1021 33.5507L29.74 32.9979L29.1138 32.2982L28.2087 31.8041L28.0766 31.5203L28.0521 31.535C28.0521 31.535 28.1353 31.8383 28.194 31.8677C28.2527 31.897 29.0355 32.2982 29.0746 32.3178C29.1138 32.3374 29.7939 33.1495 29.7939 33.1495L30.3418 34.1036L30.6696 34.8375C30.6696 34.8375 30.2489 35.268 30.2244 35.2729C30.1999 35.2778 29.3878 35.6741 29.3633 35.6741C29.3388 35.6741 28.5511 35.7622 28.5071 35.7524C28.4631 35.7377 27.4943 35.6545 27.421 35.6496C27.3427 35.6448 26.4473 35.2876 26.4473 35.2876L25.6743 34.8228L25.4541 34.4803L25.1459 34.8277C25.1459 34.8277 24.7105 35.0479 24.6518 35.0479C24.593 35.0479 23.5265 35.1897 23.4433 35.1897H21.2954C21.2954 35.1897 19.1721 35.1506 19.0791 35.1066C19.0498 35.0919 18.8785 35.0381 18.6535 34.9647L18.4724 34.9304L18.1887 34.8228C17.8413 34.7152 17.5282 34.6222 17.5282 34.6222L16.6524 34.0547C16.6524 34.0547 16.2854 33.4186 16.2708 33.3844C16.2561 33.3501 16.031 32.8168 16.031 32.7924C16.031 32.7679 15.9528 32.3423 15.9528 32.3423L16.1093 31.3686L16.1778 30.3461L16.3442 29.2306C16.3442 29.2306 16.623 28.1102 16.6279 28.0613C16.6328 28.0074 17.0829 26.9017 17.0829 26.9017L17.5575 26.0455L18.1838 24.7539L18.8736 23.7803L19.5439 22.9828L19.5879 22.9974L19.5097 22.9338L18.8589 23.7411L18.1348 24.793L17.5673 25.8987L16.9851 27.0436L16.5692 28.1298L16.2903 29.2844L16.1191 30.5467L16.0164 31.628L15.894 32.3569L16.0164 32.9343L16.2267 33.4235L16.6133 34.1085L17.4988 34.6662L18.4333 35.0332L19.3873 35.2093L20.4784 35.2631H21.3688C21.4716 35.2631 22.3278 35.2142 22.3816 35.2093L23.5314 35.2289H23.5363L24.6567 35.0919H24.6615L25.1753 34.8766L25.4395 34.5586L25.6596 34.8864L25.6694 34.8913C25.6792 34.8962 26.4963 35.3708 26.5794 35.4246C26.6675 35.4784 27.4161 35.6839 27.5041 35.7035L28.6001 35.8062L29.4807 35.6839H29.4856L30.2489 35.3365L30.2587 35.3316L30.7137 34.8913L30.6011 34.4803Z" fill="black"/>
<path d="M18.8735 23.7802L18.1837 24.7538L17.5574 26.0454L17.0828 26.9016C17.0828 26.9016 16.6327 28.0073 16.6278 28.0612C16.6229 28.115 16.344 29.2305 16.344 29.2305L16.1777 30.346L16.1092 31.3685L15.9526 32.3422C15.9526 32.3422 16.0309 32.7678 16.0309 32.7923C16.0309 32.8167 16.256 33.35 16.2707 33.3843C16.2853 33.4185 16.6523 34.0546 16.6523 34.0546L17.528 34.6221C17.528 34.6221 17.8412 34.7151 18.1885 34.8227L17.5525 34.5732L16.6914 34.035L16.3196 33.3794L16.119 32.9048L16.0016 32.352L16.119 31.6425L16.2217 30.5613L16.393 29.3088L16.667 28.1639L17.0779 27.0875L17.6601 25.9378L18.2228 24.8418L18.942 23.7997L19.5927 22.9973L19.5487 22.9827L18.8735 23.7802Z" fill="black"/>
<path d="M27.5627 31.168L27.1762 31.2414L26.6869 31.5202L26.1487 31.9165L25.8405 32.2248L25.5665 32.3764L25.2632 32.1563L24.8033 32.2884L24.7935 32.3079C24.7739 32.352 24.6859 32.5624 24.6859 32.6357C24.6859 32.7091 24.8326 32.9342 24.9158 33.0565L24.9207 33.0614C25.1213 33.2865 25.3415 33.5458 25.3561 33.5898C25.3708 33.6534 25.4393 33.8197 25.4589 33.8638L25.4442 34.3824L25.1164 34.7738L24.6369 34.9744L23.5312 35.1114L22.3863 35.0918C22.3766 35.0918 21.4763 35.1456 21.3785 35.1456H20.488L19.4117 35.0967L18.6582 34.9597C18.8784 35.0282 19.0545 35.0869 19.0839 35.1016C19.1719 35.1456 21.3002 35.1848 21.3002 35.1848H23.448C23.5312 35.1848 24.6027 35.0429 24.6565 35.0429C24.7152 35.0429 25.1507 34.8227 25.1507 34.8227L25.4589 34.4754L25.6791 34.8178L26.4521 35.2826C26.4521 35.2826 27.3474 35.6349 27.4257 35.6447C27.504 35.6496 28.4678 35.7327 28.5119 35.7474C28.5559 35.7621 29.3436 35.6691 29.3681 35.6691C29.3925 35.6691 30.2047 35.2777 30.2292 35.268C30.2536 35.2631 30.6744 34.8325 30.6744 34.8325L30.3466 34.0986L29.7986 33.1446C29.7986 33.1446 29.1185 32.3324 29.0794 32.3128C29.0403 32.2933 28.2574 31.8921 28.1987 31.8627C28.14 31.8334 28.0568 31.53 28.0568 31.53L28.0813 31.5153V31.5104L27.5627 31.168ZM28.1302 31.8725L29.0451 32.3764L29.6567 33.0516L30.0139 33.5947L30.508 34.5145L30.601 34.857L30.1998 35.2435L29.461 35.5811L28.5999 35.6985L27.5284 35.5958C27.2104 35.5077 26.6918 35.3609 26.6331 35.3267C26.5499 35.2777 25.8307 34.857 25.7329 34.7983L25.5421 34.5145L25.5567 33.8491V33.8442C25.5323 33.7855 25.4687 33.6289 25.454 33.5751C25.4344 33.5017 25.1311 33.1544 24.999 33.0076C24.9011 32.8608 24.7886 32.6798 24.7886 32.6455C24.8082 32.5526 24.8375 32.4645 24.8767 32.3764L25.2436 32.2688L25.5567 32.4939L25.591 32.4743L25.5421 32.7091L25.8894 33.0174L26.3542 32.9978L26.3689 32.988C26.4325 32.9391 26.5059 32.895 26.5793 32.8608C26.6184 32.8608 26.6674 32.8266 26.8043 32.7238C26.8582 32.6798 26.9169 32.6406 26.9756 32.6064C27.0343 32.6015 27.2055 32.4939 27.3425 32.4009L27.4697 32.4156L27.2055 32.7776L26.7456 33.218L26.32 33.5555L26.2466 33.0271L26.1487 33.0418L26.2368 33.6583L26.594 34.0546L26.9364 34.2601L27.1664 34.5243L27.4697 34.5634L27.6997 34.5145L27.7095 34.7102L28.0128 34.9206L28.3798 34.9548L28.6097 34.8863L28.7614 35.1114H29.1234L29.4219 34.9793L29.6323 34.6613L29.9062 34.3726L29.8329 34.3041L29.5589 34.5977L29.3534 34.901L29.1039 35.0135H28.8152L28.644 34.7591C28.7125 34.6808 28.9033 34.4705 28.9424 34.4313C28.9962 34.3775 29.3093 34.0155 29.324 34.0008L29.2506 33.9372C29.1381 34.0693 28.913 34.3237 28.8739 34.3628C28.8201 34.4166 28.5559 34.7151 28.5461 34.7249L28.5216 34.7542L28.5559 34.808L28.3749 34.8619L28.052 34.8276L27.8073 34.6613L27.7926 34.3922L28.0226 34.035L28.4972 33.5751L28.4287 33.5017L27.9492 33.9665L27.6948 34.3677L27.6997 34.4166L27.4697 34.4656L27.2202 34.4362L27.0098 34.1965L26.819 33.9274L26.912 33.7023L27.1762 33.3207L27.5578 33.1103L27.5774 33.125C27.5823 33.1152 27.5921 33.1054 27.6018 33.0908L27.8514 32.9538L28.3895 32.5721L28.3308 32.489L27.8024 32.8657L27.6899 32.9293C27.6997 32.9097 27.7046 32.8853 27.7046 32.8608C27.7095 32.8217 27.8269 32.6798 27.9296 32.5672L27.9639 32.533L27.7975 32.3667L27.3181 32.3128L27.3034 32.3226C27.1958 32.396 27.0832 32.4645 26.9658 32.5183C26.9267 32.5183 26.8728 32.5575 26.7407 32.6553C26.6869 32.6993 26.6282 32.7385 26.5695 32.7727C26.5108 32.7776 26.3934 32.8559 26.3151 32.9097L25.9188 32.9244L25.6448 32.6847L25.6986 32.4205L25.8943 32.3128L25.9873 32.2199L26.3004 32.44L26.3102 32.533L26.1194 32.7238L26.1879 32.7923L26.4129 32.5672L26.3885 32.3813L26.0558 32.1465L26.2026 31.9997L26.731 31.6083L27.2006 31.3392L27.5333 31.2756L27.9835 31.5838L28.1302 31.8725ZM26.7897 34.0595L26.6576 33.9812L26.364 33.6583L26.8141 33.306L27.2789 32.8559L27.5823 32.4351L27.7535 32.4547L27.8269 32.5281C27.7339 32.6309 27.6067 32.7825 27.6067 32.851C27.5921 32.9097 27.5627 32.9635 27.5284 33.0076L27.1028 33.2424L26.819 33.6485L26.7016 33.9421L26.7897 34.0595Z" fill="black"/>
<path d="M27.9884 24.0885L28.2379 24.4163C28.2379 24.4163 28.3602 24.6071 28.4043 24.6218C28.4483 24.6364 28.8544 24.8713 28.8544 24.8713L29.0207 25.0572L28.9865 25.1648L28.8593 25.1257L28.8789 25.7568H28.918V25.1893L29.0305 25.2529L29.0599 25.0132L28.7419 24.7343L28.3994 24.5679L28.4141 24.5582L28.1499 24.1423L27.6166 23.6726L27.5579 23.7411H27.6117L27.9884 24.0885Z" fill="black"/>
<path d="M28.8201 26.6668C28.8201 26.6668 28.6391 27.0289 28.6195 27.0387C28.5999 27.0534 28.4385 27.1219 28.4385 27.1219L28.4532 27.2099C28.5265 27.2637 28.5999 27.3225 28.6635 27.3861C28.6733 27.4007 28.781 27.616 28.869 27.7775H28.9571C28.8739 27.5328 28.7076 27.3225 28.4874 27.1904C28.4972 27.1708 28.507 27.1463 28.5168 27.1267C28.5314 27.117 28.551 27.1072 28.5657 27.0925C28.8054 26.9115 28.9277 26.5983 28.9424 26.158V25.8498L28.8837 25.7617L28.8984 26.2363L28.8201 26.6668Z" fill="black"/>
<path d="M28.0764 24.2155L28.2623 24.5042L28.2379 24.4895L27.6214 24.4357L26.9267 24.558L26.6429 24.6803L26.682 24.7733L26.9511 24.6558L27.6263 24.5384L28.2134 24.5874L28.6978 24.8222L28.9669 25.057L28.962 25.0962L28.9081 25.0668L28.3357 24.8564L28.3259 24.8516C28.3015 24.8467 27.7388 24.7635 27.5969 24.7635C27.455 24.7635 26.9267 24.8467 26.9022 24.8516H26.8924L26.1977 25.3017L26.2515 25.3848L26.9315 24.9445C27.0098 24.9347 27.4795 24.8613 27.6018 24.8613C27.729 24.8613 28.2525 24.9396 28.3112 24.9445L28.8396 25.1353V25.6735L28.7075 25.4778L28.4336 25.1647L27.7975 25.0962H27.1224L26.5793 25.4827L26.0656 26.0649L25.8796 26.608L25.909 26.6276C25.9335 26.6471 26.1683 26.8282 26.3346 26.8282C26.4276 26.8282 26.7897 26.8869 27.0245 26.9211C27.2153 26.9505 27.2936 26.9651 27.3132 26.9651C27.367 26.9651 27.9541 26.8184 28.1302 26.7743L28.5265 26.5933L28.8543 26.2068C28.8348 26.5835 28.7222 26.8575 28.5216 27.0092C28.233 27.2293 27.8562 27.1364 27.8562 27.1364L27.8465 27.1853L27.8367 27.2342C27.9101 27.2489 27.9834 27.2587 28.0568 27.2587C28.1743 27.2587 28.2917 27.2391 28.3993 27.1951C28.3112 27.3761 28.1987 27.4935 28.0666 27.5425C27.9541 27.5816 27.8269 27.5718 27.7192 27.518L27.6703 27.6061C27.7486 27.6452 27.8367 27.6648 27.9198 27.6648C27.9786 27.6648 28.0373 27.655 28.096 27.6354C28.2428 27.5816 28.3651 27.4642 28.4678 27.2783C28.6537 27.3957 28.8005 27.5718 28.8788 27.7773H28.8935C28.8103 27.6159 28.6978 27.4006 28.688 27.3859C28.6195 27.3223 28.551 27.2636 28.4776 27.2098L28.4629 27.1217C28.4629 27.1217 28.6244 27.0532 28.6439 27.0385C28.6635 27.0239 28.8445 26.6667 28.8445 26.6667L28.9228 26.241L28.9081 25.7665L28.8886 25.1353L29.0158 25.1745L29.05 25.0668L28.8837 24.8809C28.8837 24.8809 28.4776 24.6412 28.4336 24.6314C28.3895 24.6167 28.2672 24.4259 28.2672 24.4259L28.0177 24.0981L27.6361 23.7556H27.5823L27.5774 23.7605L28.0764 24.2155ZM28.8396 26.197L28.8005 25.9475L27.8416 25.5561L26.682 25.5218L26.6771 25.6197L27.8171 25.6539L28.7075 26.016L28.732 26.1725L28.4433 26.5052L28.0813 26.6716C27.7975 26.7401 27.3376 26.8526 27.2936 26.8575C27.274 26.8575 27.1468 26.8379 27.0196 26.8184C26.7505 26.7743 26.4178 26.7205 26.3151 26.7205C26.2172 26.7205 26.0607 26.6227 25.9775 26.564L26.1341 26.1089L26.6233 25.5561L27.137 25.1891H27.7731L28.37 25.2576L28.6146 25.5316L28.8445 25.879V26.153C28.8396 26.1677 28.8396 26.1823 28.8396 26.197Z" fill="black"/>
<path d="M25.7134 30.9771L26.0265 30.9429H25.4736L25.7134 30.9771Z" fill="black"/>
<path d="M28.4972 30.9624C28.4825 30.9869 28.1987 31.4468 28.1987 31.4468L28.0715 31.5153L28.1009 31.5496L28.3259 31.3538L28.5412 30.9918V30.9429H28.4972C28.5021 30.9527 28.5021 30.9575 28.4972 30.9624Z" fill="black"/>
<path d="M28.4972 30.9624C28.4972 30.9575 28.5021 30.9478 28.5021 30.9429H28.4483V30.9624L28.2526 31.2854L28.0422 31.4713L28.0765 31.5104L28.0814 31.5153L28.2086 31.4468C28.2037 31.4468 28.4875 30.9918 28.4972 30.9624Z" fill="black"/>
<path d="M28.967 27.9633L29.011 28.0269C29.0012 27.9437 28.9866 27.8605 28.9572 27.7773H28.8691C28.923 27.8801 28.967 27.9633 28.967 27.9633Z" fill="black"/>
<path d="M29.2849 28.5113C29.28 28.5357 29.2213 28.7314 29.2066 28.7608C29.192 28.795 28.7321 29.4262 28.7321 29.4262L28.8397 29.6463C28.8397 29.6463 28.8593 29.8029 28.8446 29.8274C28.8299 29.8518 28.4238 30.483 28.4238 30.483L28.4874 30.6591C28.4874 30.6591 28.5021 30.8793 28.4972 30.9478H28.5412V30.6102L28.4874 30.4634L28.5315 30.4292L28.8299 29.9692L28.9082 29.7197L28.7908 29.4311C28.8006 29.4213 28.8054 29.4164 28.8054 29.4164L29.1871 28.8929L29.3387 28.614L29.3338 28.5944C29.3143 28.5162 29.2947 28.433 29.2849 28.3498C29.2849 28.3302 29.2849 28.2764 29.0305 28.0073L29.0109 28.0269L29.1626 28.2422C29.1626 28.2422 29.2898 28.4868 29.2849 28.5113Z" fill="black"/>
<path d="M28.8692 27.7773H28.8545C28.9132 27.929 28.9328 28.0905 28.9132 28.2519L28.5903 28.8048L28.2576 29.2011C28.0325 29.2794 27.6656 29.4017 27.602 29.4017C27.4993 29.4017 26.5501 29.4164 26.4865 29.4213C26.4131 29.4164 25.2487 29.3528 25.097 29.3528C25.0089 29.3528 24.5784 29.2843 24.2653 29.2304C23.9766 29.1815 23.8543 29.1619 23.8249 29.1619C23.7613 29.1571 22.8562 28.976 22.2593 28.8537L21.0411 28.477L20.4833 28.3498L20.2436 28.5259L20.1653 28.795L20.224 29.0837L20.8258 29.4897L21.8092 30.0573L22.9296 30.5221H22.9345L24.1038 30.7129L24.8279 30.8499L25.4688 30.9379H26.0266L27.0198 30.8352L27.7047 30.8499H27.7145L28.1598 30.7227L28.4093 30.5221L28.4484 30.6199V30.9379H28.5022C28.5071 30.8695 28.4925 30.6493 28.4925 30.6493L28.4288 30.4732C28.4288 30.4732 28.8349 29.842 28.8496 29.8175C28.8643 29.7931 28.8447 29.6365 28.8447 29.6365L28.7371 29.4164C28.7371 29.4164 29.2019 28.7852 29.2117 28.751C29.2263 28.7167 29.2802 28.5259 29.2899 28.5014C29.2948 28.477 29.1676 28.2324 29.1676 28.2324L29.016 28.0171L28.9719 27.9535C28.967 27.9633 28.923 27.8801 28.8692 27.7773ZM29.0111 28.2764C29.016 28.2324 29.0208 28.1883 29.0208 28.1443C29.0845 28.2079 29.1383 28.2813 29.1872 28.3596C29.197 28.4427 29.2117 28.5259 29.2361 28.6042L29.1089 28.8439L28.7371 29.3528C28.7273 29.3625 28.6979 29.387 28.6637 29.4213C28.375 29.6854 28.2429 29.7882 28.2136 29.8029L27.8075 29.9056L26.6479 29.9545L25.4346 29.886L24.2212 29.6659H24.2163L23.2378 29.6854L22.2348 29.431L21.3493 29.1228L20.8747 28.8341L20.8209 28.9173L21.3004 29.2109L22.2006 29.524L23.2183 29.7833H23.2231L24.2017 29.7637L25.415 29.9839L26.6382 30.0524H26.6431L27.8124 29.9986L28.2331 29.8958C28.2527 29.8909 28.3016 29.8763 28.7126 29.5044L28.8056 29.7295L28.742 29.9301L28.4582 30.3655L28.1108 30.6444L27.6999 30.7618L27.0198 30.7471H27.0149L25.7135 30.8841L24.8475 30.7667L24.1234 30.6297L22.9638 30.4438L21.8581 29.9839L20.8845 29.4213L20.317 29.0396L20.2729 28.8146L20.3316 28.6042L20.5078 28.4721L21.0166 28.5846L22.2348 28.9613H22.2397C22.4942 29.0152 23.7564 29.2696 23.8298 29.2696C23.8543 29.2696 24.0598 29.3038 24.2555 29.3332C24.6077 29.3919 25.004 29.4555 25.1019 29.4555C25.2536 29.4555 26.4767 29.524 26.4914 29.524C26.5012 29.524 27.5042 29.5044 27.6069 29.5044C27.7145 29.5044 28.2136 29.3283 28.3114 29.294L28.3261 29.2891L28.6784 28.8684L29.016 28.2862L29.0111 28.2764Z" fill="black"/>
<path d="M20.6398 28.1639C20.7523 28.1395 20.8697 28.1395 20.9823 28.1639L21.0067 28.0661C20.9823 28.0612 20.3854 27.9095 19.8423 28.5456L19.9157 28.6092C20.1799 28.3009 20.4539 28.1982 20.6398 28.1639Z" fill="black"/>
<path d="M20.4833 27.7775L20.816 27.6992L20.7964 27.6013L20.2974 27.7187L20.312 27.7775H20.4833Z" fill="black"/>
<path d="M20.3218 27.8165L20.4833 27.7773H20.312L20.3218 27.8165Z" fill="black"/>
<path d="M26.4031 27.3372C26.5988 27.4644 26.7799 27.6111 26.9413 27.7775H27.0783C26.9413 27.6209 26.7897 27.4839 26.6233 27.3616L27.0098 27.4057L27.3425 27.3372L27.3229 27.2393L27.0049 27.3078L26.4472 27.2442C26.3591 27.1855 26.2662 27.1366 26.1683 27.0925L26.1243 27.1806L26.4031 27.3372Z" fill="black"/>
<path d="M27.2496 28.1883L27.3377 28.1394C27.2643 28.0122 27.1763 27.8899 27.0784 27.7773H26.9414C27.0588 27.9046 27.1616 28.0415 27.2496 28.1883Z" fill="black"/>
<path d="M20.9577 25.6297L21.1289 25.7275L21.1387 25.7911L21.2121 25.7764L21.7552 26.0945H21.7601C21.9215 26.1727 22.1124 26.2706 22.1368 26.3C22.1711 26.3489 22.5478 26.5593 22.856 26.7305L22.8609 26.7354H22.8658C23.1153 26.7892 23.6046 26.8968 23.6829 26.9213C23.7416 26.9409 23.9226 26.9458 24.0841 26.9458C24.2259 26.9458 24.358 26.9409 24.3825 26.9409L24.9696 26.8724L25.3953 26.7158L25.3904 26.7011L25.5176 26.7843V26.9066L25.3366 27.073L24.9256 27.2442L24.8522 27.3078L24.8571 27.2736C24.6712 27.2589 24.451 27.2295 24.4168 27.2149C24.3923 27.2002 24.3532 27.1708 23.4285 27.1708C23.2523 27.1708 22.812 27.073 22.7582 27.0534C22.7092 27.0387 22.3276 26.9213 22.2542 26.9017C22.1906 26.8381 21.8041 26.481 21.4959 26.3L21.447 26.388C21.765 26.5739 22.1906 26.9751 22.1906 26.98L22.2004 26.9898L22.2102 26.9947C22.2151 26.9947 22.675 27.1317 22.7239 27.1464C22.7826 27.1659 23.2328 27.2687 23.4285 27.2687C24.1966 27.2687 24.3385 27.2883 24.3678 27.298C24.4217 27.3274 24.6271 27.3519 24.7837 27.3665L24.7299 27.4106L24.5048 27.7775H24.6222L24.8082 27.4742L24.9843 27.3274L25.3953 27.1562L25.6252 26.9458V26.7256L25.3757 26.5642L25.2045 26.026L24.8326 25.5318L24.4461 25.3019L23.5116 24.8175L22.7924 24.749L21.9411 24.8371L21.2855 25.0866L20.9235 25.5367L20.7033 25.6541L20.6152 25.5758L20.6593 25.3117L21.0751 24.9105L21.4421 24.612L21.9558 24.5142L22.5331 24.4995H23.1496L23.6535 24.5142L24.177 24.8028C24.4021 24.9202 24.6614 25.067 24.6858 25.1062C24.7201 25.1747 25.1017 25.5367 25.224 25.6492L25.5714 26.0994L25.6203 26.4614L25.7182 26.4467L25.6644 26.0553L25.2974 25.5807L25.2925 25.5758C25.0528 25.3557 24.7935 25.1013 24.769 25.0572C24.7348 24.9838 24.407 24.8077 24.2162 24.7099L23.859 24.5142L24.6761 24.5288L24.9696 24.7099L25.3561 25.0621L25.5665 25.3263L25.6693 25.8792L25.7671 25.8596L25.6595 25.2823L25.4295 24.9985L25.0283 24.6316L24.7005 24.431L23.6584 24.4114L23.1447 24.3918H22.5233L21.9411 24.4114L21.3883 24.5191L21.0017 24.8371L20.5565 25.2627L20.4978 25.615L20.6837 25.7764L20.9577 25.6297ZM24.7739 25.6101L25.1213 26.0749L25.2974 26.6326L25.317 26.6424L24.9696 26.7745L24.3923 26.843C24.1721 26.8479 23.7954 26.8528 23.7269 26.8283C23.6291 26.7941 22.9832 26.6571 22.905 26.6375C22.5967 26.4712 22.2591 26.2804 22.2249 26.2412C22.1857 26.1874 21.9509 26.07 21.8139 26.0015L21.3736 25.7422L21.6965 25.6835C21.8971 25.659 22.4255 25.6003 22.494 25.6003C22.5233 25.6003 22.631 25.6101 22.7435 25.6199C23.0762 25.6492 23.2328 25.659 23.2768 25.6492C23.3257 25.6395 23.7905 25.5905 24.0938 25.5661L24.5733 25.5318L24.5684 25.4829L24.7739 25.6101ZM21.3491 25.1698L21.9656 24.9349L22.7973 24.8517L23.4872 24.9202L24.4021 25.3948L24.4853 25.4438L24.0792 25.4731C24.0009 25.478 23.3159 25.5416 23.2474 25.5612C23.2034 25.571 22.9196 25.5416 22.7435 25.5269C22.6163 25.5171 22.5184 25.5074 22.4842 25.5074C22.3961 25.5074 21.7014 25.5905 21.672 25.5954L21.2317 25.6786L21.0311 25.5612L21.3491 25.1698Z" fill="black"/>
<path d="M24.461 27.8507C24.3484 27.9143 24.2359 27.9633 24.1185 28.0122C24.0647 28.0122 23.7613 28.1541 23.5167 28.2715C23.4727 28.2862 23.0715 28.4085 22.9785 28.4232L22.9932 28.521C23.0959 28.5015 23.5314 28.3694 23.5509 28.3645L23.5558 28.3596C23.8005 28.2421 24.0793 28.1149 24.1185 28.1052C24.1772 28.1003 24.3925 27.9926 24.5148 27.929L24.5246 27.9241L24.6175 27.7725H24.5001L24.461 27.8507Z" fill="black"/>
<path d="M24.9305 23.8438L24.8669 23.8878C24.8963 23.8829 24.9257 23.8829 24.955 23.878L24.9305 23.8438Z" fill="black"/>
<path d="M25.1605 24.3476L25.2877 24.5678L25.2241 24.7879L25.322 24.8173L25.3954 24.558L25.2486 24.2987L24.9599 23.8828C24.9306 23.8877 24.9012 23.8877 24.8719 23.8926L24.8523 23.9073L25.1605 24.3476Z" fill="black"/>
<path d="M28.1548 24.2304L28.5902 24.1864C28.5902 24.1864 29.6763 24.5093 29.7204 24.5533C29.7644 24.5973 30.3124 24.8371 30.3124 24.8371L30.6353 24.8664L30.6793 24.5729L30.4396 24.2304L29.7497 23.7216L28.962 23.3399L28.4679 23.1687L28.2917 20.6735L27.8759 20.0521L27.2545 19.5433L26.4521 19.147L25.6204 19.1323L24.0548 19.328L22.6164 19.6118L22.5332 19.3672C22.4207 19.3378 22.3081 19.3182 22.1956 19.3036C22.1124 19.3036 21.3492 19.5384 21.3492 19.5384L20.8844 19.783L20.7865 20.0668L20.1211 20.4337L19.583 21.1089L19.2747 21.7596C19.2747 21.7596 19.1182 22.4104 19.1182 22.4495C19.1182 22.4886 19.2013 22.8458 19.26 22.8703C19.3188 22.8947 19.7542 23.0121 19.7542 23.0121L20.3266 23.2959L21.1535 23.7754L22.1809 24.113C22.1809 24.113 23.1545 24.0445 23.2524 24.0445C23.3502 24.0445 24.818 23.8879 24.9012 23.8879C24.9844 23.8879 26.594 23.7607 26.6381 23.7607C26.6821 23.7607 27.641 23.746 27.641 23.746L28.0227 24.0836L28.1548 24.2304Z" fill="#C82727"/>
<path d="M27.7732 25.615L27.9004 25.884L27.9787 26.1923L27.9396 26.388L27.7732 26.8136L27.2448 26.9017L26.3935 26.75L26.2908 26.4516L26.3299 26.1825L26.418 25.7568L26.6381 25.5122L26.78 25.5905L27.7194 25.615" fill="black"/>
<path d="M23.8983 25.5757L24.0549 25.8742L24.0696 26.2362L23.9913 26.5591L23.825 26.8184L23.5559 26.8331L22.5235 26.5249L22.1125 26.1628L22.1664 25.9329L22.3083 25.7127L22.4991 25.561L23.2232 25.5806C23.2134 25.5757 23.869 25.6295 23.8983 25.5757Z" fill="black"/>
<path d="M30.5473 24.2694L30.1461 23.9171L29.5688 23.5306L28.6196 23.1833L28.4875 23.1294L28.4484 22.3124C28.3995 21.9112 28.331 21.3045 28.331 21.2556C28.331 21.1871 28.2967 20.688 28.2967 20.6685V20.6587L28.013 20.145L27.5384 19.6557L26.8094 19.2398L26.2027 19.0686H25.371L24.5539 19.1713C24.2261 19.2252 23.7124 19.3083 23.6537 19.3083C23.5656 19.3083 22.8807 19.4649 22.8024 19.4796L22.5626 19.5432L22.6018 19.5236L22.5235 19.3671L22.2691 19.2692L21.8972 19.3034L21.3004 19.4502L20.8502 19.7389L20.7573 19.9786L20.8209 20.0031L20.5714 20.0667H20.5616L20.0332 20.3994L19.6662 20.8153L19.3335 21.373L19.0693 22.283V22.6108L19.2406 22.9142L20.3121 23.2958L20.6692 23.6187L21.4667 23.9808L22.1712 24.1569L23.4873 24.0688L25.3905 23.8633L26.7458 23.7606L27.8711 23.7753L29.06 23.9465L29.9994 24.3917L30.0434 24.3037L29.0942 23.8535L27.8858 23.6823L26.7458 23.6627L25.3857 23.7655L23.4824 23.971L22.1859 24.0541L21.5107 23.8878L20.7328 23.5306L20.3708 23.2028L19.314 22.8261L19.177 22.5815V22.2928L19.4314 21.4121L19.7543 20.874L20.1066 20.4728L20.6105 20.1548L22.8317 19.5725C23.1204 19.5089 23.6048 19.4013 23.6635 19.4013C23.7515 19.4013 24.4952 19.279 24.5784 19.2643L25.3808 19.1616H26.1929L26.7654 19.3279L27.4748 19.734L27.9298 20.2037L28.194 20.688C28.2038 20.8691 28.2282 21.2067 28.2282 21.2556C28.2282 21.3241 28.3359 22.2243 28.3506 22.3222L28.3897 23.0903L27.8124 22.8701L26.6724 22.7478L25.8113 22.6598L24.9649 22.7283L23.9864 22.831L22.8464 23.0903L21.9902 23.2958L21.4178 23.33L20.6839 23.1833L21.0557 23.4524L21.3591 23.6285L22.0538 23.7997L22.7339 23.8193H22.7388L23.3454 23.7508L24.2016 23.6138L25.0383 23.4768L25.9777 23.4083L26.6284 23.3741L27.4112 23.423L28.4729 23.56L29.8428 23.8193L30.0825 23.9759L30.4641 24.3086L30.5718 24.5581L30.5473 24.744L30.3418 24.7587L29.9406 24.5728L29.2019 24.2792L28.6196 24.1031L28.1108 24.1569L28.1206 24.2547L28.6099 24.2058L29.1627 24.3722L29.8966 24.6608L30.3223 24.8565L30.6305 24.837L30.6745 24.5434L30.5473 24.2694ZM20.86 19.9884L20.9334 19.8025L21.3395 19.5432L21.9119 19.4062L22.2593 19.3719L22.455 19.4453L22.5088 19.553L20.86 19.9884ZM28.4875 23.4817L27.4161 23.3447L26.6235 23.2909L25.9679 23.3251L25.0236 23.3936L24.1772 23.5306L23.321 23.6676L22.7241 23.7361L22.0636 23.7214L21.3884 23.5551L21.1046 23.3888H21.0998L21.3982 23.4475L21.9902 23.4132L22.8562 23.2077L23.9864 22.9533L24.96 22.8506L25.7966 22.7821L26.6479 22.8652L27.7732 22.9827L28.5756 23.2909L29.515 23.6334L29.6226 23.7068L28.4875 23.4817Z" fill="black"/>
<path d="M23.5759 26.3868C23.739 26.3382 23.8382 26.1876 23.7974 26.0503C23.7565 25.9131 23.5912 25.8411 23.428 25.8897C23.2648 25.9382 23.1657 26.0888 23.2065 26.2261C23.2473 26.3634 23.4127 26.4353 23.5759 26.3868Z" fill="white"/>
<path d="M22.7778 26.3587C22.8481 26.3587 22.905 26.3017 22.905 26.2315C22.905 26.1612 22.8481 26.1042 22.7778 26.1042C22.7076 26.1042 22.6506 26.1612 22.6506 26.2315C22.6506 26.3017 22.7076 26.3587 22.7778 26.3587Z" fill="white"/>
<path d="M22.6995 25.9622C22.7697 25.9622 22.8267 25.9052 22.8267 25.835C22.8267 25.7647 22.7697 25.7078 22.6995 25.7078C22.6292 25.7078 22.5723 25.7647 22.5723 25.835C22.5723 25.9052 22.6292 25.9622 22.6995 25.9622Z" fill="white"/>
<path d="M26.8435 26.52C26.9083 26.52 26.9609 26.4674 26.9609 26.4026C26.9609 26.3377 26.9083 26.2852 26.8435 26.2852C26.7786 26.2852 26.7261 26.3377 26.7261 26.4026C26.7261 26.4674 26.7786 26.52 26.8435 26.52Z" fill="white"/>
<path d="M26.8289 26.0747C26.8991 26.0747 26.9561 26.0178 26.9561 25.9475C26.9561 25.8773 26.8991 25.8203 26.8289 25.8203C26.7586 25.8203 26.7017 25.8773 26.7017 25.9475C26.7017 26.0178 26.7586 26.0747 26.8289 26.0747Z" fill="white"/>
<path d="M27.5285 26.4367C27.6555 26.4367 27.7585 26.3338 27.7585 26.2068C27.7585 26.0798 27.6555 25.9768 27.5285 25.9768C27.4015 25.9768 27.2986 26.0798 27.2986 26.2068C27.2986 26.3338 27.4015 26.4367 27.5285 26.4367Z" fill="white"/>
</g>
<defs>
<clipPath id="clip0_1_11914">
<rect width="25.05" height="25.05" fill="white" transform="translate(10.7812 14.9099)"/>
</clipPath>
</defs>
</svg>
