<svg width="36" height="40" viewBox="0 0 36 40" fill="none" xmlns="http://www.w3.org/2000/svg">
<path d="M14.3282 27.1799C21.3776 27.1799 27.0501 21.5074 27.0501 14.458C27.0501 7.40865 21.3776 1.73615 14.3282 1.73615C7.27877 1.73615 1.60627 7.40865 1.60627 14.458C1.60627 21.5074 7.27877 27.1799 14.3282 27.1799Z" fill="#204AF8" stroke="white" stroke-width="0.741082"/>
<path fill-rule="evenodd" clip-rule="evenodd" d="M9.92321 7.4747C9.59976 6.8159 8.92974 6.39844 8.19582 6.39844H6.79474C6.50576 6.39844 6.27148 6.63271 6.27148 6.9217C6.27148 7.25608 6.61645 7.50382 6.89404 7.69025C6.91082 7.70152 6.92731 7.7135 6.94347 7.7262L11.0895 10.9853C11.4394 11.2604 11.5001 11.767 11.225 12.117C10.95 12.4669 10.4433 12.5276 10.0934 12.2525L7.78599 10.4387C7.17186 9.95597 6.27148 10.3935 6.27148 11.1746C6.27148 11.6136 6.57652 11.9936 7.0051 12.0885L9.90787 12.7315C10.3424 12.8277 10.6167 13.258 10.5204 13.6926C10.4242 14.1272 9.99387 14.4014 9.5593 14.3052L7.2529 13.7943C6.74912 13.6827 6.27148 14.0661 6.27148 14.5821C6.27148 15.1022 6.75621 15.4864 7.26255 15.3678L9.59923 14.82C10.0326 14.7185 10.4662 14.9874 10.5678 15.4208C10.6694 15.8541 10.4004 16.2878 9.96707 16.3894L7.0133 17.0817C6.57874 17.1836 6.27148 17.5712 6.27148 18.0175C6.27148 18.8251 7.20711 19.2727 7.83586 18.7658L10.2293 16.8365C10.5758 16.5571 11.0832 16.6116 11.3625 16.9581C11.6419 17.3047 11.5874 17.812 11.2409 18.0914L7.13508 21.4011C7.05795 21.4632 6.97284 21.5089 6.88405 21.5384C6.60887 21.6301 6.27148 21.8358 6.27148 22.1258C6.27148 22.3418 6.44661 22.517 6.66265 22.517H8.37013C9.17981 22.517 9.91727 22.0512 10.2652 21.32L11.6632 18.382C11.8544 17.9801 12.3353 17.8093 12.7372 18.0006C13.1391 18.1918 13.3099 18.6727 13.1187 19.0746L12.0459 21.3291C11.7835 21.8805 12.1855 22.517 12.7961 22.517C13.2563 22.517 13.6288 22.1429 13.6269 21.6827L13.6166 19.1513C13.6147 18.7062 13.9741 18.3439 14.4192 18.3421C14.8643 18.3403 15.2266 18.6996 15.2284 19.1447L15.2387 21.6734C15.2406 22.1398 15.6193 22.517 16.0858 22.517C16.7113 22.517 17.1211 21.8623 16.8477 21.2997L15.7279 18.995C15.5333 18.5947 15.7002 18.1124 16.1005 17.9179C16.5009 17.7234 16.9831 17.8902 17.1776 18.2906L18.6998 21.4232C19.0249 22.0923 19.7034 22.517 20.4472 22.517H21.8866C22.1646 22.517 22.39 22.2916 22.39 22.0135C22.39 21.6851 22.0461 21.4436 21.7669 21.2706C21.7405 21.2543 21.7148 21.2362 21.69 21.2165L17.5573 17.9405C17.2085 17.664 17.1499 17.1571 17.4264 16.8083C17.7029 16.4595 18.2098 16.4009 18.5586 16.6774L20.8678 18.5079C21.4832 18.9958 22.39 18.5575 22.39 17.7721C22.39 17.3332 22.086 16.9528 21.6578 16.8562L18.7492 16.1994C18.3151 16.1014 18.0426 15.67 18.1406 15.2358C18.2386 14.8016 18.6701 14.5291 19.1042 14.6272L21.4062 15.1469C21.9104 15.2608 22.39 14.8774 22.39 14.3605C22.39 13.8423 21.9081 13.4587 21.403 13.5749L19.0684 14.112C18.6347 14.2118 18.2021 13.9411 18.1023 13.5073C18.0025 13.0736 18.2732 12.641 18.707 12.5412L21.6486 11.8644C22.0825 11.7646 22.39 11.3783 22.39 10.933C22.39 10.1318 21.4634 9.68626 20.8376 10.1865L18.4513 12.0941C18.1037 12.372 17.5965 12.3154 17.3186 11.9678C17.0407 11.6201 17.0972 11.113 17.4449 10.835L21.5641 7.54216C21.6313 7.4885 21.7043 7.44731 21.7806 7.41827C22.0563 7.31325 22.39 7.10292 22.39 6.8079C22.39 6.58176 22.2067 6.39844 21.9805 6.39844H20.3166C19.5197 6.39844 18.7933 6.85515 18.4479 7.57334L17.02 10.5428C16.8271 10.944 16.3456 11.1128 15.9445 10.9199C15.5433 10.727 15.3745 10.2454 15.5674 9.84431L16.6465 7.60007C16.9142 7.04351 16.5086 6.39844 15.891 6.39844C15.428 6.39844 15.0527 6.77377 15.0527 7.23677V9.76519C15.0527 10.2103 14.6919 10.5711 14.2468 10.5711C13.8017 10.5711 13.4408 10.2103 13.4408 9.76518V7.26232C13.4408 6.78521 13.0541 6.39844 12.577 6.39844C11.9375 6.39844 11.5197 7.06903 11.8015 7.64304L12.9209 9.92315C13.1171 10.3227 12.9522 10.8056 12.5527 11.0018C12.1531 11.1979 11.6702 11.0331 11.474 10.6335L9.92321 7.4747Z" fill="white"/>
<g clip-path="url(#clip0_1_11858)">
<path d="M29.1839 16.2564C28.5212 16.9116 27.9141 17.6217 27.3744 18.379L27.2038 18.3241C26.2197 18.0063 25.1999 17.8101 24.1721 17.7434C23.8626 17.7198 22.7079 17.7198 22.3309 17.7434C21.192 17.8179 20.3191 17.9866 19.327 18.328C19.2873 18.3437 19.2516 18.3554 19.2159 18.3672C18.6564 17.6139 18.0334 16.9077 17.3469 16.2603C20.6405 14.5928 24.4935 14.3927 27.9419 15.7071C28.3109 15.8444 28.672 16.0053 29.0252 16.1779L29.1839 16.2564Z" fill="#F00500"/>
<path d="M35.3254 31.1381C34.8255 32.5467 34.0755 33.8532 33.1033 34.991C32.5755 35.6031 31.9922 36.1641 31.3652 36.6742C29.897 37.8434 28.1828 38.6791 26.3535 39.1185C24.3297 39.6011 22.2187 39.6011 20.1949 39.1185C18.3616 38.6791 16.6514 37.8434 15.1832 36.6742C14.5562 36.1641 13.9729 35.6031 13.4451 34.991C10.6476 31.7227 9.7984 27.2342 11.223 23.1891C11.4928 22.4397 11.8301 21.7178 12.2348 21.0312C12.4213 20.7173 12.6515 20.3642 12.7626 20.219C13.1435 21.8394 13.6118 23.2637 13.7864 23.7776C13.7745 23.8051 13.7586 23.8365 13.7427 23.864C12.8182 25.7158 12.3182 27.501 12.1991 29.4C12.1991 29.4236 12.1952 29.451 12.1952 29.4746C12.1634 30.0435 12.1793 30.3142 12.2745 30.6712C12.5721 31.7894 13.4888 33.0214 14.9252 34.2299C17.2783 36.2073 20.4687 37.6355 22.8853 37.8002C25.4051 37.969 29.1232 36.5133 31.5994 34.3868C31.9882 34.0455 32.3533 33.6845 32.6946 33.3C32.9406 33.0175 33.3057 32.531 33.2779 32.531C33.2699 32.531 33.2779 32.5231 33.2938 32.5153C33.3057 32.5074 33.3176 32.4957 33.3096 32.4878C33.3057 32.4839 33.3136 32.4721 33.3255 32.4682C33.3374 32.4643 33.3453 32.4564 33.3414 32.4486C33.3374 32.4407 33.3414 32.4329 33.3572 32.429C33.3691 32.425 33.3731 32.4133 33.3691 32.4054C33.3652 32.3976 33.3691 32.3897 33.3771 32.3897C33.385 32.3897 33.393 32.378 33.393 32.3701C33.393 32.3623 33.4009 32.3505 33.4088 32.3505C33.4168 32.3505 33.4247 32.3427 33.4247 32.3348C33.4366 32.3034 33.4564 32.272 33.4763 32.2446C33.5358 32.1543 33.7739 31.7345 33.8056 31.6639C34.0318 31.1578 34.1747 30.7065 34.2421 30.2553C34.2739 30.0396 34.2937 29.6433 34.2778 29.5491C34.2739 29.5334 34.2739 29.506 34.2699 29.4628C34.262 29.3843 34.258 29.2666 34.2501 29.1489C34.2421 28.9724 34.2263 28.7252 34.2144 28.6035C34.0437 26.8223 33.5834 25.3667 32.7104 23.8247C32.6747 23.7659 32.643 23.707 32.6231 23.6599C32.6152 23.6482 32.6112 23.6364 32.6073 23.6285C32.7303 23.2637 33.2342 21.7374 33.635 19.9915L33.6429 19.9993L33.7025 20.0778C33.8056 20.2151 34.0794 20.6231 34.2025 20.8193C34.762 21.7217 35.1985 22.6908 35.508 23.7031C36.2262 26.1396 36.1667 28.7369 35.3254 31.1381Z" fill="#F00500"/>
<path d="M30.1764 26.4492C30.1645 26.512 29.978 26.7003 29.7915 26.8377C29.2439 27.2339 28.2638 27.6027 27.2678 27.7793C26.7003 27.8813 26.1329 27.897 25.9622 27.8146C25.8511 27.7597 25.8353 27.7165 25.875 27.5753C25.9583 27.281 26.2281 26.9593 26.6487 26.6572C26.863 26.5042 27.732 25.9823 28.1368 25.7626C28.8034 25.4017 29.3431 25.1859 29.7082 25.1349C29.8233 25.1192 29.9621 25.1152 30.0058 25.1349C30.0772 25.1623 30.1566 25.3703 30.1883 25.6214C30.2042 25.7548 30.1963 26.3433 30.1764 26.4492Z" fill="black"/>
<path d="M20.8272 27.7484C20.8033 27.7955 20.6843 27.8465 20.5494 27.8661C20.4145 27.8858 20.0018 27.874 19.7677 27.8465C18.9264 27.7367 18.0336 27.4816 17.3828 27.1678C17.0177 26.9912 16.7558 26.8146 16.5614 26.6224L16.4503 26.5086L16.4384 26.3595C16.4186 26.1006 16.4225 25.6925 16.4543 25.5473C16.4741 25.4257 16.5178 25.308 16.5773 25.2021C16.609 25.1628 16.609 25.1628 16.7519 25.1628C16.9265 25.1628 17.0733 25.1903 17.3114 25.2649C17.7995 25.4139 18.5256 25.7749 19.4105 26.3007C20.1407 26.7322 20.4145 26.9441 20.6248 27.2345C20.7676 27.4149 20.8629 27.67 20.8272 27.7484Z" fill="black"/>
<path d="M26.4417 33.2091C26.4417 33.2208 26.3941 33.4092 26.3345 33.6328C26.275 33.8565 26.2274 34.0369 26.2274 34.0448C26.1838 34.0487 26.1441 34.0526 26.1004 34.0487H25.9734L25.7988 34.4567C25.7036 34.6804 25.6163 34.8883 25.6044 34.9197L25.5806 34.9747L25.4973 34.8413L25.4139 34.7079V33.621L25.3822 33.6289C25.3147 33.6446 24.8346 33.7074 24.6243 33.727C23.7552 33.8133 22.8823 33.7937 22.0172 33.672C21.8783 33.6524 21.7593 33.6367 21.7553 33.6407C21.7513 33.6446 21.7553 33.8957 21.7632 34.2056L21.7751 34.7628L21.7077 34.8648C21.672 34.9197 21.6363 34.9668 21.6363 34.9707C21.6244 34.9825 21.5847 34.9197 21.4934 34.7392C21.3942 34.5509 21.3228 34.3508 21.2712 34.1429L21.2434 34.0291L21.1204 34.0369L20.9974 34.0487L20.9656 33.9035C20.9498 33.8251 20.9299 33.7034 20.922 33.6367L20.9101 33.5112L20.8069 33.4209C20.7474 33.3699 20.6879 33.3189 20.676 33.3111C20.6561 33.2954 20.6482 33.2679 20.6482 33.2444V33.1973L21.1442 33.2012L21.6402 33.2051L21.6561 33.2562L21.672 33.3072L21.8426 33.315C21.9378 33.3189 22.2394 33.3268 22.5093 33.3346L23.0053 33.3464L23.1323 33.1502L23.2632 32.954H23.4299L23.4259 32.546L23.4219 32.138L23.2037 32.0438C22.5013 31.7378 22.0886 31.3886 21.9339 30.9648C21.9021 30.8785 21.9021 30.8471 21.8942 30.4548C21.8902 30.0663 21.8902 30.031 21.918 29.9447C21.9736 29.7485 22.1283 29.5955 22.3267 29.5445C22.3942 29.5249 22.5727 29.5249 23.5092 29.5249L24.6124 29.5288L24.7354 29.5877C24.8822 29.6583 24.9497 29.7093 25.033 29.8192C25.1282 29.9447 25.156 30.0428 25.156 30.2821C25.156 30.6235 25.1322 30.9177 25.0965 31.0355C25.0449 31.1963 24.9655 31.3493 24.8663 31.4867C24.6679 31.7378 24.3068 31.9889 23.9775 32.1026L23.8822 32.138L23.8862 32.5499L23.8902 32.9619L23.9775 32.9697L24.0648 32.9776L24.1838 33.1541L24.2989 33.3307H24.8306C25.1243 33.3307 25.3822 33.3346 25.406 33.3385C25.4457 33.3464 25.4536 33.3425 25.4933 33.2758L25.5409 33.2051H25.9972C26.3385 33.1895 26.4417 33.1973 26.4417 33.2091Z" fill="black"/>
<path d="M24.3514 34.3355C24.276 34.3786 24.2245 34.3982 24.2125 34.3904C24.2006 34.3865 24.1451 34.3394 24.0856 34.2962L23.9784 34.2099L23.8673 34.3276C23.6253 34.5866 23.6173 34.5983 23.5459 34.6022C23.4348 34.614 23.411 34.5944 23.2761 34.3943C23.2046 34.2923 23.1491 34.206 23.1491 34.206C23.1491 34.206 23.0975 34.1981 23.038 34.1942L22.9269 34.1824L22.8753 34.2884L22.8237 34.3943L22.7324 34.3668C22.661 34.3433 22.5896 34.3158 22.5221 34.2844L22.4031 34.2256V34.002L23.4586 34.0059L24.5141 34.0098L24.5181 34.1157C24.5221 34.2413 24.526 34.2374 24.3514 34.3355Z" fill="black"/>
<path d="M34.273 29.55C34.269 29.5343 34.269 29.5069 34.265 29.4637C33.3127 29.3617 30.5945 29.2989 28.0708 31.3587C28.0708 31.3587 27.2573 27.6707 23.4479 27.6707C19.6385 27.6707 18.2258 31.3587 18.2258 31.3587C16.091 29.087 13.2339 29.2518 12.2022 29.4009C12.2022 29.4245 12.1982 29.4519 12.1982 29.4755C12.1665 30.0444 12.1823 30.3151 12.2776 30.6721C12.5752 31.7903 13.4918 33.0223 14.9283 34.2308C17.2814 36.2082 20.4718 37.6364 22.8884 37.8011C25.4081 37.9699 29.1263 36.5142 31.6024 34.3877C31.9913 34.0464 32.3564 33.6854 32.6976 33.3009C32.9436 33.0184 33.3087 32.5319 33.2809 32.5319C33.273 32.5319 33.2809 32.524 33.2968 32.5162C33.3087 32.5083 33.3206 32.4966 33.3127 32.4887C33.3087 32.4848 33.3166 32.473 33.3285 32.4691C33.3405 32.4652 33.3484 32.4573 33.3444 32.4495C33.3405 32.4416 33.3444 32.4338 33.3603 32.4299C33.3722 32.4259 33.3762 32.4142 33.3722 32.4063C33.3682 32.3985 33.3722 32.3906 33.3801 32.3906C33.3881 32.3906 33.396 32.3789 33.396 32.371C33.396 32.3632 33.4039 32.3514 33.4119 32.3514C33.4198 32.3514 33.4278 32.3435 33.4278 32.3357C33.4397 32.3043 33.4595 32.2729 33.4793 32.2455C33.5389 32.1552 33.7769 31.7354 33.8087 31.6648C34.0349 31.1586 34.1777 30.7074 34.2452 30.2562C34.269 30.0405 34.2888 29.6442 34.273 29.55ZM24.3526 34.3367C24.2772 34.3798 24.2256 34.3995 24.2137 34.3916C24.2018 34.3877 24.1463 34.3406 24.0868 34.2975L23.9796 34.2111L23.8685 34.3288C23.6264 34.5878 23.6185 34.5996 23.5471 34.6035C23.436 34.6153 23.4122 34.5956 23.2773 34.3955C23.2058 34.2935 23.1503 34.2072 23.1503 34.2072C23.1503 34.2072 23.0987 34.1994 23.0392 34.1954L22.9281 34.1837L22.8765 34.2896L22.8249 34.3955L22.7336 34.3681C22.6622 34.3445 22.5908 34.3171 22.5233 34.2857L22.4043 34.2268V34.0032L23.4598 34.0071L24.5153 34.011L24.5193 34.117C24.5232 34.2425 24.5272 34.2386 24.3526 34.3367ZM26.3367 33.6305C26.2772 33.8541 26.2295 34.0346 26.2295 34.0424C26.1859 34.0464 26.1462 34.0503 26.1026 34.0464H25.9756L25.805 34.4583C25.7097 34.682 25.6224 34.8899 25.6105 34.9213L25.5867 34.9762L25.5034 34.8428L25.42 34.7094V33.6226L25.3883 33.6305C25.3208 33.6462 24.8407 33.7089 24.6304 33.7285C23.7614 33.8149 22.8884 33.7952 22.0233 33.6736C21.8844 33.654 21.7654 33.6383 21.7614 33.6422C21.7575 33.6462 21.7614 33.8973 21.7694 34.2072L21.7813 34.7644L21.7138 34.8664C21.6781 34.9213 21.6424 34.9684 21.6424 34.9723C21.6305 34.9841 21.5908 34.9213 21.4995 34.7408C21.4003 34.5525 21.3289 34.3524 21.2773 34.1444L21.2495 34.0307L21.1265 34.0385L21.0035 34.0503L20.9718 33.9051C20.9559 33.8266 20.936 33.705 20.9281 33.6383L20.9162 33.5128L20.813 33.4225C20.7535 33.3715 20.694 33.3205 20.6821 33.3127C20.6623 33.297 20.6543 33.2695 20.6543 33.246V33.1989L21.1503 33.2028L21.6463 33.2067L21.6622 33.2577L21.6781 33.3087L21.8487 33.3166C21.944 33.3205 22.2455 33.3283 22.5154 33.3362L23.0114 33.348L23.1384 33.1518L23.2693 32.9556H23.436L23.432 32.5476L23.428 32.1395L23.2098 32.0454C22.5074 31.7393 22.0947 31.3901 21.94 30.9664C21.9082 30.8801 21.9082 30.8487 21.9003 30.4563C21.8963 30.0679 21.8963 30.0326 21.9241 29.9463C21.9797 29.7501 22.1344 29.5971 22.3328 29.5461C22.4003 29.5265 22.5789 29.5265 23.5153 29.5265L24.6185 29.5304L24.7415 29.5892C24.8883 29.6599 24.9558 29.7109 25.0391 29.8207C25.1343 29.9463 25.1621 30.0444 25.1621 30.2837C25.1621 30.6251 25.1383 30.9193 25.1026 31.037C25.051 31.1979 24.9716 31.3509 24.8724 31.4882C24.674 31.7393 24.3129 31.9904 23.9836 32.1042L23.8883 32.1395L23.8923 32.5515L23.8963 32.9635L23.9836 32.9713L24.0709 32.9792L24.1899 33.1557L24.305 33.3323H24.8367C25.1304 33.3323 25.3883 33.3362 25.4121 33.3401C25.4518 33.348 25.4597 33.344 25.4994 33.2773L25.547 33.2067H26.0034C26.3565 33.2067 26.4597 33.2106 26.4597 33.2224C26.4478 33.2185 26.3962 33.4107 26.3367 33.6305Z" fill="white"/>
<path d="M34.2374 29.1491C34.2295 28.9725 34.2136 28.7253 34.2017 28.6037C34.0311 26.8224 33.5708 25.3668 32.6978 23.8249C32.6621 23.766 32.6303 23.7072 32.6105 23.6601C32.6025 23.6483 32.5986 23.6365 32.5946 23.6287C32.7176 23.2638 33.2216 21.7376 33.6223 19.9916C34.166 17.6218 34.5112 14.8518 33.4557 14.02C33.4557 14.02 31.6303 13.8866 29.186 16.2564C28.5233 16.9117 27.9162 17.6218 27.3765 18.3791L27.2059 18.3241C26.2218 18.0063 25.202 17.8101 24.1742 17.7434C23.8647 17.7199 22.71 17.7199 22.333 17.7434C21.1941 17.818 20.3211 17.9867 19.3291 18.328C19.2894 18.3437 19.2537 18.3555 19.218 18.3673C18.6585 17.614 18.0355 16.9077 17.349 16.2604C14.8054 13.8788 12.9126 14.0161 12.9126 14.0161C11.7936 14.8754 12.1746 17.7709 12.7539 20.2192C13.1348 21.8396 13.6031 23.2638 13.7777 23.7778C13.7658 23.8053 13.7499 23.8366 13.734 23.8641C12.8095 25.716 12.3095 27.5012 12.1904 29.4002C13.2261 29.2511 16.0792 29.0824 18.218 31.358C18.218 31.358 19.6307 27.6699 23.4401 27.6699C27.2495 27.6699 28.063 31.358 28.063 31.358C30.5867 29.2982 33.3049 29.3649 34.2572 29.463C34.2533 29.3845 34.2453 29.2668 34.2374 29.1491ZM14.5277 22.2986C14.5277 22.2986 13.0436 18.6302 13.4245 16.535C13.488 16.1819 13.6071 15.8719 13.7936 15.6365C13.7936 15.6365 15.476 15.8013 18.1903 18.7832C18.1903 18.7832 17.6744 19.0304 16.9839 19.5561C16.9839 19.5561 16.98 19.56 16.976 19.56C16.226 20.1289 15.2657 21.0313 14.5277 22.2986ZM20.8251 27.7484C20.8013 27.7955 20.6822 27.8465 20.5473 27.8661C20.4124 27.8857 19.9997 27.8739 19.7656 27.8465C18.9244 27.7366 18.0315 27.4816 17.3808 27.1677C17.0157 26.9911 16.7538 26.8146 16.5593 26.6223L16.4482 26.5086L16.4363 26.3595C16.4165 26.1005 16.4205 25.6925 16.4522 25.5473C16.4721 25.4257 16.5157 25.308 16.5752 25.202C16.607 25.1628 16.607 25.1628 16.7498 25.1628C16.9244 25.1628 17.0712 25.1903 17.3093 25.2648C17.7974 25.4139 18.5236 25.7749 19.4085 26.3006C20.1386 26.7322 20.4124 26.9441 20.6227 27.2344C20.7656 27.4149 20.8608 27.6699 20.8251 27.7484ZM30.174 26.4497C30.1621 26.5125 29.9756 26.7008 29.7891 26.8381C29.2415 27.2344 28.2614 27.6032 27.2654 27.7798C26.6979 27.8818 26.1305 27.8975 25.9599 27.8151C25.8488 27.7602 25.8329 27.717 25.8726 27.5757C25.9559 27.2815 26.2257 26.9598 26.6464 26.6576C26.8606 26.5046 27.7297 25.9828 28.1344 25.7631C28.8011 25.4021 29.3407 25.1863 29.7058 25.1353C29.8209 25.1196 29.9598 25.1157 30.0034 25.1353C30.0748 25.1628 30.1542 25.3707 30.1859 25.6218C30.2018 25.7552 30.1939 26.3438 30.174 26.4497ZM29.5153 19.5561L29.5074 19.5522C28.8407 19.0264 28.3408 18.7793 28.3408 18.7793C30.9637 15.7974 32.5867 15.6326 32.5867 15.6326C32.7652 15.8719 32.8803 16.178 32.9438 16.5311C33.3128 18.6262 31.8803 22.2986 31.8803 22.2986C31.2811 21.2432 30.4756 20.3094 29.5153 19.5561Z" fill="#FFA409"/>
<path d="M32.949 16.5315C32.6395 16.4923 31.1753 16.4845 29.5166 19.5566L29.5087 19.5526C28.842 19.0269 28.342 18.7797 28.342 18.7797C30.965 15.7978 32.5879 15.6331 32.5879 15.6331C32.7705 15.8724 32.8856 16.1784 32.949 16.5315Z" fill="#FF9300"/>
<path d="M31.8839 22.2983C31.2807 21.2389 30.4792 20.3091 29.5149 19.5558C31.1736 16.4837 32.6338 16.4915 32.9473 16.5307C33.3164 18.6298 31.8839 22.2983 31.8839 22.2983Z" fill="#FF8300"/>
<path d="M33.0124 16.5438C32.9926 16.5398 32.9727 16.5359 32.9529 16.532L33.0124 16.5438Z" fill="#FF8300"/>
<path d="M18.1889 18.7797C18.1889 18.7797 17.673 19.0269 16.9826 19.5526C16.9826 19.5526 16.9786 19.5566 16.9746 19.5566C15.2564 16.4805 13.7446 16.4923 13.4192 16.5315C13.4827 16.1784 13.6017 15.8685 13.7882 15.6331C13.7922 15.6331 15.4747 15.7978 18.1889 18.7797Z" fill="#FF9300"/>
<path d="M16.9781 19.5558C16.2241 20.1286 15.2639 21.0271 14.5258 22.2983C14.5258 22.2983 13.0417 18.6298 13.4226 16.5307C13.7441 16.4915 15.2599 16.4837 16.9781 19.5558Z" fill="#FF8300"/>
<path d="M13.4236 16.532C13.4038 16.5359 13.3799 16.5398 13.3601 16.5438L13.4236 16.532Z" fill="#FF8300"/>
<path d="M27.8721 24.3346C27.8721 24.3346 26.6023 24.413 26.761 23.4322C26.9198 22.4513 27.9118 22.3336 28.1896 22.3728C28.4673 22.412 29.5784 22.8044 29.38 23.6283C29.1816 24.4523 28.9038 24.2953 28.7451 24.3346C28.5864 24.3738 27.8721 24.3346 27.8721 24.3346Z" fill="white"/>
<path d="M18.5081 24.3346C18.5081 24.3346 17.2383 24.413 17.397 23.4322C17.5558 22.4513 18.5478 22.3336 18.8256 22.3728C19.1033 22.412 20.2144 22.8044 20.016 23.6283C19.8176 24.4523 19.5398 24.2953 19.3811 24.3346C19.2224 24.3738 18.5081 24.3346 18.5081 24.3346Z" fill="white"/>
</g>
<defs>
<clipPath id="clip0_1_11858">
<rect width="25.4635" height="25.4635" fill="white" transform="translate(10.5364 14.0166)"/>
</clipPath>
</defs>
</svg>
