<svg width="224" height="54" viewBox="0 0 224 54" fill="none" xmlns="http://www.w3.org/2000/svg">
<g filter="url(#filter0_d_1_4081)">
<rect width="224" height="52" rx="12" fill="black" shape-rendering="crispEdges"/>
<rect x="0.7" y="0.7" width="222.6" height="50.6" rx="11.3" stroke="white" stroke-width="1.4" shape-rendering="crispEdges"/>
<path d="M57.1658 20.56H58.6058V30.72H64.6058V32H57.1658V20.56ZM70.8251 25.92C70.8251 25.28 70.4731 24.736 69.1611 24.736C67.6091 24.736 67.0971 25.184 67.0171 26.368H65.7371C65.8171 24.8 66.7931 23.616 69.1611 23.616C70.7131 23.616 72.1051 24.224 72.1051 26.192V30.16C72.1051 30.8 72.2171 31.152 73.0331 31.056V31.952C72.6971 32.064 72.5211 32.08 72.2811 32.08C71.5131 32.08 71.0491 31.872 70.8251 30.976H70.7931C70.2811 31.744 69.3691 32.224 68.0251 32.224C66.3771 32.224 65.3371 31.28 65.3371 29.904C65.3371 28.048 66.7131 27.568 68.8251 27.168C70.2011 26.912 70.8251 26.736 70.8251 25.92ZM68.1531 31.104C69.6731 31.104 70.8251 30.416 70.8251 28.848V27.488C70.5851 27.728 69.8011 27.952 68.9371 28.128C67.3531 28.464 66.6171 28.864 66.6171 29.84C66.6171 30.64 67.0971 31.104 68.1531 31.104ZM79.3974 23.84H80.6774V32H79.3974V31.024H79.3654C78.9334 31.6 78.0694 32.224 76.6774 32.224C75.1894 32.224 73.9414 31.408 73.9414 29.536V23.84H75.2214V29.216C75.2214 30.272 75.7174 31.104 76.9974 31.104C78.4374 31.104 79.3974 30.192 79.3974 28.928V23.84ZM86.4425 23.616C87.9305 23.616 89.1785 24.432 89.1785 26.304V32H87.8985V26.624C87.8985 25.568 87.4025 24.736 86.1225 24.736C84.6825 24.736 83.7225 25.648 83.7225 26.912V32H82.4425V23.84H83.7225V24.816H83.7545C84.1865 24.24 85.0505 23.616 86.4425 23.616ZM96.6876 26.784C96.6236 25.888 96.0156 24.736 94.3836 24.736C92.4476 24.736 91.7116 26.384 91.7116 27.92C91.7116 29.456 92.4476 31.104 94.3836 31.104C96.0316 31.104 96.6236 29.968 96.6876 28.992H97.9676C97.8556 30.848 96.3996 32.224 94.3836 32.224C91.9996 32.224 90.4316 30.48 90.4316 27.92C90.4316 25.36 91.9996 23.616 94.3836 23.616C96.3996 23.616 97.7756 24.96 97.9676 26.784H96.6876ZM103.193 23.616C104.681 23.616 105.929 24.432 105.929 26.304V32H104.649V26.624C104.649 25.568 104.153 24.736 102.873 24.736C101.433 24.736 100.473 25.648 100.473 26.912V32H99.1925V20.56H100.473V24.816H100.505C100.937 24.24 101.801 23.616 103.193 23.616ZM115.841 25.92C115.841 25.28 115.489 24.736 114.177 24.736C112.625 24.736 112.113 25.184 112.033 26.368H110.753C110.833 24.8 111.809 23.616 114.177 23.616C115.729 23.616 117.121 24.224 117.121 26.192V30.16C117.121 30.8 117.233 31.152 118.049 31.056V31.952C117.713 32.064 117.537 32.08 117.297 32.08C116.529 32.08 116.065 31.872 115.841 30.976H115.809C115.297 31.744 114.385 32.224 113.041 32.224C111.393 32.224 110.353 31.28 110.353 29.904C110.353 28.048 111.729 27.568 113.841 27.168C115.217 26.912 115.841 26.736 115.841 25.92ZM113.169 31.104C114.689 31.104 115.841 30.416 115.841 28.848V27.488C115.601 27.728 114.817 27.952 113.953 28.128C112.369 28.464 111.633 28.864 111.633 29.84C111.633 30.64 112.113 31.104 113.169 31.104ZM122.909 23.616C124.925 23.616 126.557 25.232 126.557 27.92C126.557 30.608 124.925 32.224 122.909 32.224C121.565 32.224 120.797 31.648 120.317 30.944H120.285V34.752H119.005V23.84H120.285V24.848H120.317C120.797 24.224 121.565 23.616 122.909 23.616ZM122.749 31.104C124.429 31.104 125.277 29.52 125.277 27.92C125.277 26.32 124.429 24.736 122.749 24.736C121.229 24.736 120.285 26 120.285 27.92C120.285 29.84 121.229 31.104 122.749 31.104ZM131.8 23.616C133.816 23.616 135.448 25.232 135.448 27.92C135.448 30.608 133.816 32.224 131.8 32.224C130.456 32.224 129.688 31.648 129.208 30.944H129.176V34.752H127.896V23.84H129.176V24.848H129.208C129.688 24.224 130.456 23.616 131.8 23.616ZM131.64 31.104C133.32 31.104 134.168 29.52 134.168 27.92C134.168 26.32 133.32 24.736 131.64 24.736C130.12 24.736 129.176 26 129.176 27.92C129.176 29.84 130.12 31.104 131.64 31.104Z" fill="white"/>
<path d="M155.801 20.4895L157.287 19.0039C158.96 17.3312 161.149 16.6374 163.467 16.524C164.369 16.4799 164.819 16.4578 165.181 16.8193C165.542 17.1807 165.52 17.6314 165.476 18.5329C165.363 20.8505 164.669 23.0404 162.996 24.7131L161.51 26.1987C160.287 27.4221 159.939 27.77 160.196 29.097C160.45 30.1107 160.695 31.0923 159.958 31.8294C159.064 32.7235 158.248 32.7235 157.354 31.8294L150.171 24.646C149.276 23.7519 149.276 22.9363 150.171 22.0422C150.908 21.3051 151.889 21.5504 152.903 21.8039C154.23 22.0607 154.578 21.7129 155.801 20.4895Z" stroke="white" stroke-width="1.5" stroke-linejoin="round"/>
<path d="M160.996 21H161.005" stroke="white" stroke-width="2" stroke-linecap="round" stroke-linejoin="round"/>
<path d="M146.5 35.5L151.5 30.5" stroke="white" stroke-width="1.5" stroke-linecap="round"/>
<path d="M152.5 35.5L154.5 33.5" stroke="white" stroke-width="1.5" stroke-linecap="round"/>
<path d="M146.5 29.5L148.5 27.5" stroke="white" stroke-width="1.5" stroke-linecap="round"/>
</g>
<defs>
<filter id="filter0_d_1_4081" x="0" y="0" width="224" height="54" filterUnits="userSpaceOnUse" color-interpolation-filters="sRGB">
<feFlood flood-opacity="0" result="BackgroundImageFix"/>
<feColorMatrix in="SourceAlpha" type="matrix" values="0 0 0 0 0 0 0 0 0 0 0 0 0 0 0 0 0 0 127 0" result="hardAlpha"/>
<feOffset dy="2"/>
<feComposite in2="hardAlpha" operator="out"/>
<feColorMatrix type="matrix" values="0 0 0 0 1 0 0 0 0 1 0 0 0 0 1 0 0 0 1 0"/>
<feBlend mode="normal" in2="BackgroundImageFix" result="effect1_dropShadow_1_4081"/>
<feBlend mode="normal" in="SourceGraphic" in2="effect1_dropShadow_1_4081" result="shape"/>
</filter>
</defs>
</svg>
