<svg width="61" height="54" viewBox="0 0 61 54" fill="none" xmlns="http://www.w3.org/2000/svg">
<g clip-path="url(#clip0_1_587)">
<path d="M10.7524 21.5303C9.06588 23.1494 5.05289 25.0988 3.87016 28.2847C2.68343 31.476 6.6695 34.0149 6.6695 34.0149C6.6695 34.0149 5.88458 36.9055 6.83937 40.8529C7.93731 45.3936 11.3615 50.5943 14.945 51.2742C18.1852 51.893 26.0851 51.2512 26.0851 51.2512C26.0851 51.2512 33.0369 50.778 39.1184 48.4065C43.5803 46.6687 50.6795 41.9309 52.4675 39.9536C54.2555 37.9763 57.0996 34.5612 57.6944 31.3526C58.0791 29.2529 57.1627 26.4037 55.9304 24.9231C55.1901 24.0349 53.8478 22.7818 52.8311 22.3515C53.6403 21.6881 54.7763 20.2487 55.2841 19.2119C55.545 18.6761 56.4746 16.0485 55.9331 14.3453C55.0819 11.6616 51.5634 9.02514 48.6614 7.88341C47.3946 7.3838 45.3101 7.14318 45.3101 7.14318C45.3101 7.14318 43.0854 4.17734 39.9142 2.96428C37.4841 2.03095 32.6314 1.65345 28.4613 7.831C28.4613 7.831 23.5168 4.42922 18.5469 7.13313C16.5425 8.22545 14.7693 10.2762 12.893 13.836C11.0115 17.3919 11.039 19.9157 10.7114 21.5407" fill="white"/>
<path d="M12.1046 46.0264C14.484 48.405 14.2914 50.1198 22.9551 49.0662C31.6141 48.0132 35.3311 47.5759 37.3643 46.5551C41.3339 44.5645 50.2006 40.1629 51.0409 38.5286C51.8852 36.8889 54.0883 35.1514 55.3649 31.5517C56.328 28.8252 54.7074 26.6484 53.2348 25.5453C51.7622 24.4422 50.0673 22.9924 49.6066 22.4901C49.6066 22.4901 50.8925 22.0345 51.4823 20.7035C52.0714 19.3678 51.1909 19.6166 52.3789 18.8963C54.364 17.6982 53.7003 16.955 53.6124 15.8731C53.5244 14.7912 52.8456 12.3996 51.6579 11.9598C50.4655 11.5207 51.2849 11.3417 49.4161 10.6138C47.5427 9.88669 48.0655 9.1638 45.9461 9.42314C43.8222 9.68311 44.8382 9.42507 44.8382 9.42507C44.8382 9.42507 45.0007 9.98741 43.3511 8.31922C41.7022 6.65567 39.6673 4.89446 37.3885 4.92113C35.1098 4.94781 34.31 4.75633 32.3139 6.45583C30.3131 8.15598 28.9212 10.6115 28.9212 10.6115C28.9212 10.6115 26.1685 8.50135 22.7086 8.51176C19.248 8.51755 17.1633 11.7289 15.9399 13.6283C14.7125 15.533 13.425 18.2335 13.1776 20.6444C12.9301 23.0553 13.0651 23.5554 13.0651 23.5554L12.5331 23.1855L10.837 24.3249C10.837 24.3249 6.59259 26.99 6.56182 28.989C6.53105 30.988 7.75549 32.3093 8.65502 33.0529C8.65502 33.0529 9.00321 32.5003 8.91562 34.2242C8.82277 35.9441 8.29178 42.2138 12.1046 46.0264Z" fill="#A76100"/>
<path d="M17.7214 20.2203L21.3402 31.3785C21.3402 31.3785 19.464 35.4853 21.4699 39.8395C23.4758 44.1936 25.6615 44.8258 27.7989 44.663C29.9415 44.5042 49.1896 40.5617 50.8744 38.6222C52.5592 36.6827 51.8472 36.9224 51.8472 36.9224C51.8472 36.9224 56.8357 30.0802 53.0853 25.7969L48.4953 23.8364L48.386 23.0781C48.386 23.0781 51.3325 22.5255 51.6957 19.4149C51.6957 19.4149 54.2565 19.2455 53.348 16.249C52.4343 13.2485 53.203 12.9067 51.1029 12.041C51.1029 12.041 49.8892 10.6947 48.6611 10.5435C47.433 10.3922 47.4942 9.05861 43.8566 9.76318C40.2143 10.4684 35.614 11.3057 32.6247 13.7364C32.6148 13.7331 21.992 11.5579 17.7214 20.2203Z" fill="#F5C785"/>
<path d="M38.2842 19.5107C38.2842 19.5107 40.6361 15.5363 45.0147 14.357C49.3979 13.177 53.2537 13.8147 53.7692 14.4745C54.284 15.1297 53.6726 15.7233 53.0074 16.5413C52.3421 17.3593 46.7158 21.6298 39.0398 22.1511L38.5903 21.9348C38.5903 21.9348 37.1736 24.3137 31.7164 25.2975C26.2593 26.2814 23.8779 25.3932 23.8779 25.3932C23.8779 25.3932 24.1536 20.9648 29.6452 19.5471C35.1375 18.134 35.9445 18.0698 36.728 18.2116C37.5161 18.3529 38.2842 19.5107 38.2842 19.5107Z" fill="white"/>
<path d="M51.0766 30.4125C51.0766 30.4125 48.2914 32.5793 42.81 33.6608C37.324 34.7429 36.8903 36.3165 33.1141 34.5125C29.3378 32.7086 27.3326 31.778 26.0627 33.8536C24.7928 35.9292 26.0936 38.0086 28.7508 39.3586C31.4081 40.7086 38.1604 42.003 46.4181 39.1002C54.6758 36.1974 53.9242 34.7826 54.8433 32.9676C55.8071 31.0662 55.9727 29.3269 55.2404 28.2914C54.5081 27.2559 54.2044 25.4304 53.5131 25.6153C52.8212 25.7956 51.1234 27.7087 51.0766 30.4125Z" fill="#DB291E"/>
<path d="M29.4923 35.8468C31.2745 37.2797 34.5721 37.4945 36.7896 37.5706C41.9346 37.7427 46.0209 36.9055 50.361 34.114C51.8117 33.1782 53.8949 30.8112 54.5175 28.6929C54.8185 27.661 54.9169 26.8363 54.1527 25.9798C53.5896 25.3501 52.8199 26.0268 52.3814 26.6768C50.9893 28.7551 51.4168 30.2476 50.8762 30.5674C47.1295 32.7725 44.6114 33.2519 42.1387 33.9231C39.5839 34.615 36.6461 35.539 34.0359 34.9748C32.0916 34.5545 30.7815 32.7829 28.6968 32.7121C27.3374 32.6685 24.6966 33.9335 25.4231 35.8846C26.1497 37.8358 29.2771 40.064 31.1778 40.4762C35.5963 41.4323 40.6068 40.1847 44.928 39.2727C46.8934 38.8554 49.1368 38.5035 50.8774 37.4475C53.1011 36.0986 54.0328 34.5459 55.0847 32.1891C56.1419 29.8364 55.1099 27.6538 54.9318 27.7303" stroke="black" stroke-width="0.785346" stroke-miterlimit="10" stroke-linecap="round" stroke-linejoin="round"/>
<path d="M52.2607 36.46C51.9188 37.0919 50.8024 38.571 50.2037 39.0167C48.7847 40.0801 47.8736 40.1068 46.1541 40.5986C42.9925 41.5063 41.0827 42.0197 37.8898 42.8374C35.23 43.5203 28.4107 45.4324 25.8959 44.5343C22.9248 43.4729 21.6567 41.4597 20.8119 38.0017C20.4005 36.3183 20.6604 32.0147 21.8015 31.1594" stroke="black" stroke-width="0.785346" stroke-miterlimit="10" stroke-linecap="round" stroke-linejoin="round"/>
<path d="M21.3465 31.5331C20.7221 30.7327 18.5798 22.9973 17.6602 20.3984" stroke="black" stroke-width="0.785346" stroke-miterlimit="10" stroke-linecap="round" stroke-linejoin="round"/>
<path d="M17.673 20.4863C17.6601 19.743 19.4125 17.4735 19.889 16.8938C22.8622 13.2863 31.6499 11.7299 34.5307 15.6238" stroke="black" stroke-width="0.785346" stroke-miterlimit="10" stroke-linecap="round" stroke-linejoin="round"/>
<path d="M32.5185 13.9162C32.698 13.5425 34.8342 12.3801 34.8342 12.3801C34.8342 12.3801 40.2853 9.36933 43.3801 10.1308" stroke="black" stroke-width="0.785346" stroke-miterlimit="10" stroke-linecap="round" stroke-linejoin="round"/>
<path d="M43.4803 10.0837C43.4803 10.0837 44.5067 9.59312 44.8201 9.54046C46.3594 9.28097 48.6969 10.2271 49.9096 11.0878" stroke="black" stroke-width="0.785346" stroke-miterlimit="10" stroke-linecap="round" stroke-linejoin="round"/>
<path d="M37.2997 17.1329C37.7335 16.6203 38.8252 14.791 41.3801 13.2454C43.9351 11.6999 46.3288 11.3791 47.8269 11.2998C48.5149 11.2615 50.5496 11.1412 51.4763 11.8763C52.5616 12.7358 53.0159 13.8756 53.0159 13.8756" stroke="black" stroke-width="0.785346" stroke-miterlimit="10" stroke-linecap="round" stroke-linejoin="round"/>
<path d="M38.4897 19.5719C38.4897 19.5719 39.2487 18.0997 40.6472 16.8882C42.0457 15.6767 42.4497 15.4606 44.0745 14.7272C46.4945 13.6388 49.2128 13.0045 51.8517 13.6402C52.1929 13.7205 53.8873 14.312 53.9275 14.7403C54.0014 15.5836 52.3257 17.0079 51.2302 17.8522C47.8192 20.4731 43.1427 21.9199 38.9186 22.031" stroke="black" stroke-width="0.785346" stroke-miterlimit="10" stroke-linecap="round" stroke-linejoin="round"/>
<path d="M53.3987 16.0346C53.3744 15.9955 54.1758 17.2242 53.4316 18.3927C52.885 19.2509 52.0877 19.6579 51.0293 19.7804" stroke="black" stroke-width="0.785346" stroke-miterlimit="10" stroke-linecap="round" stroke-linejoin="round"/>
<path d="M51.8541 19.6713C51.9118 19.4747 52.0124 20.9558 49.3114 22.6393C46.6052 24.3189 42.7173 25.3975 41.0242 26.046" stroke="black" stroke-width="0.785346" stroke-miterlimit="10" stroke-linecap="round" stroke-linejoin="round"/>
<path d="M48.2363 23.3958C48.4816 23.6355 48.6519 24.0836 48.6618 24.0869C50.0544 24.5079 51.6075 24.7935 52.8309 25.6622" stroke="black" stroke-width="0.785346" stroke-miterlimit="10" stroke-linecap="round" stroke-linejoin="round"/>
<path d="M49.656 22.5114C50.8072 23.8145 52.2086 25.017 53.0869 25.6409" stroke="black" stroke-width="0.785346" stroke-miterlimit="10" stroke-linecap="round" stroke-linejoin="round"/>
<path d="M23.6241 25.4753C23.4532 25.4328 24.0733 22.8857 26.7004 21.0425C29.0092 19.4225 30.3468 19.205 33.1414 18.645C34.3159 18.4075 36.3167 17.9382 37.1262 18.3028C38.2377 18.805 38.6192 20.3746 38.7617 21.2368C39.0102 22.7304 35.7064 24.0774 34.2523 24.6128C33.4039 24.9232 30.7409 25.7197 28.0886 25.9441C25.4363 26.1685 25.3335 25.6969 23.6431 25.5104C23.5665 25.5021 23.0469 25.8378 22.5848 25.9063C21.734 26.0284 20.7487 25.9285 20.7487 25.9285" stroke="black" stroke-width="0.785346" stroke-miterlimit="10" stroke-linecap="round" stroke-linejoin="round"/>
<path d="M38.7774 22.0738C39.529 23.3519 38.0146 25.1594 35.969 25.8849C31.0559 27.6331 26.1668 27.9491 25.2034 27.7" stroke="black" stroke-width="0.785346" stroke-miterlimit="10" stroke-linecap="round" stroke-linejoin="round"/>
<path d="M36.2008 25.8484C36.2008 25.8484 33.3645 29.4227 31.6287 30.445" stroke="black" stroke-width="0.785346" stroke-miterlimit="10" stroke-linecap="round" stroke-linejoin="round"/>
<path d="M37.4193 18.2388C37.472 17.1846 36.9535 16.3319 35.0555 15.7684C33.1575 15.205 29.8313 16.2533 29.8313 16.2533C29.8313 16.2533 26.8835 16.9334 24.5044 18.865C22.1253 20.7965 20.3196 23.9788 20.3196 23.9788" stroke="black" stroke-width="0.785346" stroke-miterlimit="10" stroke-linecap="round" stroke-linejoin="round"/>
<path d="M44.418 26.0115C45.5575 26.1702 46.4455 26.557 46.7337 26.937" stroke="black" stroke-width="0.785346" stroke-miterlimit="10" stroke-linecap="round" stroke-linejoin="round"/>
<path d="M43.2578 28.6333C43.5904 28.8562 44.2204 29.4578 44.3056 29.8705" stroke="black" stroke-width="0.785346" stroke-miterlimit="10" stroke-linecap="round" stroke-linejoin="round"/>
<path d="M40.8594 31.2227C40.6622 31.0236 40.4445 30.1293 40.4809 29.8461" stroke="black" stroke-width="0.785346" stroke-miterlimit="10" stroke-linecap="round" stroke-linejoin="round"/>
<path d="M42.3258 15.756C42.159 15.812 42.1608 16.406 42.1614 16.5473C42.1603 17.3256 42.2869 17.9353 42.531 18.6797C43.2389 20.8032 44.8028 21.3373 46.6823 20.399C47.2207 20.1313 47.9483 19.7999 48.2898 19.2671C49.3242 17.6719 48.7886 14.6099 46.8355 13.955C46.3857 13.8048 45.7251 14.2119 45.3437 14.3871C44.2882 14.8722 43.1404 15.2004 42.3119 16.0314" fill="black"/>
<path d="M42.3258 15.756C42.159 15.812 42.1608 16.406 42.1614 16.5473C42.1603 17.3256 42.2869 17.9353 42.531 18.6797C43.2389 20.8032 44.8028 21.3373 46.6823 20.399C47.2207 20.1313 47.9483 19.7999 48.2898 19.2671C49.3242 17.6719 48.7886 14.6099 46.8355 13.955C46.3857 13.8048 45.725 14.2119 45.3437 14.3871C44.2882 14.8722 43.1404 15.2004 42.3119 16.0314" stroke="black" stroke-width="0.589012" stroke-miterlimit="10" stroke-linecap="round" stroke-linejoin="round"/>
<path d="M43.0668 15.8989C42.7737 15.9959 42.5924 16.186 42.5112 16.5886C42.4055 17.1219 42.5418 17.9048 43.2824 17.7696C43.8901 17.6622 44.2102 16.6325 43.8909 16.1295C43.5818 15.7005 43.4313 15.8062 43.0668 15.8989Z" fill="white"/>
<path d="M27.0367 21.0903C27.0643 21.1195 26.7166 21.7098 26.6938 21.7837C26.5114 22.4785 26.4806 22.9732 26.7495 23.6576C27.7319 26.1299 29.0327 25.8514 31.2282 25.1524C32.001 24.9091 32.9396 24.6711 33.2905 23.8305C33.9001 22.3694 33.2327 20.8817 32.183 19.9041C31.9232 19.6617 31.5334 19.3996 31.1526 19.4427C30.1921 19.5563 29.2425 19.8853 28.3425 20.1981C28.0275 20.3076 27.7636 20.7873 27.4572 20.8909C27.3453 20.9346 27.0314 21.0863 27.0367 21.0903Z" fill="black" stroke="black" stroke-width="0.589012" stroke-miterlimit="10" stroke-linecap="round" stroke-linejoin="round"/>
<path d="M28.2678 20.7131C27.3455 20.5904 26.7139 22.0969 27.7033 22.432C28.787 22.8013 29.5454 20.8811 28.4362 20.737" fill="white"/>
<path d="M32.2827 13.6939C32.3671 13.4512 30.7816 11.8025 28.8148 10.5694C27.2346 9.57546 25.9998 9.03372 24.7277 8.83666C20.523 8.2 18.7952 9.622 16.7324 12.4106C14.3278 15.6614 12.5525 19.3723 13.068 23.4511" stroke="black" stroke-width="0.785346" stroke-miterlimit="10" stroke-linecap="round" stroke-linejoin="round"/>
<path d="M28.9907 10.4321C28.9907 10.4321 29.8669 9.02386 32.0333 6.81515C34.1459 4.66101 37.7566 4.06862 40.4284 5.96834C42.9014 7.72572 44.4274 9.52412 44.4274 9.52412" stroke="black" stroke-width="0.785346" stroke-miterlimit="10" stroke-linecap="round" stroke-linejoin="round"/>
<path d="M21.1186 49.2536C21.1186 49.2536 25.6089 48.8842 26.8727 48.7475C33.3433 48.0342 39.6327 46.28 45.0416 42.5536C45.0416 42.5536 48.9041 39.8892 49.3747 39.5744" stroke="black" stroke-width="0.785346" stroke-miterlimit="10" stroke-linecap="round" stroke-linejoin="round"/>
<path d="M15.4724 34.9892C14.8962 35.5638 13.4499 35.5747 11.9281 34.9688C10.815 34.5234 9.53282 33.5355 9.16483 33.2609C7.60928 32.1032 6.41899 31.0979 6.42375 29.0129C6.4258 27.0791 11.9102 23.0451 12.5996 23.2566C14.0476 23.7029 14.5416 25.0966 14.9754 26.3949" stroke="black" stroke-width="0.785346" stroke-miterlimit="10" stroke-linecap="round" stroke-linejoin="round"/>
<path d="M10.1893 27.2908C11.0463 27.0075 12.3996 26.6652 13.2353 27.0828C14.1376 27.5384 14.3792 31.1362 14.248 32.0314" stroke="black" stroke-width="0.785346" stroke-miterlimit="10" stroke-linecap="round" stroke-linejoin="round"/>
<path d="M8.97989 33.2248C8.78713 33.6051 8.20984 38.5137 9.92214 42.7904C11.4046 46.4953 13.4579 47.8767 15.2062 48.7909C16.1974 49.3097 19.9423 49.3825 21.1295 49.2376" stroke="black" stroke-width="0.785346" stroke-miterlimit="10" stroke-linecap="round" stroke-linejoin="round"/>
<path d="M26.5051 41.8893C24.3808 40.9845 24.0494 40.5304 23.3212 38.6361C22.5924 36.7371 23.1501 34.7975 23.5905 34.2982" stroke="black" stroke-width="0.785346" stroke-miterlimit="10" stroke-linecap="round" stroke-linejoin="round"/>
</g>
<defs>
<clipPath id="clip0_1_587">
<rect width="53.9372" height="47.0094" fill="white" transform="translate(0.568359 7.3877) rotate(-7.854)"/>
</clipPath>
</defs>
</svg>
